G04*
G04 #@! TF.GenerationSoftware,Altium Limited,Altium Designer,22.5.1 (42)*
G04*
G04 Layer_Color=32896*
%FSLAX44Y44*%
%MOMM*%
G71*
G04*
G04 #@! TF.SameCoordinates,51E17F9E-36CB-467A-9023-B1406ADC4060*
G04*
G04*
G04 #@! TF.FilePolarity,Positive*
G04*
G01*
G75*
%ADD14C,0.1000*%
G36*
X15010Y-89100D02*
X11200D01*
Y-92910D01*
X15010Y-89100D01*
D02*
G37*
G36*
X12900Y162790D02*
Y166600D01*
X16710D01*
X12900Y162790D01*
D02*
G37*
G36*
X368500Y188190D02*
Y192000D01*
X372310D01*
X368500Y188190D01*
D02*
G37*
D14*
X12900Y162790D02*
Y166600D01*
X16710D01*
X12900Y162790D02*
X16710Y166600D01*
X12900Y160250D02*
X19250Y166600D01*
X12900Y-14200D02*
Y160250D01*
X37900Y-14200D02*
Y166600D01*
X19250D02*
X37900D01*
X12900Y-14200D02*
X37900D01*
X11200Y-89100D02*
X15010D01*
X11200Y-92910D02*
Y-89100D01*
Y-92910D02*
X15010Y-89100D01*
X11200Y-95450D02*
X17550Y-89100D01*
X115800D01*
X11200Y-114100D02*
X115800D01*
X11200D02*
Y-95450D01*
X115800Y-114100D02*
Y-89100D01*
X374850Y192000D02*
X393500D01*
Y-115800D02*
Y192000D01*
X368500Y-115800D02*
Y185650D01*
X374850Y192000D01*
X368500Y188190D02*
X372310Y192000D01*
X368500D02*
X372310D01*
X368500Y188190D02*
Y192000D01*
Y-115800D02*
X393500D01*
X19332Y167751D02*
Y172749D01*
X16833D01*
X16000Y171916D01*
Y170250D01*
X16833Y169417D01*
X19332D01*
X14334Y167751D02*
X12668D01*
X13501D01*
Y172749D01*
X14334Y171916D01*
X366565Y187101D02*
Y192099D01*
X364066D01*
X363233Y191266D01*
Y189600D01*
X364066Y188767D01*
X366565D01*
X358235Y187101D02*
X361567D01*
X358235Y190433D01*
Y191266D01*
X359068Y192099D01*
X360734D01*
X361567Y191266D01*
X19165Y-87749D02*
Y-82751D01*
X16666D01*
X15833Y-83584D01*
Y-85250D01*
X16666Y-86083D01*
X19165D01*
X14167Y-83584D02*
X13334Y-82751D01*
X11668D01*
X10835Y-83584D01*
Y-84417D01*
X11668Y-85250D01*
X12501D01*
X11668D01*
X10835Y-86083D01*
Y-86916D01*
X11668Y-87749D01*
X13334D01*
X14167Y-86916D01*
M02*
