G04*
G04 #@! TF.GenerationSoftware,Altium Limited,Altium Designer,22.6.1 (34)*
G04*
G04 Layer_Color=2752767*
%FSLAX44Y44*%
%MOMM*%
G71*
G04*
G04 #@! TF.SameCoordinates,1BA94AFE-F389-4845-A448-9423F8A8FC82*
G04*
G04*
G04 #@! TF.FilePolarity,Positive*
G04*
G01*
G75*
%ADD46C,0.0677*%
%ADD47C,0.0508*%
D46*
X34857Y49325D02*
G03*
X34857Y49325I-2032J0D01*
G01*
Y23925D02*
G03*
X34857Y23925I-2032J0D01*
G01*
Y-1475D02*
G03*
X34857Y-1475I-2032J0D01*
G01*
Y-26875D02*
G03*
X34857Y-26875I-2032J0D01*
G01*
Y-52275D02*
G03*
X34857Y-52275I-2032J0D01*
G01*
Y-77675D02*
G03*
X34857Y-77675I-2032J0D01*
G01*
Y-103075D02*
G03*
X34857Y-103075I-2032J0D01*
G01*
Y-128475D02*
G03*
X34857Y-128475I-2032J0D01*
G01*
Y-153875D02*
G03*
X34857Y-153875I-2032J0D01*
G01*
Y-179275D02*
G03*
X34857Y-179275I-2032J0D01*
G01*
Y-204675D02*
G03*
X34857Y-204675I-2032J0D01*
G01*
Y-230075D02*
G03*
X34857Y-230075I-2032J0D01*
G01*
X-320743Y23925D02*
G03*
X-320743Y23925I-2032J0D01*
G01*
Y-1475D02*
G03*
X-320743Y-1475I-2032J0D01*
G01*
Y-26875D02*
G03*
X-320743Y-26875I-2032J0D01*
G01*
Y-52275D02*
G03*
X-320743Y-52275I-2032J0D01*
G01*
Y-77675D02*
G03*
X-320743Y-77675I-2032J0D01*
G01*
Y-103075D02*
G03*
X-320743Y-103075I-2032J0D01*
G01*
Y-128475D02*
G03*
X-320743Y-128475I-2032J0D01*
G01*
Y-230075D02*
G03*
X-320743Y-230075I-2032J0D01*
G01*
X-295343D02*
G03*
X-295343Y-230075I-2032J0D01*
G01*
X-269943D02*
G03*
X-269943Y-230075I-2032J0D01*
G01*
X-244543D02*
G03*
X-244543Y-230075I-2032J0D01*
G01*
D47*
X56193Y21893D02*
Y25957D01*
X60257D01*
Y21893D01*
X56193D01*
Y47293D02*
Y51357D01*
X60257D01*
Y47293D01*
X56193D01*
Y-130507D02*
Y-126443D01*
X60257D01*
Y-130507D01*
X56193D01*
Y-181307D02*
Y-177243D01*
X60257D01*
Y-181307D01*
X56193D01*
Y-155907D02*
Y-151843D01*
X60257D01*
Y-155907D01*
X56193D01*
Y-3507D02*
Y557D01*
X60257D01*
Y-3507D01*
X56193D01*
Y-28907D02*
Y-24843D01*
X60257D01*
Y-28907D01*
X56193D01*
Y-79707D02*
Y-75643D01*
X60257D01*
Y-79707D01*
X56193D01*
Y-54307D02*
Y-50243D01*
X60257D01*
Y-54307D01*
X56193D01*
Y-105107D02*
Y-101043D01*
X60257D01*
Y-105107D01*
X56193D01*
Y-232107D02*
Y-228043D01*
X60257D01*
Y-232107D01*
X56193D01*
Y-206707D02*
Y-202643D01*
X60257D01*
Y-206707D01*
X56193D01*
X-350207Y-28907D02*
Y-24843D01*
X-346143D01*
Y-28907D01*
X-350207D01*
Y-181307D02*
Y-177243D01*
X-346143D01*
Y-181307D01*
X-350207D01*
Y-105107D02*
Y-101043D01*
X-346143D01*
Y-105107D01*
X-350207D01*
Y-79707D02*
Y-75643D01*
X-346143D01*
Y-79707D01*
X-350207D01*
Y-54307D02*
Y-50243D01*
X-346143D01*
Y-54307D01*
X-350207D01*
Y-155907D02*
Y-151843D01*
X-346143D01*
Y-155907D01*
X-350207D01*
Y-130507D02*
Y-126443D01*
X-346143D01*
Y-130507D01*
X-350207D01*
Y-3507D02*
Y557D01*
X-346143D01*
Y-3507D01*
X-350207D01*
X19775Y-41807D02*
X20791Y-40791D01*
X21807D01*
X20791Y-39775D01*
X21807Y-38759D01*
X20791D01*
X19775Y-37743D01*
X18759Y-38759D01*
X17743D01*
X18759Y-39775D01*
X17743Y-40791D01*
X18759D01*
X19775Y-41807D01*
X-10225Y-221807D02*
X-9209Y-220791D01*
X-8193D01*
X-9209Y-219775D01*
X-8193Y-218759D01*
X-9209D01*
X-10225Y-217743D01*
X-11241Y-218759D01*
X-12257D01*
X-11241Y-219775D01*
X-12257Y-220791D01*
X-11241D01*
X-10225Y-221807D01*
X-25225Y-11807D02*
X-24209Y-10791D01*
X-23193D01*
X-24209Y-9775D01*
X-23193Y-8759D01*
X-24209D01*
X-25225Y-7743D01*
X-26241Y-8759D01*
X-27257D01*
X-26241Y-9775D01*
X-27257Y-10791D01*
X-26241D01*
X-25225Y-11807D01*
X-40225Y-41807D02*
X-39209Y-40791D01*
X-38193D01*
X-39209Y-39775D01*
X-38193Y-38759D01*
X-39209D01*
X-40225Y-37743D01*
X-41241Y-38759D01*
X-42257D01*
X-41241Y-39775D01*
X-42257Y-40791D01*
X-41241D01*
X-40225Y-41807D01*
Y-101807D02*
X-39209Y-100791D01*
X-38193D01*
X-39209Y-99775D01*
X-38193Y-98759D01*
X-39209D01*
X-40225Y-97743D01*
X-41241Y-98759D01*
X-42257D01*
X-41241Y-99775D01*
X-42257Y-100791D01*
X-41241D01*
X-40225Y-101807D01*
Y-161807D02*
X-39209Y-160791D01*
X-38193D01*
X-39209Y-159775D01*
X-38193Y-158759D01*
X-39209D01*
X-40225Y-157743D01*
X-41241Y-158759D01*
X-42257D01*
X-41241Y-159775D01*
X-42257Y-160791D01*
X-41241D01*
X-40225Y-161807D01*
Y-221807D02*
X-39209Y-220791D01*
X-38193D01*
X-39209Y-219775D01*
X-38193Y-218759D01*
X-39209D01*
X-40225Y-217743D01*
X-41241Y-218759D01*
X-42257D01*
X-41241Y-219775D01*
X-42257Y-220791D01*
X-41241D01*
X-40225Y-221807D01*
X-55225Y48193D02*
X-54209Y49209D01*
X-53193D01*
X-54209Y50225D01*
X-53193Y51241D01*
X-54209D01*
X-55225Y52257D01*
X-56241Y51241D01*
X-57257D01*
X-56241Y50225D01*
X-57257Y49209D01*
X-56241D01*
X-55225Y48193D01*
Y-11807D02*
X-54209Y-10791D01*
X-53193D01*
X-54209Y-9775D01*
X-53193Y-8759D01*
X-54209D01*
X-55225Y-7743D01*
X-56241Y-8759D01*
X-57257D01*
X-56241Y-9775D01*
X-57257Y-10791D01*
X-56241D01*
X-55225Y-11807D01*
X-70225Y-101807D02*
X-69209Y-100791D01*
X-68193D01*
X-69209Y-99775D01*
X-68193Y-98759D01*
X-69209D01*
X-70225Y-97743D01*
X-71241Y-98759D01*
X-72257D01*
X-71241Y-99775D01*
X-72257Y-100791D01*
X-71241D01*
X-70225Y-101807D01*
Y-221807D02*
X-69209Y-220791D01*
X-68193D01*
X-69209Y-219775D01*
X-68193Y-218759D01*
X-69209D01*
X-70225Y-217743D01*
X-71241Y-218759D01*
X-72257D01*
X-71241Y-219775D01*
X-72257Y-220791D01*
X-71241D01*
X-70225Y-221807D01*
X-85225Y48193D02*
X-84209Y49209D01*
X-83193D01*
X-84209Y50225D01*
X-83193Y51241D01*
X-84209D01*
X-85225Y52257D01*
X-86241Y51241D01*
X-87257D01*
X-86241Y50225D01*
X-87257Y49209D01*
X-86241D01*
X-85225Y48193D01*
Y-11807D02*
X-84209Y-10791D01*
X-83193D01*
X-84209Y-9775D01*
X-83193Y-8759D01*
X-84209D01*
X-85225Y-7743D01*
X-86241Y-8759D01*
X-87257D01*
X-86241Y-9775D01*
X-87257Y-10791D01*
X-86241D01*
X-85225Y-11807D01*
X-100225Y-101807D02*
X-99209Y-100791D01*
X-98193D01*
X-99209Y-99775D01*
X-98193Y-98759D01*
X-99209D01*
X-100225Y-97743D01*
X-101241Y-98759D01*
X-102257D01*
X-101241Y-99775D01*
X-102257Y-100791D01*
X-101241D01*
X-100225Y-101807D01*
X-85225Y-191807D02*
X-84209Y-190791D01*
X-83193D01*
X-84209Y-189775D01*
X-83193Y-188759D01*
X-84209D01*
X-85225Y-187743D01*
X-86241Y-188759D01*
X-87257D01*
X-86241Y-189775D01*
X-87257Y-190791D01*
X-86241D01*
X-85225Y-191807D01*
X-100225Y-221807D02*
X-99209Y-220791D01*
X-98193D01*
X-99209Y-219775D01*
X-98193Y-218759D01*
X-99209D01*
X-100225Y-217743D01*
X-101241Y-218759D01*
X-102257D01*
X-101241Y-219775D01*
X-102257Y-220791D01*
X-101241D01*
X-100225Y-221807D01*
X-115225Y48193D02*
X-114209Y49209D01*
X-113193D01*
X-114209Y50225D01*
X-113193Y51241D01*
X-114209D01*
X-115225Y52257D01*
X-116241Y51241D01*
X-117257D01*
X-116241Y50225D01*
X-117257Y49209D01*
X-116241D01*
X-115225Y48193D01*
Y-11807D02*
X-114209Y-10791D01*
X-113193D01*
X-114209Y-9775D01*
X-113193Y-8759D01*
X-114209D01*
X-115225Y-7743D01*
X-116241Y-8759D01*
X-117257D01*
X-116241Y-9775D01*
X-117257Y-10791D01*
X-116241D01*
X-115225Y-11807D01*
Y-191807D02*
X-114209Y-190791D01*
X-113193D01*
X-114209Y-189775D01*
X-113193Y-188759D01*
X-114209D01*
X-115225Y-187743D01*
X-116241Y-188759D01*
X-117257D01*
X-116241Y-189775D01*
X-117257Y-190791D01*
X-116241D01*
X-115225Y-191807D01*
X-145225Y48193D02*
X-144209Y49209D01*
X-143193D01*
X-144209Y50225D01*
X-143193Y51241D01*
X-144209D01*
X-145225Y52257D01*
X-146241Y51241D01*
X-147257D01*
X-146241Y50225D01*
X-147257Y49209D01*
X-146241D01*
X-145225Y48193D01*
X-160225Y18193D02*
X-159209Y19209D01*
X-158193D01*
X-159209Y20225D01*
X-158193Y21241D01*
X-159209D01*
X-160225Y22257D01*
X-161241Y21241D01*
X-162257D01*
X-161241Y20225D01*
X-162257Y19209D01*
X-161241D01*
X-160225Y18193D01*
X-145225Y-11807D02*
X-144209Y-10791D01*
X-143193D01*
X-144209Y-9775D01*
X-143193Y-8759D01*
X-144209D01*
X-145225Y-7743D01*
X-146241Y-8759D01*
X-147257D01*
X-146241Y-9775D01*
X-147257Y-10791D01*
X-146241D01*
X-145225Y-11807D01*
Y-131807D02*
X-144209Y-130791D01*
X-143193D01*
X-144209Y-129775D01*
X-143193Y-128759D01*
X-144209D01*
X-145225Y-127743D01*
X-146241Y-128759D01*
X-147257D01*
X-146241Y-129775D01*
X-147257Y-130791D01*
X-146241D01*
X-145225Y-131807D01*
X-160225Y-161807D02*
X-159209Y-160791D01*
X-158193D01*
X-159209Y-159775D01*
X-158193Y-158759D01*
X-159209D01*
X-160225Y-157743D01*
X-161241Y-158759D01*
X-162257D01*
X-161241Y-159775D01*
X-162257Y-160791D01*
X-161241D01*
X-160225Y-161807D01*
X-145225Y-191807D02*
X-144209Y-190791D01*
X-143193D01*
X-144209Y-189775D01*
X-143193Y-188759D01*
X-144209D01*
X-145225Y-187743D01*
X-146241Y-188759D01*
X-147257D01*
X-146241Y-189775D01*
X-147257Y-190791D01*
X-146241D01*
X-145225Y-191807D01*
X-160225Y-221807D02*
X-159209Y-220791D01*
X-158193D01*
X-159209Y-219775D01*
X-158193Y-218759D01*
X-159209D01*
X-160225Y-217743D01*
X-161241Y-218759D01*
X-162257D01*
X-161241Y-219775D01*
X-162257Y-220791D01*
X-161241D01*
X-160225Y-221807D01*
X-175225Y48193D02*
X-174209Y49209D01*
X-173193D01*
X-174209Y50225D01*
X-173193Y51241D01*
X-174209D01*
X-175225Y52257D01*
X-176241Y51241D01*
X-177257D01*
X-176241Y50225D01*
X-177257Y49209D01*
X-176241D01*
X-175225Y48193D01*
X-190225Y18193D02*
X-189209Y19209D01*
X-188193D01*
X-189209Y20225D01*
X-188193Y21241D01*
X-189209D01*
X-190225Y22257D01*
X-191241Y21241D01*
X-192257D01*
X-191241Y20225D01*
X-192257Y19209D01*
X-191241D01*
X-190225Y18193D01*
X-175225Y-11807D02*
X-174209Y-10791D01*
X-173193D01*
X-174209Y-9775D01*
X-173193Y-8759D01*
X-174209D01*
X-175225Y-7743D01*
X-176241Y-8759D01*
X-177257D01*
X-176241Y-9775D01*
X-177257Y-10791D01*
X-176241D01*
X-175225Y-11807D01*
X-190225Y-161807D02*
X-189209Y-160791D01*
X-188193D01*
X-189209Y-159775D01*
X-188193Y-158759D01*
X-189209D01*
X-190225Y-157743D01*
X-191241Y-158759D01*
X-192257D01*
X-191241Y-159775D01*
X-192257Y-160791D01*
X-191241D01*
X-190225Y-161807D01*
X-175225Y-191807D02*
X-174209Y-190791D01*
X-173193D01*
X-174209Y-189775D01*
X-173193Y-188759D01*
X-174209D01*
X-175225Y-187743D01*
X-176241Y-188759D01*
X-177257D01*
X-176241Y-189775D01*
X-177257Y-190791D01*
X-176241D01*
X-175225Y-191807D01*
X-190225Y-221807D02*
X-189209Y-220791D01*
X-188193D01*
X-189209Y-219775D01*
X-188193Y-218759D01*
X-189209D01*
X-190225Y-217743D01*
X-191241Y-218759D01*
X-192257D01*
X-191241Y-219775D01*
X-192257Y-220791D01*
X-191241D01*
X-190225Y-221807D01*
X-205225Y48193D02*
X-204209Y49209D01*
X-203193D01*
X-204209Y50225D01*
X-203193Y51241D01*
X-204209D01*
X-205225Y52257D01*
X-206241Y51241D01*
X-207257D01*
X-206241Y50225D01*
X-207257Y49209D01*
X-206241D01*
X-205225Y48193D01*
Y-11807D02*
X-204209Y-10791D01*
X-203193D01*
X-204209Y-9775D01*
X-203193Y-8759D01*
X-204209D01*
X-205225Y-7743D01*
X-206241Y-8759D01*
X-207257D01*
X-206241Y-9775D01*
X-207257Y-10791D01*
X-206241D01*
X-205225Y-11807D01*
X-220225Y-41807D02*
X-219209Y-40791D01*
X-218193D01*
X-219209Y-39775D01*
X-218193Y-38759D01*
X-219209D01*
X-220225Y-37743D01*
X-221241Y-38759D01*
X-222257D01*
X-221241Y-39775D01*
X-222257Y-40791D01*
X-221241D01*
X-220225Y-41807D01*
Y-161807D02*
X-219209Y-160791D01*
X-218193D01*
X-219209Y-159775D01*
X-218193Y-158759D01*
X-219209D01*
X-220225Y-157743D01*
X-221241Y-158759D01*
X-222257D01*
X-221241Y-159775D01*
X-222257Y-160791D01*
X-221241D01*
X-220225Y-161807D01*
X-205225Y-191807D02*
X-204209Y-190791D01*
X-203193D01*
X-204209Y-189775D01*
X-203193Y-188759D01*
X-204209D01*
X-205225Y-187743D01*
X-206241Y-188759D01*
X-207257D01*
X-206241Y-189775D01*
X-207257Y-190791D01*
X-206241D01*
X-205225Y-191807D01*
X-220225Y-221807D02*
X-219209Y-220791D01*
X-218193D01*
X-219209Y-219775D01*
X-218193Y-218759D01*
X-219209D01*
X-220225Y-217743D01*
X-221241Y-218759D01*
X-222257D01*
X-221241Y-219775D01*
X-222257Y-220791D01*
X-221241D01*
X-220225Y-221807D01*
X-235225Y48193D02*
X-234209Y49209D01*
X-233193D01*
X-234209Y50225D01*
X-233193Y51241D01*
X-234209D01*
X-235225Y52257D01*
X-236241Y51241D01*
X-237257D01*
X-236241Y50225D01*
X-237257Y49209D01*
X-236241D01*
X-235225Y48193D01*
Y-11807D02*
X-234209Y-10791D01*
X-233193D01*
X-234209Y-9775D01*
X-233193Y-8759D01*
X-234209D01*
X-235225Y-7743D01*
X-236241Y-8759D01*
X-237257D01*
X-236241Y-9775D01*
X-237257Y-10791D01*
X-236241D01*
X-235225Y-11807D01*
Y-71807D02*
X-234209Y-70791D01*
X-233193D01*
X-234209Y-69775D01*
X-233193Y-68759D01*
X-234209D01*
X-235225Y-67743D01*
X-236241Y-68759D01*
X-237257D01*
X-236241Y-69775D01*
X-237257Y-70791D01*
X-236241D01*
X-235225Y-71807D01*
Y-191807D02*
X-234209Y-190791D01*
X-233193D01*
X-234209Y-189775D01*
X-233193Y-188759D01*
X-234209D01*
X-235225Y-187743D01*
X-236241Y-188759D01*
X-237257D01*
X-236241Y-189775D01*
X-237257Y-190791D01*
X-236241D01*
X-235225Y-191807D01*
X-265225Y48193D02*
X-264209Y49209D01*
X-263193D01*
X-264209Y50225D01*
X-263193Y51241D01*
X-264209D01*
X-265225Y52257D01*
X-266241Y51241D01*
X-267257D01*
X-266241Y50225D01*
X-267257Y49209D01*
X-266241D01*
X-265225Y48193D01*
Y-11807D02*
X-264209Y-10791D01*
X-263193D01*
X-264209Y-9775D01*
X-263193Y-8759D01*
X-264209D01*
X-265225Y-7743D01*
X-266241Y-8759D01*
X-267257D01*
X-266241Y-9775D01*
X-267257Y-10791D01*
X-266241D01*
X-265225Y-11807D01*
X-280225Y-41807D02*
X-279209Y-40791D01*
X-278193D01*
X-279209Y-39775D01*
X-278193Y-38759D01*
X-279209D01*
X-280225Y-37743D01*
X-281241Y-38759D01*
X-282257D01*
X-281241Y-39775D01*
X-282257Y-40791D01*
X-281241D01*
X-280225Y-41807D01*
X-265225Y-71807D02*
X-264209Y-70791D01*
X-263193D01*
X-264209Y-69775D01*
X-263193Y-68759D01*
X-264209D01*
X-265225Y-67743D01*
X-266241Y-68759D01*
X-267257D01*
X-266241Y-69775D01*
X-267257Y-70791D01*
X-266241D01*
X-265225Y-71807D01*
X-295225Y48193D02*
X-294209Y49209D01*
X-293193D01*
X-294209Y50225D01*
X-293193Y51241D01*
X-294209D01*
X-295225Y52257D01*
X-296241Y51241D01*
X-297257D01*
X-296241Y50225D01*
X-297257Y49209D01*
X-296241D01*
X-295225Y48193D01*
Y-11807D02*
X-294209Y-10791D01*
X-293193D01*
X-294209Y-9775D01*
X-293193Y-8759D01*
X-294209D01*
X-295225Y-7743D01*
X-296241Y-8759D01*
X-297257D01*
X-296241Y-9775D01*
X-297257Y-10791D01*
X-296241D01*
X-295225Y-11807D01*
X-310225Y-41807D02*
X-309209Y-40791D01*
X-308193D01*
X-309209Y-39775D01*
X-308193Y-38759D01*
X-309209D01*
X-310225Y-37743D01*
X-311241Y-38759D01*
X-312257D01*
X-311241Y-39775D01*
X-312257Y-40791D01*
X-311241D01*
X-310225Y-41807D01*
X-325225Y48193D02*
X-324209Y49209D01*
X-323193D01*
X-324209Y50225D01*
X-323193Y51241D01*
X-324209D01*
X-325225Y52257D01*
X-326241Y51241D01*
X-327257D01*
X-326241Y50225D01*
X-327257Y49209D01*
X-326241D01*
X-325225Y48193D01*
X-340225Y18193D02*
X-339209Y19209D01*
X-338193D01*
X-339209Y20225D01*
X-338193Y21241D01*
X-339209D01*
X-340225Y22257D01*
X-341241Y21241D01*
X-342257D01*
X-341241Y20225D01*
X-342257Y19209D01*
X-341241D01*
X-340225Y18193D01*
Y-221807D02*
X-339209Y-220791D01*
X-338193D01*
X-339209Y-219775D01*
X-338193Y-218759D01*
X-339209D01*
X-340225Y-217743D01*
X-341241Y-218759D01*
X-342257D01*
X-341241Y-219775D01*
X-342257Y-220791D01*
X-341241D01*
X-340225Y-221807D01*
X-40225Y58193D02*
X-39209Y59209D01*
X-38193D01*
X-39209Y60225D01*
X-38193Y61241D01*
X-39209D01*
X-40225Y62257D01*
X-41241Y61241D01*
X-42257D01*
X-41241Y60225D01*
X-42257Y59209D01*
X-41241D01*
X-40225Y58193D01*
X-50225D02*
X-49209Y59209D01*
X-48193D01*
X-49209Y60225D01*
X-48193Y61241D01*
X-49209D01*
X-50225Y62257D01*
X-51241Y61241D01*
X-52257D01*
X-51241Y60225D01*
X-52257Y59209D01*
X-51241D01*
X-50225Y58193D01*
X-60225D02*
X-59209Y59209D01*
X-58193D01*
X-59209Y60225D01*
X-58193Y61241D01*
X-59209D01*
X-60225Y62257D01*
X-61241Y61241D01*
X-62257D01*
X-61241Y60225D01*
X-62257Y59209D01*
X-61241D01*
X-60225Y58193D01*
X-70225D02*
X-69209Y59209D01*
X-68193D01*
X-69209Y60225D01*
X-68193Y61241D01*
X-69209D01*
X-70225Y62257D01*
X-71241Y61241D01*
X-72257D01*
X-71241Y60225D01*
X-72257Y59209D01*
X-71241D01*
X-70225Y58193D01*
X-80225D02*
X-79209Y59209D01*
X-78193D01*
X-79209Y60225D01*
X-78193Y61241D01*
X-79209D01*
X-80225Y62257D01*
X-81241Y61241D01*
X-82257D01*
X-81241Y60225D01*
X-82257Y59209D01*
X-81241D01*
X-80225Y58193D01*
X-90225D02*
X-89209Y59209D01*
X-88193D01*
X-89209Y60225D01*
X-88193Y61241D01*
X-89209D01*
X-90225Y62257D01*
X-91241Y61241D01*
X-92257D01*
X-91241Y60225D01*
X-92257Y59209D01*
X-91241D01*
X-90225Y58193D01*
X-100225D02*
X-99209Y59209D01*
X-98193D01*
X-99209Y60225D01*
X-98193Y61241D01*
X-99209D01*
X-100225Y62257D01*
X-101241Y61241D01*
X-102257D01*
X-101241Y60225D01*
X-102257Y59209D01*
X-101241D01*
X-100225Y58193D01*
X-110225D02*
X-109209Y59209D01*
X-108193D01*
X-109209Y60225D01*
X-108193Y61241D01*
X-109209D01*
X-110225Y62257D01*
X-111241Y61241D01*
X-112257D01*
X-111241Y60225D01*
X-112257Y59209D01*
X-111241D01*
X-110225Y58193D01*
X-105225Y48193D02*
X-104209Y49209D01*
X-103193D01*
X-104209Y50225D01*
X-103193Y51241D01*
X-104209D01*
X-105225Y52257D01*
X-106241Y51241D01*
X-107257D01*
X-106241Y50225D01*
X-107257Y49209D01*
X-106241D01*
X-105225Y48193D01*
X-120225Y58193D02*
X-119209Y59209D01*
X-118193D01*
X-119209Y60225D01*
X-118193Y61241D01*
X-119209D01*
X-120225Y62257D01*
X-121241Y61241D01*
X-122257D01*
X-121241Y60225D01*
X-122257Y59209D01*
X-121241D01*
X-120225Y58193D01*
X-115225Y48193D02*
X-114209Y49209D01*
X-113193D01*
X-114209Y50225D01*
X-113193Y51241D01*
X-114209D01*
X-115225Y52257D01*
X-116241Y51241D01*
X-117257D01*
X-116241Y50225D01*
X-117257Y49209D01*
X-116241D01*
X-115225Y48193D01*
X-130225Y58193D02*
X-129209Y59209D01*
X-128193D01*
X-129209Y60225D01*
X-128193Y61241D01*
X-129209D01*
X-130225Y62257D01*
X-131241Y61241D01*
X-132257D01*
X-131241Y60225D01*
X-132257Y59209D01*
X-131241D01*
X-130225Y58193D01*
X-125225Y48193D02*
X-124209Y49209D01*
X-123193D01*
X-124209Y50225D01*
X-123193Y51241D01*
X-124209D01*
X-125225Y52257D01*
X-126241Y51241D01*
X-127257D01*
X-126241Y50225D01*
X-127257Y49209D01*
X-126241D01*
X-125225Y48193D01*
X-140225Y58193D02*
X-139209Y59209D01*
X-138193D01*
X-139209Y60225D01*
X-138193Y61241D01*
X-139209D01*
X-140225Y62257D01*
X-141241Y61241D01*
X-142257D01*
X-141241Y60225D01*
X-142257Y59209D01*
X-141241D01*
X-140225Y58193D01*
X-135225Y48193D02*
X-134209Y49209D01*
X-133193D01*
X-134209Y50225D01*
X-133193Y51241D01*
X-134209D01*
X-135225Y52257D01*
X-136241Y51241D01*
X-137257D01*
X-136241Y50225D01*
X-137257Y49209D01*
X-136241D01*
X-135225Y48193D01*
X-140225Y38193D02*
X-139209Y39209D01*
X-138193D01*
X-139209Y40225D01*
X-138193Y41241D01*
X-139209D01*
X-140225Y42257D01*
X-141241Y41241D01*
X-142257D01*
X-141241Y40225D01*
X-142257Y39209D01*
X-141241D01*
X-140225Y38193D01*
X-150225Y58193D02*
X-149209Y59209D01*
X-148193D01*
X-149209Y60225D01*
X-148193Y61241D01*
X-149209D01*
X-150225Y62257D01*
X-151241Y61241D01*
X-152257D01*
X-151241Y60225D01*
X-152257Y59209D01*
X-151241D01*
X-150225Y58193D01*
X-145225Y48193D02*
X-144209Y49209D01*
X-143193D01*
X-144209Y50225D01*
X-143193Y51241D01*
X-144209D01*
X-145225Y52257D01*
X-146241Y51241D01*
X-147257D01*
X-146241Y50225D01*
X-147257Y49209D01*
X-146241D01*
X-145225Y48193D01*
X-150225Y38193D02*
X-149209Y39209D01*
X-148193D01*
X-149209Y40225D01*
X-148193Y41241D01*
X-149209D01*
X-150225Y42257D01*
X-151241Y41241D01*
X-152257D01*
X-151241Y40225D01*
X-152257Y39209D01*
X-151241D01*
X-150225Y38193D01*
X-160225Y58193D02*
X-159209Y59209D01*
X-158193D01*
X-159209Y60225D01*
X-158193Y61241D01*
X-159209D01*
X-160225Y62257D01*
X-161241Y61241D01*
X-162257D01*
X-161241Y60225D01*
X-162257Y59209D01*
X-161241D01*
X-160225Y58193D01*
X-155225Y48193D02*
X-154209Y49209D01*
X-153193D01*
X-154209Y50225D01*
X-153193Y51241D01*
X-154209D01*
X-155225Y52257D01*
X-156241Y51241D01*
X-157257D01*
X-156241Y50225D01*
X-157257Y49209D01*
X-156241D01*
X-155225Y48193D01*
X-160225Y38193D02*
X-159209Y39209D01*
X-158193D01*
X-159209Y40225D01*
X-158193Y41241D01*
X-159209D01*
X-160225Y42257D01*
X-161241Y41241D01*
X-162257D01*
X-161241Y40225D01*
X-162257Y39209D01*
X-161241D01*
X-160225Y38193D01*
X-170225Y58193D02*
X-169209Y59209D01*
X-168193D01*
X-169209Y60225D01*
X-168193Y61241D01*
X-169209D01*
X-170225Y62257D01*
X-171241Y61241D01*
X-172257D01*
X-171241Y60225D01*
X-172257Y59209D01*
X-171241D01*
X-170225Y58193D01*
X-180225D02*
X-179209Y59209D01*
X-178193D01*
X-179209Y60225D01*
X-178193Y61241D01*
X-179209D01*
X-180225Y62257D01*
X-181241Y61241D01*
X-182257D01*
X-181241Y60225D01*
X-182257Y59209D01*
X-181241D01*
X-180225Y58193D01*
X-190225D02*
X-189209Y59209D01*
X-188193D01*
X-189209Y60225D01*
X-188193Y61241D01*
X-189209D01*
X-190225Y62257D01*
X-191241Y61241D01*
X-192257D01*
X-191241Y60225D01*
X-192257Y59209D01*
X-191241D01*
X-190225Y58193D01*
X-200225D02*
X-199209Y59209D01*
X-198193D01*
X-199209Y60225D01*
X-198193Y61241D01*
X-199209D01*
X-200225Y62257D01*
X-201241Y61241D01*
X-202257D01*
X-201241Y60225D01*
X-202257Y59209D01*
X-201241D01*
X-200225Y58193D01*
X-210225D02*
X-209209Y59209D01*
X-208193D01*
X-209209Y60225D01*
X-208193Y61241D01*
X-209209D01*
X-210225Y62257D01*
X-211241Y61241D01*
X-212257D01*
X-211241Y60225D01*
X-212257Y59209D01*
X-211241D01*
X-210225Y58193D01*
X-220225D02*
X-219209Y59209D01*
X-218193D01*
X-219209Y60225D01*
X-218193Y61241D01*
X-219209D01*
X-220225Y62257D01*
X-221241Y61241D01*
X-222257D01*
X-221241Y60225D01*
X-222257Y59209D01*
X-221241D01*
X-220225Y58193D01*
X-230225D02*
X-229209Y59209D01*
X-228193D01*
X-229209Y60225D01*
X-228193Y61241D01*
X-229209D01*
X-230225Y62257D01*
X-231241Y61241D01*
X-232257D01*
X-231241Y60225D01*
X-232257Y59209D01*
X-231241D01*
X-230225Y58193D01*
X-240225D02*
X-239209Y59209D01*
X-238193D01*
X-239209Y60225D01*
X-238193Y61241D01*
X-239209D01*
X-240225Y62257D01*
X-241241Y61241D01*
X-242257D01*
X-241241Y60225D01*
X-242257Y59209D01*
X-241241D01*
X-240225Y58193D01*
X-250225D02*
X-249209Y59209D01*
X-248193D01*
X-249209Y60225D01*
X-248193Y61241D01*
X-249209D01*
X-250225Y62257D01*
X-251241Y61241D01*
X-252257D01*
X-251241Y60225D01*
X-252257Y59209D01*
X-251241D01*
X-250225Y58193D01*
X-260225D02*
X-259209Y59209D01*
X-258193D01*
X-259209Y60225D01*
X-258193Y61241D01*
X-259209D01*
X-260225Y62257D01*
X-261241Y61241D01*
X-262257D01*
X-261241Y60225D01*
X-262257Y59209D01*
X-261241D01*
X-260225Y58193D01*
X-270225D02*
X-269209Y59209D01*
X-268193D01*
X-269209Y60225D01*
X-268193Y61241D01*
X-269209D01*
X-270225Y62257D01*
X-271241Y61241D01*
X-272257D01*
X-271241Y60225D01*
X-272257Y59209D01*
X-271241D01*
X-270225Y58193D01*
X-280225D02*
X-279209Y59209D01*
X-278193D01*
X-279209Y60225D01*
X-278193Y61241D01*
X-279209D01*
X-280225Y62257D01*
X-281241Y61241D01*
X-282257D01*
X-281241Y60225D01*
X-282257Y59209D01*
X-281241D01*
X-280225Y58193D01*
X-290225D02*
X-289209Y59209D01*
X-288193D01*
X-289209Y60225D01*
X-288193Y61241D01*
X-289209D01*
X-290225Y62257D01*
X-291241Y61241D01*
X-292257D01*
X-291241Y60225D01*
X-292257Y59209D01*
X-291241D01*
X-290225Y58193D01*
X-300225D02*
X-299209Y59209D01*
X-298193D01*
X-299209Y60225D01*
X-298193Y61241D01*
X-299209D01*
X-300225Y62257D01*
X-301241Y61241D01*
X-302257D01*
X-301241Y60225D01*
X-302257Y59209D01*
X-301241D01*
X-300225Y58193D01*
X-310225D02*
X-309209Y59209D01*
X-308193D01*
X-309209Y60225D01*
X-308193Y61241D01*
X-309209D01*
X-310225Y62257D01*
X-311241Y61241D01*
X-312257D01*
X-311241Y60225D01*
X-312257Y59209D01*
X-311241D01*
X-310225Y58193D01*
X9775Y-241807D02*
X10791Y-240791D01*
X11807D01*
X10791Y-239775D01*
X11807Y-238759D01*
X10791D01*
X9775Y-237743D01*
X8759Y-238759D01*
X7743D01*
X8759Y-239775D01*
X7743Y-240791D01*
X8759D01*
X9775Y-241807D01*
X-225D02*
X791Y-240791D01*
X1807D01*
X791Y-239775D01*
X1807Y-238759D01*
X791D01*
X-225Y-237743D01*
X-1241Y-238759D01*
X-2257D01*
X-1241Y-239775D01*
X-2257Y-240791D01*
X-1241D01*
X-225Y-241807D01*
X-10225D02*
X-9209Y-240791D01*
X-8193D01*
X-9209Y-239775D01*
X-8193Y-238759D01*
X-9209D01*
X-10225Y-237743D01*
X-11241Y-238759D01*
X-12257D01*
X-11241Y-239775D01*
X-12257Y-240791D01*
X-11241D01*
X-10225Y-241807D01*
X-20225D02*
X-19209Y-240791D01*
X-18193D01*
X-19209Y-239775D01*
X-18193Y-238759D01*
X-19209D01*
X-20225Y-237743D01*
X-21241Y-238759D01*
X-22257D01*
X-21241Y-239775D01*
X-22257Y-240791D01*
X-21241D01*
X-20225Y-241807D01*
X-30225D02*
X-29209Y-240791D01*
X-28193D01*
X-29209Y-239775D01*
X-28193Y-238759D01*
X-29209D01*
X-30225Y-237743D01*
X-31241Y-238759D01*
X-32257D01*
X-31241Y-239775D01*
X-32257Y-240791D01*
X-31241D01*
X-30225Y-241807D01*
X-40225D02*
X-39209Y-240791D01*
X-38193D01*
X-39209Y-239775D01*
X-38193Y-238759D01*
X-39209D01*
X-40225Y-237743D01*
X-41241Y-238759D01*
X-42257D01*
X-41241Y-239775D01*
X-42257Y-240791D01*
X-41241D01*
X-40225Y-241807D01*
X-50225D02*
X-49209Y-240791D01*
X-48193D01*
X-49209Y-239775D01*
X-48193Y-238759D01*
X-49209D01*
X-50225Y-237743D01*
X-51241Y-238759D01*
X-52257D01*
X-51241Y-239775D01*
X-52257Y-240791D01*
X-51241D01*
X-50225Y-241807D01*
X-60225D02*
X-59209Y-240791D01*
X-58193D01*
X-59209Y-239775D01*
X-58193Y-238759D01*
X-59209D01*
X-60225Y-237743D01*
X-61241Y-238759D01*
X-62257D01*
X-61241Y-239775D01*
X-62257Y-240791D01*
X-61241D01*
X-60225Y-241807D01*
X-70225D02*
X-69209Y-240791D01*
X-68193D01*
X-69209Y-239775D01*
X-68193Y-238759D01*
X-69209D01*
X-70225Y-237743D01*
X-71241Y-238759D01*
X-72257D01*
X-71241Y-239775D01*
X-72257Y-240791D01*
X-71241D01*
X-70225Y-241807D01*
X-80225D02*
X-79209Y-240791D01*
X-78193D01*
X-79209Y-239775D01*
X-78193Y-238759D01*
X-79209D01*
X-80225Y-237743D01*
X-81241Y-238759D01*
X-82257D01*
X-81241Y-239775D01*
X-82257Y-240791D01*
X-81241D01*
X-80225Y-241807D01*
X-90225D02*
X-89209Y-240791D01*
X-88193D01*
X-89209Y-239775D01*
X-88193Y-238759D01*
X-89209D01*
X-90225Y-237743D01*
X-91241Y-238759D01*
X-92257D01*
X-91241Y-239775D01*
X-92257Y-240791D01*
X-91241D01*
X-90225Y-241807D01*
X-100225Y-221807D02*
X-99209Y-220791D01*
X-98193D01*
X-99209Y-219775D01*
X-98193Y-218759D01*
X-99209D01*
X-100225Y-217743D01*
X-101241Y-218759D01*
X-102257D01*
X-101241Y-219775D01*
X-102257Y-220791D01*
X-101241D01*
X-100225Y-221807D01*
Y-241807D02*
X-99209Y-240791D01*
X-98193D01*
X-99209Y-239775D01*
X-98193Y-238759D01*
X-99209D01*
X-100225Y-237743D01*
X-101241Y-238759D01*
X-102257D01*
X-101241Y-239775D01*
X-102257Y-240791D01*
X-101241D01*
X-100225Y-241807D01*
X-110225Y-221807D02*
X-109209Y-220791D01*
X-108193D01*
X-109209Y-219775D01*
X-108193Y-218759D01*
X-109209D01*
X-110225Y-217743D01*
X-111241Y-218759D01*
X-112257D01*
X-111241Y-219775D01*
X-112257Y-220791D01*
X-111241D01*
X-110225Y-221807D01*
X-105225Y-231807D02*
X-104209Y-230791D01*
X-103193D01*
X-104209Y-229775D01*
X-103193Y-228759D01*
X-104209D01*
X-105225Y-227743D01*
X-106241Y-228759D01*
X-107257D01*
X-106241Y-229775D01*
X-107257Y-230791D01*
X-106241D01*
X-105225Y-231807D01*
X-110225Y-241807D02*
X-109209Y-240791D01*
X-108193D01*
X-109209Y-239775D01*
X-108193Y-238759D01*
X-109209D01*
X-110225Y-237743D01*
X-111241Y-238759D01*
X-112257D01*
X-111241Y-239775D01*
X-112257Y-240791D01*
X-111241D01*
X-110225Y-241807D01*
X-120225Y-221807D02*
X-119209Y-220791D01*
X-118193D01*
X-119209Y-219775D01*
X-118193Y-218759D01*
X-119209D01*
X-120225Y-217743D01*
X-121241Y-218759D01*
X-122257D01*
X-121241Y-219775D01*
X-122257Y-220791D01*
X-121241D01*
X-120225Y-221807D01*
X-115225Y-231807D02*
X-114209Y-230791D01*
X-113193D01*
X-114209Y-229775D01*
X-113193Y-228759D01*
X-114209D01*
X-115225Y-227743D01*
X-116241Y-228759D01*
X-117257D01*
X-116241Y-229775D01*
X-117257Y-230791D01*
X-116241D01*
X-115225Y-231807D01*
X-120225Y-241807D02*
X-119209Y-240791D01*
X-118193D01*
X-119209Y-239775D01*
X-118193Y-238759D01*
X-119209D01*
X-120225Y-237743D01*
X-121241Y-238759D01*
X-122257D01*
X-121241Y-239775D01*
X-122257Y-240791D01*
X-121241D01*
X-120225Y-241807D01*
X-125225Y-231807D02*
X-124209Y-230791D01*
X-123193D01*
X-124209Y-229775D01*
X-123193Y-228759D01*
X-124209D01*
X-125225Y-227743D01*
X-126241Y-228759D01*
X-127257D01*
X-126241Y-229775D01*
X-127257Y-230791D01*
X-126241D01*
X-125225Y-231807D01*
X-130225Y-241807D02*
X-129209Y-240791D01*
X-128193D01*
X-129209Y-239775D01*
X-128193Y-238759D01*
X-129209D01*
X-130225Y-237743D01*
X-131241Y-238759D01*
X-132257D01*
X-131241Y-239775D01*
X-132257Y-240791D01*
X-131241D01*
X-130225Y-241807D01*
X-140225Y-221807D02*
X-139209Y-220791D01*
X-138193D01*
X-139209Y-219775D01*
X-138193Y-218759D01*
X-139209D01*
X-140225Y-217743D01*
X-141241Y-218759D01*
X-142257D01*
X-141241Y-219775D01*
X-142257Y-220791D01*
X-141241D01*
X-140225Y-221807D01*
Y-241807D02*
X-139209Y-240791D01*
X-138193D01*
X-139209Y-239775D01*
X-138193Y-238759D01*
X-139209D01*
X-140225Y-237743D01*
X-141241Y-238759D01*
X-142257D01*
X-141241Y-239775D01*
X-142257Y-240791D01*
X-141241D01*
X-140225Y-241807D01*
X-150225Y-221807D02*
X-149209Y-220791D01*
X-148193D01*
X-149209Y-219775D01*
X-148193Y-218759D01*
X-149209D01*
X-150225Y-217743D01*
X-151241Y-218759D01*
X-152257D01*
X-151241Y-219775D01*
X-152257Y-220791D01*
X-151241D01*
X-150225Y-221807D01*
X-145225Y-231807D02*
X-144209Y-230791D01*
X-143193D01*
X-144209Y-229775D01*
X-143193Y-228759D01*
X-144209D01*
X-145225Y-227743D01*
X-146241Y-228759D01*
X-147257D01*
X-146241Y-229775D01*
X-147257Y-230791D01*
X-146241D01*
X-145225Y-231807D01*
X-150225Y-241807D02*
X-149209Y-240791D01*
X-148193D01*
X-149209Y-239775D01*
X-148193Y-238759D01*
X-149209D01*
X-150225Y-237743D01*
X-151241Y-238759D01*
X-152257D01*
X-151241Y-239775D01*
X-152257Y-240791D01*
X-151241D01*
X-150225Y-241807D01*
X-160225Y-221807D02*
X-159209Y-220791D01*
X-158193D01*
X-159209Y-219775D01*
X-158193Y-218759D01*
X-159209D01*
X-160225Y-217743D01*
X-161241Y-218759D01*
X-162257D01*
X-161241Y-219775D01*
X-162257Y-220791D01*
X-161241D01*
X-160225Y-221807D01*
X-155225Y-231807D02*
X-154209Y-230791D01*
X-153193D01*
X-154209Y-229775D01*
X-153193Y-228759D01*
X-154209D01*
X-155225Y-227743D01*
X-156241Y-228759D01*
X-157257D01*
X-156241Y-229775D01*
X-157257Y-230791D01*
X-156241D01*
X-155225Y-231807D01*
X-160225Y-241807D02*
X-159209Y-240791D01*
X-158193D01*
X-159209Y-239775D01*
X-158193Y-238759D01*
X-159209D01*
X-160225Y-237743D01*
X-161241Y-238759D01*
X-162257D01*
X-161241Y-239775D01*
X-162257Y-240791D01*
X-161241D01*
X-160225Y-241807D01*
X-165225Y-231807D02*
X-164209Y-230791D01*
X-163193D01*
X-164209Y-229775D01*
X-163193Y-228759D01*
X-164209D01*
X-165225Y-227743D01*
X-166241Y-228759D01*
X-167257D01*
X-166241Y-229775D01*
X-167257Y-230791D01*
X-166241D01*
X-165225Y-231807D01*
X-170225Y-241807D02*
X-169209Y-240791D01*
X-168193D01*
X-169209Y-239775D01*
X-168193Y-238759D01*
X-169209D01*
X-170225Y-237743D01*
X-171241Y-238759D01*
X-172257D01*
X-171241Y-239775D01*
X-172257Y-240791D01*
X-171241D01*
X-170225Y-241807D01*
X-180225D02*
X-179209Y-240791D01*
X-178193D01*
X-179209Y-239775D01*
X-178193Y-238759D01*
X-179209D01*
X-180225Y-237743D01*
X-181241Y-238759D01*
X-182257D01*
X-181241Y-239775D01*
X-182257Y-240791D01*
X-181241D01*
X-180225Y-241807D01*
X-190225D02*
X-189209Y-240791D01*
X-188193D01*
X-189209Y-239775D01*
X-188193Y-238759D01*
X-189209D01*
X-190225Y-237743D01*
X-191241Y-238759D01*
X-192257D01*
X-191241Y-239775D01*
X-192257Y-240791D01*
X-191241D01*
X-190225Y-241807D01*
X-200225D02*
X-199209Y-240791D01*
X-198193D01*
X-199209Y-239775D01*
X-198193Y-238759D01*
X-199209D01*
X-200225Y-237743D01*
X-201241Y-238759D01*
X-202257D01*
X-201241Y-239775D01*
X-202257Y-240791D01*
X-201241D01*
X-200225Y-241807D01*
X-210225D02*
X-209209Y-240791D01*
X-208193D01*
X-209209Y-239775D01*
X-208193Y-238759D01*
X-209209D01*
X-210225Y-237743D01*
X-211241Y-238759D01*
X-212257D01*
X-211241Y-239775D01*
X-212257Y-240791D01*
X-211241D01*
X-210225Y-241807D01*
X-220225D02*
X-219209Y-240791D01*
X-218193D01*
X-219209Y-239775D01*
X-218193Y-238759D01*
X-219209D01*
X-220225Y-237743D01*
X-221241Y-238759D01*
X-222257D01*
X-221241Y-239775D01*
X-222257Y-240791D01*
X-221241D01*
X-220225Y-241807D01*
X-230225D02*
X-229209Y-240791D01*
X-228193D01*
X-229209Y-239775D01*
X-228193Y-238759D01*
X-229209D01*
X-230225Y-237743D01*
X-231241Y-238759D01*
X-232257D01*
X-231241Y-239775D01*
X-232257Y-240791D01*
X-231241D01*
X-230225Y-241807D01*
X-260225D02*
X-259209Y-240791D01*
X-258193D01*
X-259209Y-239775D01*
X-258193Y-238759D01*
X-259209D01*
X-260225Y-237743D01*
X-261241Y-238759D01*
X-262257D01*
X-261241Y-239775D01*
X-262257Y-240791D01*
X-261241D01*
X-260225Y-241807D01*
X-310225D02*
X-309209Y-240791D01*
X-308193D01*
X-309209Y-239775D01*
X-308193Y-238759D01*
X-309209D01*
X-310225Y-237743D01*
X-311241Y-238759D01*
X-312257D01*
X-311241Y-239775D01*
X-312257Y-240791D01*
X-311241D01*
X-310225Y-241807D01*
X-320225Y58193D02*
X-319209Y59209D01*
X-318193D01*
X-319209Y60225D01*
X-318193Y61241D01*
X-319209D01*
X-320225Y62257D01*
X-321241Y61241D01*
X-322257D01*
X-321241Y60225D01*
X-322257Y59209D01*
X-321241D01*
X-320225Y58193D01*
Y38193D02*
X-319209Y39209D01*
X-318193D01*
X-319209Y40225D01*
X-318193Y41241D01*
X-319209D01*
X-320225Y42257D01*
X-321241Y41241D01*
X-322257D01*
X-321241Y40225D01*
X-322257Y39209D01*
X-321241D01*
X-320225Y38193D01*
X-330225Y58193D02*
X-329209Y59209D01*
X-328193D01*
X-329209Y60225D01*
X-328193Y61241D01*
X-329209D01*
X-330225Y62257D01*
X-331241Y61241D01*
X-332257D01*
X-331241Y60225D01*
X-332257Y59209D01*
X-331241D01*
X-330225Y58193D01*
X-325225Y48193D02*
X-324209Y49209D01*
X-323193D01*
X-324209Y50225D01*
X-323193Y51241D01*
X-324209D01*
X-325225Y52257D01*
X-326241Y51241D01*
X-327257D01*
X-326241Y50225D01*
X-327257Y49209D01*
X-326241D01*
X-325225Y48193D01*
X-330225Y38193D02*
X-329209Y39209D01*
X-328193D01*
X-329209Y40225D01*
X-328193Y41241D01*
X-329209D01*
X-330225Y42257D01*
X-331241Y41241D01*
X-332257D01*
X-331241Y40225D01*
X-332257Y39209D01*
X-331241D01*
X-330225Y38193D01*
Y-161807D02*
X-329209Y-160791D01*
X-328193D01*
X-329209Y-159775D01*
X-328193Y-158759D01*
X-329209D01*
X-330225Y-157743D01*
X-331241Y-158759D01*
X-332257D01*
X-331241Y-159775D01*
X-332257Y-160791D01*
X-331241D01*
X-330225Y-161807D01*
Y-201807D02*
X-329209Y-200791D01*
X-328193D01*
X-329209Y-199775D01*
X-328193Y-198759D01*
X-329209D01*
X-330225Y-197743D01*
X-331241Y-198759D01*
X-332257D01*
X-331241Y-199775D01*
X-332257Y-200791D01*
X-331241D01*
X-330225Y-201807D01*
X-340225Y58193D02*
X-339209Y59209D01*
X-338193D01*
X-339209Y60225D01*
X-338193Y61241D01*
X-339209D01*
X-340225Y62257D01*
X-341241Y61241D01*
X-342257D01*
X-341241Y60225D01*
X-342257Y59209D01*
X-341241D01*
X-340225Y58193D01*
X-335225Y48193D02*
X-334209Y49209D01*
X-333193D01*
X-334209Y50225D01*
X-333193Y51241D01*
X-334209D01*
X-335225Y52257D01*
X-336241Y51241D01*
X-337257D01*
X-336241Y50225D01*
X-337257Y49209D01*
X-336241D01*
X-335225Y48193D01*
X-340225Y38193D02*
X-339209Y39209D01*
X-338193D01*
X-339209Y40225D01*
X-338193Y41241D01*
X-339209D01*
X-340225Y42257D01*
X-341241Y41241D01*
X-342257D01*
X-341241Y40225D01*
X-342257Y39209D01*
X-341241D01*
X-340225Y38193D01*
Y18193D02*
X-339209Y19209D01*
X-338193D01*
X-339209Y20225D01*
X-338193Y21241D01*
X-339209D01*
X-340225Y22257D01*
X-341241Y21241D01*
X-342257D01*
X-341241Y20225D01*
X-342257Y19209D01*
X-341241D01*
X-340225Y18193D01*
X-335225Y-171807D02*
X-334209Y-170791D01*
X-333193D01*
X-334209Y-169775D01*
X-333193Y-168759D01*
X-334209D01*
X-335225Y-167743D01*
X-336241Y-168759D01*
X-337257D01*
X-336241Y-169775D01*
X-337257Y-170791D01*
X-336241D01*
X-335225Y-171807D01*
Y-191807D02*
X-334209Y-190791D01*
X-333193D01*
X-334209Y-189775D01*
X-333193Y-188759D01*
X-334209D01*
X-335225Y-187743D01*
X-336241Y-188759D01*
X-337257D01*
X-336241Y-189775D01*
X-337257Y-190791D01*
X-336241D01*
X-335225Y-191807D01*
X-340225Y-201807D02*
X-339209Y-200791D01*
X-338193D01*
X-339209Y-199775D01*
X-338193Y-198759D01*
X-339209D01*
X-340225Y-197743D01*
X-341241Y-198759D01*
X-342257D01*
X-341241Y-199775D01*
X-342257Y-200791D01*
X-341241D01*
X-340225Y-201807D01*
X-335225Y-211807D02*
X-334209Y-210791D01*
X-333193D01*
X-334209Y-209775D01*
X-333193Y-208759D01*
X-334209D01*
X-335225Y-207743D01*
X-336241Y-208759D01*
X-337257D01*
X-336241Y-209775D01*
X-337257Y-210791D01*
X-336241D01*
X-335225Y-211807D01*
X-340225Y-221807D02*
X-339209Y-220791D01*
X-338193D01*
X-339209Y-219775D01*
X-338193Y-218759D01*
X-339209D01*
X-340225Y-217743D01*
X-341241Y-218759D01*
X-342257D01*
X-341241Y-219775D01*
X-342257Y-220791D01*
X-341241D01*
X-340225Y-221807D01*
Y-241807D02*
X-339209Y-240791D01*
X-338193D01*
X-339209Y-239775D01*
X-338193Y-238759D01*
X-339209D01*
X-340225Y-237743D01*
X-341241Y-238759D01*
X-342257D01*
X-341241Y-239775D01*
X-342257Y-240791D01*
X-341241D01*
X-340225Y-241807D01*
X-350225Y58193D02*
X-349209Y59209D01*
X-348193D01*
X-349209Y60225D01*
X-348193Y61241D01*
X-349209D01*
X-350225Y62257D01*
X-351241Y61241D01*
X-352257D01*
X-351241Y60225D01*
X-352257Y59209D01*
X-351241D01*
X-350225Y58193D01*
X-345225Y48193D02*
X-344209Y49209D01*
X-343193D01*
X-344209Y50225D01*
X-343193Y51241D01*
X-344209D01*
X-345225Y52257D01*
X-346241Y51241D01*
X-347257D01*
X-346241Y50225D01*
X-347257Y49209D01*
X-346241D01*
X-345225Y48193D01*
X-350225Y38193D02*
X-349209Y39209D01*
X-348193D01*
X-349209Y40225D01*
X-348193Y41241D01*
X-349209D01*
X-350225Y42257D01*
X-351241Y41241D01*
X-352257D01*
X-351241Y40225D01*
X-352257Y39209D01*
X-351241D01*
X-350225Y38193D01*
X-345225Y28193D02*
X-344209Y29209D01*
X-343193D01*
X-344209Y30225D01*
X-343193Y31241D01*
X-344209D01*
X-345225Y32257D01*
X-346241Y31241D01*
X-347257D01*
X-346241Y30225D01*
X-347257Y29209D01*
X-346241D01*
X-345225Y28193D01*
X-350225Y18193D02*
X-349209Y19209D01*
X-348193D01*
X-349209Y20225D01*
X-348193Y21241D01*
X-349209D01*
X-350225Y22257D01*
X-351241Y21241D01*
X-352257D01*
X-351241Y20225D01*
X-352257Y19209D01*
X-351241D01*
X-350225Y18193D01*
Y-201807D02*
X-349209Y-200791D01*
X-348193D01*
X-349209Y-199775D01*
X-348193Y-198759D01*
X-349209D01*
X-350225Y-197743D01*
X-351241Y-198759D01*
X-352257D01*
X-351241Y-199775D01*
X-352257Y-200791D01*
X-351241D01*
X-350225Y-201807D01*
X-345225Y-211807D02*
X-344209Y-210791D01*
X-343193D01*
X-344209Y-209775D01*
X-343193Y-208759D01*
X-344209D01*
X-345225Y-207743D01*
X-346241Y-208759D01*
X-347257D01*
X-346241Y-209775D01*
X-347257Y-210791D01*
X-346241D01*
X-345225Y-211807D01*
X-350225Y-221807D02*
X-349209Y-220791D01*
X-348193D01*
X-349209Y-219775D01*
X-348193Y-218759D01*
X-349209D01*
X-350225Y-217743D01*
X-351241Y-218759D01*
X-352257D01*
X-351241Y-219775D01*
X-352257Y-220791D01*
X-351241D01*
X-350225Y-221807D01*
X-345225Y-231807D02*
X-344209Y-230791D01*
X-343193D01*
X-344209Y-229775D01*
X-343193Y-228759D01*
X-344209D01*
X-345225Y-227743D01*
X-346241Y-228759D01*
X-347257D01*
X-346241Y-229775D01*
X-347257Y-230791D01*
X-346241D01*
X-345225Y-231807D01*
X-350225Y-241807D02*
X-349209Y-240791D01*
X-348193D01*
X-349209Y-239775D01*
X-348193Y-238759D01*
X-349209D01*
X-350225Y-237743D01*
X-351241Y-238759D01*
X-352257D01*
X-351241Y-239775D01*
X-352257Y-240791D01*
X-351241D01*
X-350225Y-241807D01*
X-360225Y58193D02*
X-359209Y59209D01*
X-358193D01*
X-359209Y60225D01*
X-358193Y61241D01*
X-359209D01*
X-360225Y62257D01*
X-361241Y61241D01*
X-362257D01*
X-361241Y60225D01*
X-362257Y59209D01*
X-361241D01*
X-360225Y58193D01*
X-355225Y48193D02*
X-354209Y49209D01*
X-353193D01*
X-354209Y50225D01*
X-353193Y51241D01*
X-354209D01*
X-355225Y52257D01*
X-356241Y51241D01*
X-357257D01*
X-356241Y50225D01*
X-357257Y49209D01*
X-356241D01*
X-355225Y48193D01*
X-360225Y38193D02*
X-359209Y39209D01*
X-358193D01*
X-359209Y40225D01*
X-358193Y41241D01*
X-359209D01*
X-360225Y42257D01*
X-361241Y41241D01*
X-362257D01*
X-361241Y40225D01*
X-362257Y39209D01*
X-361241D01*
X-360225Y38193D01*
X-355225Y28193D02*
X-354209Y29209D01*
X-353193D01*
X-354209Y30225D01*
X-353193Y31241D01*
X-354209D01*
X-355225Y32257D01*
X-356241Y31241D01*
X-357257D01*
X-356241Y30225D01*
X-357257Y29209D01*
X-356241D01*
X-355225Y28193D01*
X-360225Y18193D02*
X-359209Y19209D01*
X-358193D01*
X-359209Y20225D01*
X-358193Y21241D01*
X-359209D01*
X-360225Y22257D01*
X-361241Y21241D01*
X-362257D01*
X-361241Y20225D01*
X-362257Y19209D01*
X-361241D01*
X-360225Y18193D01*
Y-41807D02*
X-359209Y-40791D01*
X-358193D01*
X-359209Y-39775D01*
X-358193Y-38759D01*
X-359209D01*
X-360225Y-37743D01*
X-361241Y-38759D01*
X-362257D01*
X-361241Y-39775D01*
X-362257Y-40791D01*
X-361241D01*
X-360225Y-41807D01*
Y-121807D02*
X-359209Y-120791D01*
X-358193D01*
X-359209Y-119775D01*
X-358193Y-118759D01*
X-359209D01*
X-360225Y-117743D01*
X-361241Y-118759D01*
X-362257D01*
X-361241Y-119775D01*
X-362257Y-120791D01*
X-361241D01*
X-360225Y-121807D01*
Y-141807D02*
X-359209Y-140791D01*
X-358193D01*
X-359209Y-139775D01*
X-358193Y-138759D01*
X-359209D01*
X-360225Y-137743D01*
X-361241Y-138759D01*
X-362257D01*
X-361241Y-139775D01*
X-362257Y-140791D01*
X-361241D01*
X-360225Y-141807D01*
Y-201807D02*
X-359209Y-200791D01*
X-358193D01*
X-359209Y-199775D01*
X-358193Y-198759D01*
X-359209D01*
X-360225Y-197743D01*
X-361241Y-198759D01*
X-362257D01*
X-361241Y-199775D01*
X-362257Y-200791D01*
X-361241D01*
X-360225Y-201807D01*
X-355225Y-211807D02*
X-354209Y-210791D01*
X-353193D01*
X-354209Y-209775D01*
X-353193Y-208759D01*
X-354209D01*
X-355225Y-207743D01*
X-356241Y-208759D01*
X-357257D01*
X-356241Y-209775D01*
X-357257Y-210791D01*
X-356241D01*
X-355225Y-211807D01*
X-360225Y-221807D02*
X-359209Y-220791D01*
X-358193D01*
X-359209Y-219775D01*
X-358193Y-218759D01*
X-359209D01*
X-360225Y-217743D01*
X-361241Y-218759D01*
X-362257D01*
X-361241Y-219775D01*
X-362257Y-220791D01*
X-361241D01*
X-360225Y-221807D01*
X-355225Y-231807D02*
X-354209Y-230791D01*
X-353193D01*
X-354209Y-229775D01*
X-353193Y-228759D01*
X-354209D01*
X-355225Y-227743D01*
X-356241Y-228759D01*
X-357257D01*
X-356241Y-229775D01*
X-357257Y-230791D01*
X-356241D01*
X-355225Y-231807D01*
X-360225Y-241807D02*
X-359209Y-240791D01*
X-358193D01*
X-359209Y-239775D01*
X-358193Y-238759D01*
X-359209D01*
X-360225Y-237743D01*
X-361241Y-238759D01*
X-362257D01*
X-361241Y-239775D01*
X-362257Y-240791D01*
X-361241D01*
X-360225Y-241807D01*
X-240225Y-61807D02*
X-239209Y-60791D01*
X-238193D01*
X-239209Y-59775D01*
X-238193Y-58759D01*
X-239209D01*
X-240225Y-57743D01*
X-241241Y-58759D01*
X-242257D01*
X-241241Y-59775D01*
X-242257Y-60791D01*
X-241241D01*
X-240225Y-61807D01*
X-235225Y-71807D02*
X-234209Y-70791D01*
X-233193D01*
X-234209Y-69775D01*
X-233193Y-68759D01*
X-234209D01*
X-235225Y-67743D01*
X-236241Y-68759D01*
X-237257D01*
X-236241Y-69775D01*
X-237257Y-70791D01*
X-236241D01*
X-235225Y-71807D01*
X-240225Y-81807D02*
X-239209Y-80791D01*
X-238193D01*
X-239209Y-79775D01*
X-238193Y-78759D01*
X-239209D01*
X-240225Y-77743D01*
X-241241Y-78759D01*
X-242257D01*
X-241241Y-79775D01*
X-242257Y-80791D01*
X-241241D01*
X-240225Y-81807D01*
X-235225Y-91807D02*
X-234209Y-90791D01*
X-233193D01*
X-234209Y-89775D01*
X-233193Y-88759D01*
X-234209D01*
X-235225Y-87743D01*
X-236241Y-88759D01*
X-237257D01*
X-236241Y-89775D01*
X-237257Y-90791D01*
X-236241D01*
X-235225Y-91807D01*
X-240225Y-101807D02*
X-239209Y-100791D01*
X-238193D01*
X-239209Y-99775D01*
X-238193Y-98759D01*
X-239209D01*
X-240225Y-97743D01*
X-241241Y-98759D01*
X-242257D01*
X-241241Y-99775D01*
X-242257Y-100791D01*
X-241241D01*
X-240225Y-101807D01*
X-235225Y-111807D02*
X-234209Y-110791D01*
X-233193D01*
X-234209Y-109775D01*
X-233193Y-108759D01*
X-234209D01*
X-235225Y-107743D01*
X-236241Y-108759D01*
X-237257D01*
X-236241Y-109775D01*
X-237257Y-110791D01*
X-236241D01*
X-235225Y-111807D01*
X-240225Y-121807D02*
X-239209Y-120791D01*
X-238193D01*
X-239209Y-119775D01*
X-238193Y-118759D01*
X-239209D01*
X-240225Y-117743D01*
X-241241Y-118759D01*
X-242257D01*
X-241241Y-119775D01*
X-242257Y-120791D01*
X-241241D01*
X-240225Y-121807D01*
X-208000Y25718D02*
X-206984Y26734D01*
X-205968D01*
X-206984Y27750D01*
X-205968Y28766D01*
X-206984D01*
X-208000Y29782D01*
X-209016Y28766D01*
X-210032D01*
X-209016Y27750D01*
X-210032Y26734D01*
X-209016D01*
X-208000Y25718D01*
X-222000D02*
X-220984Y26734D01*
X-219968D01*
X-220984Y27750D01*
X-219968Y28766D01*
X-220984D01*
X-222000Y29782D01*
X-223016Y28766D01*
X-224032D01*
X-223016Y27750D01*
X-224032Y26734D01*
X-223016D01*
X-222000Y25718D01*
Y17718D02*
X-220984Y18734D01*
X-219968D01*
X-220984Y19750D01*
X-219968Y20766D01*
X-220984D01*
X-222000Y21782D01*
X-223016Y20766D01*
X-224032D01*
X-223016Y19750D01*
X-224032Y18734D01*
X-223016D01*
X-222000Y17718D01*
X-208000D02*
X-206984Y18734D01*
X-205968D01*
X-206984Y19750D01*
X-205968Y20766D01*
X-206984D01*
X-208000Y21782D01*
X-209016Y20766D01*
X-210032D01*
X-209016Y19750D01*
X-210032Y18734D01*
X-209016D01*
X-208000Y17718D01*
X-97750Y29718D02*
X-96734Y30734D01*
X-95718D01*
X-96734Y31750D01*
X-95718Y32766D01*
X-96734D01*
X-97750Y33782D01*
X-98766Y32766D01*
X-99782D01*
X-98766Y31750D01*
X-99782Y30734D01*
X-98766D01*
X-97750Y29718D01*
X-111750D02*
X-110734Y30734D01*
X-109718D01*
X-110734Y31750D01*
X-109718Y32766D01*
X-110734D01*
X-111750Y33782D01*
X-112766Y32766D01*
X-113782D01*
X-112766Y31750D01*
X-113782Y30734D01*
X-112766D01*
X-111750Y29718D01*
Y21718D02*
X-110734Y22734D01*
X-109718D01*
X-110734Y23750D01*
X-109718Y24766D01*
X-110734D01*
X-111750Y25782D01*
X-112766Y24766D01*
X-113782D01*
X-112766Y23750D01*
X-113782Y22734D01*
X-112766D01*
X-111750Y21718D01*
X-97750D02*
X-96734Y22734D01*
X-95718D01*
X-96734Y23750D01*
X-95718Y24766D01*
X-96734D01*
X-97750Y25782D01*
X-98766Y24766D01*
X-99782D01*
X-98766Y23750D01*
X-99782Y22734D01*
X-98766D01*
X-97750Y21718D01*
X6750Y25718D02*
X7766Y26734D01*
X8782D01*
X7766Y27750D01*
X8782Y28766D01*
X7766D01*
X6750Y29782D01*
X5734Y28766D01*
X4718D01*
X5734Y27750D01*
X4718Y26734D01*
X5734D01*
X6750Y25718D01*
X-7250D02*
X-6234Y26734D01*
X-5218D01*
X-6234Y27750D01*
X-5218Y28766D01*
X-6234D01*
X-7250Y29782D01*
X-8266Y28766D01*
X-9282D01*
X-8266Y27750D01*
X-9282Y26734D01*
X-8266D01*
X-7250Y25718D01*
Y17718D02*
X-6234Y18734D01*
X-5218D01*
X-6234Y19750D01*
X-5218Y20766D01*
X-6234D01*
X-7250Y21782D01*
X-8266Y20766D01*
X-9282D01*
X-8266Y19750D01*
X-9282Y18734D01*
X-8266D01*
X-7250Y17718D01*
X6750D02*
X7766Y18734D01*
X8782D01*
X7766Y19750D01*
X8782Y20766D01*
X7766D01*
X6750Y21782D01*
X5734Y20766D01*
X4718D01*
X5734Y19750D01*
X4718Y18734D01*
X5734D01*
X6750Y17718D01*
Y2218D02*
X7766Y3234D01*
X8782D01*
X7766Y4250D01*
X8782Y5266D01*
X7766D01*
X6750Y6282D01*
X5734Y5266D01*
X4718D01*
X5734Y4250D01*
X4718Y3234D01*
X5734D01*
X6750Y2218D01*
X-7250D02*
X-6234Y3234D01*
X-5218D01*
X-6234Y4250D01*
X-5218Y5266D01*
X-6234D01*
X-7250Y6282D01*
X-8266Y5266D01*
X-9282D01*
X-8266Y4250D01*
X-9282Y3234D01*
X-8266D01*
X-7250Y2218D01*
Y-5782D02*
X-6234Y-4766D01*
X-5218D01*
X-6234Y-3750D01*
X-5218Y-2734D01*
X-6234D01*
X-7250Y-1718D01*
X-8266Y-2734D01*
X-9282D01*
X-8266Y-3750D01*
X-9282Y-4766D01*
X-8266D01*
X-7250Y-5782D01*
X6750D02*
X7766Y-4766D01*
X8782D01*
X7766Y-3750D01*
X8782Y-2734D01*
X7766D01*
X6750Y-1718D01*
X5734Y-2734D01*
X4718D01*
X5734Y-3750D01*
X4718Y-4766D01*
X5734D01*
X6750Y-5782D01*
Y-47032D02*
X7766Y-46016D01*
X8782D01*
X7766Y-45000D01*
X8782Y-43984D01*
X7766D01*
X6750Y-42968D01*
X5734Y-43984D01*
X4718D01*
X5734Y-45000D01*
X4718Y-46016D01*
X5734D01*
X6750Y-47032D01*
X-7250D02*
X-6234Y-46016D01*
X-5218D01*
X-6234Y-45000D01*
X-5218Y-43984D01*
X-6234D01*
X-7250Y-42968D01*
X-8266Y-43984D01*
X-9282D01*
X-8266Y-45000D01*
X-9282Y-46016D01*
X-8266D01*
X-7250Y-47032D01*
Y-55032D02*
X-6234Y-54016D01*
X-5218D01*
X-6234Y-53000D01*
X-5218Y-51984D01*
X-6234D01*
X-7250Y-50968D01*
X-8266Y-51984D01*
X-9282D01*
X-8266Y-53000D01*
X-9282Y-54016D01*
X-8266D01*
X-7250Y-55032D01*
X6750D02*
X7766Y-54016D01*
X8782D01*
X7766Y-53000D01*
X8782Y-51984D01*
X7766D01*
X6750Y-50968D01*
X5734Y-51984D01*
X4718D01*
X5734Y-53000D01*
X4718Y-54016D01*
X5734D01*
X6750Y-55032D01*
Y-98782D02*
X7766Y-97766D01*
X8782D01*
X7766Y-96750D01*
X8782Y-95734D01*
X7766D01*
X6750Y-94718D01*
X5734Y-95734D01*
X4718D01*
X5734Y-96750D01*
X4718Y-97766D01*
X5734D01*
X6750Y-98782D01*
X-7250D02*
X-6234Y-97766D01*
X-5218D01*
X-6234Y-96750D01*
X-5218Y-95734D01*
X-6234D01*
X-7250Y-94718D01*
X-8266Y-95734D01*
X-9282D01*
X-8266Y-96750D01*
X-9282Y-97766D01*
X-8266D01*
X-7250Y-98782D01*
Y-106782D02*
X-6234Y-105766D01*
X-5218D01*
X-6234Y-104750D01*
X-5218Y-103734D01*
X-6234D01*
X-7250Y-102718D01*
X-8266Y-103734D01*
X-9282D01*
X-8266Y-104750D01*
X-9282Y-105766D01*
X-8266D01*
X-7250Y-106782D01*
X6750D02*
X7766Y-105766D01*
X8782D01*
X7766Y-104750D01*
X8782Y-103734D01*
X7766D01*
X6750Y-102718D01*
X5734Y-103734D01*
X4718D01*
X5734Y-104750D01*
X4718Y-105766D01*
X5734D01*
X6750Y-106782D01*
X-7000Y-159532D02*
X-5984Y-158516D01*
X-4968D01*
X-5984Y-157500D01*
X-4968Y-156484D01*
X-5984D01*
X-7000Y-155468D01*
X-8016Y-156484D01*
X-9032D01*
X-8016Y-157500D01*
X-9032Y-158516D01*
X-8016D01*
X-7000Y-159532D01*
X7000D02*
X8016Y-158516D01*
X9032D01*
X8016Y-157500D01*
X9032Y-156484D01*
X8016D01*
X7000Y-155468D01*
X5984Y-156484D01*
X4968D01*
X5984Y-157500D01*
X4968Y-158516D01*
X5984D01*
X7000Y-159532D01*
Y-151532D02*
X8016Y-150516D01*
X9032D01*
X8016Y-149500D01*
X9032Y-148484D01*
X8016D01*
X7000Y-147468D01*
X5984Y-148484D01*
X4968D01*
X5984Y-149500D01*
X4968Y-150516D01*
X5984D01*
X7000Y-151532D01*
X-7000D02*
X-5984Y-150516D01*
X-4968D01*
X-5984Y-149500D01*
X-4968Y-148484D01*
X-5984D01*
X-7000Y-147468D01*
X-8016Y-148484D01*
X-9032D01*
X-8016Y-149500D01*
X-9032Y-150516D01*
X-8016D01*
X-7000Y-151532D01*
X69775Y58193D02*
X70791Y59209D01*
X71807D01*
X70791Y60225D01*
X71807Y61241D01*
X70791D01*
X69775Y62257D01*
X68759Y61241D01*
X67743D01*
X68759Y60225D01*
X67743Y59209D01*
X68759D01*
X69775Y58193D01*
X74775Y48193D02*
X75791Y49209D01*
X76807D01*
X75791Y50225D01*
X76807Y51241D01*
X75791D01*
X74775Y52257D01*
X73759Y51241D01*
X72743D01*
X73759Y50225D01*
X72743Y49209D01*
X73759D01*
X74775Y48193D01*
Y28193D02*
X75791Y29209D01*
X76807D01*
X75791Y30225D01*
X76807Y31241D01*
X75791D01*
X74775Y32257D01*
X73759Y31241D01*
X72743D01*
X73759Y30225D01*
X72743Y29209D01*
X73759D01*
X74775Y28193D01*
Y8193D02*
X75791Y9209D01*
X76807D01*
X75791Y10225D01*
X76807Y11241D01*
X75791D01*
X74775Y12257D01*
X73759Y11241D01*
X72743D01*
X73759Y10225D01*
X72743Y9209D01*
X73759D01*
X74775Y8193D01*
Y-11807D02*
X75791Y-10791D01*
X76807D01*
X75791Y-9775D01*
X76807Y-8759D01*
X75791D01*
X74775Y-7743D01*
X73759Y-8759D01*
X72743D01*
X73759Y-9775D01*
X72743Y-10791D01*
X73759D01*
X74775Y-11807D01*
Y-31807D02*
X75791Y-30791D01*
X76807D01*
X75791Y-29775D01*
X76807Y-28759D01*
X75791D01*
X74775Y-27743D01*
X73759Y-28759D01*
X72743D01*
X73759Y-29775D01*
X72743Y-30791D01*
X73759D01*
X74775Y-31807D01*
X69775Y-41807D02*
X70791Y-40791D01*
X71807D01*
X70791Y-39775D01*
X71807Y-38759D01*
X70791D01*
X69775Y-37743D01*
X68759Y-38759D01*
X67743D01*
X68759Y-39775D01*
X67743Y-40791D01*
X68759D01*
X69775Y-41807D01*
X74775Y-51807D02*
X75791Y-50791D01*
X76807D01*
X75791Y-49775D01*
X76807Y-48759D01*
X75791D01*
X74775Y-47743D01*
X73759Y-48759D01*
X72743D01*
X73759Y-49775D01*
X72743Y-50791D01*
X73759D01*
X74775Y-51807D01*
Y-71807D02*
X75791Y-70791D01*
X76807D01*
X75791Y-69775D01*
X76807Y-68759D01*
X75791D01*
X74775Y-67743D01*
X73759Y-68759D01*
X72743D01*
X73759Y-69775D01*
X72743Y-70791D01*
X73759D01*
X74775Y-71807D01*
Y-91807D02*
X75791Y-90791D01*
X76807D01*
X75791Y-89775D01*
X76807Y-88759D01*
X75791D01*
X74775Y-87743D01*
X73759Y-88759D01*
X72743D01*
X73759Y-89775D01*
X72743Y-90791D01*
X73759D01*
X74775Y-91807D01*
Y-111807D02*
X75791Y-110791D01*
X76807D01*
X75791Y-109775D01*
X76807Y-108759D01*
X75791D01*
X74775Y-107743D01*
X73759Y-108759D01*
X72743D01*
X73759Y-109775D01*
X72743Y-110791D01*
X73759D01*
X74775Y-111807D01*
Y-131807D02*
X75791Y-130791D01*
X76807D01*
X75791Y-129775D01*
X76807Y-128759D01*
X75791D01*
X74775Y-127743D01*
X73759Y-128759D01*
X72743D01*
X73759Y-129775D01*
X72743Y-130791D01*
X73759D01*
X74775Y-131807D01*
X69775Y-141807D02*
X70791Y-140791D01*
X71807D01*
X70791Y-139775D01*
X71807Y-138759D01*
X70791D01*
X69775Y-137743D01*
X68759Y-138759D01*
X67743D01*
X68759Y-139775D01*
X67743Y-140791D01*
X68759D01*
X69775Y-141807D01*
X74775Y-151807D02*
X75791Y-150791D01*
X76807D01*
X75791Y-149775D01*
X76807Y-148759D01*
X75791D01*
X74775Y-147743D01*
X73759Y-148759D01*
X72743D01*
X73759Y-149775D01*
X72743Y-150791D01*
X73759D01*
X74775Y-151807D01*
Y-171807D02*
X75791Y-170791D01*
X76807D01*
X75791Y-169775D01*
X76807Y-168759D01*
X75791D01*
X74775Y-167743D01*
X73759Y-168759D01*
X72743D01*
X73759Y-169775D01*
X72743Y-170791D01*
X73759D01*
X74775Y-171807D01*
Y-191807D02*
X75791Y-190791D01*
X76807D01*
X75791Y-189775D01*
X76807Y-188759D01*
X75791D01*
X74775Y-187743D01*
X73759Y-188759D01*
X72743D01*
X73759Y-189775D01*
X72743Y-190791D01*
X73759D01*
X74775Y-191807D01*
Y-211807D02*
X75791Y-210791D01*
X76807D01*
X75791Y-209775D01*
X76807Y-208759D01*
X75791D01*
X74775Y-207743D01*
X73759Y-208759D01*
X72743D01*
X73759Y-209775D01*
X72743Y-210791D01*
X73759D01*
X74775Y-211807D01*
Y-231807D02*
X75791Y-230791D01*
X76807D01*
X75791Y-229775D01*
X76807Y-228759D01*
X75791D01*
X74775Y-227743D01*
X73759Y-228759D01*
X72743D01*
X73759Y-229775D01*
X72743Y-230791D01*
X73759D01*
X74775Y-231807D01*
X69775Y-241807D02*
X70791Y-240791D01*
X71807D01*
X70791Y-239775D01*
X71807Y-238759D01*
X70791D01*
X69775Y-237743D01*
X68759Y-238759D01*
X67743D01*
X68759Y-239775D01*
X67743Y-240791D01*
X68759D01*
X69775Y-241807D01*
X-304457Y-180757D02*
X-303441Y-178725D01*
X-304457Y-176693D01*
X-302425Y-177709D01*
X-300393Y-176693D01*
X-301409Y-178725D01*
X-300393Y-180757D01*
X-302425Y-179741D01*
X-304457Y-180757D01*
X-319457Y-156507D02*
X-318441Y-154475D01*
X-319457Y-152443D01*
X-317425Y-153459D01*
X-315393Y-152443D01*
X-316409Y-154475D01*
X-315393Y-156507D01*
X-317425Y-155491D01*
X-319457Y-156507D01*
X-117200Y-33382D02*
X-116184Y-32366D01*
X-115168D01*
X-116184Y-31350D01*
X-115168Y-30334D01*
X-116184D01*
X-117200Y-29318D01*
X-118216Y-30334D01*
X-119232D01*
X-118216Y-31350D01*
X-119232Y-32366D01*
X-118216D01*
X-117200Y-33382D01*
Y-46082D02*
X-116184Y-45066D01*
X-115168D01*
X-116184Y-44050D01*
X-115168Y-43034D01*
X-116184D01*
X-117200Y-42018D01*
X-118216Y-43034D01*
X-119232D01*
X-118216Y-44050D01*
X-119232Y-45066D01*
X-118216D01*
X-117200Y-46082D01*
X-129900D02*
X-128884Y-45066D01*
X-127868D01*
X-128884Y-44050D01*
X-127868Y-43034D01*
X-128884D01*
X-129900Y-42018D01*
X-130916Y-43034D01*
X-131932D01*
X-130916Y-44050D01*
X-131932Y-45066D01*
X-130916D01*
X-129900Y-46082D01*
Y-58782D02*
X-128884Y-57766D01*
X-127868D01*
X-128884Y-56750D01*
X-127868Y-55734D01*
X-128884D01*
X-129900Y-54718D01*
X-130916Y-55734D01*
X-131932D01*
X-130916Y-56750D01*
X-131932Y-57766D01*
X-130916D01*
X-129900Y-58782D01*
X-117200D02*
X-116184Y-57766D01*
X-115168D01*
X-116184Y-56750D01*
X-115168Y-55734D01*
X-116184D01*
X-117200Y-54718D01*
X-118216Y-55734D01*
X-119232D01*
X-118216Y-56750D01*
X-119232Y-57766D01*
X-118216D01*
X-117200Y-58782D01*
X-104500D02*
X-103484Y-57766D01*
X-102468D01*
X-103484Y-56750D01*
X-102468Y-55734D01*
X-103484D01*
X-104500Y-54718D01*
X-105516Y-55734D01*
X-106532D01*
X-105516Y-56750D01*
X-106532Y-57766D01*
X-105516D01*
X-104500Y-58782D01*
Y-46082D02*
X-103484Y-45066D01*
X-102468D01*
X-103484Y-44050D01*
X-102468Y-43034D01*
X-103484D01*
X-104500Y-42018D01*
X-105516Y-43034D01*
X-106532D01*
X-105516Y-44050D01*
X-106532Y-45066D01*
X-105516D01*
X-104500Y-46082D01*
Y-33382D02*
X-103484Y-32366D01*
X-102468D01*
X-103484Y-31350D01*
X-102468Y-30334D01*
X-103484D01*
X-104500Y-29318D01*
X-105516Y-30334D01*
X-106532D01*
X-105516Y-31350D01*
X-106532Y-32366D01*
X-105516D01*
X-104500Y-33382D01*
X-91800D02*
X-90784Y-32366D01*
X-89768D01*
X-90784Y-31350D01*
X-89768Y-30334D01*
X-90784D01*
X-91800Y-29318D01*
X-92816Y-30334D01*
X-93832D01*
X-92816Y-31350D01*
X-93832Y-32366D01*
X-92816D01*
X-91800Y-33382D01*
Y-46082D02*
X-90784Y-45066D01*
X-89768D01*
X-90784Y-44050D01*
X-89768Y-43034D01*
X-90784D01*
X-91800Y-42018D01*
X-92816Y-43034D01*
X-93832D01*
X-92816Y-44050D01*
X-93832Y-45066D01*
X-92816D01*
X-91800Y-46082D01*
Y-58782D02*
X-90784Y-57766D01*
X-89768D01*
X-90784Y-56750D01*
X-89768Y-55734D01*
X-90784D01*
X-91800Y-54718D01*
X-92816Y-55734D01*
X-93832D01*
X-92816Y-56750D01*
X-93832Y-57766D01*
X-92816D01*
X-91800Y-58782D01*
X-79100Y-46082D02*
X-78084Y-45066D01*
X-77068D01*
X-78084Y-44050D01*
X-77068Y-43034D01*
X-78084D01*
X-79100Y-42018D01*
X-80116Y-43034D01*
X-81132D01*
X-80116Y-44050D01*
X-81132Y-45066D01*
X-80116D01*
X-79100Y-46082D01*
Y-58782D02*
X-78084Y-57766D01*
X-77068D01*
X-78084Y-56750D01*
X-77068Y-55734D01*
X-78084D01*
X-79100Y-54718D01*
X-80116Y-55734D01*
X-81132D01*
X-80116Y-56750D01*
X-81132Y-57766D01*
X-80116D01*
X-79100Y-58782D01*
X-91800Y-71482D02*
X-90784Y-70466D01*
X-89768D01*
X-90784Y-69450D01*
X-89768Y-68434D01*
X-90784D01*
X-91800Y-67418D01*
X-92816Y-68434D01*
X-93832D01*
X-92816Y-69450D01*
X-93832Y-70466D01*
X-92816D01*
X-91800Y-71482D01*
X-104500D02*
X-103484Y-70466D01*
X-102468D01*
X-103484Y-69450D01*
X-102468Y-68434D01*
X-103484D01*
X-104500Y-67418D01*
X-105516Y-68434D01*
X-106532D01*
X-105516Y-69450D01*
X-106532Y-70466D01*
X-105516D01*
X-104500Y-71482D01*
X-117200D02*
X-116184Y-70466D01*
X-115168D01*
X-116184Y-69450D01*
X-115168Y-68434D01*
X-116184D01*
X-117200Y-67418D01*
X-118216Y-68434D01*
X-119232D01*
X-118216Y-69450D01*
X-119232Y-70466D01*
X-118216D01*
X-117200Y-71482D01*
X-129900D02*
X-128884Y-70466D01*
X-127868D01*
X-128884Y-69450D01*
X-127868Y-68434D01*
X-128884D01*
X-129900Y-67418D01*
X-130916Y-68434D01*
X-131932D01*
X-130916Y-69450D01*
X-131932Y-70466D01*
X-130916D01*
X-129900Y-71482D01*
Y-33382D02*
X-128884Y-32366D01*
X-127868D01*
X-128884Y-31350D01*
X-127868Y-30334D01*
X-128884D01*
X-129900Y-29318D01*
X-130916Y-30334D01*
X-131932D01*
X-130916Y-31350D01*
X-131932Y-32366D01*
X-130916D01*
X-129900Y-33382D01*
X-79100D02*
X-78084Y-32366D01*
X-77068D01*
X-78084Y-31350D01*
X-77068Y-30334D01*
X-78084D01*
X-79100Y-29318D01*
X-80116Y-30334D01*
X-81132D01*
X-80116Y-31350D01*
X-81132Y-32366D01*
X-80116D01*
X-79100Y-33382D01*
Y-71482D02*
X-78084Y-70466D01*
X-77068D01*
X-78084Y-69450D01*
X-77068Y-68434D01*
X-78084D01*
X-79100Y-67418D01*
X-80116Y-68434D01*
X-81132D01*
X-80116Y-69450D01*
X-81132Y-70466D01*
X-80116D01*
X-79100Y-71482D01*
X-117200Y-140082D02*
X-116184Y-139066D01*
X-115168D01*
X-116184Y-138050D01*
X-115168Y-137034D01*
X-116184D01*
X-117200Y-136018D01*
X-118216Y-137034D01*
X-119232D01*
X-118216Y-138050D01*
X-119232Y-139066D01*
X-118216D01*
X-117200Y-140082D01*
Y-152782D02*
X-116184Y-151766D01*
X-115168D01*
X-116184Y-150750D01*
X-115168Y-149734D01*
X-116184D01*
X-117200Y-148718D01*
X-118216Y-149734D01*
X-119232D01*
X-118216Y-150750D01*
X-119232Y-151766D01*
X-118216D01*
X-117200Y-152782D01*
X-129900D02*
X-128884Y-151766D01*
X-127868D01*
X-128884Y-150750D01*
X-127868Y-149734D01*
X-128884D01*
X-129900Y-148718D01*
X-130916Y-149734D01*
X-131932D01*
X-130916Y-150750D01*
X-131932Y-151766D01*
X-130916D01*
X-129900Y-152782D01*
Y-165482D02*
X-128884Y-164466D01*
X-127868D01*
X-128884Y-163450D01*
X-127868Y-162434D01*
X-128884D01*
X-129900Y-161418D01*
X-130916Y-162434D01*
X-131932D01*
X-130916Y-163450D01*
X-131932Y-164466D01*
X-130916D01*
X-129900Y-165482D01*
X-117200D02*
X-116184Y-164466D01*
X-115168D01*
X-116184Y-163450D01*
X-115168Y-162434D01*
X-116184D01*
X-117200Y-161418D01*
X-118216Y-162434D01*
X-119232D01*
X-118216Y-163450D01*
X-119232Y-164466D01*
X-118216D01*
X-117200Y-165482D01*
X-104500D02*
X-103484Y-164466D01*
X-102468D01*
X-103484Y-163450D01*
X-102468Y-162434D01*
X-103484D01*
X-104500Y-161418D01*
X-105516Y-162434D01*
X-106532D01*
X-105516Y-163450D01*
X-106532Y-164466D01*
X-105516D01*
X-104500Y-165482D01*
Y-152782D02*
X-103484Y-151766D01*
X-102468D01*
X-103484Y-150750D01*
X-102468Y-149734D01*
X-103484D01*
X-104500Y-148718D01*
X-105516Y-149734D01*
X-106532D01*
X-105516Y-150750D01*
X-106532Y-151766D01*
X-105516D01*
X-104500Y-152782D01*
Y-140082D02*
X-103484Y-139066D01*
X-102468D01*
X-103484Y-138050D01*
X-102468Y-137034D01*
X-103484D01*
X-104500Y-136018D01*
X-105516Y-137034D01*
X-106532D01*
X-105516Y-138050D01*
X-106532Y-139066D01*
X-105516D01*
X-104500Y-140082D01*
X-91800D02*
X-90784Y-139066D01*
X-89768D01*
X-90784Y-138050D01*
X-89768Y-137034D01*
X-90784D01*
X-91800Y-136018D01*
X-92816Y-137034D01*
X-93832D01*
X-92816Y-138050D01*
X-93832Y-139066D01*
X-92816D01*
X-91800Y-140082D01*
Y-152782D02*
X-90784Y-151766D01*
X-89768D01*
X-90784Y-150750D01*
X-89768Y-149734D01*
X-90784D01*
X-91800Y-148718D01*
X-92816Y-149734D01*
X-93832D01*
X-92816Y-150750D01*
X-93832Y-151766D01*
X-92816D01*
X-91800Y-152782D01*
Y-165482D02*
X-90784Y-164466D01*
X-89768D01*
X-90784Y-163450D01*
X-89768Y-162434D01*
X-90784D01*
X-91800Y-161418D01*
X-92816Y-162434D01*
X-93832D01*
X-92816Y-163450D01*
X-93832Y-164466D01*
X-92816D01*
X-91800Y-165482D01*
X-79100Y-152782D02*
X-78084Y-151766D01*
X-77068D01*
X-78084Y-150750D01*
X-77068Y-149734D01*
X-78084D01*
X-79100Y-148718D01*
X-80116Y-149734D01*
X-81132D01*
X-80116Y-150750D01*
X-81132Y-151766D01*
X-80116D01*
X-79100Y-152782D01*
Y-165482D02*
X-78084Y-164466D01*
X-77068D01*
X-78084Y-163450D01*
X-77068Y-162434D01*
X-78084D01*
X-79100Y-161418D01*
X-80116Y-162434D01*
X-81132D01*
X-80116Y-163450D01*
X-81132Y-164466D01*
X-80116D01*
X-79100Y-165482D01*
X-91800Y-178182D02*
X-90784Y-177166D01*
X-89768D01*
X-90784Y-176150D01*
X-89768Y-175134D01*
X-90784D01*
X-91800Y-174118D01*
X-92816Y-175134D01*
X-93832D01*
X-92816Y-176150D01*
X-93832Y-177166D01*
X-92816D01*
X-91800Y-178182D01*
X-104500D02*
X-103484Y-177166D01*
X-102468D01*
X-103484Y-176150D01*
X-102468Y-175134D01*
X-103484D01*
X-104500Y-174118D01*
X-105516Y-175134D01*
X-106532D01*
X-105516Y-176150D01*
X-106532Y-177166D01*
X-105516D01*
X-104500Y-178182D01*
X-117200D02*
X-116184Y-177166D01*
X-115168D01*
X-116184Y-176150D01*
X-115168Y-175134D01*
X-116184D01*
X-117200Y-174118D01*
X-118216Y-175134D01*
X-119232D01*
X-118216Y-176150D01*
X-119232Y-177166D01*
X-118216D01*
X-117200Y-178182D01*
X-129900D02*
X-128884Y-177166D01*
X-127868D01*
X-128884Y-176150D01*
X-127868Y-175134D01*
X-128884D01*
X-129900Y-174118D01*
X-130916Y-175134D01*
X-131932D01*
X-130916Y-176150D01*
X-131932Y-177166D01*
X-130916D01*
X-129900Y-178182D01*
Y-140082D02*
X-128884Y-139066D01*
X-127868D01*
X-128884Y-138050D01*
X-127868Y-137034D01*
X-128884D01*
X-129900Y-136018D01*
X-130916Y-137034D01*
X-131932D01*
X-130916Y-138050D01*
X-131932Y-139066D01*
X-130916D01*
X-129900Y-140082D01*
X-79100D02*
X-78084Y-139066D01*
X-77068D01*
X-78084Y-138050D01*
X-77068Y-137034D01*
X-78084D01*
X-79100Y-136018D01*
X-80116Y-137034D01*
X-81132D01*
X-80116Y-138050D01*
X-81132Y-139066D01*
X-80116D01*
X-79100Y-140082D01*
Y-178182D02*
X-78084Y-177166D01*
X-77068D01*
X-78084Y-176150D01*
X-77068Y-175134D01*
X-78084D01*
X-79100Y-174118D01*
X-80116Y-175134D01*
X-81132D01*
X-80116Y-176150D01*
X-81132Y-177166D01*
X-80116D01*
X-79100Y-178182D01*
X-205582Y-91132D02*
X-204566Y-89100D01*
X-205582Y-87068D01*
X-203550Y-88084D01*
X-201518Y-87068D01*
X-202534Y-89100D01*
X-201518Y-91132D01*
X-203550Y-90116D01*
X-205582Y-91132D01*
X-244507Y-4807D02*
X-243491Y-2775D01*
X-244507Y-743D01*
X-242475Y-1759D01*
X-240443Y-743D01*
X-241459Y-2775D01*
X-240443Y-4807D01*
X-242475Y-3791D01*
X-244507Y-4807D01*
X-157527Y-64787D02*
X-156511Y-62755D01*
X-157527Y-60723D01*
X-155495Y-61739D01*
X-153463Y-60723D01*
X-154479Y-62755D01*
X-153463Y-64787D01*
X-155495Y-63771D01*
X-157527Y-64787D01*
X-157527Y-108287D02*
X-156511Y-106255D01*
X-157527Y-104223D01*
X-155495Y-105239D01*
X-153463Y-104223D01*
X-154479Y-106255D01*
X-153463Y-108287D01*
X-155495Y-107271D01*
X-157527Y-108287D01*
X-157527Y-50787D02*
X-156511Y-48755D01*
X-157527Y-46723D01*
X-155495Y-47739D01*
X-153463Y-46723D01*
X-154479Y-48755D01*
X-153463Y-50787D01*
X-155495Y-49771D01*
X-157527Y-50787D01*
X-157507Y-122807D02*
X-156491Y-120775D01*
X-157507Y-118743D01*
X-155475Y-119759D01*
X-153443Y-118743D01*
X-154459Y-120775D01*
X-153443Y-122807D01*
X-155475Y-121791D01*
X-157507Y-122807D01*
M02*
