G04*
G04 #@! TF.GenerationSoftware,Altium Limited,Altium Designer,22.5.1 (42)*
G04*
G04 Layer_Color=2752767*
%FSLAX44Y44*%
%MOMM*%
G71*
G04*
G04 #@! TF.SameCoordinates,A46AD673-58F9-48DA-A448-B45004F78B62*
G04*
G04*
G04 #@! TF.FilePolarity,Positive*
G04*
G01*
G75*
%ADD47C,0.0677*%
%ADD48C,0.0508*%
D47*
X27432Y152400D02*
G03*
X27432Y152400I-2032J0D01*
G01*
Y127000D02*
G03*
X27432Y127000I-2032J0D01*
G01*
Y101600D02*
G03*
X27432Y101600I-2032J0D01*
G01*
Y76200D02*
G03*
X27432Y76200I-2032J0D01*
G01*
Y50800D02*
G03*
X27432Y50800I-2032J0D01*
G01*
Y25400D02*
G03*
X27432Y25400I-2032J0D01*
G01*
Y0D02*
G03*
X27432Y0I-2032J0D01*
G01*
Y-101600D02*
G03*
X27432Y-101600I-2032J0D01*
G01*
X52832D02*
G03*
X52832Y-101600I-2032J0D01*
G01*
X78232D02*
G03*
X78232Y-101600I-2032J0D01*
G01*
X103632D02*
G03*
X103632Y-101600I-2032J0D01*
G01*
X383032Y177800D02*
G03*
X383032Y177800I-2032J0D01*
G01*
Y152400D02*
G03*
X383032Y152400I-2032J0D01*
G01*
Y127000D02*
G03*
X383032Y127000I-2032J0D01*
G01*
Y101600D02*
G03*
X383032Y101600I-2032J0D01*
G01*
Y76200D02*
G03*
X383032Y76200I-2032J0D01*
G01*
Y50800D02*
G03*
X383032Y50800I-2032J0D01*
G01*
Y25400D02*
G03*
X383032Y25400I-2032J0D01*
G01*
Y0D02*
G03*
X383032Y0I-2032J0D01*
G01*
Y-25400D02*
G03*
X383032Y-25400I-2032J0D01*
G01*
Y-50800D02*
G03*
X383032Y-50800I-2032J0D01*
G01*
Y-76200D02*
G03*
X383032Y-76200I-2032J0D01*
G01*
Y-101600D02*
G03*
X383032Y-101600I-2032J0D01*
G01*
D48*
X404368Y150368D02*
Y154432D01*
X408432D01*
Y150368D01*
X404368D01*
Y175768D02*
Y179832D01*
X408432D01*
Y175768D01*
X404368D01*
Y-2032D02*
Y2032D01*
X408432D01*
Y-2032D01*
X404368D01*
Y-52832D02*
Y-48768D01*
X408432D01*
Y-52832D01*
X404368D01*
Y-27432D02*
Y-23368D01*
X408432D01*
Y-27432D01*
X404368D01*
Y124968D02*
Y129032D01*
X408432D01*
Y124968D01*
X404368D01*
Y99568D02*
Y103632D01*
X408432D01*
Y99568D01*
X404368D01*
Y48768D02*
Y52832D01*
X408432D01*
Y48768D01*
X404368D01*
Y74168D02*
Y78232D01*
X408432D01*
Y74168D01*
X404368D01*
Y23368D02*
Y27432D01*
X408432D01*
Y23368D01*
X404368D01*
Y-103632D02*
Y-99568D01*
X408432D01*
Y-103632D01*
X404368D01*
Y-78232D02*
Y-74168D01*
X408432D01*
Y-78232D01*
X404368D01*
X-2032Y99568D02*
Y103632D01*
X2032D01*
Y99568D01*
X-2032D01*
Y-52832D02*
Y-48768D01*
X2032D01*
Y-52832D01*
X-2032D01*
Y23368D02*
Y27432D01*
X2032D01*
Y23368D01*
X-2032D01*
Y48768D02*
Y52832D01*
X2032D01*
Y48768D01*
X-2032D01*
Y74168D02*
Y78232D01*
X2032D01*
Y74168D01*
X-2032D01*
Y-27432D02*
Y-23368D01*
X2032D01*
Y-27432D01*
X-2032D01*
Y-2032D02*
Y2032D01*
X2032D01*
Y-2032D01*
X-2032D01*
Y124968D02*
Y129032D01*
X2032D01*
Y124968D01*
X-2032D01*
X422450Y168768D02*
X423466Y169784D01*
X424482D01*
X423466Y170800D01*
X424482Y171816D01*
X423466D01*
X422450Y172832D01*
X421434Y171816D01*
X420418D01*
X421434Y170800D01*
X420418Y169784D01*
X421434D01*
X422450Y168768D01*
Y143368D02*
X423466Y144384D01*
X424482D01*
X423466Y145400D01*
X424482Y146416D01*
X423466D01*
X422450Y147432D01*
X421434Y146416D01*
X420418D01*
X421434Y145400D01*
X420418Y144384D01*
X421434D01*
X422450Y143368D01*
Y117968D02*
X423466Y118984D01*
X424482D01*
X423466Y120000D01*
X424482Y121016D01*
X423466D01*
X422450Y122032D01*
X421434Y121016D01*
X420418D01*
X421434Y120000D01*
X420418Y118984D01*
X421434D01*
X422450Y117968D01*
Y92568D02*
X423466Y93584D01*
X424482D01*
X423466Y94600D01*
X424482Y95616D01*
X423466D01*
X422450Y96632D01*
X421434Y95616D01*
X420418D01*
X421434Y94600D01*
X420418Y93584D01*
X421434D01*
X422450Y92568D01*
Y67168D02*
X423466Y68184D01*
X424482D01*
X423466Y69200D01*
X424482Y70216D01*
X423466D01*
X422450Y71232D01*
X421434Y70216D01*
X420418D01*
X421434Y69200D01*
X420418Y68184D01*
X421434D01*
X422450Y67168D01*
Y41768D02*
X423466Y42784D01*
X424482D01*
X423466Y43800D01*
X424482Y44816D01*
X423466D01*
X422450Y45832D01*
X421434Y44816D01*
X420418D01*
X421434Y43800D01*
X420418Y42784D01*
X421434D01*
X422450Y41768D01*
Y16368D02*
X423466Y17384D01*
X424482D01*
X423466Y18400D01*
X424482Y19416D01*
X423466D01*
X422450Y20432D01*
X421434Y19416D01*
X420418D01*
X421434Y18400D01*
X420418Y17384D01*
X421434D01*
X422450Y16368D01*
Y-9032D02*
X423466Y-8016D01*
X424482D01*
X423466Y-7000D01*
X424482Y-5984D01*
X423466D01*
X422450Y-4968D01*
X421434Y-5984D01*
X420418D01*
X421434Y-7000D01*
X420418Y-8016D01*
X421434D01*
X422450Y-9032D01*
Y-34432D02*
X423466Y-33416D01*
X424482D01*
X423466Y-32400D01*
X424482Y-31384D01*
X423466D01*
X422450Y-30368D01*
X421434Y-31384D01*
X420418D01*
X421434Y-32400D01*
X420418Y-33416D01*
X421434D01*
X422450Y-34432D01*
Y-59832D02*
X423466Y-58816D01*
X424482D01*
X423466Y-57800D01*
X424482Y-56784D01*
X423466D01*
X422450Y-55768D01*
X421434Y-56784D01*
X420418D01*
X421434Y-57800D01*
X420418Y-58816D01*
X421434D01*
X422450Y-59832D01*
Y-85232D02*
X423466Y-84216D01*
X424482D01*
X423466Y-83200D01*
X424482Y-82184D01*
X423466D01*
X422450Y-81168D01*
X421434Y-82184D01*
X420418D01*
X421434Y-83200D01*
X420418Y-84216D01*
X421434D01*
X422450Y-85232D01*
Y-110632D02*
X423466Y-109616D01*
X424482D01*
X423466Y-108600D01*
X424482Y-107584D01*
X423466D01*
X422450Y-106568D01*
X421434Y-107584D01*
X420418D01*
X421434Y-108600D01*
X420418Y-109616D01*
X421434D01*
X422450Y-110632D01*
X365300Y181468D02*
X366316Y182484D01*
X367332D01*
X366316Y183500D01*
X367332Y184516D01*
X366316D01*
X365300Y185532D01*
X364284Y184516D01*
X363268D01*
X364284Y183500D01*
X363268Y182484D01*
X364284D01*
X365300Y181468D01*
Y130668D02*
X366316Y131684D01*
X367332D01*
X366316Y132700D01*
X367332Y133716D01*
X366316D01*
X365300Y134732D01*
X364284Y133716D01*
X363268D01*
X364284Y132700D01*
X363268Y131684D01*
X364284D01*
X365300Y130668D01*
X358950Y117968D02*
X359966Y118984D01*
X360982D01*
X359966Y120000D01*
X360982Y121016D01*
X359966D01*
X358950Y122032D01*
X357934Y121016D01*
X356918D01*
X357934Y120000D01*
X356918Y118984D01*
X357934D01*
X358950Y117968D01*
X365300Y79868D02*
X366316Y80884D01*
X367332D01*
X366316Y81900D01*
X367332Y82916D01*
X366316D01*
X365300Y83932D01*
X364284Y82916D01*
X363268D01*
X364284Y81900D01*
X363268Y80884D01*
X364284D01*
X365300Y79868D01*
X358950Y41768D02*
X359966Y42784D01*
X360982D01*
X359966Y43800D01*
X360982Y44816D01*
X359966D01*
X358950Y45832D01*
X357934Y44816D01*
X356918D01*
X357934Y43800D01*
X356918Y42784D01*
X357934D01*
X358950Y41768D01*
X365300Y29068D02*
X366316Y30084D01*
X367332D01*
X366316Y31100D01*
X367332Y32116D01*
X366316D01*
X365300Y33132D01*
X364284Y32116D01*
X363268D01*
X364284Y31100D01*
X363268Y30084D01*
X364284D01*
X365300Y29068D01*
X358950Y16368D02*
X359966Y17384D01*
X360982D01*
X359966Y18400D01*
X360982Y19416D01*
X359966D01*
X358950Y20432D01*
X357934Y19416D01*
X356918D01*
X357934Y18400D01*
X356918Y17384D01*
X357934D01*
X358950Y16368D01*
Y-9032D02*
X359966Y-8016D01*
X360982D01*
X359966Y-7000D01*
X360982Y-5984D01*
X359966D01*
X358950Y-4968D01*
X357934Y-5984D01*
X356918D01*
X357934Y-7000D01*
X356918Y-8016D01*
X357934D01*
X358950Y-9032D01*
X365300Y-21732D02*
X366316Y-20716D01*
X367332D01*
X366316Y-19700D01*
X367332Y-18684D01*
X366316D01*
X365300Y-17668D01*
X364284Y-18684D01*
X363268D01*
X364284Y-19700D01*
X363268Y-20716D01*
X364284D01*
X365300Y-21732D01*
X358950Y-59832D02*
X359966Y-58816D01*
X360982D01*
X359966Y-57800D01*
X360982Y-56784D01*
X359966D01*
X358950Y-55768D01*
X357934Y-56784D01*
X356918D01*
X357934Y-57800D01*
X356918Y-58816D01*
X357934D01*
X358950Y-59832D01*
X365300Y-72532D02*
X366316Y-71516D01*
X367332D01*
X366316Y-70500D01*
X367332Y-69484D01*
X366316D01*
X365300Y-68468D01*
X364284Y-69484D01*
X363268D01*
X364284Y-70500D01*
X363268Y-71516D01*
X364284D01*
X365300Y-72532D01*
X358950Y-85232D02*
X359966Y-84216D01*
X360982D01*
X359966Y-83200D01*
X360982Y-82184D01*
X359966D01*
X358950Y-81168D01*
X357934Y-82184D01*
X356918D01*
X357934Y-83200D01*
X356918Y-84216D01*
X357934D01*
X358950Y-85232D01*
X365300Y-97932D02*
X366316Y-96916D01*
X367332D01*
X366316Y-95900D01*
X367332Y-94884D01*
X366316D01*
X365300Y-93868D01*
X364284Y-94884D01*
X363268D01*
X364284Y-95900D01*
X363268Y-96916D01*
X364284D01*
X365300Y-97932D01*
X358950Y-110632D02*
X359966Y-109616D01*
X360982D01*
X359966Y-108600D01*
X360982Y-107584D01*
X359966D01*
X358950Y-106568D01*
X357934Y-107584D01*
X356918D01*
X357934Y-108600D01*
X356918Y-109616D01*
X357934D01*
X358950Y-110632D01*
X346250Y168768D02*
X347266Y169784D01*
X348282D01*
X347266Y170800D01*
X348282Y171816D01*
X347266D01*
X346250Y172832D01*
X345234Y171816D01*
X344218D01*
X345234Y170800D01*
X344218Y169784D01*
X345234D01*
X346250Y168768D01*
X352600Y130668D02*
X353616Y131684D01*
X354632D01*
X353616Y132700D01*
X354632Y133716D01*
X353616D01*
X352600Y134732D01*
X351584Y133716D01*
X350568D01*
X351584Y132700D01*
X350568Y131684D01*
X351584D01*
X352600Y130668D01*
X346250Y117968D02*
X347266Y118984D01*
X348282D01*
X347266Y120000D01*
X348282Y121016D01*
X347266D01*
X346250Y122032D01*
X345234Y121016D01*
X344218D01*
X345234Y120000D01*
X344218Y118984D01*
X345234D01*
X346250Y117968D01*
X352600Y79868D02*
X353616Y80884D01*
X354632D01*
X353616Y81900D01*
X354632Y82916D01*
X353616D01*
X352600Y83932D01*
X351584Y82916D01*
X350568D01*
X351584Y81900D01*
X350568Y80884D01*
X351584D01*
X352600Y79868D01*
X346250Y67168D02*
X347266Y68184D01*
X348282D01*
X347266Y69200D01*
X348282Y70216D01*
X347266D01*
X346250Y71232D01*
X345234Y70216D01*
X344218D01*
X345234Y69200D01*
X344218Y68184D01*
X345234D01*
X346250Y67168D01*
Y41768D02*
X347266Y42784D01*
X348282D01*
X347266Y43800D01*
X348282Y44816D01*
X347266D01*
X346250Y45832D01*
X345234Y44816D01*
X344218D01*
X345234Y43800D01*
X344218Y42784D01*
X345234D01*
X346250Y41768D01*
X352600Y29068D02*
X353616Y30084D01*
X354632D01*
X353616Y31100D01*
X354632Y32116D01*
X353616D01*
X352600Y33132D01*
X351584Y32116D01*
X350568D01*
X351584Y31100D01*
X350568Y30084D01*
X351584D01*
X352600Y29068D01*
X346250Y16368D02*
X347266Y17384D01*
X348282D01*
X347266Y18400D01*
X348282Y19416D01*
X347266D01*
X346250Y20432D01*
X345234Y19416D01*
X344218D01*
X345234Y18400D01*
X344218Y17384D01*
X345234D01*
X346250Y16368D01*
Y-9032D02*
X347266Y-8016D01*
X348282D01*
X347266Y-7000D01*
X348282Y-5984D01*
X347266D01*
X346250Y-4968D01*
X345234Y-5984D01*
X344218D01*
X345234Y-7000D01*
X344218Y-8016D01*
X345234D01*
X346250Y-9032D01*
Y-59832D02*
X347266Y-58816D01*
X348282D01*
X347266Y-57800D01*
X348282Y-56784D01*
X347266D01*
X346250Y-55768D01*
X345234Y-56784D01*
X344218D01*
X345234Y-57800D01*
X344218Y-58816D01*
X345234D01*
X346250Y-59832D01*
X352600Y-72532D02*
X353616Y-71516D01*
X354632D01*
X353616Y-70500D01*
X354632Y-69484D01*
X353616D01*
X352600Y-68468D01*
X351584Y-69484D01*
X350568D01*
X351584Y-70500D01*
X350568Y-71516D01*
X351584D01*
X352600Y-72532D01*
X346250Y-85232D02*
X347266Y-84216D01*
X348282D01*
X347266Y-83200D01*
X348282Y-82184D01*
X347266D01*
X346250Y-81168D01*
X345234Y-82184D01*
X344218D01*
X345234Y-83200D01*
X344218Y-84216D01*
X345234D01*
X346250Y-85232D01*
X352600Y-97932D02*
X353616Y-96916D01*
X354632D01*
X353616Y-95900D01*
X354632Y-94884D01*
X353616D01*
X352600Y-93868D01*
X351584Y-94884D01*
X350568D01*
X351584Y-95900D01*
X350568Y-96916D01*
X351584D01*
X352600Y-97932D01*
X346250Y-110632D02*
X347266Y-109616D01*
X348282D01*
X347266Y-108600D01*
X348282Y-107584D01*
X347266D01*
X346250Y-106568D01*
X345234Y-107584D01*
X344218D01*
X345234Y-108600D01*
X344218Y-109616D01*
X345234D01*
X346250Y-110632D01*
X333550Y168768D02*
X334566Y169784D01*
X335582D01*
X334566Y170800D01*
X335582Y171816D01*
X334566D01*
X333550Y172832D01*
X332534Y171816D01*
X331518D01*
X332534Y170800D01*
X331518Y169784D01*
X332534D01*
X333550Y168768D01*
X339900Y130668D02*
X340916Y131684D01*
X341932D01*
X340916Y132700D01*
X341932Y133716D01*
X340916D01*
X339900Y134732D01*
X338884Y133716D01*
X337868D01*
X338884Y132700D01*
X337868Y131684D01*
X338884D01*
X339900Y130668D01*
X333550Y117968D02*
X334566Y118984D01*
X335582D01*
X334566Y120000D01*
X335582Y121016D01*
X334566D01*
X333550Y122032D01*
X332534Y121016D01*
X331518D01*
X332534Y120000D01*
X331518Y118984D01*
X332534D01*
X333550Y117968D01*
Y67168D02*
X334566Y68184D01*
X335582D01*
X334566Y69200D01*
X335582Y70216D01*
X334566D01*
X333550Y71232D01*
X332534Y70216D01*
X331518D01*
X332534Y69200D01*
X331518Y68184D01*
X332534D01*
X333550Y67168D01*
Y41768D02*
X334566Y42784D01*
X335582D01*
X334566Y43800D01*
X335582Y44816D01*
X334566D01*
X333550Y45832D01*
X332534Y44816D01*
X331518D01*
X332534Y43800D01*
X331518Y42784D01*
X332534D01*
X333550Y41768D01*
X339900Y29068D02*
X340916Y30084D01*
X341932D01*
X340916Y31100D01*
X341932Y32116D01*
X340916D01*
X339900Y33132D01*
X338884Y32116D01*
X337868D01*
X338884Y31100D01*
X337868Y30084D01*
X338884D01*
X339900Y29068D01*
X333550Y16368D02*
X334566Y17384D01*
X335582D01*
X334566Y18400D01*
X335582Y19416D01*
X334566D01*
X333550Y20432D01*
X332534Y19416D01*
X331518D01*
X332534Y18400D01*
X331518Y17384D01*
X332534D01*
X333550Y16368D01*
X339900Y-21732D02*
X340916Y-20716D01*
X341932D01*
X340916Y-19700D01*
X341932Y-18684D01*
X340916D01*
X339900Y-17668D01*
X338884Y-18684D01*
X337868D01*
X338884Y-19700D01*
X337868Y-20716D01*
X338884D01*
X339900Y-21732D01*
X333550Y-59832D02*
X334566Y-58816D01*
X335582D01*
X334566Y-57800D01*
X335582Y-56784D01*
X334566D01*
X333550Y-55768D01*
X332534Y-56784D01*
X331518D01*
X332534Y-57800D01*
X331518Y-58816D01*
X332534D01*
X333550Y-59832D01*
X339900Y-72532D02*
X340916Y-71516D01*
X341932D01*
X340916Y-70500D01*
X341932Y-69484D01*
X340916D01*
X339900Y-68468D01*
X338884Y-69484D01*
X337868D01*
X338884Y-70500D01*
X337868Y-71516D01*
X338884D01*
X339900Y-72532D01*
X333550Y-85232D02*
X334566Y-84216D01*
X335582D01*
X334566Y-83200D01*
X335582Y-82184D01*
X334566D01*
X333550Y-81168D01*
X332534Y-82184D01*
X331518D01*
X332534Y-83200D01*
X331518Y-84216D01*
X332534D01*
X333550Y-85232D01*
X339900Y-97932D02*
X340916Y-96916D01*
X341932D01*
X340916Y-95900D01*
X341932Y-94884D01*
X340916D01*
X339900Y-93868D01*
X338884Y-94884D01*
X337868D01*
X338884Y-95900D01*
X337868Y-96916D01*
X338884D01*
X339900Y-97932D01*
X333550Y-110632D02*
X334566Y-109616D01*
X335582D01*
X334566Y-108600D01*
X335582Y-107584D01*
X334566D01*
X333550Y-106568D01*
X332534Y-107584D01*
X331518D01*
X332534Y-108600D01*
X331518Y-109616D01*
X332534D01*
X333550Y-110632D01*
X327200Y181468D02*
X328216Y182484D01*
X329232D01*
X328216Y183500D01*
X329232Y184516D01*
X328216D01*
X327200Y185532D01*
X326184Y184516D01*
X325168D01*
X326184Y183500D01*
X325168Y182484D01*
X326184D01*
X327200Y181468D01*
X320850Y168768D02*
X321866Y169784D01*
X322882D01*
X321866Y170800D01*
X322882Y171816D01*
X321866D01*
X320850Y172832D01*
X319834Y171816D01*
X318818D01*
X319834Y170800D01*
X318818Y169784D01*
X319834D01*
X320850Y168768D01*
X327200Y130668D02*
X328216Y131684D01*
X329232D01*
X328216Y132700D01*
X329232Y133716D01*
X328216D01*
X327200Y134732D01*
X326184Y133716D01*
X325168D01*
X326184Y132700D01*
X325168Y131684D01*
X326184D01*
X327200Y130668D01*
X320850Y117968D02*
X321866Y118984D01*
X322882D01*
X321866Y120000D01*
X322882Y121016D01*
X321866D01*
X320850Y122032D01*
X319834Y121016D01*
X318818D01*
X319834Y120000D01*
X318818Y118984D01*
X319834D01*
X320850Y117968D01*
Y67168D02*
X321866Y68184D01*
X322882D01*
X321866Y69200D01*
X322882Y70216D01*
X321866D01*
X320850Y71232D01*
X319834Y70216D01*
X318818D01*
X319834Y69200D01*
X318818Y68184D01*
X319834D01*
X320850Y67168D01*
Y41768D02*
X321866Y42784D01*
X322882D01*
X321866Y43800D01*
X322882Y44816D01*
X321866D01*
X320850Y45832D01*
X319834Y44816D01*
X318818D01*
X319834Y43800D01*
X318818Y42784D01*
X319834D01*
X320850Y41768D01*
X327200Y29068D02*
X328216Y30084D01*
X329232D01*
X328216Y31100D01*
X329232Y32116D01*
X328216D01*
X327200Y33132D01*
X326184Y32116D01*
X325168D01*
X326184Y31100D01*
X325168Y30084D01*
X326184D01*
X327200Y29068D01*
X320850Y16368D02*
X321866Y17384D01*
X322882D01*
X321866Y18400D01*
X322882Y19416D01*
X321866D01*
X320850Y20432D01*
X319834Y19416D01*
X318818D01*
X319834Y18400D01*
X318818Y17384D01*
X319834D01*
X320850Y16368D01*
Y-9032D02*
X321866Y-8016D01*
X322882D01*
X321866Y-7000D01*
X322882Y-5984D01*
X321866D01*
X320850Y-4968D01*
X319834Y-5984D01*
X318818D01*
X319834Y-7000D01*
X318818Y-8016D01*
X319834D01*
X320850Y-9032D01*
X327200Y-21732D02*
X328216Y-20716D01*
X329232D01*
X328216Y-19700D01*
X329232Y-18684D01*
X328216D01*
X327200Y-17668D01*
X326184Y-18684D01*
X325168D01*
X326184Y-19700D01*
X325168Y-20716D01*
X326184D01*
X327200Y-21732D01*
X320850Y-59832D02*
X321866Y-58816D01*
X322882D01*
X321866Y-57800D01*
X322882Y-56784D01*
X321866D01*
X320850Y-55768D01*
X319834Y-56784D01*
X318818D01*
X319834Y-57800D01*
X318818Y-58816D01*
X319834D01*
X320850Y-59832D01*
X327200Y-72532D02*
X328216Y-71516D01*
X329232D01*
X328216Y-70500D01*
X329232Y-69484D01*
X328216D01*
X327200Y-68468D01*
X326184Y-69484D01*
X325168D01*
X326184Y-70500D01*
X325168Y-71516D01*
X326184D01*
X327200Y-72532D01*
X320850Y-85232D02*
X321866Y-84216D01*
X322882D01*
X321866Y-83200D01*
X322882Y-82184D01*
X321866D01*
X320850Y-81168D01*
X319834Y-82184D01*
X318818D01*
X319834Y-83200D01*
X318818Y-84216D01*
X319834D01*
X320850Y-85232D01*
X327200Y-97932D02*
X328216Y-96916D01*
X329232D01*
X328216Y-95900D01*
X329232Y-94884D01*
X328216D01*
X327200Y-93868D01*
X326184Y-94884D01*
X325168D01*
X326184Y-95900D01*
X325168Y-96916D01*
X326184D01*
X327200Y-97932D01*
X320850Y-110632D02*
X321866Y-109616D01*
X322882D01*
X321866Y-108600D01*
X322882Y-107584D01*
X321866D01*
X320850Y-106568D01*
X319834Y-107584D01*
X318818D01*
X319834Y-108600D01*
X318818Y-109616D01*
X319834D01*
X320850Y-110632D01*
X314500Y181468D02*
X315516Y182484D01*
X316532D01*
X315516Y183500D01*
X316532Y184516D01*
X315516D01*
X314500Y185532D01*
X313484Y184516D01*
X312468D01*
X313484Y183500D01*
X312468Y182484D01*
X313484D01*
X314500Y181468D01*
X308150Y168768D02*
X309166Y169784D01*
X310182D01*
X309166Y170800D01*
X310182Y171816D01*
X309166D01*
X308150Y172832D01*
X307134Y171816D01*
X306118D01*
X307134Y170800D01*
X306118Y169784D01*
X307134D01*
X308150Y168768D01*
X314500Y130668D02*
X315516Y131684D01*
X316532D01*
X315516Y132700D01*
X316532Y133716D01*
X315516D01*
X314500Y134732D01*
X313484Y133716D01*
X312468D01*
X313484Y132700D01*
X312468Y131684D01*
X313484D01*
X314500Y130668D01*
X308150Y117968D02*
X309166Y118984D01*
X310182D01*
X309166Y120000D01*
X310182Y121016D01*
X309166D01*
X308150Y122032D01*
X307134Y121016D01*
X306118D01*
X307134Y120000D01*
X306118Y118984D01*
X307134D01*
X308150Y117968D01*
Y67168D02*
X309166Y68184D01*
X310182D01*
X309166Y69200D01*
X310182Y70216D01*
X309166D01*
X308150Y71232D01*
X307134Y70216D01*
X306118D01*
X307134Y69200D01*
X306118Y68184D01*
X307134D01*
X308150Y67168D01*
Y41768D02*
X309166Y42784D01*
X310182D01*
X309166Y43800D01*
X310182Y44816D01*
X309166D01*
X308150Y45832D01*
X307134Y44816D01*
X306118D01*
X307134Y43800D01*
X306118Y42784D01*
X307134D01*
X308150Y41768D01*
X314500Y29068D02*
X315516Y30084D01*
X316532D01*
X315516Y31100D01*
X316532Y32116D01*
X315516D01*
X314500Y33132D01*
X313484Y32116D01*
X312468D01*
X313484Y31100D01*
X312468Y30084D01*
X313484D01*
X314500Y29068D01*
X308150Y16368D02*
X309166Y17384D01*
X310182D01*
X309166Y18400D01*
X310182Y19416D01*
X309166D01*
X308150Y20432D01*
X307134Y19416D01*
X306118D01*
X307134Y18400D01*
X306118Y17384D01*
X307134D01*
X308150Y16368D01*
Y-9032D02*
X309166Y-8016D01*
X310182D01*
X309166Y-7000D01*
X310182Y-5984D01*
X309166D01*
X308150Y-4968D01*
X307134Y-5984D01*
X306118D01*
X307134Y-7000D01*
X306118Y-8016D01*
X307134D01*
X308150Y-9032D01*
Y-59832D02*
X309166Y-58816D01*
X310182D01*
X309166Y-57800D01*
X310182Y-56784D01*
X309166D01*
X308150Y-55768D01*
X307134Y-56784D01*
X306118D01*
X307134Y-57800D01*
X306118Y-58816D01*
X307134D01*
X308150Y-59832D01*
X314500Y-72532D02*
X315516Y-71516D01*
X316532D01*
X315516Y-70500D01*
X316532Y-69484D01*
X315516D01*
X314500Y-68468D01*
X313484Y-69484D01*
X312468D01*
X313484Y-70500D01*
X312468Y-71516D01*
X313484D01*
X314500Y-72532D01*
X308150Y-85232D02*
X309166Y-84216D01*
X310182D01*
X309166Y-83200D01*
X310182Y-82184D01*
X309166D01*
X308150Y-81168D01*
X307134Y-82184D01*
X306118D01*
X307134Y-83200D01*
X306118Y-84216D01*
X307134D01*
X308150Y-85232D01*
X314500Y-97932D02*
X315516Y-96916D01*
X316532D01*
X315516Y-95900D01*
X316532Y-94884D01*
X315516D01*
X314500Y-93868D01*
X313484Y-94884D01*
X312468D01*
X313484Y-95900D01*
X312468Y-96916D01*
X313484D01*
X314500Y-97932D01*
X308150Y-110632D02*
X309166Y-109616D01*
X310182D01*
X309166Y-108600D01*
X310182Y-107584D01*
X309166D01*
X308150Y-106568D01*
X307134Y-107584D01*
X306118D01*
X307134Y-108600D01*
X306118Y-109616D01*
X307134D01*
X308150Y-110632D01*
X301800Y181468D02*
X302816Y182484D01*
X303832D01*
X302816Y183500D01*
X303832Y184516D01*
X302816D01*
X301800Y185532D01*
X300784Y184516D01*
X299768D01*
X300784Y183500D01*
X299768Y182484D01*
X300784D01*
X301800Y181468D01*
X295450Y168768D02*
X296466Y169784D01*
X297482D01*
X296466Y170800D01*
X297482Y171816D01*
X296466D01*
X295450Y172832D01*
X294434Y171816D01*
X293418D01*
X294434Y170800D01*
X293418Y169784D01*
X294434D01*
X295450Y168768D01*
Y143368D02*
X296466Y144384D01*
X297482D01*
X296466Y145400D01*
X297482Y146416D01*
X296466D01*
X295450Y147432D01*
X294434Y146416D01*
X293418D01*
X294434Y145400D01*
X293418Y144384D01*
X294434D01*
X295450Y143368D01*
X301800Y130668D02*
X302816Y131684D01*
X303832D01*
X302816Y132700D01*
X303832Y133716D01*
X302816D01*
X301800Y134732D01*
X300784Y133716D01*
X299768D01*
X300784Y132700D01*
X299768Y131684D01*
X300784D01*
X301800Y130668D01*
X295450Y117968D02*
X296466Y118984D01*
X297482D01*
X296466Y120000D01*
X297482Y121016D01*
X296466D01*
X295450Y122032D01*
X294434Y121016D01*
X293418D01*
X294434Y120000D01*
X293418Y118984D01*
X294434D01*
X295450Y117968D01*
X301800Y79868D02*
X302816Y80884D01*
X303832D01*
X302816Y81900D01*
X303832Y82916D01*
X302816D01*
X301800Y83932D01*
X300784Y82916D01*
X299768D01*
X300784Y81900D01*
X299768Y80884D01*
X300784D01*
X301800Y79868D01*
X295450Y67168D02*
X296466Y68184D01*
X297482D01*
X296466Y69200D01*
X297482Y70216D01*
X296466D01*
X295450Y71232D01*
X294434Y70216D01*
X293418D01*
X294434Y69200D01*
X293418Y68184D01*
X294434D01*
X295450Y67168D01*
Y41768D02*
X296466Y42784D01*
X297482D01*
X296466Y43800D01*
X297482Y44816D01*
X296466D01*
X295450Y45832D01*
X294434Y44816D01*
X293418D01*
X294434Y43800D01*
X293418Y42784D01*
X294434D01*
X295450Y41768D01*
X301800Y29068D02*
X302816Y30084D01*
X303832D01*
X302816Y31100D01*
X303832Y32116D01*
X302816D01*
X301800Y33132D01*
X300784Y32116D01*
X299768D01*
X300784Y31100D01*
X299768Y30084D01*
X300784D01*
X301800Y29068D01*
X295450Y16368D02*
X296466Y17384D01*
X297482D01*
X296466Y18400D01*
X297482Y19416D01*
X296466D01*
X295450Y20432D01*
X294434Y19416D01*
X293418D01*
X294434Y18400D01*
X293418Y17384D01*
X294434D01*
X295450Y16368D01*
Y-9032D02*
X296466Y-8016D01*
X297482D01*
X296466Y-7000D01*
X297482Y-5984D01*
X296466D01*
X295450Y-4968D01*
X294434Y-5984D01*
X293418D01*
X294434Y-7000D01*
X293418Y-8016D01*
X294434D01*
X295450Y-9032D01*
X301800Y-21732D02*
X302816Y-20716D01*
X303832D01*
X302816Y-19700D01*
X303832Y-18684D01*
X302816D01*
X301800Y-17668D01*
X300784Y-18684D01*
X299768D01*
X300784Y-19700D01*
X299768Y-20716D01*
X300784D01*
X301800Y-21732D01*
X295450Y-59832D02*
X296466Y-58816D01*
X297482D01*
X296466Y-57800D01*
X297482Y-56784D01*
X296466D01*
X295450Y-55768D01*
X294434Y-56784D01*
X293418D01*
X294434Y-57800D01*
X293418Y-58816D01*
X294434D01*
X295450Y-59832D01*
X301800Y-72532D02*
X302816Y-71516D01*
X303832D01*
X302816Y-70500D01*
X303832Y-69484D01*
X302816D01*
X301800Y-68468D01*
X300784Y-69484D01*
X299768D01*
X300784Y-70500D01*
X299768Y-71516D01*
X300784D01*
X301800Y-72532D01*
X295450Y-85232D02*
X296466Y-84216D01*
X297482D01*
X296466Y-83200D01*
X297482Y-82184D01*
X296466D01*
X295450Y-81168D01*
X294434Y-82184D01*
X293418D01*
X294434Y-83200D01*
X293418Y-84216D01*
X294434D01*
X295450Y-85232D01*
X301800Y-97932D02*
X302816Y-96916D01*
X303832D01*
X302816Y-95900D01*
X303832Y-94884D01*
X302816D01*
X301800Y-93868D01*
X300784Y-94884D01*
X299768D01*
X300784Y-95900D01*
X299768Y-96916D01*
X300784D01*
X301800Y-97932D01*
X295450Y-110632D02*
X296466Y-109616D01*
X297482D01*
X296466Y-108600D01*
X297482Y-107584D01*
X296466D01*
X295450Y-106568D01*
X294434Y-107584D01*
X293418D01*
X294434Y-108600D01*
X293418Y-109616D01*
X294434D01*
X295450Y-110632D01*
X289100Y181468D02*
X290116Y182484D01*
X291132D01*
X290116Y183500D01*
X291132Y184516D01*
X290116D01*
X289100Y185532D01*
X288084Y184516D01*
X287068D01*
X288084Y183500D01*
X287068Y182484D01*
X288084D01*
X289100Y181468D01*
X282750Y168768D02*
X283766Y169784D01*
X284782D01*
X283766Y170800D01*
X284782Y171816D01*
X283766D01*
X282750Y172832D01*
X281734Y171816D01*
X280718D01*
X281734Y170800D01*
X280718Y169784D01*
X281734D01*
X282750Y168768D01*
X289100Y130668D02*
X290116Y131684D01*
X291132D01*
X290116Y132700D01*
X291132Y133716D01*
X290116D01*
X289100Y134732D01*
X288084Y133716D01*
X287068D01*
X288084Y132700D01*
X287068Y131684D01*
X288084D01*
X289100Y130668D01*
X282750Y117968D02*
X283766Y118984D01*
X284782D01*
X283766Y120000D01*
X284782Y121016D01*
X283766D01*
X282750Y122032D01*
X281734Y121016D01*
X280718D01*
X281734Y120000D01*
X280718Y118984D01*
X281734D01*
X282750Y117968D01*
X289100Y79868D02*
X290116Y80884D01*
X291132D01*
X290116Y81900D01*
X291132Y82916D01*
X290116D01*
X289100Y83932D01*
X288084Y82916D01*
X287068D01*
X288084Y81900D01*
X287068Y80884D01*
X288084D01*
X289100Y79868D01*
X282750Y67168D02*
X283766Y68184D01*
X284782D01*
X283766Y69200D01*
X284782Y70216D01*
X283766D01*
X282750Y71232D01*
X281734Y70216D01*
X280718D01*
X281734Y69200D01*
X280718Y68184D01*
X281734D01*
X282750Y67168D01*
Y41768D02*
X283766Y42784D01*
X284782D01*
X283766Y43800D01*
X284782Y44816D01*
X283766D01*
X282750Y45832D01*
X281734Y44816D01*
X280718D01*
X281734Y43800D01*
X280718Y42784D01*
X281734D01*
X282750Y41768D01*
X289100Y29068D02*
X290116Y30084D01*
X291132D01*
X290116Y31100D01*
X291132Y32116D01*
X290116D01*
X289100Y33132D01*
X288084Y32116D01*
X287068D01*
X288084Y31100D01*
X287068Y30084D01*
X288084D01*
X289100Y29068D01*
X282750Y16368D02*
X283766Y17384D01*
X284782D01*
X283766Y18400D01*
X284782Y19416D01*
X283766D01*
X282750Y20432D01*
X281734Y19416D01*
X280718D01*
X281734Y18400D01*
X280718Y17384D01*
X281734D01*
X282750Y16368D01*
Y-9032D02*
X283766Y-8016D01*
X284782D01*
X283766Y-7000D01*
X284782Y-5984D01*
X283766D01*
X282750Y-4968D01*
X281734Y-5984D01*
X280718D01*
X281734Y-7000D01*
X280718Y-8016D01*
X281734D01*
X282750Y-9032D01*
X289100Y-21732D02*
X290116Y-20716D01*
X291132D01*
X290116Y-19700D01*
X291132Y-18684D01*
X290116D01*
X289100Y-17668D01*
X288084Y-18684D01*
X287068D01*
X288084Y-19700D01*
X287068Y-20716D01*
X288084D01*
X289100Y-21732D01*
X282750Y-59832D02*
X283766Y-58816D01*
X284782D01*
X283766Y-57800D01*
X284782Y-56784D01*
X283766D01*
X282750Y-55768D01*
X281734Y-56784D01*
X280718D01*
X281734Y-57800D01*
X280718Y-58816D01*
X281734D01*
X282750Y-59832D01*
X289100Y-72532D02*
X290116Y-71516D01*
X291132D01*
X290116Y-70500D01*
X291132Y-69484D01*
X290116D01*
X289100Y-68468D01*
X288084Y-69484D01*
X287068D01*
X288084Y-70500D01*
X287068Y-71516D01*
X288084D01*
X289100Y-72532D01*
X282750Y-85232D02*
X283766Y-84216D01*
X284782D01*
X283766Y-83200D01*
X284782Y-82184D01*
X283766D01*
X282750Y-81168D01*
X281734Y-82184D01*
X280718D01*
X281734Y-83200D01*
X280718Y-84216D01*
X281734D01*
X282750Y-85232D01*
X289100Y-97932D02*
X290116Y-96916D01*
X291132D01*
X290116Y-95900D01*
X291132Y-94884D01*
X290116D01*
X289100Y-93868D01*
X288084Y-94884D01*
X287068D01*
X288084Y-95900D01*
X287068Y-96916D01*
X288084D01*
X289100Y-97932D01*
X282750Y-110632D02*
X283766Y-109616D01*
X284782D01*
X283766Y-108600D01*
X284782Y-107584D01*
X283766D01*
X282750Y-106568D01*
X281734Y-107584D01*
X280718D01*
X281734Y-108600D01*
X280718Y-109616D01*
X281734D01*
X282750Y-110632D01*
X276400Y181468D02*
X277416Y182484D01*
X278432D01*
X277416Y183500D01*
X278432Y184516D01*
X277416D01*
X276400Y185532D01*
X275384Y184516D01*
X274368D01*
X275384Y183500D01*
X274368Y182484D01*
X275384D01*
X276400Y181468D01*
X270050Y168768D02*
X271066Y169784D01*
X272082D01*
X271066Y170800D01*
X272082Y171816D01*
X271066D01*
X270050Y172832D01*
X269034Y171816D01*
X268018D01*
X269034Y170800D01*
X268018Y169784D01*
X269034D01*
X270050Y168768D01*
X276400Y130668D02*
X277416Y131684D01*
X278432D01*
X277416Y132700D01*
X278432Y133716D01*
X277416D01*
X276400Y134732D01*
X275384Y133716D01*
X274368D01*
X275384Y132700D01*
X274368Y131684D01*
X275384D01*
X276400Y130668D01*
X270050Y117968D02*
X271066Y118984D01*
X272082D01*
X271066Y120000D01*
X272082Y121016D01*
X271066D01*
X270050Y122032D01*
X269034Y121016D01*
X268018D01*
X269034Y120000D01*
X268018Y118984D01*
X269034D01*
X270050Y117968D01*
X276400Y105268D02*
X277416Y106284D01*
X278432D01*
X277416Y107300D01*
X278432Y108316D01*
X277416D01*
X276400Y109332D01*
X275384Y108316D01*
X274368D01*
X275384Y107300D01*
X274368Y106284D01*
X275384D01*
X276400Y105268D01*
Y79868D02*
X277416Y80884D01*
X278432D01*
X277416Y81900D01*
X278432Y82916D01*
X277416D01*
X276400Y83932D01*
X275384Y82916D01*
X274368D01*
X275384Y81900D01*
X274368Y80884D01*
X275384D01*
X276400Y79868D01*
Y54468D02*
X277416Y55484D01*
X278432D01*
X277416Y56500D01*
X278432Y57516D01*
X277416D01*
X276400Y58532D01*
X275384Y57516D01*
X274368D01*
X275384Y56500D01*
X274368Y55484D01*
X275384D01*
X276400Y54468D01*
X270050Y41768D02*
X271066Y42784D01*
X272082D01*
X271066Y43800D01*
X272082Y44816D01*
X271066D01*
X270050Y45832D01*
X269034Y44816D01*
X268018D01*
X269034Y43800D01*
X268018Y42784D01*
X269034D01*
X270050Y41768D01*
X276400Y29068D02*
X277416Y30084D01*
X278432D01*
X277416Y31100D01*
X278432Y32116D01*
X277416D01*
X276400Y33132D01*
X275384Y32116D01*
X274368D01*
X275384Y31100D01*
X274368Y30084D01*
X275384D01*
X276400Y29068D01*
X270050Y16368D02*
X271066Y17384D01*
X272082D01*
X271066Y18400D01*
X272082Y19416D01*
X271066D01*
X270050Y20432D01*
X269034Y19416D01*
X268018D01*
X269034Y18400D01*
X268018Y17384D01*
X269034D01*
X270050Y16368D01*
X276400Y3668D02*
X277416Y4684D01*
X278432D01*
X277416Y5700D01*
X278432Y6716D01*
X277416D01*
X276400Y7732D01*
X275384Y6716D01*
X274368D01*
X275384Y5700D01*
X274368Y4684D01*
X275384D01*
X276400Y3668D01*
Y-21732D02*
X277416Y-20716D01*
X278432D01*
X277416Y-19700D01*
X278432Y-18684D01*
X277416D01*
X276400Y-17668D01*
X275384Y-18684D01*
X274368D01*
X275384Y-19700D01*
X274368Y-20716D01*
X275384D01*
X276400Y-21732D01*
Y-47132D02*
X277416Y-46116D01*
X278432D01*
X277416Y-45100D01*
X278432Y-44084D01*
X277416D01*
X276400Y-43068D01*
X275384Y-44084D01*
X274368D01*
X275384Y-45100D01*
X274368Y-46116D01*
X275384D01*
X276400Y-47132D01*
X270050Y-59832D02*
X271066Y-58816D01*
X272082D01*
X271066Y-57800D01*
X272082Y-56784D01*
X271066D01*
X270050Y-55768D01*
X269034Y-56784D01*
X268018D01*
X269034Y-57800D01*
X268018Y-58816D01*
X269034D01*
X270050Y-59832D01*
X276400Y-72532D02*
X277416Y-71516D01*
X278432D01*
X277416Y-70500D01*
X278432Y-69484D01*
X277416D01*
X276400Y-68468D01*
X275384Y-69484D01*
X274368D01*
X275384Y-70500D01*
X274368Y-71516D01*
X275384D01*
X276400Y-72532D01*
X270050Y-85232D02*
X271066Y-84216D01*
X272082D01*
X271066Y-83200D01*
X272082Y-82184D01*
X271066D01*
X270050Y-81168D01*
X269034Y-82184D01*
X268018D01*
X269034Y-83200D01*
X268018Y-84216D01*
X269034D01*
X270050Y-85232D01*
X276400Y-97932D02*
X277416Y-96916D01*
X278432D01*
X277416Y-95900D01*
X278432Y-94884D01*
X277416D01*
X276400Y-93868D01*
X275384Y-94884D01*
X274368D01*
X275384Y-95900D01*
X274368Y-96916D01*
X275384D01*
X276400Y-97932D01*
X270050Y-110632D02*
X271066Y-109616D01*
X272082D01*
X271066Y-108600D01*
X272082Y-107584D01*
X271066D01*
X270050Y-106568D01*
X269034Y-107584D01*
X268018D01*
X269034Y-108600D01*
X268018Y-109616D01*
X269034D01*
X270050Y-110632D01*
X263700Y181468D02*
X264716Y182484D01*
X265732D01*
X264716Y183500D01*
X265732Y184516D01*
X264716D01*
X263700Y185532D01*
X262684Y184516D01*
X261668D01*
X262684Y183500D01*
X261668Y182484D01*
X262684D01*
X263700Y181468D01*
X257350Y168768D02*
X258366Y169784D01*
X259382D01*
X258366Y170800D01*
X259382Y171816D01*
X258366D01*
X257350Y172832D01*
X256334Y171816D01*
X255318D01*
X256334Y170800D01*
X255318Y169784D01*
X256334D01*
X257350Y168768D01*
X263700Y130668D02*
X264716Y131684D01*
X265732D01*
X264716Y132700D01*
X265732Y133716D01*
X264716D01*
X263700Y134732D01*
X262684Y133716D01*
X261668D01*
X262684Y132700D01*
X261668Y131684D01*
X262684D01*
X263700Y130668D01*
X257350Y117968D02*
X258366Y118984D01*
X259382D01*
X258366Y120000D01*
X259382Y121016D01*
X258366D01*
X257350Y122032D01*
X256334Y121016D01*
X255318D01*
X256334Y120000D01*
X255318Y118984D01*
X256334D01*
X257350Y117968D01*
Y41768D02*
X258366Y42784D01*
X259382D01*
X258366Y43800D01*
X259382Y44816D01*
X258366D01*
X257350Y45832D01*
X256334Y44816D01*
X255318D01*
X256334Y43800D01*
X255318Y42784D01*
X256334D01*
X257350Y41768D01*
X263700Y29068D02*
X264716Y30084D01*
X265732D01*
X264716Y31100D01*
X265732Y32116D01*
X264716D01*
X263700Y33132D01*
X262684Y32116D01*
X261668D01*
X262684Y31100D01*
X261668Y30084D01*
X262684D01*
X263700Y29068D01*
X257350Y16368D02*
X258366Y17384D01*
X259382D01*
X258366Y18400D01*
X259382Y19416D01*
X258366D01*
X257350Y20432D01*
X256334Y19416D01*
X255318D01*
X256334Y18400D01*
X255318Y17384D01*
X256334D01*
X257350Y16368D01*
Y-59832D02*
X258366Y-58816D01*
X259382D01*
X258366Y-57800D01*
X259382Y-56784D01*
X258366D01*
X257350Y-55768D01*
X256334Y-56784D01*
X255318D01*
X256334Y-57800D01*
X255318Y-58816D01*
X256334D01*
X257350Y-59832D01*
X263700Y-72532D02*
X264716Y-71516D01*
X265732D01*
X264716Y-70500D01*
X265732Y-69484D01*
X264716D01*
X263700Y-68468D01*
X262684Y-69484D01*
X261668D01*
X262684Y-70500D01*
X261668Y-71516D01*
X262684D01*
X263700Y-72532D01*
X257350Y-85232D02*
X258366Y-84216D01*
X259382D01*
X258366Y-83200D01*
X259382Y-82184D01*
X258366D01*
X257350Y-81168D01*
X256334Y-82184D01*
X255318D01*
X256334Y-83200D01*
X255318Y-84216D01*
X256334D01*
X257350Y-85232D01*
X263700Y-97932D02*
X264716Y-96916D01*
X265732D01*
X264716Y-95900D01*
X265732Y-94884D01*
X264716D01*
X263700Y-93868D01*
X262684Y-94884D01*
X261668D01*
X262684Y-95900D01*
X261668Y-96916D01*
X262684D01*
X263700Y-97932D01*
X257350Y-110632D02*
X258366Y-109616D01*
X259382D01*
X258366Y-108600D01*
X259382Y-107584D01*
X258366D01*
X257350Y-106568D01*
X256334Y-107584D01*
X255318D01*
X256334Y-108600D01*
X255318Y-109616D01*
X256334D01*
X257350Y-110632D01*
X251000Y181468D02*
X252016Y182484D01*
X253032D01*
X252016Y183500D01*
X253032Y184516D01*
X252016D01*
X251000Y185532D01*
X249984Y184516D01*
X248968D01*
X249984Y183500D01*
X248968Y182484D01*
X249984D01*
X251000Y181468D01*
X244650Y168768D02*
X245666Y169784D01*
X246682D01*
X245666Y170800D01*
X246682Y171816D01*
X245666D01*
X244650Y172832D01*
X243634Y171816D01*
X242618D01*
X243634Y170800D01*
X242618Y169784D01*
X243634D01*
X244650Y168768D01*
Y143368D02*
X245666Y144384D01*
X246682D01*
X245666Y145400D01*
X246682Y146416D01*
X245666D01*
X244650Y147432D01*
X243634Y146416D01*
X242618D01*
X243634Y145400D01*
X242618Y144384D01*
X243634D01*
X244650Y143368D01*
X251000Y130668D02*
X252016Y131684D01*
X253032D01*
X252016Y132700D01*
X253032Y133716D01*
X252016D01*
X251000Y134732D01*
X249984Y133716D01*
X248968D01*
X249984Y132700D01*
X248968Y131684D01*
X249984D01*
X251000Y130668D01*
X244650Y117968D02*
X245666Y118984D01*
X246682D01*
X245666Y120000D01*
X246682Y121016D01*
X245666D01*
X244650Y122032D01*
X243634Y121016D01*
X242618D01*
X243634Y120000D01*
X242618Y118984D01*
X243634D01*
X244650Y117968D01*
Y41768D02*
X245666Y42784D01*
X246682D01*
X245666Y43800D01*
X246682Y44816D01*
X245666D01*
X244650Y45832D01*
X243634Y44816D01*
X242618D01*
X243634Y43800D01*
X242618Y42784D01*
X243634D01*
X244650Y41768D01*
X251000Y29068D02*
X252016Y30084D01*
X253032D01*
X252016Y31100D01*
X253032Y32116D01*
X252016D01*
X251000Y33132D01*
X249984Y32116D01*
X248968D01*
X249984Y31100D01*
X248968Y30084D01*
X249984D01*
X251000Y29068D01*
X244650Y16368D02*
X245666Y17384D01*
X246682D01*
X245666Y18400D01*
X246682Y19416D01*
X245666D01*
X244650Y20432D01*
X243634Y19416D01*
X242618D01*
X243634Y18400D01*
X242618Y17384D01*
X243634D01*
X244650Y16368D01*
Y-59832D02*
X245666Y-58816D01*
X246682D01*
X245666Y-57800D01*
X246682Y-56784D01*
X245666D01*
X244650Y-55768D01*
X243634Y-56784D01*
X242618D01*
X243634Y-57800D01*
X242618Y-58816D01*
X243634D01*
X244650Y-59832D01*
X251000Y-72532D02*
X252016Y-71516D01*
X253032D01*
X252016Y-70500D01*
X253032Y-69484D01*
X252016D01*
X251000Y-68468D01*
X249984Y-69484D01*
X248968D01*
X249984Y-70500D01*
X248968Y-71516D01*
X249984D01*
X251000Y-72532D01*
X244650Y-85232D02*
X245666Y-84216D01*
X246682D01*
X245666Y-83200D01*
X246682Y-82184D01*
X245666D01*
X244650Y-81168D01*
X243634Y-82184D01*
X242618D01*
X243634Y-83200D01*
X242618Y-84216D01*
X243634D01*
X244650Y-85232D01*
X251000Y-97932D02*
X252016Y-96916D01*
X253032D01*
X252016Y-95900D01*
X253032Y-94884D01*
X252016D01*
X251000Y-93868D01*
X249984Y-94884D01*
X248968D01*
X249984Y-95900D01*
X248968Y-96916D01*
X249984D01*
X251000Y-97932D01*
X244650Y-110632D02*
X245666Y-109616D01*
X246682D01*
X245666Y-108600D01*
X246682Y-107584D01*
X245666D01*
X244650Y-106568D01*
X243634Y-107584D01*
X242618D01*
X243634Y-108600D01*
X242618Y-109616D01*
X243634D01*
X244650Y-110632D01*
X238300Y181468D02*
X239316Y182484D01*
X240332D01*
X239316Y183500D01*
X240332Y184516D01*
X239316D01*
X238300Y185532D01*
X237284Y184516D01*
X236268D01*
X237284Y183500D01*
X236268Y182484D01*
X237284D01*
X238300Y181468D01*
X231950Y168768D02*
X232966Y169784D01*
X233982D01*
X232966Y170800D01*
X233982Y171816D01*
X232966D01*
X231950Y172832D01*
X230934Y171816D01*
X229918D01*
X230934Y170800D01*
X229918Y169784D01*
X230934D01*
X231950Y168768D01*
X238300Y130668D02*
X239316Y131684D01*
X240332D01*
X239316Y132700D01*
X240332Y133716D01*
X239316D01*
X238300Y134732D01*
X237284Y133716D01*
X236268D01*
X237284Y132700D01*
X236268Y131684D01*
X237284D01*
X238300Y130668D01*
X231950Y117968D02*
X232966Y118984D01*
X233982D01*
X232966Y120000D01*
X233982Y121016D01*
X232966D01*
X231950Y122032D01*
X230934Y121016D01*
X229918D01*
X230934Y120000D01*
X229918Y118984D01*
X230934D01*
X231950Y117968D01*
Y41768D02*
X232966Y42784D01*
X233982D01*
X232966Y43800D01*
X233982Y44816D01*
X232966D01*
X231950Y45832D01*
X230934Y44816D01*
X229918D01*
X230934Y43800D01*
X229918Y42784D01*
X230934D01*
X231950Y41768D01*
Y-59832D02*
X232966Y-58816D01*
X233982D01*
X232966Y-57800D01*
X233982Y-56784D01*
X232966D01*
X231950Y-55768D01*
X230934Y-56784D01*
X229918D01*
X230934Y-57800D01*
X229918Y-58816D01*
X230934D01*
X231950Y-59832D01*
X238300Y-72532D02*
X239316Y-71516D01*
X240332D01*
X239316Y-70500D01*
X240332Y-69484D01*
X239316D01*
X238300Y-68468D01*
X237284Y-69484D01*
X236268D01*
X237284Y-70500D01*
X236268Y-71516D01*
X237284D01*
X238300Y-72532D01*
X231950Y-85232D02*
X232966Y-84216D01*
X233982D01*
X232966Y-83200D01*
X233982Y-82184D01*
X232966D01*
X231950Y-81168D01*
X230934Y-82184D01*
X229918D01*
X230934Y-83200D01*
X229918Y-84216D01*
X230934D01*
X231950Y-85232D01*
X238300Y-97932D02*
X239316Y-96916D01*
X240332D01*
X239316Y-95900D01*
X240332Y-94884D01*
X239316D01*
X238300Y-93868D01*
X237284Y-94884D01*
X236268D01*
X237284Y-95900D01*
X236268Y-96916D01*
X237284D01*
X238300Y-97932D01*
X231950Y-110632D02*
X232966Y-109616D01*
X233982D01*
X232966Y-108600D01*
X233982Y-107584D01*
X232966D01*
X231950Y-106568D01*
X230934Y-107584D01*
X229918D01*
X230934Y-108600D01*
X229918Y-109616D01*
X230934D01*
X231950Y-110632D01*
X225600Y181468D02*
X226616Y182484D01*
X227632D01*
X226616Y183500D01*
X227632Y184516D01*
X226616D01*
X225600Y185532D01*
X224584Y184516D01*
X223568D01*
X224584Y183500D01*
X223568Y182484D01*
X224584D01*
X225600Y181468D01*
Y156068D02*
X226616Y157084D01*
X227632D01*
X226616Y158100D01*
X227632Y159116D01*
X226616D01*
X225600Y160132D01*
X224584Y159116D01*
X223568D01*
X224584Y158100D01*
X223568Y157084D01*
X224584D01*
X225600Y156068D01*
Y130668D02*
X226616Y131684D01*
X227632D01*
X226616Y132700D01*
X227632Y133716D01*
X226616D01*
X225600Y134732D01*
X224584Y133716D01*
X223568D01*
X224584Y132700D01*
X223568Y131684D01*
X224584D01*
X225600Y130668D01*
Y-72532D02*
X226616Y-71516D01*
X227632D01*
X226616Y-70500D01*
X227632Y-69484D01*
X226616D01*
X225600Y-68468D01*
X224584Y-69484D01*
X223568D01*
X224584Y-70500D01*
X223568Y-71516D01*
X224584D01*
X225600Y-72532D01*
Y-97932D02*
X226616Y-96916D01*
X227632D01*
X226616Y-95900D01*
X227632Y-94884D01*
X226616D01*
X225600Y-93868D01*
X224584Y-94884D01*
X223568D01*
X224584Y-95900D01*
X223568Y-96916D01*
X224584D01*
X225600Y-97932D01*
X219250Y-110632D02*
X220266Y-109616D01*
X221282D01*
X220266Y-108600D01*
X221282Y-107584D01*
X220266D01*
X219250Y-106568D01*
X218234Y-107584D01*
X217218D01*
X218234Y-108600D01*
X217218Y-109616D01*
X218234D01*
X219250Y-110632D01*
X212900Y181468D02*
X213916Y182484D01*
X214932D01*
X213916Y183500D01*
X214932Y184516D01*
X213916D01*
X212900Y185532D01*
X211884Y184516D01*
X210868D01*
X211884Y183500D01*
X210868Y182484D01*
X211884D01*
X212900Y181468D01*
X206550Y168768D02*
X207566Y169784D01*
X208582D01*
X207566Y170800D01*
X208582Y171816D01*
X207566D01*
X206550Y172832D01*
X205534Y171816D01*
X204518D01*
X205534Y170800D01*
X204518Y169784D01*
X205534D01*
X206550Y168768D01*
Y143368D02*
X207566Y144384D01*
X208582D01*
X207566Y145400D01*
X208582Y146416D01*
X207566D01*
X206550Y147432D01*
X205534Y146416D01*
X204518D01*
X205534Y145400D01*
X204518Y144384D01*
X205534D01*
X206550Y143368D01*
Y117968D02*
X207566Y118984D01*
X208582D01*
X207566Y120000D01*
X208582Y121016D01*
X207566D01*
X206550Y122032D01*
X205534Y121016D01*
X204518D01*
X205534Y120000D01*
X204518Y118984D01*
X205534D01*
X206550Y117968D01*
Y41768D02*
X207566Y42784D01*
X208582D01*
X207566Y43800D01*
X208582Y44816D01*
X207566D01*
X206550Y45832D01*
X205534Y44816D01*
X204518D01*
X205534Y43800D01*
X204518Y42784D01*
X205534D01*
X206550Y41768D01*
Y16368D02*
X207566Y17384D01*
X208582D01*
X207566Y18400D01*
X208582Y19416D01*
X207566D01*
X206550Y20432D01*
X205534Y19416D01*
X204518D01*
X205534Y18400D01*
X204518Y17384D01*
X205534D01*
X206550Y16368D01*
Y-59832D02*
X207566Y-58816D01*
X208582D01*
X207566Y-57800D01*
X208582Y-56784D01*
X207566D01*
X206550Y-55768D01*
X205534Y-56784D01*
X204518D01*
X205534Y-57800D01*
X204518Y-58816D01*
X205534D01*
X206550Y-59832D01*
Y-85232D02*
X207566Y-84216D01*
X208582D01*
X207566Y-83200D01*
X208582Y-82184D01*
X207566D01*
X206550Y-81168D01*
X205534Y-82184D01*
X204518D01*
X205534Y-83200D01*
X204518Y-84216D01*
X205534D01*
X206550Y-85232D01*
Y-110632D02*
X207566Y-109616D01*
X208582D01*
X207566Y-108600D01*
X208582Y-107584D01*
X207566D01*
X206550Y-106568D01*
X205534Y-107584D01*
X204518D01*
X205534Y-108600D01*
X204518Y-109616D01*
X205534D01*
X206550Y-110632D01*
X200200Y181468D02*
X201216Y182484D01*
X202232D01*
X201216Y183500D01*
X202232Y184516D01*
X201216D01*
X200200Y185532D01*
X199184Y184516D01*
X198168D01*
X199184Y183500D01*
X198168Y182484D01*
X199184D01*
X200200Y181468D01*
X193850Y168768D02*
X194866Y169784D01*
X195882D01*
X194866Y170800D01*
X195882Y171816D01*
X194866D01*
X193850Y172832D01*
X192834Y171816D01*
X191818D01*
X192834Y170800D01*
X191818Y169784D01*
X192834D01*
X193850Y168768D01*
X200200Y156068D02*
X201216Y157084D01*
X202232D01*
X201216Y158100D01*
X202232Y159116D01*
X201216D01*
X200200Y160132D01*
X199184Y159116D01*
X198168D01*
X199184Y158100D01*
X198168Y157084D01*
X199184D01*
X200200Y156068D01*
X193850Y143368D02*
X194866Y144384D01*
X195882D01*
X194866Y145400D01*
X195882Y146416D01*
X194866D01*
X193850Y147432D01*
X192834Y146416D01*
X191818D01*
X192834Y145400D01*
X191818Y144384D01*
X192834D01*
X193850Y143368D01*
X200200Y130668D02*
X201216Y131684D01*
X202232D01*
X201216Y132700D01*
X202232Y133716D01*
X201216D01*
X200200Y134732D01*
X199184Y133716D01*
X198168D01*
X199184Y132700D01*
X198168Y131684D01*
X199184D01*
X200200Y130668D01*
X193850Y117968D02*
X194866Y118984D01*
X195882D01*
X194866Y120000D01*
X195882Y121016D01*
X194866D01*
X193850Y122032D01*
X192834Y121016D01*
X191818D01*
X192834Y120000D01*
X191818Y118984D01*
X192834D01*
X193850Y117968D01*
Y92568D02*
X194866Y93584D01*
X195882D01*
X194866Y94600D01*
X195882Y95616D01*
X194866D01*
X193850Y96632D01*
X192834Y95616D01*
X191818D01*
X192834Y94600D01*
X191818Y93584D01*
X192834D01*
X193850Y92568D01*
Y41768D02*
X194866Y42784D01*
X195882D01*
X194866Y43800D01*
X195882Y44816D01*
X194866D01*
X193850Y45832D01*
X192834Y44816D01*
X191818D01*
X192834Y43800D01*
X191818Y42784D01*
X192834D01*
X193850Y41768D01*
Y-9032D02*
X194866Y-8016D01*
X195882D01*
X194866Y-7000D01*
X195882Y-5984D01*
X194866D01*
X193850Y-4968D01*
X192834Y-5984D01*
X191818D01*
X192834Y-7000D01*
X191818Y-8016D01*
X192834D01*
X193850Y-9032D01*
Y-34432D02*
X194866Y-33416D01*
X195882D01*
X194866Y-32400D01*
X195882Y-31384D01*
X194866D01*
X193850Y-30368D01*
X192834Y-31384D01*
X191818D01*
X192834Y-32400D01*
X191818Y-33416D01*
X192834D01*
X193850Y-34432D01*
Y-59832D02*
X194866Y-58816D01*
X195882D01*
X194866Y-57800D01*
X195882Y-56784D01*
X194866D01*
X193850Y-55768D01*
X192834Y-56784D01*
X191818D01*
X192834Y-57800D01*
X191818Y-58816D01*
X192834D01*
X193850Y-59832D01*
X200200Y-72532D02*
X201216Y-71516D01*
X202232D01*
X201216Y-70500D01*
X202232Y-69484D01*
X201216D01*
X200200Y-68468D01*
X199184Y-69484D01*
X198168D01*
X199184Y-70500D01*
X198168Y-71516D01*
X199184D01*
X200200Y-72532D01*
X193850Y-85232D02*
X194866Y-84216D01*
X195882D01*
X194866Y-83200D01*
X195882Y-82184D01*
X194866D01*
X193850Y-81168D01*
X192834Y-82184D01*
X191818D01*
X192834Y-83200D01*
X191818Y-84216D01*
X192834D01*
X193850Y-85232D01*
X200200Y-97932D02*
X201216Y-96916D01*
X202232D01*
X201216Y-95900D01*
X202232Y-94884D01*
X201216D01*
X200200Y-93868D01*
X199184Y-94884D01*
X198168D01*
X199184Y-95900D01*
X198168Y-96916D01*
X199184D01*
X200200Y-97932D01*
X193850Y-110632D02*
X194866Y-109616D01*
X195882D01*
X194866Y-108600D01*
X195882Y-107584D01*
X194866D01*
X193850Y-106568D01*
X192834Y-107584D01*
X191818D01*
X192834Y-108600D01*
X191818Y-109616D01*
X192834D01*
X193850Y-110632D01*
X187500Y181468D02*
X188516Y182484D01*
X189532D01*
X188516Y183500D01*
X189532Y184516D01*
X188516D01*
X187500Y185532D01*
X186484Y184516D01*
X185468D01*
X186484Y183500D01*
X185468Y182484D01*
X186484D01*
X187500Y181468D01*
X181150Y168768D02*
X182166Y169784D01*
X183182D01*
X182166Y170800D01*
X183182Y171816D01*
X182166D01*
X181150Y172832D01*
X180134Y171816D01*
X179118D01*
X180134Y170800D01*
X179118Y169784D01*
X180134D01*
X181150Y168768D01*
X187500Y156068D02*
X188516Y157084D01*
X189532D01*
X188516Y158100D01*
X189532Y159116D01*
X188516D01*
X187500Y160132D01*
X186484Y159116D01*
X185468D01*
X186484Y158100D01*
X185468Y157084D01*
X186484D01*
X187500Y156068D01*
X181150Y143368D02*
X182166Y144384D01*
X183182D01*
X182166Y145400D01*
X183182Y146416D01*
X182166D01*
X181150Y147432D01*
X180134Y146416D01*
X179118D01*
X180134Y145400D01*
X179118Y144384D01*
X180134D01*
X181150Y143368D01*
X187500Y130668D02*
X188516Y131684D01*
X189532D01*
X188516Y132700D01*
X189532Y133716D01*
X188516D01*
X187500Y134732D01*
X186484Y133716D01*
X185468D01*
X186484Y132700D01*
X185468Y131684D01*
X186484D01*
X187500Y130668D01*
X181150Y117968D02*
X182166Y118984D01*
X183182D01*
X182166Y120000D01*
X183182Y121016D01*
X182166D01*
X181150Y122032D01*
X180134Y121016D01*
X179118D01*
X180134Y120000D01*
X179118Y118984D01*
X180134D01*
X181150Y117968D01*
X187500Y105268D02*
X188516Y106284D01*
X189532D01*
X188516Y107300D01*
X189532Y108316D01*
X188516D01*
X187500Y109332D01*
X186484Y108316D01*
X185468D01*
X186484Y107300D01*
X185468Y106284D01*
X186484D01*
X187500Y105268D01*
Y-21732D02*
X188516Y-20716D01*
X189532D01*
X188516Y-19700D01*
X189532Y-18684D01*
X188516D01*
X187500Y-17668D01*
X186484Y-18684D01*
X185468D01*
X186484Y-19700D01*
X185468Y-20716D01*
X186484D01*
X187500Y-21732D01*
X181150Y-34432D02*
X182166Y-33416D01*
X183182D01*
X182166Y-32400D01*
X183182Y-31384D01*
X182166D01*
X181150Y-30368D01*
X180134Y-31384D01*
X179118D01*
X180134Y-32400D01*
X179118Y-33416D01*
X180134D01*
X181150Y-34432D01*
X187500Y-47132D02*
X188516Y-46116D01*
X189532D01*
X188516Y-45100D01*
X189532Y-44084D01*
X188516D01*
X187500Y-43068D01*
X186484Y-44084D01*
X185468D01*
X186484Y-45100D01*
X185468Y-46116D01*
X186484D01*
X187500Y-47132D01*
X181150Y-59832D02*
X182166Y-58816D01*
X183182D01*
X182166Y-57800D01*
X183182Y-56784D01*
X182166D01*
X181150Y-55768D01*
X180134Y-56784D01*
X179118D01*
X180134Y-57800D01*
X179118Y-58816D01*
X180134D01*
X181150Y-59832D01*
X187500Y-72532D02*
X188516Y-71516D01*
X189532D01*
X188516Y-70500D01*
X189532Y-69484D01*
X188516D01*
X187500Y-68468D01*
X186484Y-69484D01*
X185468D01*
X186484Y-70500D01*
X185468Y-71516D01*
X186484D01*
X187500Y-72532D01*
X181150Y-85232D02*
X182166Y-84216D01*
X183182D01*
X182166Y-83200D01*
X183182Y-82184D01*
X182166D01*
X181150Y-81168D01*
X180134Y-82184D01*
X179118D01*
X180134Y-83200D01*
X179118Y-84216D01*
X180134D01*
X181150Y-85232D01*
X187500Y-97932D02*
X188516Y-96916D01*
X189532D01*
X188516Y-95900D01*
X189532Y-94884D01*
X188516D01*
X187500Y-93868D01*
X186484Y-94884D01*
X185468D01*
X186484Y-95900D01*
X185468Y-96916D01*
X186484D01*
X187500Y-97932D01*
X181150Y-110632D02*
X182166Y-109616D01*
X183182D01*
X182166Y-108600D01*
X183182Y-107584D01*
X182166D01*
X181150Y-106568D01*
X180134Y-107584D01*
X179118D01*
X180134Y-108600D01*
X179118Y-109616D01*
X180134D01*
X181150Y-110632D01*
X174800Y181468D02*
X175816Y182484D01*
X176832D01*
X175816Y183500D01*
X176832Y184516D01*
X175816D01*
X174800Y185532D01*
X173784Y184516D01*
X172768D01*
X173784Y183500D01*
X172768Y182484D01*
X173784D01*
X174800Y181468D01*
X168450Y168768D02*
X169466Y169784D01*
X170482D01*
X169466Y170800D01*
X170482Y171816D01*
X169466D01*
X168450Y172832D01*
X167434Y171816D01*
X166418D01*
X167434Y170800D01*
X166418Y169784D01*
X167434D01*
X168450Y168768D01*
X174800Y156068D02*
X175816Y157084D01*
X176832D01*
X175816Y158100D01*
X176832Y159116D01*
X175816D01*
X174800Y160132D01*
X173784Y159116D01*
X172768D01*
X173784Y158100D01*
X172768Y157084D01*
X173784D01*
X174800Y156068D01*
Y130668D02*
X175816Y131684D01*
X176832D01*
X175816Y132700D01*
X176832Y133716D01*
X175816D01*
X174800Y134732D01*
X173784Y133716D01*
X172768D01*
X173784Y132700D01*
X172768Y131684D01*
X173784D01*
X174800Y130668D01*
X168450Y117968D02*
X169466Y118984D01*
X170482D01*
X169466Y120000D01*
X170482Y121016D01*
X169466D01*
X168450Y122032D01*
X167434Y121016D01*
X166418D01*
X167434Y120000D01*
X166418Y118984D01*
X167434D01*
X168450Y117968D01*
Y-34432D02*
X169466Y-33416D01*
X170482D01*
X169466Y-32400D01*
X170482Y-31384D01*
X169466D01*
X168450Y-30368D01*
X167434Y-31384D01*
X166418D01*
X167434Y-32400D01*
X166418Y-33416D01*
X167434D01*
X168450Y-34432D01*
X174800Y-47132D02*
X175816Y-46116D01*
X176832D01*
X175816Y-45100D01*
X176832Y-44084D01*
X175816D01*
X174800Y-43068D01*
X173784Y-44084D01*
X172768D01*
X173784Y-45100D01*
X172768Y-46116D01*
X173784D01*
X174800Y-47132D01*
X168450Y-59832D02*
X169466Y-58816D01*
X170482D01*
X169466Y-57800D01*
X170482Y-56784D01*
X169466D01*
X168450Y-55768D01*
X167434Y-56784D01*
X166418D01*
X167434Y-57800D01*
X166418Y-58816D01*
X167434D01*
X168450Y-59832D01*
X174800Y-72532D02*
X175816Y-71516D01*
X176832D01*
X175816Y-70500D01*
X176832Y-69484D01*
X175816D01*
X174800Y-68468D01*
X173784Y-69484D01*
X172768D01*
X173784Y-70500D01*
X172768Y-71516D01*
X173784D01*
X174800Y-72532D01*
X168450Y-85232D02*
X169466Y-84216D01*
X170482D01*
X169466Y-83200D01*
X170482Y-82184D01*
X169466D01*
X168450Y-81168D01*
X167434Y-82184D01*
X166418D01*
X167434Y-83200D01*
X166418Y-84216D01*
X167434D01*
X168450Y-85232D01*
X174800Y-97932D02*
X175816Y-96916D01*
X176832D01*
X175816Y-95900D01*
X176832Y-94884D01*
X175816D01*
X174800Y-93868D01*
X173784Y-94884D01*
X172768D01*
X173784Y-95900D01*
X172768Y-96916D01*
X173784D01*
X174800Y-97932D01*
X168450Y-110632D02*
X169466Y-109616D01*
X170482D01*
X169466Y-108600D01*
X170482Y-107584D01*
X169466D01*
X168450Y-106568D01*
X167434Y-107584D01*
X166418D01*
X167434Y-108600D01*
X166418Y-109616D01*
X167434D01*
X168450Y-110632D01*
X162100Y181468D02*
X163116Y182484D01*
X164132D01*
X163116Y183500D01*
X164132Y184516D01*
X163116D01*
X162100Y185532D01*
X161084Y184516D01*
X160068D01*
X161084Y183500D01*
X160068Y182484D01*
X161084D01*
X162100Y181468D01*
X155750Y168768D02*
X156766Y169784D01*
X157782D01*
X156766Y170800D01*
X157782Y171816D01*
X156766D01*
X155750Y172832D01*
X154734Y171816D01*
X153718D01*
X154734Y170800D01*
X153718Y169784D01*
X154734D01*
X155750Y168768D01*
X162100Y156068D02*
X163116Y157084D01*
X164132D01*
X163116Y158100D01*
X164132Y159116D01*
X163116D01*
X162100Y160132D01*
X161084Y159116D01*
X160068D01*
X161084Y158100D01*
X160068Y157084D01*
X161084D01*
X162100Y156068D01*
X155750Y143368D02*
X156766Y144384D01*
X157782D01*
X156766Y145400D01*
X157782Y146416D01*
X156766D01*
X155750Y147432D01*
X154734Y146416D01*
X153718D01*
X154734Y145400D01*
X153718Y144384D01*
X154734D01*
X155750Y143368D01*
X162100Y130668D02*
X163116Y131684D01*
X164132D01*
X163116Y132700D01*
X164132Y133716D01*
X163116D01*
X162100Y134732D01*
X161084Y133716D01*
X160068D01*
X161084Y132700D01*
X160068Y131684D01*
X161084D01*
X162100Y130668D01*
X155750Y117968D02*
X156766Y118984D01*
X157782D01*
X156766Y120000D01*
X157782Y121016D01*
X156766D01*
X155750Y122032D01*
X154734Y121016D01*
X153718D01*
X154734Y120000D01*
X153718Y118984D01*
X154734D01*
X155750Y117968D01*
Y-34432D02*
X156766Y-33416D01*
X157782D01*
X156766Y-32400D01*
X157782Y-31384D01*
X156766D01*
X155750Y-30368D01*
X154734Y-31384D01*
X153718D01*
X154734Y-32400D01*
X153718Y-33416D01*
X154734D01*
X155750Y-34432D01*
X162100Y-47132D02*
X163116Y-46116D01*
X164132D01*
X163116Y-45100D01*
X164132Y-44084D01*
X163116D01*
X162100Y-43068D01*
X161084Y-44084D01*
X160068D01*
X161084Y-45100D01*
X160068Y-46116D01*
X161084D01*
X162100Y-47132D01*
X155750Y-59832D02*
X156766Y-58816D01*
X157782D01*
X156766Y-57800D01*
X157782Y-56784D01*
X156766D01*
X155750Y-55768D01*
X154734Y-56784D01*
X153718D01*
X154734Y-57800D01*
X153718Y-58816D01*
X154734D01*
X155750Y-59832D01*
X162100Y-72532D02*
X163116Y-71516D01*
X164132D01*
X163116Y-70500D01*
X164132Y-69484D01*
X163116D01*
X162100Y-68468D01*
X161084Y-69484D01*
X160068D01*
X161084Y-70500D01*
X160068Y-71516D01*
X161084D01*
X162100Y-72532D01*
X155750Y-85232D02*
X156766Y-84216D01*
X157782D01*
X156766Y-83200D01*
X157782Y-82184D01*
X156766D01*
X155750Y-81168D01*
X154734Y-82184D01*
X153718D01*
X154734Y-83200D01*
X153718Y-84216D01*
X154734D01*
X155750Y-85232D01*
X162100Y-97932D02*
X163116Y-96916D01*
X164132D01*
X163116Y-95900D01*
X164132Y-94884D01*
X163116D01*
X162100Y-93868D01*
X161084Y-94884D01*
X160068D01*
X161084Y-95900D01*
X160068Y-96916D01*
X161084D01*
X162100Y-97932D01*
X155750Y-110632D02*
X156766Y-109616D01*
X157782D01*
X156766Y-108600D01*
X157782Y-107584D01*
X156766D01*
X155750Y-106568D01*
X154734Y-107584D01*
X153718D01*
X154734Y-108600D01*
X153718Y-109616D01*
X154734D01*
X155750Y-110632D01*
X149400Y181468D02*
X150416Y182484D01*
X151432D01*
X150416Y183500D01*
X151432Y184516D01*
X150416D01*
X149400Y185532D01*
X148384Y184516D01*
X147368D01*
X148384Y183500D01*
X147368Y182484D01*
X148384D01*
X149400Y181468D01*
X143050Y168768D02*
X144066Y169784D01*
X145082D01*
X144066Y170800D01*
X145082Y171816D01*
X144066D01*
X143050Y172832D01*
X142034Y171816D01*
X141018D01*
X142034Y170800D01*
X141018Y169784D01*
X142034D01*
X143050Y168768D01*
X149400Y130668D02*
X150416Y131684D01*
X151432D01*
X150416Y132700D01*
X151432Y133716D01*
X150416D01*
X149400Y134732D01*
X148384Y133716D01*
X147368D01*
X148384Y132700D01*
X147368Y131684D01*
X148384D01*
X149400Y130668D01*
X143050Y117968D02*
X144066Y118984D01*
X145082D01*
X144066Y120000D01*
X145082Y121016D01*
X144066D01*
X143050Y122032D01*
X142034Y121016D01*
X141018D01*
X142034Y120000D01*
X141018Y118984D01*
X142034D01*
X143050Y117968D01*
X149400Y105268D02*
X150416Y106284D01*
X151432D01*
X150416Y107300D01*
X151432Y108316D01*
X150416D01*
X149400Y109332D01*
X148384Y108316D01*
X147368D01*
X148384Y107300D01*
X147368Y106284D01*
X148384D01*
X149400Y105268D01*
X143050Y92568D02*
X144066Y93584D01*
X145082D01*
X144066Y94600D01*
X145082Y95616D01*
X144066D01*
X143050Y96632D01*
X142034Y95616D01*
X141018D01*
X142034Y94600D01*
X141018Y93584D01*
X142034D01*
X143050Y92568D01*
X149400Y29068D02*
X150416Y30084D01*
X151432D01*
X150416Y31100D01*
X151432Y32116D01*
X150416D01*
X149400Y33132D01*
X148384Y32116D01*
X147368D01*
X148384Y31100D01*
X147368Y30084D01*
X148384D01*
X149400Y29068D01*
X143050Y-9032D02*
X144066Y-8016D01*
X145082D01*
X144066Y-7000D01*
X145082Y-5984D01*
X144066D01*
X143050Y-4968D01*
X142034Y-5984D01*
X141018D01*
X142034Y-7000D01*
X141018Y-8016D01*
X142034D01*
X143050Y-9032D01*
X149400Y-21732D02*
X150416Y-20716D01*
X151432D01*
X150416Y-19700D01*
X151432Y-18684D01*
X150416D01*
X149400Y-17668D01*
X148384Y-18684D01*
X147368D01*
X148384Y-19700D01*
X147368Y-20716D01*
X148384D01*
X149400Y-21732D01*
X143050Y-34432D02*
X144066Y-33416D01*
X145082D01*
X144066Y-32400D01*
X145082Y-31384D01*
X144066D01*
X143050Y-30368D01*
X142034Y-31384D01*
X141018D01*
X142034Y-32400D01*
X141018Y-33416D01*
X142034D01*
X143050Y-34432D01*
X149400Y-47132D02*
X150416Y-46116D01*
X151432D01*
X150416Y-45100D01*
X151432Y-44084D01*
X150416D01*
X149400Y-43068D01*
X148384Y-44084D01*
X147368D01*
X148384Y-45100D01*
X147368Y-46116D01*
X148384D01*
X149400Y-47132D01*
X143050Y-59832D02*
X144066Y-58816D01*
X145082D01*
X144066Y-57800D01*
X145082Y-56784D01*
X144066D01*
X143050Y-55768D01*
X142034Y-56784D01*
X141018D01*
X142034Y-57800D01*
X141018Y-58816D01*
X142034D01*
X143050Y-59832D01*
X149400Y-72532D02*
X150416Y-71516D01*
X151432D01*
X150416Y-70500D01*
X151432Y-69484D01*
X150416D01*
X149400Y-68468D01*
X148384Y-69484D01*
X147368D01*
X148384Y-70500D01*
X147368Y-71516D01*
X148384D01*
X149400Y-72532D01*
X143050Y-85232D02*
X144066Y-84216D01*
X145082D01*
X144066Y-83200D01*
X145082Y-82184D01*
X144066D01*
X143050Y-81168D01*
X142034Y-82184D01*
X141018D01*
X142034Y-83200D01*
X141018Y-84216D01*
X142034D01*
X143050Y-85232D01*
X149400Y-97932D02*
X150416Y-96916D01*
X151432D01*
X150416Y-95900D01*
X151432Y-94884D01*
X150416D01*
X149400Y-93868D01*
X148384Y-94884D01*
X147368D01*
X148384Y-95900D01*
X147368Y-96916D01*
X148384D01*
X149400Y-97932D01*
X143050Y-110632D02*
X144066Y-109616D01*
X145082D01*
X144066Y-108600D01*
X145082Y-107584D01*
X144066D01*
X143050Y-106568D01*
X142034Y-107584D01*
X141018D01*
X142034Y-108600D01*
X141018Y-109616D01*
X142034D01*
X143050Y-110632D01*
X136700Y181468D02*
X137716Y182484D01*
X138732D01*
X137716Y183500D01*
X138732Y184516D01*
X137716D01*
X136700Y185532D01*
X135684Y184516D01*
X134668D01*
X135684Y183500D01*
X134668Y182484D01*
X135684D01*
X136700Y181468D01*
X130350Y168768D02*
X131366Y169784D01*
X132382D01*
X131366Y170800D01*
X132382Y171816D01*
X131366D01*
X130350Y172832D01*
X129334Y171816D01*
X128318D01*
X129334Y170800D01*
X128318Y169784D01*
X129334D01*
X130350Y168768D01*
X136700Y130668D02*
X137716Y131684D01*
X138732D01*
X137716Y132700D01*
X138732Y133716D01*
X137716D01*
X136700Y134732D01*
X135684Y133716D01*
X134668D01*
X135684Y132700D01*
X134668Y131684D01*
X135684D01*
X136700Y130668D01*
X130350Y117968D02*
X131366Y118984D01*
X132382D01*
X131366Y120000D01*
X132382Y121016D01*
X131366D01*
X130350Y122032D01*
X129334Y121016D01*
X128318D01*
X129334Y120000D01*
X128318Y118984D01*
X129334D01*
X130350Y117968D01*
X136700Y105268D02*
X137716Y106284D01*
X138732D01*
X137716Y107300D01*
X138732Y108316D01*
X137716D01*
X136700Y109332D01*
X135684Y108316D01*
X134668D01*
X135684Y107300D01*
X134668Y106284D01*
X135684D01*
X136700Y105268D01*
X130350Y92568D02*
X131366Y93584D01*
X132382D01*
X131366Y94600D01*
X132382Y95616D01*
X131366D01*
X130350Y96632D01*
X129334Y95616D01*
X128318D01*
X129334Y94600D01*
X128318Y93584D01*
X129334D01*
X130350Y92568D01*
Y-9032D02*
X131366Y-8016D01*
X132382D01*
X131366Y-7000D01*
X132382Y-5984D01*
X131366D01*
X130350Y-4968D01*
X129334Y-5984D01*
X128318D01*
X129334Y-7000D01*
X128318Y-8016D01*
X129334D01*
X130350Y-9032D01*
X136700Y-21732D02*
X137716Y-20716D01*
X138732D01*
X137716Y-19700D01*
X138732Y-18684D01*
X137716D01*
X136700Y-17668D01*
X135684Y-18684D01*
X134668D01*
X135684Y-19700D01*
X134668Y-20716D01*
X135684D01*
X136700Y-21732D01*
X130350Y-34432D02*
X131366Y-33416D01*
X132382D01*
X131366Y-32400D01*
X132382Y-31384D01*
X131366D01*
X130350Y-30368D01*
X129334Y-31384D01*
X128318D01*
X129334Y-32400D01*
X128318Y-33416D01*
X129334D01*
X130350Y-34432D01*
X136700Y-47132D02*
X137716Y-46116D01*
X138732D01*
X137716Y-45100D01*
X138732Y-44084D01*
X137716D01*
X136700Y-43068D01*
X135684Y-44084D01*
X134668D01*
X135684Y-45100D01*
X134668Y-46116D01*
X135684D01*
X136700Y-47132D01*
X130350Y-59832D02*
X131366Y-58816D01*
X132382D01*
X131366Y-57800D01*
X132382Y-56784D01*
X131366D01*
X130350Y-55768D01*
X129334Y-56784D01*
X128318D01*
X129334Y-57800D01*
X128318Y-58816D01*
X129334D01*
X130350Y-59832D01*
X136700Y-72532D02*
X137716Y-71516D01*
X138732D01*
X137716Y-70500D01*
X138732Y-69484D01*
X137716D01*
X136700Y-68468D01*
X135684Y-69484D01*
X134668D01*
X135684Y-70500D01*
X134668Y-71516D01*
X135684D01*
X136700Y-72532D01*
X130350Y-85232D02*
X131366Y-84216D01*
X132382D01*
X131366Y-83200D01*
X132382Y-82184D01*
X131366D01*
X130350Y-81168D01*
X129334Y-82184D01*
X128318D01*
X129334Y-83200D01*
X128318Y-84216D01*
X129334D01*
X130350Y-85232D01*
X136700Y-97932D02*
X137716Y-96916D01*
X138732D01*
X137716Y-95900D01*
X138732Y-94884D01*
X137716D01*
X136700Y-93868D01*
X135684Y-94884D01*
X134668D01*
X135684Y-95900D01*
X134668Y-96916D01*
X135684D01*
X136700Y-97932D01*
X130350Y-110632D02*
X131366Y-109616D01*
X132382D01*
X131366Y-108600D01*
X132382Y-107584D01*
X131366D01*
X130350Y-106568D01*
X129334Y-107584D01*
X128318D01*
X129334Y-108600D01*
X128318Y-109616D01*
X129334D01*
X130350Y-110632D01*
X124000Y181468D02*
X125016Y182484D01*
X126032D01*
X125016Y183500D01*
X126032Y184516D01*
X125016D01*
X124000Y185532D01*
X122984Y184516D01*
X121968D01*
X122984Y183500D01*
X121968Y182484D01*
X122984D01*
X124000Y181468D01*
X117650Y168768D02*
X118666Y169784D01*
X119682D01*
X118666Y170800D01*
X119682Y171816D01*
X118666D01*
X117650Y172832D01*
X116634Y171816D01*
X115618D01*
X116634Y170800D01*
X115618Y169784D01*
X116634D01*
X117650Y168768D01*
X124000Y130668D02*
X125016Y131684D01*
X126032D01*
X125016Y132700D01*
X126032Y133716D01*
X125016D01*
X124000Y134732D01*
X122984Y133716D01*
X121968D01*
X122984Y132700D01*
X121968Y131684D01*
X122984D01*
X124000Y130668D01*
X117650Y117968D02*
X118666Y118984D01*
X119682D01*
X118666Y120000D01*
X119682Y121016D01*
X118666D01*
X117650Y122032D01*
X116634Y121016D01*
X115618D01*
X116634Y120000D01*
X115618Y118984D01*
X116634D01*
X117650Y117968D01*
X124000Y105268D02*
X125016Y106284D01*
X126032D01*
X125016Y107300D01*
X126032Y108316D01*
X125016D01*
X124000Y109332D01*
X122984Y108316D01*
X121968D01*
X122984Y107300D01*
X121968Y106284D01*
X122984D01*
X124000Y105268D01*
X117650Y92568D02*
X118666Y93584D01*
X119682D01*
X118666Y94600D01*
X119682Y95616D01*
X118666D01*
X117650Y96632D01*
X116634Y95616D01*
X115618D01*
X116634Y94600D01*
X115618Y93584D01*
X116634D01*
X117650Y92568D01*
Y-9032D02*
X118666Y-8016D01*
X119682D01*
X118666Y-7000D01*
X119682Y-5984D01*
X118666D01*
X117650Y-4968D01*
X116634Y-5984D01*
X115618D01*
X116634Y-7000D01*
X115618Y-8016D01*
X116634D01*
X117650Y-9032D01*
X124000Y-21732D02*
X125016Y-20716D01*
X126032D01*
X125016Y-19700D01*
X126032Y-18684D01*
X125016D01*
X124000Y-17668D01*
X122984Y-18684D01*
X121968D01*
X122984Y-19700D01*
X121968Y-20716D01*
X122984D01*
X124000Y-21732D01*
X117650Y-34432D02*
X118666Y-33416D01*
X119682D01*
X118666Y-32400D01*
X119682Y-31384D01*
X118666D01*
X117650Y-30368D01*
X116634Y-31384D01*
X115618D01*
X116634Y-32400D01*
X115618Y-33416D01*
X116634D01*
X117650Y-34432D01*
X124000Y-47132D02*
X125016Y-46116D01*
X126032D01*
X125016Y-45100D01*
X126032Y-44084D01*
X125016D01*
X124000Y-43068D01*
X122984Y-44084D01*
X121968D01*
X122984Y-45100D01*
X121968Y-46116D01*
X122984D01*
X124000Y-47132D01*
X117650Y-59832D02*
X118666Y-58816D01*
X119682D01*
X118666Y-57800D01*
X119682Y-56784D01*
X118666D01*
X117650Y-55768D01*
X116634Y-56784D01*
X115618D01*
X116634Y-57800D01*
X115618Y-58816D01*
X116634D01*
X117650Y-59832D01*
X124000Y-72532D02*
X125016Y-71516D01*
X126032D01*
X125016Y-70500D01*
X126032Y-69484D01*
X125016D01*
X124000Y-68468D01*
X122984Y-69484D01*
X121968D01*
X122984Y-70500D01*
X121968Y-71516D01*
X122984D01*
X124000Y-72532D01*
X117650Y-85232D02*
X118666Y-84216D01*
X119682D01*
X118666Y-83200D01*
X119682Y-82184D01*
X118666D01*
X117650Y-81168D01*
X116634Y-82184D01*
X115618D01*
X116634Y-83200D01*
X115618Y-84216D01*
X116634D01*
X117650Y-85232D01*
X124000Y-97932D02*
X125016Y-96916D01*
X126032D01*
X125016Y-95900D01*
X126032Y-94884D01*
X125016D01*
X124000Y-93868D01*
X122984Y-94884D01*
X121968D01*
X122984Y-95900D01*
X121968Y-96916D01*
X122984D01*
X124000Y-97932D01*
X117650Y-110632D02*
X118666Y-109616D01*
X119682D01*
X118666Y-108600D01*
X119682Y-107584D01*
X118666D01*
X117650Y-106568D01*
X116634Y-107584D01*
X115618D01*
X116634Y-108600D01*
X115618Y-109616D01*
X116634D01*
X117650Y-110632D01*
X111300Y181468D02*
X112316Y182484D01*
X113332D01*
X112316Y183500D01*
X113332Y184516D01*
X112316D01*
X111300Y185532D01*
X110284Y184516D01*
X109268D01*
X110284Y183500D01*
X109268Y182484D01*
X110284D01*
X111300Y181468D01*
X104950Y168768D02*
X105966Y169784D01*
X106982D01*
X105966Y170800D01*
X106982Y171816D01*
X105966D01*
X104950Y172832D01*
X103934Y171816D01*
X102918D01*
X103934Y170800D01*
X102918Y169784D01*
X103934D01*
X104950Y168768D01*
Y143368D02*
X105966Y144384D01*
X106982D01*
X105966Y145400D01*
X106982Y146416D01*
X105966D01*
X104950Y147432D01*
X103934Y146416D01*
X102918D01*
X103934Y145400D01*
X102918Y144384D01*
X103934D01*
X104950Y143368D01*
X111300Y130668D02*
X112316Y131684D01*
X113332D01*
X112316Y132700D01*
X113332Y133716D01*
X112316D01*
X111300Y134732D01*
X110284Y133716D01*
X109268D01*
X110284Y132700D01*
X109268Y131684D01*
X110284D01*
X111300Y130668D01*
Y54468D02*
X112316Y55484D01*
X113332D01*
X112316Y56500D01*
X113332Y57516D01*
X112316D01*
X111300Y58532D01*
X110284Y57516D01*
X109268D01*
X110284Y56500D01*
X109268Y55484D01*
X110284D01*
X111300Y54468D01*
Y29068D02*
X112316Y30084D01*
X113332D01*
X112316Y31100D01*
X113332Y32116D01*
X112316D01*
X111300Y33132D01*
X110284Y32116D01*
X109268D01*
X110284Y31100D01*
X109268Y30084D01*
X110284D01*
X111300Y29068D01*
Y-21732D02*
X112316Y-20716D01*
X113332D01*
X112316Y-19700D01*
X113332Y-18684D01*
X112316D01*
X111300Y-17668D01*
X110284Y-18684D01*
X109268D01*
X110284Y-19700D01*
X109268Y-20716D01*
X110284D01*
X111300Y-21732D01*
Y-47132D02*
X112316Y-46116D01*
X113332D01*
X112316Y-45100D01*
X113332Y-44084D01*
X112316D01*
X111300Y-43068D01*
X110284Y-44084D01*
X109268D01*
X110284Y-45100D01*
X109268Y-46116D01*
X110284D01*
X111300Y-47132D01*
Y-72532D02*
X112316Y-71516D01*
X113332D01*
X112316Y-70500D01*
X113332Y-69484D01*
X112316D01*
X111300Y-68468D01*
X110284Y-69484D01*
X109268D01*
X110284Y-70500D01*
X109268Y-71516D01*
X110284D01*
X111300Y-72532D01*
X98600Y181468D02*
X99616Y182484D01*
X100632D01*
X99616Y183500D01*
X100632Y184516D01*
X99616D01*
X98600Y185532D01*
X97584Y184516D01*
X96568D01*
X97584Y183500D01*
X96568Y182484D01*
X97584D01*
X98600Y181468D01*
X92250Y168768D02*
X93266Y169784D01*
X94282D01*
X93266Y170800D01*
X94282Y171816D01*
X93266D01*
X92250Y172832D01*
X91234Y171816D01*
X90218D01*
X91234Y170800D01*
X90218Y169784D01*
X91234D01*
X92250Y168768D01*
X98600Y130668D02*
X99616Y131684D01*
X100632D01*
X99616Y132700D01*
X100632Y133716D01*
X99616D01*
X98600Y134732D01*
X97584Y133716D01*
X96568D01*
X97584Y132700D01*
X96568Y131684D01*
X97584D01*
X98600Y130668D01*
Y79868D02*
X99616Y80884D01*
X100632D01*
X99616Y81900D01*
X100632Y82916D01*
X99616D01*
X98600Y83932D01*
X97584Y82916D01*
X96568D01*
X97584Y81900D01*
X96568Y80884D01*
X97584D01*
X98600Y79868D01*
X92250Y16368D02*
X93266Y17384D01*
X94282D01*
X93266Y18400D01*
X94282Y19416D01*
X93266D01*
X92250Y20432D01*
X91234Y19416D01*
X90218D01*
X91234Y18400D01*
X90218Y17384D01*
X91234D01*
X92250Y16368D01*
Y-9032D02*
X93266Y-8016D01*
X94282D01*
X93266Y-7000D01*
X94282Y-5984D01*
X93266D01*
X92250Y-4968D01*
X91234Y-5984D01*
X90218D01*
X91234Y-7000D01*
X90218Y-8016D01*
X91234D01*
X92250Y-9032D01*
Y-34432D02*
X93266Y-33416D01*
X94282D01*
X93266Y-32400D01*
X94282Y-31384D01*
X93266D01*
X92250Y-30368D01*
X91234Y-31384D01*
X90218D01*
X91234Y-32400D01*
X90218Y-33416D01*
X91234D01*
X92250Y-34432D01*
Y-59832D02*
X93266Y-58816D01*
X94282D01*
X93266Y-57800D01*
X94282Y-56784D01*
X93266D01*
X92250Y-55768D01*
X91234Y-56784D01*
X90218D01*
X91234Y-57800D01*
X90218Y-58816D01*
X91234D01*
X92250Y-59832D01*
Y-85232D02*
X93266Y-84216D01*
X94282D01*
X93266Y-83200D01*
X94282Y-82184D01*
X93266D01*
X92250Y-81168D01*
X91234Y-82184D01*
X90218D01*
X91234Y-83200D01*
X90218Y-84216D01*
X91234D01*
X92250Y-85232D01*
X85900Y181468D02*
X86916Y182484D01*
X87932D01*
X86916Y183500D01*
X87932Y184516D01*
X86916D01*
X85900Y185532D01*
X84884Y184516D01*
X83868D01*
X84884Y183500D01*
X83868Y182484D01*
X84884D01*
X85900Y181468D01*
X79550Y168768D02*
X80566Y169784D01*
X81582D01*
X80566Y170800D01*
X81582Y171816D01*
X80566D01*
X79550Y172832D01*
X78534Y171816D01*
X77518D01*
X78534Y170800D01*
X77518Y169784D01*
X78534D01*
X79550Y168768D01*
Y117968D02*
X80566Y118984D01*
X81582D01*
X80566Y120000D01*
X81582Y121016D01*
X80566D01*
X79550Y122032D01*
X78534Y121016D01*
X77518D01*
X78534Y120000D01*
X77518Y118984D01*
X78534D01*
X79550Y117968D01*
Y92568D02*
X80566Y93584D01*
X81582D01*
X80566Y94600D01*
X81582Y95616D01*
X80566D01*
X79550Y96632D01*
X78534Y95616D01*
X77518D01*
X78534Y94600D01*
X77518Y93584D01*
X78534D01*
X79550Y92568D01*
X85900Y29068D02*
X86916Y30084D01*
X87932D01*
X86916Y31100D01*
X87932Y32116D01*
X86916D01*
X85900Y33132D01*
X84884Y32116D01*
X83868D01*
X84884Y31100D01*
X83868Y30084D01*
X84884D01*
X85900Y29068D01*
Y3668D02*
X86916Y4684D01*
X87932D01*
X86916Y5700D01*
X87932Y6716D01*
X86916D01*
X85900Y7732D01*
X84884Y6716D01*
X83868D01*
X84884Y5700D01*
X83868Y4684D01*
X84884D01*
X85900Y3668D01*
Y-21732D02*
X86916Y-20716D01*
X87932D01*
X86916Y-19700D01*
X87932Y-18684D01*
X86916D01*
X85900Y-17668D01*
X84884Y-18684D01*
X83868D01*
X84884Y-19700D01*
X83868Y-20716D01*
X84884D01*
X85900Y-21732D01*
Y-47132D02*
X86916Y-46116D01*
X87932D01*
X86916Y-45100D01*
X87932Y-44084D01*
X86916D01*
X85900Y-43068D01*
X84884Y-44084D01*
X83868D01*
X84884Y-45100D01*
X83868Y-46116D01*
X84884D01*
X85900Y-47132D01*
Y-72532D02*
X86916Y-71516D01*
X87932D01*
X86916Y-70500D01*
X87932Y-69484D01*
X86916D01*
X85900Y-68468D01*
X84884Y-69484D01*
X83868D01*
X84884Y-70500D01*
X83868Y-71516D01*
X84884D01*
X85900Y-72532D01*
X73200Y181468D02*
X74216Y182484D01*
X75232D01*
X74216Y183500D01*
X75232Y184516D01*
X74216D01*
X73200Y185532D01*
X72184Y184516D01*
X71168D01*
X72184Y183500D01*
X71168Y182484D01*
X72184D01*
X73200Y181468D01*
X66850Y168768D02*
X67866Y169784D01*
X68882D01*
X67866Y170800D01*
X68882Y171816D01*
X67866D01*
X66850Y172832D01*
X65834Y171816D01*
X64818D01*
X65834Y170800D01*
X64818Y169784D01*
X65834D01*
X66850Y168768D01*
X73200Y130668D02*
X74216Y131684D01*
X75232D01*
X74216Y132700D01*
X75232Y133716D01*
X74216D01*
X73200Y134732D01*
X72184Y133716D01*
X71168D01*
X72184Y132700D01*
X71168Y131684D01*
X72184D01*
X73200Y130668D01*
X66850Y117968D02*
X67866Y118984D01*
X68882D01*
X67866Y120000D01*
X68882Y121016D01*
X67866D01*
X66850Y122032D01*
X65834Y121016D01*
X64818D01*
X65834Y120000D01*
X64818Y118984D01*
X65834D01*
X66850Y117968D01*
X73200Y105268D02*
X74216Y106284D01*
X75232D01*
X74216Y107300D01*
X75232Y108316D01*
X74216D01*
X73200Y109332D01*
X72184Y108316D01*
X71168D01*
X72184Y107300D01*
X71168Y106284D01*
X72184D01*
X73200Y105268D01*
X66850Y92568D02*
X67866Y93584D01*
X68882D01*
X67866Y94600D01*
X68882Y95616D01*
X67866D01*
X66850Y96632D01*
X65834Y95616D01*
X64818D01*
X65834Y94600D01*
X64818Y93584D01*
X65834D01*
X66850Y92568D01*
Y-9032D02*
X67866Y-8016D01*
X68882D01*
X67866Y-7000D01*
X68882Y-5984D01*
X67866D01*
X66850Y-4968D01*
X65834Y-5984D01*
X64818D01*
X65834Y-7000D01*
X64818Y-8016D01*
X65834D01*
X66850Y-9032D01*
Y-34432D02*
X67866Y-33416D01*
X68882D01*
X67866Y-32400D01*
X68882Y-31384D01*
X67866D01*
X66850Y-30368D01*
X65834Y-31384D01*
X64818D01*
X65834Y-32400D01*
X64818Y-33416D01*
X65834D01*
X66850Y-34432D01*
Y-59832D02*
X67866Y-58816D01*
X68882D01*
X67866Y-57800D01*
X68882Y-56784D01*
X67866D01*
X66850Y-55768D01*
X65834Y-56784D01*
X64818D01*
X65834Y-57800D01*
X64818Y-58816D01*
X65834D01*
X66850Y-59832D01*
Y-85232D02*
X67866Y-84216D01*
X68882D01*
X67866Y-83200D01*
X68882Y-82184D01*
X67866D01*
X66850Y-81168D01*
X65834Y-82184D01*
X64818D01*
X65834Y-83200D01*
X64818Y-84216D01*
X65834D01*
X66850Y-85232D01*
X60500Y181468D02*
X61516Y182484D01*
X62532D01*
X61516Y183500D01*
X62532Y184516D01*
X61516D01*
X60500Y185532D01*
X59484Y184516D01*
X58468D01*
X59484Y183500D01*
X58468Y182484D01*
X59484D01*
X60500Y181468D01*
X54150Y168768D02*
X55166Y169784D01*
X56182D01*
X55166Y170800D01*
X56182Y171816D01*
X55166D01*
X54150Y172832D01*
X53134Y171816D01*
X52118D01*
X53134Y170800D01*
X52118Y169784D01*
X53134D01*
X54150Y168768D01*
X60500Y130668D02*
X61516Y131684D01*
X62532D01*
X61516Y132700D01*
X62532Y133716D01*
X61516D01*
X60500Y134732D01*
X59484Y133716D01*
X58468D01*
X59484Y132700D01*
X58468Y131684D01*
X59484D01*
X60500Y130668D01*
X54150Y117968D02*
X55166Y118984D01*
X56182D01*
X55166Y120000D01*
X56182Y121016D01*
X55166D01*
X54150Y122032D01*
X53134Y121016D01*
X52118D01*
X53134Y120000D01*
X52118Y118984D01*
X53134D01*
X54150Y117968D01*
X60500Y105268D02*
X61516Y106284D01*
X62532D01*
X61516Y107300D01*
X62532Y108316D01*
X61516D01*
X60500Y109332D01*
X59484Y108316D01*
X58468D01*
X59484Y107300D01*
X58468Y106284D01*
X59484D01*
X60500Y105268D01*
X54150Y92568D02*
X55166Y93584D01*
X56182D01*
X55166Y94600D01*
X56182Y95616D01*
X55166D01*
X54150Y96632D01*
X53134Y95616D01*
X52118D01*
X53134Y94600D01*
X52118Y93584D01*
X53134D01*
X54150Y92568D01*
Y41768D02*
X55166Y42784D01*
X56182D01*
X55166Y43800D01*
X56182Y44816D01*
X55166D01*
X54150Y45832D01*
X53134Y44816D01*
X52118D01*
X53134Y43800D01*
X52118Y42784D01*
X53134D01*
X54150Y41768D01*
X60500Y-21732D02*
X61516Y-20716D01*
X62532D01*
X61516Y-19700D01*
X62532Y-18684D01*
X61516D01*
X60500Y-17668D01*
X59484Y-18684D01*
X58468D01*
X59484Y-19700D01*
X58468Y-20716D01*
X59484D01*
X60500Y-21732D01*
Y-47132D02*
X61516Y-46116D01*
X62532D01*
X61516Y-45100D01*
X62532Y-44084D01*
X61516D01*
X60500Y-43068D01*
X59484Y-44084D01*
X58468D01*
X59484Y-45100D01*
X58468Y-46116D01*
X59484D01*
X60500Y-47132D01*
Y-72532D02*
X61516Y-71516D01*
X62532D01*
X61516Y-70500D01*
X62532Y-69484D01*
X61516D01*
X60500Y-68468D01*
X59484Y-69484D01*
X58468D01*
X59484Y-70500D01*
X58468Y-71516D01*
X59484D01*
X60500Y-72532D01*
X47800Y181468D02*
X48816Y182484D01*
X49832D01*
X48816Y183500D01*
X49832Y184516D01*
X48816D01*
X47800Y185532D01*
X46784Y184516D01*
X45768D01*
X46784Y183500D01*
X45768Y182484D01*
X46784D01*
X47800Y181468D01*
X41450Y168768D02*
X42466Y169784D01*
X43482D01*
X42466Y170800D01*
X43482Y171816D01*
X42466D01*
X41450Y172832D01*
X40434Y171816D01*
X39418D01*
X40434Y170800D01*
X39418Y169784D01*
X40434D01*
X41450Y168768D01*
X47800Y130668D02*
X48816Y131684D01*
X49832D01*
X48816Y132700D01*
X49832Y133716D01*
X48816D01*
X47800Y134732D01*
X46784Y133716D01*
X45768D01*
X46784Y132700D01*
X45768Y131684D01*
X46784D01*
X47800Y130668D01*
X41450Y117968D02*
X42466Y118984D01*
X43482D01*
X42466Y120000D01*
X43482Y121016D01*
X42466D01*
X41450Y122032D01*
X40434Y121016D01*
X39418D01*
X40434Y120000D01*
X39418Y118984D01*
X40434D01*
X41450Y117968D01*
X47800Y105268D02*
X48816Y106284D01*
X49832D01*
X48816Y107300D01*
X49832Y108316D01*
X48816D01*
X47800Y109332D01*
X46784Y108316D01*
X45768D01*
X46784Y107300D01*
X45768Y106284D01*
X46784D01*
X47800Y105268D01*
X41450Y92568D02*
X42466Y93584D01*
X43482D01*
X42466Y94600D01*
X43482Y95616D01*
X42466D01*
X41450Y96632D01*
X40434Y95616D01*
X39418D01*
X40434Y94600D01*
X39418Y93584D01*
X40434D01*
X41450Y92568D01*
Y-59832D02*
X42466Y-58816D01*
X43482D01*
X42466Y-57800D01*
X43482Y-56784D01*
X42466D01*
X41450Y-55768D01*
X40434Y-56784D01*
X39418D01*
X40434Y-57800D01*
X39418Y-58816D01*
X40434D01*
X41450Y-59832D01*
Y-85232D02*
X42466Y-84216D01*
X43482D01*
X42466Y-83200D01*
X43482Y-82184D01*
X42466D01*
X41450Y-81168D01*
X40434Y-82184D01*
X39418D01*
X40434Y-83200D01*
X39418Y-84216D01*
X40434D01*
X41450Y-85232D01*
X35100Y181468D02*
X36116Y182484D01*
X37132D01*
X36116Y183500D01*
X37132Y184516D01*
X36116D01*
X35100Y185532D01*
X34084Y184516D01*
X33068D01*
X34084Y183500D01*
X33068Y182484D01*
X34084D01*
X35100Y181468D01*
X28750Y168768D02*
X29766Y169784D01*
X30782D01*
X29766Y170800D01*
X30782Y171816D01*
X29766D01*
X28750Y172832D01*
X27734Y171816D01*
X26718D01*
X27734Y170800D01*
X26718Y169784D01*
X27734D01*
X28750Y168768D01*
X35100Y-47132D02*
X36116Y-46116D01*
X37132D01*
X36116Y-45100D01*
X37132Y-44084D01*
X36116D01*
X35100Y-43068D01*
X34084Y-44084D01*
X33068D01*
X34084Y-45100D01*
X33068Y-46116D01*
X34084D01*
X35100Y-47132D01*
Y-72532D02*
X36116Y-71516D01*
X37132D01*
X36116Y-70500D01*
X37132Y-69484D01*
X36116D01*
X35100Y-68468D01*
X34084Y-69484D01*
X33068D01*
X34084Y-70500D01*
X33068Y-71516D01*
X34084D01*
X35100Y-72532D01*
X22400Y181468D02*
X23416Y182484D01*
X24432D01*
X23416Y183500D01*
X24432Y184516D01*
X23416D01*
X22400Y185532D01*
X21384Y184516D01*
X20368D01*
X21384Y183500D01*
X20368Y182484D01*
X21384D01*
X22400Y181468D01*
X16050Y168768D02*
X17066Y169784D01*
X18082D01*
X17066Y170800D01*
X18082Y171816D01*
X17066D01*
X16050Y172832D01*
X15034Y171816D01*
X14018D01*
X15034Y170800D01*
X14018Y169784D01*
X15034D01*
X16050Y168768D01*
Y-34432D02*
X17066Y-33416D01*
X18082D01*
X17066Y-32400D01*
X18082Y-31384D01*
X17066D01*
X16050Y-30368D01*
X15034Y-31384D01*
X14018D01*
X15034Y-32400D01*
X14018Y-33416D01*
X15034D01*
X16050Y-34432D01*
Y-59832D02*
X17066Y-58816D01*
X18082D01*
X17066Y-57800D01*
X18082Y-56784D01*
X17066D01*
X16050Y-55768D01*
X15034Y-56784D01*
X14018D01*
X15034Y-57800D01*
X14018Y-58816D01*
X15034D01*
X16050Y-59832D01*
Y-85232D02*
X17066Y-84216D01*
X18082D01*
X17066Y-83200D01*
X18082Y-82184D01*
X17066D01*
X16050Y-81168D01*
X15034Y-82184D01*
X14018D01*
X15034Y-83200D01*
X14018Y-84216D01*
X15034D01*
X16050Y-85232D01*
X9700Y181468D02*
X10716Y182484D01*
X11732D01*
X10716Y183500D01*
X11732Y184516D01*
X10716D01*
X9700Y185532D01*
X8684Y184516D01*
X7668D01*
X8684Y183500D01*
X7668Y182484D01*
X8684D01*
X9700Y181468D01*
X3350Y168768D02*
X4366Y169784D01*
X5382D01*
X4366Y170800D01*
X5382Y171816D01*
X4366D01*
X3350Y172832D01*
X2334Y171816D01*
X1318D01*
X2334Y170800D01*
X1318Y169784D01*
X2334D01*
X3350Y168768D01*
X9700Y156068D02*
X10716Y157084D01*
X11732D01*
X10716Y158100D01*
X11732Y159116D01*
X10716D01*
X9700Y160132D01*
X8684Y159116D01*
X7668D01*
X8684Y158100D01*
X7668Y157084D01*
X8684D01*
X9700Y156068D01*
X3350Y143368D02*
X4366Y144384D01*
X5382D01*
X4366Y145400D01*
X5382Y146416D01*
X4366D01*
X3350Y147432D01*
X2334Y146416D01*
X1318D01*
X2334Y145400D01*
X1318Y144384D01*
X2334D01*
X3350Y143368D01*
X9700Y-72532D02*
X10716Y-71516D01*
X11732D01*
X10716Y-70500D01*
X11732Y-69484D01*
X10716D01*
X9700Y-68468D01*
X8684Y-69484D01*
X7668D01*
X8684Y-70500D01*
X7668Y-71516D01*
X8684D01*
X9700Y-72532D01*
X3350Y-85232D02*
X4366Y-84216D01*
X5382D01*
X4366Y-83200D01*
X5382Y-82184D01*
X4366D01*
X3350Y-81168D01*
X2334Y-82184D01*
X1318D01*
X2334Y-83200D01*
X1318Y-84216D01*
X2334D01*
X3350Y-85232D01*
X9700Y-97932D02*
X10716Y-96916D01*
X11732D01*
X10716Y-95900D01*
X11732Y-94884D01*
X10716D01*
X9700Y-93868D01*
X8684Y-94884D01*
X7668D01*
X8684Y-95900D01*
X7668Y-96916D01*
X8684D01*
X9700Y-97932D01*
X3350Y-110632D02*
X4366Y-109616D01*
X5382D01*
X4366Y-108600D01*
X5382Y-107584D01*
X4366D01*
X3350Y-106568D01*
X2334Y-107584D01*
X1318D01*
X2334Y-108600D01*
X1318Y-109616D01*
X2334D01*
X3350Y-110632D01*
X-3000Y181468D02*
X-1984Y182484D01*
X-968D01*
X-1984Y183500D01*
X-968Y184516D01*
X-1984D01*
X-3000Y185532D01*
X-4016Y184516D01*
X-5032D01*
X-4016Y183500D01*
X-5032Y182484D01*
X-4016D01*
X-3000Y181468D01*
X-9350Y168768D02*
X-8334Y169784D01*
X-7318D01*
X-8334Y170800D01*
X-7318Y171816D01*
X-8334D01*
X-9350Y172832D01*
X-10366Y171816D01*
X-11382D01*
X-10366Y170800D01*
X-11382Y169784D01*
X-10366D01*
X-9350Y168768D01*
X-3000Y156068D02*
X-1984Y157084D01*
X-968D01*
X-1984Y158100D01*
X-968Y159116D01*
X-1984D01*
X-3000Y160132D01*
X-4016Y159116D01*
X-5032D01*
X-4016Y158100D01*
X-5032Y157084D01*
X-4016D01*
X-3000Y156068D01*
X-9350Y143368D02*
X-8334Y144384D01*
X-7318D01*
X-8334Y145400D01*
X-7318Y146416D01*
X-8334D01*
X-9350Y147432D01*
X-10366Y146416D01*
X-11382D01*
X-10366Y145400D01*
X-11382Y144384D01*
X-10366D01*
X-9350Y143368D01*
X-3000Y-72532D02*
X-1984Y-71516D01*
X-968D01*
X-1984Y-70500D01*
X-968Y-69484D01*
X-1984D01*
X-3000Y-68468D01*
X-4016Y-69484D01*
X-5032D01*
X-4016Y-70500D01*
X-5032Y-71516D01*
X-4016D01*
X-3000Y-72532D01*
X-9350Y-85232D02*
X-8334Y-84216D01*
X-7318D01*
X-8334Y-83200D01*
X-7318Y-82184D01*
X-8334D01*
X-9350Y-81168D01*
X-10366Y-82184D01*
X-11382D01*
X-10366Y-83200D01*
X-11382Y-84216D01*
X-10366D01*
X-9350Y-85232D01*
X-3000Y-97932D02*
X-1984Y-96916D01*
X-968D01*
X-1984Y-95900D01*
X-968Y-94884D01*
X-1984D01*
X-3000Y-93868D01*
X-4016Y-94884D01*
X-5032D01*
X-4016Y-95900D01*
X-5032Y-96916D01*
X-4016D01*
X-3000Y-97932D01*
X-9350Y-110632D02*
X-8334Y-109616D01*
X-7318D01*
X-8334Y-108600D01*
X-7318Y-107584D01*
X-8334D01*
X-9350Y-106568D01*
X-10366Y-107584D01*
X-11382D01*
X-10366Y-108600D01*
X-11382Y-109616D01*
X-10366D01*
X-9350Y-110632D01*
X313150Y-19892D02*
X311118Y-15828D01*
X315182D01*
X313150Y-19892D01*
X28718Y-28032D02*
X29734Y-26000D01*
X28718Y-23968D01*
X30750Y-24984D01*
X32782Y-23968D01*
X31766Y-26000D01*
X32782Y-28032D01*
X30750Y-27016D01*
X28718Y-28032D01*
X43718Y-52282D02*
X44734Y-50250D01*
X43718Y-48218D01*
X45750Y-49234D01*
X47782Y-48218D01*
X46766Y-50250D01*
X47782Y-52282D01*
X45750Y-51266D01*
X43718Y-52282D01*
X168604Y149988D02*
X169620D01*
X170636Y151004D01*
X171652Y149988D01*
X172668D01*
Y151004D01*
X171652Y152020D01*
X172668Y153036D01*
Y154052D01*
X171652D01*
X170636Y153036D01*
X169620Y154052D01*
X168604D01*
Y153036D01*
X169620Y152020D01*
X168604Y151004D01*
Y149988D01*
X233914Y151954D02*
Y150938D01*
X235946D01*
Y151954D01*
X236962D01*
Y153986D01*
X235946D01*
Y155002D01*
X233914D01*
Y153986D01*
X232898D01*
Y151954D01*
X233914D01*
X142593Y37343D02*
X143609Y39375D01*
X142593Y41407D01*
X144625Y40391D01*
X146657Y41407D01*
X145641Y39375D01*
X146657Y37343D01*
X144625Y38359D01*
X142593Y37343D01*
X310610Y76628D02*
X308578Y80692D01*
X312642D01*
X310610Y76628D01*
X346700Y183418D02*
X344668Y187482D01*
X348732D01*
X346700Y183418D01*
X103668Y123668D02*
X104684Y125700D01*
X103668Y127732D01*
X105700Y126716D01*
X107732Y127732D01*
X106716Y125700D01*
X107732Y123668D01*
X105700Y124684D01*
X103668Y123668D01*
X190648Y63688D02*
X191664Y65720D01*
X190648Y67752D01*
X192680Y66736D01*
X194712Y67752D01*
X193696Y65720D01*
X194712Y63688D01*
X192680Y64704D01*
X190648Y63688D01*
X190648Y20188D02*
X191664Y22220D01*
X190648Y24252D01*
X192680Y23236D01*
X194712Y24252D01*
X193696Y22220D01*
X194712Y20188D01*
X192680Y21204D01*
X190648Y20188D01*
X190648Y77688D02*
X191664Y79720D01*
X190648Y81752D01*
X192680Y80736D01*
X194712Y81752D01*
X193696Y79720D01*
X194712Y77688D01*
X192680Y78704D01*
X190648Y77688D01*
X190668Y5668D02*
X191684Y7700D01*
X190668Y9732D01*
X192700Y8716D01*
X194732Y9732D01*
X193716Y7700D01*
X194732Y5668D01*
X192700Y6684D01*
X190668Y5668D01*
M02*
