G04*
G04 #@! TF.GenerationSoftware,Altium Limited,Altium Designer,22.6.1 (34)*
G04*
G04 Layer_Physical_Order=1*
G04 Layer_Color=255*
%FSLAX44Y44*%
%MOMM*%
G71*
G04*
G04 #@! TF.SameCoordinates,1BA94AFE-F389-4845-A448-9423F8A8FC82*
G04*
G04*
G04 #@! TF.FilePolarity,Positive*
G04*
G01*
G75*
%ADD11C,0.6000*%
%ADD15R,3.6000X1.8500*%
%ADD16R,2.8000X1.5500*%
%ADD17O,2.0000X0.6000*%
%ADD18R,1.0500X1.0000*%
%ADD19R,1.0000X0.9500*%
%ADD20R,6.4000X5.5500*%
%ADD21R,3.0000X1.2500*%
%ADD22R,0.9500X0.9000*%
%ADD36C,1.0000*%
%ADD37C,2.0000*%
%ADD38C,1.5000*%
%ADD39C,0.5000*%
%ADD40C,0.1270*%
%ADD41O,2.0000X3.0000*%
%ADD42C,2.0000*%
%ADD43O,2.0000X2.8000*%
%ADD44R,2.0000X2.0000*%
%ADD45C,0.6000*%
G36*
X83625Y-246775D02*
X-367225D01*
Y62432D01*
X-363632Y66024D01*
X-158475Y65968D01*
X-157225D01*
Y66025D01*
X83625D01*
Y-246775D01*
D02*
G37*
%LPC*%
G36*
X58225Y60692D02*
X32825D01*
X29883Y60305D01*
X27141Y59169D01*
X24787Y57363D01*
X22981Y55009D01*
X22415Y53643D01*
X15270D01*
Y59020D01*
X-15270D01*
Y56393D01*
X-28750D01*
X-31196Y55906D01*
X-33270Y54520D01*
X-42770Y45020D01*
X-44156Y42946D01*
X-44643Y40500D01*
Y38020D01*
X-70520D01*
Y16980D01*
X-31980D01*
Y31132D01*
X-31857Y31750D01*
Y37852D01*
X-26102Y43607D01*
X-15270D01*
Y40980D01*
X2133D01*
X2750Y40857D01*
X19461D01*
X21702Y35878D01*
X21458Y34025D01*
Y24025D01*
X21464Y23975D01*
X21458Y23925D01*
X21845Y20983D01*
X22981Y18241D01*
X24787Y15887D01*
X27141Y14081D01*
X27398Y13974D01*
Y8476D01*
X27141Y8369D01*
X24787Y6563D01*
X22981Y4209D01*
X21845Y1467D01*
X21458Y-1475D01*
X21464Y-1525D01*
X21458Y-1575D01*
Y-11575D01*
X21562Y-12368D01*
X18245Y-17404D01*
X250D01*
X250Y-17404D01*
X-325Y-17480D01*
X-15270D01*
Y-20607D01*
X-23730D01*
Y-19980D01*
X-56270D01*
Y-35020D01*
X-23730D01*
Y-35020D01*
X-18650Y-33868D01*
X-15270Y-35520D01*
Y-40230D01*
X-15270Y-40600D01*
Y-48615D01*
X0D01*
X15270D01*
Y-40600D01*
X15270Y-40230D01*
Y-35520D01*
X15694Y-35096D01*
X25025D01*
X27141Y-36719D01*
X27398Y-36826D01*
Y-42324D01*
X27141Y-42431D01*
X24787Y-44237D01*
X22981Y-46591D01*
X21845Y-49333D01*
X21458Y-52275D01*
X21464Y-52325D01*
X21458Y-52375D01*
Y-62375D01*
X17350Y-66654D01*
X250D01*
X250Y-66654D01*
X-325Y-66730D01*
X-15270D01*
Y-66907D01*
X-23730D01*
Y-65780D01*
X-56270D01*
Y-80820D01*
X-23730D01*
Y-79693D01*
X-15270D01*
Y-84770D01*
X15270D01*
Y-84346D01*
X23738D01*
X24787Y-85713D01*
X27141Y-87519D01*
X27398Y-87626D01*
Y-93124D01*
X27141Y-93231D01*
X24787Y-95037D01*
X22981Y-97391D01*
X21845Y-100133D01*
X21458Y-103075D01*
X21464Y-103125D01*
X21458Y-103175D01*
Y-113175D01*
X21479Y-113333D01*
X17899Y-118404D01*
X250D01*
X-325Y-118480D01*
X-15270D01*
Y-120857D01*
X-24300D01*
X-24300Y-120857D01*
X-26746Y-121344D01*
X-28820Y-122730D01*
X-32771Y-126680D01*
X-56270D01*
Y-141720D01*
X-23730D01*
Y-135721D01*
X-21652Y-133643D01*
X-15270D01*
Y-136520D01*
X15270D01*
Y-136096D01*
X24467D01*
X24787Y-136513D01*
X27141Y-138319D01*
X27398Y-138426D01*
Y-143924D01*
X27141Y-144031D01*
X24787Y-145837D01*
X22981Y-148191D01*
X21845Y-150933D01*
X21458Y-153875D01*
X21464Y-153925D01*
X21458Y-153975D01*
Y-163975D01*
X21500Y-164294D01*
X21026Y-166675D01*
X17128Y-170904D01*
X250D01*
X250Y-170904D01*
X-325Y-170980D01*
X-15270D01*
Y-173607D01*
X-23730D01*
Y-172480D01*
X-56270D01*
Y-187520D01*
X-23730D01*
Y-186393D01*
X-15270D01*
Y-189020D01*
X15270D01*
Y-188596D01*
X26459D01*
X27141Y-189119D01*
X27519Y-189276D01*
Y-194774D01*
X27141Y-194931D01*
X24787Y-196737D01*
X22981Y-199091D01*
X21845Y-201833D01*
X21458Y-204775D01*
Y-209140D01*
X32825D01*
Y-210410D01*
X21458D01*
Y-214775D01*
X21800Y-217375D01*
X21458Y-219975D01*
Y-224340D01*
X32825D01*
Y-224975D01*
X33460D01*
Y-241259D01*
X35767Y-240955D01*
X38509Y-239819D01*
X40863Y-238013D01*
X42669Y-235659D01*
X43066Y-234702D01*
X47650Y-234320D01*
X48498Y-234412D01*
X50187Y-236613D01*
X52541Y-238419D01*
X55283Y-239555D01*
X57590Y-239859D01*
Y-224575D01*
X58225D01*
Y-223940D01*
X69592D01*
Y-220575D01*
X69205Y-217633D01*
X69098Y-217375D01*
X69205Y-217117D01*
X69592Y-214175D01*
Y-210810D01*
X58225D01*
Y-209540D01*
X69592D01*
Y-206175D01*
X69205Y-203233D01*
X68069Y-200491D01*
X66263Y-198137D01*
X63909Y-196331D01*
X62100Y-195581D01*
X61616Y-192725D01*
X62100Y-189869D01*
X63909Y-189119D01*
X66263Y-187313D01*
X68069Y-184959D01*
X69205Y-182217D01*
X69592Y-179275D01*
X69493Y-178525D01*
X69592Y-177775D01*
Y-169775D01*
X69205Y-166833D01*
X69098Y-166575D01*
X69205Y-166317D01*
X69592Y-163375D01*
Y-155375D01*
X69493Y-154625D01*
X69592Y-153875D01*
X69205Y-150933D01*
X68069Y-148191D01*
X66263Y-145837D01*
X63909Y-144031D01*
X63652Y-143924D01*
Y-138426D01*
X63909Y-138319D01*
X66263Y-136513D01*
X68069Y-134159D01*
X69205Y-131417D01*
X69592Y-128475D01*
X69493Y-127725D01*
X69592Y-126975D01*
Y-118975D01*
X69205Y-116033D01*
X69098Y-115775D01*
X69205Y-115517D01*
X69592Y-112575D01*
Y-104575D01*
X69493Y-103825D01*
X69592Y-103075D01*
X69205Y-100133D01*
X68069Y-97391D01*
X66263Y-95037D01*
X63909Y-93231D01*
X63652Y-93124D01*
Y-87626D01*
X63909Y-87519D01*
X66263Y-85713D01*
X68069Y-83359D01*
X69205Y-80617D01*
X69592Y-77675D01*
X69493Y-76925D01*
X69592Y-76175D01*
Y-68175D01*
X69205Y-65233D01*
X69098Y-64975D01*
X69205Y-64717D01*
X69592Y-61775D01*
Y-53775D01*
X69493Y-53025D01*
X69592Y-52275D01*
X69205Y-49333D01*
X68069Y-46591D01*
X66263Y-44237D01*
X63909Y-42431D01*
X63652Y-42324D01*
Y-36826D01*
X63909Y-36719D01*
X66263Y-34913D01*
X68069Y-32559D01*
X69205Y-29817D01*
X69592Y-26875D01*
X69493Y-26125D01*
X69592Y-25375D01*
Y-17375D01*
X69205Y-14433D01*
X69098Y-14175D01*
X69205Y-13917D01*
X69592Y-10975D01*
Y-2975D01*
X69493Y-2225D01*
X69592Y-1475D01*
X69205Y1467D01*
X68069Y4209D01*
X66263Y6563D01*
X63909Y8369D01*
X63652Y8476D01*
Y13974D01*
X63909Y14081D01*
X66263Y15887D01*
X68069Y18241D01*
X69205Y20983D01*
X69592Y23925D01*
X69493Y24675D01*
X69592Y25425D01*
Y33425D01*
X69205Y36367D01*
X69098Y36625D01*
X69205Y36883D01*
X69592Y39825D01*
Y47825D01*
X69493Y48575D01*
X69592Y49325D01*
X69205Y52267D01*
X68069Y55009D01*
X66263Y57363D01*
X63909Y59169D01*
X61167Y60305D01*
X58225Y60692D01*
D02*
G37*
G36*
X-84480Y38020D02*
X-103115D01*
Y28135D01*
X-84480D01*
Y38020D01*
D02*
G37*
G36*
X-104385D02*
X-123020D01*
Y28135D01*
X-104385D01*
Y38020D01*
D02*
G37*
G36*
X-196425Y34065D02*
X-215060D01*
Y24180D01*
X-196425D01*
Y34065D01*
D02*
G37*
G36*
X-216330D02*
X-234965D01*
Y24180D01*
X-216330D01*
Y34065D01*
D02*
G37*
G36*
X15270Y32520D02*
X635D01*
Y24135D01*
X15270D01*
Y32520D01*
D02*
G37*
G36*
X-635D02*
X-15270D01*
Y24135D01*
X-635D01*
Y32520D01*
D02*
G37*
G36*
X-84480Y26865D02*
X-103115D01*
Y16980D01*
X-84480D01*
Y26865D01*
D02*
G37*
G36*
X-104385D02*
X-123020D01*
Y16980D01*
X-104385D01*
Y26865D01*
D02*
G37*
G36*
X15270Y22865D02*
X635D01*
Y14480D01*
X15270D01*
Y22865D01*
D02*
G37*
G36*
X-635D02*
X-15270D01*
Y14480D01*
X-635D01*
Y22865D01*
D02*
G37*
G36*
X-196425Y22910D02*
X-215060D01*
Y13025D01*
X-196425D01*
Y22910D01*
D02*
G37*
G36*
X-216330D02*
X-234965D01*
Y13025D01*
X-216330D01*
Y22910D01*
D02*
G37*
G36*
X15270Y9020D02*
X635D01*
Y635D01*
X15270D01*
Y9020D01*
D02*
G37*
G36*
X-635D02*
X-15270D01*
Y635D01*
X-635D01*
Y9020D01*
D02*
G37*
G36*
X-348810Y9795D02*
X-359445D01*
Y-840D01*
X-348810D01*
Y9795D01*
D02*
G37*
G36*
X15270Y-635D02*
X635D01*
Y-9020D01*
X15270D01*
Y-635D01*
D02*
G37*
G36*
X-635D02*
X-15270D01*
Y-9020D01*
X-635D01*
Y-635D01*
D02*
G37*
G36*
X-241540Y-19005D02*
Y-24390D01*
X-235905D01*
Y-19005D01*
X-241540D01*
D02*
G37*
G36*
X-235905Y-25660D02*
X-241540D01*
Y-31045D01*
X-235905D01*
Y-25660D01*
D02*
G37*
G36*
X15270Y-49885D02*
X635D01*
Y-58270D01*
X15270D01*
Y-49885D01*
D02*
G37*
G36*
X-635D02*
X-15270D01*
Y-58270D01*
X-635D01*
Y-49885D01*
D02*
G37*
G36*
X-129725Y47275D02*
X-133959D01*
Y-21380D01*
X-137770D01*
Y-71131D01*
X-159842D01*
X-163062Y-68494D01*
X-163635Y-65819D01*
Y-62890D01*
X-169655D01*
Y-61620D01*
X-163635D01*
Y-58691D01*
X-162635Y-54025D01*
X-162635Y-51819D01*
Y-48390D01*
X-169155D01*
Y-47120D01*
X-162635D01*
Y-43691D01*
X-162635Y-41485D01*
X-163635Y-36819D01*
Y-27485D01*
X-163832D01*
X-167713Y-24845D01*
X-167861Y-24102D01*
X-168281Y-23472D01*
X-172351Y-19402D01*
X-172982Y-18980D01*
X-173725Y-18833D01*
X-188225D01*
X-188225Y-18833D01*
X-188968Y-18980D01*
X-189598Y-19402D01*
X-189599Y-19402D01*
X-198348Y-28152D01*
X-198769Y-28782D01*
X-198917Y-29525D01*
Y-46971D01*
X-201029Y-49083D01*
X-209487D01*
X-210347Y-47797D01*
X-211759Y-46853D01*
X-213425Y-46521D01*
X-227425D01*
X-229091Y-46853D01*
X-230504Y-47797D01*
X-231263Y-48933D01*
X-240325D01*
X-241068Y-49081D01*
X-241698Y-49502D01*
X-248128Y-55931D01*
X-252821Y-53987D01*
Y-32744D01*
X-248445Y-31045D01*
X-245825Y-31045D01*
X-242810D01*
Y-25025D01*
Y-19005D01*
X-245825D01*
X-248445Y-19005D01*
X-252821Y-17306D01*
Y13025D01*
X-248925D01*
Y34065D01*
X-287465D01*
Y28279D01*
X-312275D01*
X-313757Y30845D01*
X-315855Y32943D01*
X-318425Y34427D01*
X-321291Y35195D01*
X-324259D01*
X-327125Y34427D01*
X-329695Y32943D01*
X-331793Y30845D01*
X-333277Y28275D01*
X-334045Y25409D01*
Y22441D01*
X-333277Y19575D01*
X-331793Y17005D01*
X-329695Y14907D01*
X-328146Y14013D01*
X-327602Y11353D01*
Y11097D01*
X-328138Y8477D01*
X-328340Y8325D01*
X-329695Y7543D01*
X-330624Y6615D01*
X-332144Y5476D01*
X-336905Y6751D01*
Y9795D01*
X-347540D01*
Y-1475D01*
X-348175D01*
Y-2110D01*
X-359445D01*
Y-12745D01*
X-358243D01*
X-357686Y-13524D01*
X-355095Y-17857D01*
X-355622Y-18384D01*
X-356213Y-18837D01*
X-356666Y-19428D01*
X-357193Y-19955D01*
X-357566Y-20600D01*
X-358019Y-21191D01*
X-358304Y-21880D01*
X-358677Y-22525D01*
X-358870Y-23245D01*
X-359155Y-23933D01*
X-359252Y-24672D01*
X-359445Y-25391D01*
Y-26136D01*
X-359542Y-26875D01*
X-359445Y-27614D01*
Y-28359D01*
X-359252Y-29078D01*
X-359155Y-29817D01*
X-358870Y-30505D01*
X-358677Y-31225D01*
X-358304Y-31870D01*
X-358019Y-32559D01*
X-357566Y-33150D01*
X-357193Y-33795D01*
X-356666Y-34322D01*
X-356213Y-34913D01*
X-355622Y-35366D01*
X-355095Y-35893D01*
X-354450Y-36266D01*
X-353859Y-36719D01*
X-353636Y-36811D01*
X-353002Y-39039D01*
Y-40111D01*
X-353636Y-42339D01*
X-353859Y-42431D01*
X-354450Y-42884D01*
X-355095Y-43257D01*
X-355622Y-43784D01*
X-356213Y-44237D01*
X-356666Y-44828D01*
X-357193Y-45355D01*
X-357566Y-46000D01*
X-358019Y-46591D01*
X-358304Y-47280D01*
X-358677Y-47925D01*
X-358870Y-48645D01*
X-359155Y-49333D01*
X-359252Y-50072D01*
X-359445Y-50791D01*
Y-51536D01*
X-359542Y-52275D01*
X-359445Y-53014D01*
Y-53759D01*
X-359252Y-54478D01*
X-359155Y-55217D01*
X-358870Y-55905D01*
X-358677Y-56625D01*
X-358304Y-57270D01*
X-358019Y-57959D01*
X-357566Y-58550D01*
X-357193Y-59195D01*
X-356666Y-59722D01*
X-356213Y-60313D01*
X-355622Y-60766D01*
X-355095Y-61293D01*
X-354450Y-61666D01*
X-353859Y-62119D01*
X-353636Y-62211D01*
X-353002Y-64439D01*
Y-65511D01*
X-353636Y-67738D01*
X-353859Y-67831D01*
X-354450Y-68284D01*
X-355095Y-68657D01*
X-355622Y-69184D01*
X-356213Y-69637D01*
X-356666Y-70228D01*
X-357193Y-70755D01*
X-357566Y-71400D01*
X-358019Y-71991D01*
X-358304Y-72680D01*
X-358677Y-73325D01*
X-358870Y-74045D01*
X-359155Y-74733D01*
X-359252Y-75472D01*
X-359445Y-76191D01*
Y-76936D01*
X-359542Y-77675D01*
X-359445Y-78414D01*
Y-79159D01*
X-359252Y-79878D01*
X-359155Y-80617D01*
X-358870Y-81305D01*
X-358677Y-82025D01*
X-358304Y-82670D01*
X-358019Y-83359D01*
X-357566Y-83950D01*
X-357193Y-84595D01*
X-356666Y-85122D01*
X-356213Y-85713D01*
X-355622Y-86166D01*
X-355095Y-86693D01*
X-354450Y-87066D01*
X-353859Y-87519D01*
X-353636Y-87612D01*
X-353002Y-89839D01*
Y-90911D01*
X-353636Y-93139D01*
X-353859Y-93231D01*
X-354450Y-93684D01*
X-355095Y-94057D01*
X-355622Y-94584D01*
X-356213Y-95037D01*
X-356666Y-95628D01*
X-357193Y-96155D01*
X-357566Y-96800D01*
X-358019Y-97391D01*
X-358304Y-98080D01*
X-358677Y-98725D01*
X-358870Y-99445D01*
X-359155Y-100133D01*
X-359252Y-100872D01*
X-359445Y-101591D01*
Y-102336D01*
X-359542Y-103075D01*
X-359445Y-103814D01*
Y-104559D01*
X-359252Y-105278D01*
X-359155Y-106017D01*
X-358870Y-106705D01*
X-358677Y-107425D01*
X-358304Y-108070D01*
X-358019Y-108759D01*
X-357566Y-109350D01*
X-357193Y-109995D01*
X-356666Y-110522D01*
X-356213Y-111113D01*
X-355622Y-111566D01*
X-355095Y-112093D01*
X-354450Y-112466D01*
X-353859Y-112919D01*
X-353636Y-113012D01*
X-353002Y-115239D01*
Y-116311D01*
X-353636Y-118539D01*
X-353859Y-118631D01*
X-354450Y-119084D01*
X-355095Y-119457D01*
X-355622Y-119984D01*
X-356213Y-120437D01*
X-356666Y-121028D01*
X-357193Y-121555D01*
X-357566Y-122200D01*
X-358019Y-122791D01*
X-358304Y-123480D01*
X-358677Y-124125D01*
X-358870Y-124845D01*
X-359155Y-125533D01*
X-359252Y-126272D01*
X-359445Y-126991D01*
Y-127736D01*
X-359542Y-128475D01*
X-359445Y-129214D01*
Y-129959D01*
X-359252Y-130678D01*
X-359155Y-131417D01*
X-358870Y-132105D01*
X-358677Y-132825D01*
X-358304Y-133470D01*
X-358019Y-134159D01*
X-357566Y-134750D01*
X-357193Y-135395D01*
X-356666Y-135922D01*
X-356213Y-136513D01*
X-355622Y-136966D01*
X-355095Y-137493D01*
X-354450Y-137866D01*
X-353859Y-138319D01*
X-353636Y-138412D01*
X-353002Y-140639D01*
Y-141303D01*
X-353546Y-143963D01*
X-355095Y-144857D01*
X-357193Y-146955D01*
X-358677Y-149525D01*
X-359445Y-152391D01*
Y-155359D01*
X-358677Y-158225D01*
X-357193Y-160795D01*
X-355095Y-162893D01*
X-353546Y-163787D01*
X-353002Y-166447D01*
Y-166703D01*
X-353546Y-169363D01*
X-355095Y-170257D01*
X-357193Y-172355D01*
X-358677Y-174925D01*
X-359445Y-177791D01*
Y-180759D01*
X-358677Y-183625D01*
X-357193Y-186195D01*
X-355095Y-188293D01*
X-352525Y-189777D01*
X-349659Y-190545D01*
X-346691D01*
X-343825Y-189777D01*
X-341255Y-188293D01*
X-339157Y-186195D01*
X-337673Y-183625D01*
X-336905Y-180759D01*
Y-177791D01*
X-337673Y-174925D01*
X-339157Y-172355D01*
X-341255Y-170257D01*
X-342804Y-169363D01*
X-343349Y-166703D01*
Y-166447D01*
X-342804Y-163787D01*
X-341255Y-162893D01*
X-339157Y-160795D01*
X-337673Y-158225D01*
X-336905Y-155359D01*
Y-152391D01*
X-337673Y-149525D01*
X-339157Y-146955D01*
X-341189Y-144922D01*
X-341184Y-144615D01*
X-339780Y-139842D01*
X-322775D01*
X-322036Y-139745D01*
X-321376D01*
X-319806Y-141369D01*
X-318622Y-144175D01*
X-324148Y-149702D01*
X-324570Y-150332D01*
X-324717Y-151075D01*
Y-154220D01*
X-324717Y-218928D01*
X-327125Y-219573D01*
X-329695Y-221057D01*
X-331793Y-223155D01*
X-333277Y-225725D01*
X-334045Y-228591D01*
Y-231559D01*
X-333277Y-234425D01*
X-331793Y-236995D01*
X-329695Y-239093D01*
X-327125Y-240577D01*
X-324259Y-241345D01*
X-321291D01*
X-318425Y-240577D01*
X-315855Y-239093D01*
X-313757Y-236995D01*
X-312863Y-235446D01*
X-310203Y-234902D01*
X-309947D01*
X-307287Y-235446D01*
X-306393Y-236995D01*
X-304295Y-239093D01*
X-301725Y-240577D01*
X-298859Y-241345D01*
X-295891D01*
X-293025Y-240577D01*
X-290455Y-239093D01*
X-288357Y-236995D01*
X-287463Y-235446D01*
X-284803Y-234902D01*
X-284547D01*
X-281887Y-235446D01*
X-280993Y-236995D01*
X-278895Y-239093D01*
X-276325Y-240577D01*
X-273459Y-241345D01*
X-270491D01*
X-267625Y-240577D01*
X-265055Y-239093D01*
X-262957Y-236995D01*
X-262063Y-235446D01*
X-259403Y-234902D01*
X-259147D01*
X-256487Y-235446D01*
X-255593Y-236995D01*
X-253495Y-239093D01*
X-250925Y-240577D01*
X-248059Y-241345D01*
X-245091D01*
X-242225Y-240577D01*
X-239655Y-239093D01*
X-237557Y-236995D01*
X-236073Y-234425D01*
X-235305Y-231559D01*
Y-228591D01*
X-236073Y-225725D01*
X-237557Y-223155D01*
X-239655Y-221057D01*
X-242225Y-219573D01*
X-245091Y-218805D01*
X-247788D01*
X-247788Y-209633D01*
Y-136909D01*
X-247788Y-135835D01*
X-240970Y-129017D01*
X-231263D01*
X-230504Y-130154D01*
X-229091Y-131097D01*
X-227425Y-131429D01*
X-213425D01*
X-211759Y-131097D01*
X-210496Y-130253D01*
X-210347Y-130154D01*
Y-130153D01*
X-209688Y-129167D01*
X-202829D01*
X-198917Y-133080D01*
Y-140275D01*
X-198769Y-141018D01*
X-198348Y-141648D01*
X-192598Y-147398D01*
X-191968Y-147819D01*
X-191225Y-147967D01*
X-173975D01*
X-173232Y-147819D01*
X-172602Y-147398D01*
X-168282Y-143078D01*
X-168281Y-143078D01*
X-167861Y-142448D01*
X-167713Y-141705D01*
X-163635Y-141025D01*
Y-131691D01*
X-162635Y-127025D01*
X-162635Y-124819D01*
Y-121390D01*
X-169155D01*
Y-120120D01*
X-162635D01*
Y-116691D01*
X-162635Y-114485D01*
X-163635Y-109819D01*
Y-106890D01*
X-169655D01*
Y-105620D01*
X-163635D01*
Y-102691D01*
X-162635Y-98025D01*
X-160209Y-95599D01*
X-149837D01*
X-133959Y-111477D01*
Y-128080D01*
X-137770D01*
Y-186120D01*
X-133959D01*
Y-230225D01*
X-129725D01*
Y-186120D01*
X-71230D01*
Y-128080D01*
X-124602D01*
Y-111554D01*
X-124602Y-111554D01*
X-124895Y-110083D01*
X-125728Y-108836D01*
X-125728Y-108836D01*
X-129725Y-104839D01*
Y-79420D01*
X-71230D01*
Y-21380D01*
X-129725D01*
Y47275D01*
D02*
G37*
G36*
X15270Y-91980D02*
X635D01*
Y-100365D01*
X15270D01*
Y-91980D01*
D02*
G37*
G36*
X-635D02*
X-15270D01*
Y-100365D01*
X-635D01*
Y-91980D01*
D02*
G37*
G36*
X15270Y-101635D02*
X635D01*
Y-110020D01*
X15270D01*
Y-101635D01*
D02*
G37*
G36*
X-635D02*
X-15270D01*
Y-110020D01*
X-635D01*
Y-101635D01*
D02*
G37*
G36*
X15270Y-144480D02*
X635D01*
Y-152865D01*
X15270D01*
Y-144480D01*
D02*
G37*
G36*
X-635D02*
X-15270D01*
Y-152865D01*
X-635D01*
Y-144480D01*
D02*
G37*
G36*
X15270Y-154135D02*
X635D01*
Y-162520D01*
X15270D01*
Y-154135D01*
D02*
G37*
G36*
X-635D02*
X-15270D01*
Y-162520D01*
X-635D01*
Y-154135D01*
D02*
G37*
G36*
X69592Y-225210D02*
X58860D01*
Y-239859D01*
X61167Y-239555D01*
X63909Y-238419D01*
X66263Y-236613D01*
X68069Y-234259D01*
X69205Y-231517D01*
X69592Y-228575D01*
Y-225210D01*
D02*
G37*
G36*
X32190Y-225610D02*
X21458D01*
Y-229975D01*
X21845Y-232917D01*
X22981Y-235659D01*
X24787Y-238013D01*
X27141Y-239819D01*
X29883Y-240955D01*
X32190Y-241259D01*
Y-225610D01*
D02*
G37*
%LPD*%
G36*
X-306781Y-73654D02*
X-306754Y-73843D01*
X-306709Y-73989D01*
X-306646Y-74091D01*
X-306565Y-74150D01*
X-306467Y-74166D01*
X-306350Y-74138D01*
X-306215Y-74066D01*
X-306063Y-73952D01*
X-305892Y-73794D01*
Y-75590D01*
X-306063Y-75773D01*
X-306215Y-75964D01*
X-306350Y-76162D01*
X-306467Y-76368D01*
X-306565Y-76581D01*
X-306646Y-76802D01*
X-306709Y-77030D01*
X-306754Y-77265D01*
X-306781Y-77508D01*
X-306790Y-77758D01*
X-308060Y-76225D01*
X-306790Y-73422D01*
X-306781Y-73654D01*
D02*
G37*
G36*
X-287465Y13025D02*
X-261529D01*
Y-19005D01*
X-263445D01*
Y-31045D01*
X-261529D01*
Y-83522D01*
X-262628Y-84621D01*
X-268941D01*
X-270128Y-79541D01*
X-269846Y-79353D01*
X-269846Y-79353D01*
X-269037Y-78143D01*
X-268903Y-77941D01*
X-268903Y-77941D01*
X-268571Y-76275D01*
X-268903Y-74609D01*
X-268903Y-74609D01*
X-269846Y-73197D01*
X-269846Y-73197D01*
X-270655Y-72657D01*
X-270981Y-69925D01*
X-270655Y-67193D01*
X-270048Y-66788D01*
X-269846Y-66653D01*
X-269846Y-66653D01*
X-269037Y-65443D01*
X-268903Y-65241D01*
X-268903Y-65241D01*
X-268571Y-63575D01*
X-268903Y-61909D01*
X-268903Y-61909D01*
X-269846Y-60497D01*
X-269846Y-60497D01*
X-270655Y-59957D01*
X-270981Y-57225D01*
X-270655Y-54493D01*
X-270048Y-54088D01*
X-269846Y-53953D01*
X-269846Y-53953D01*
X-268903Y-52541D01*
X-268571Y-50875D01*
X-268903Y-49209D01*
X-268903Y-49209D01*
X-269846Y-47797D01*
X-271259Y-46853D01*
X-271259Y-46853D01*
X-272925Y-46521D01*
X-286925D01*
X-288591Y-46853D01*
X-290004Y-47797D01*
X-290763Y-48933D01*
X-302325D01*
X-302325Y-48933D01*
X-303068Y-49081D01*
X-303698Y-49502D01*
X-306533Y-52336D01*
X-306861Y-52332D01*
X-308440Y-52061D01*
X-311646Y-50265D01*
X-311698Y-50072D01*
X-311795Y-49333D01*
X-312080Y-48645D01*
X-312273Y-47925D01*
X-312646Y-47280D01*
X-312931Y-46591D01*
X-313384Y-46000D01*
X-313757Y-45355D01*
X-314284Y-44828D01*
X-314737Y-44237D01*
X-315328Y-43784D01*
X-315855Y-43257D01*
X-316500Y-42884D01*
X-317091Y-42431D01*
X-317314Y-42339D01*
X-317948Y-40111D01*
Y-39039D01*
X-317314Y-36811D01*
X-317091Y-36719D01*
X-316500Y-36266D01*
X-315855Y-35893D01*
X-315328Y-35366D01*
X-314737Y-34913D01*
X-314284Y-34322D01*
X-313757Y-33795D01*
X-313384Y-33150D01*
X-312931Y-32559D01*
X-312646Y-31870D01*
X-312273Y-31225D01*
X-312080Y-30505D01*
X-311795Y-29817D01*
X-311698Y-29078D01*
X-311505Y-28359D01*
Y-27614D01*
X-311408Y-26875D01*
X-311505Y-26136D01*
Y-25391D01*
X-311698Y-24672D01*
X-311795Y-23933D01*
X-312080Y-23245D01*
X-312273Y-22525D01*
X-312646Y-21880D01*
X-312931Y-21191D01*
X-313384Y-20600D01*
X-313757Y-19955D01*
X-314284Y-19428D01*
X-314737Y-18837D01*
X-315328Y-18384D01*
X-315855Y-17857D01*
X-316500Y-17484D01*
X-317091Y-17031D01*
X-317314Y-16939D01*
X-317948Y-14711D01*
Y-14047D01*
X-317404Y-11387D01*
X-315855Y-10493D01*
X-313757Y-8395D01*
X-312273Y-5825D01*
X-311505Y-2959D01*
Y-2110D01*
X-322775D01*
Y-840D01*
X-311505D01*
Y9D01*
X-312273Y2875D01*
X-313757Y5445D01*
X-315855Y7543D01*
X-317404Y8437D01*
X-317948Y11097D01*
Y11353D01*
X-317404Y14013D01*
X-315855Y14907D01*
X-313757Y17005D01*
X-312275Y19571D01*
X-287465D01*
Y13025D01*
D02*
G37*
G36*
X-231263Y-52817D02*
X-230504Y-53953D01*
X-229695Y-54493D01*
X-229369Y-57225D01*
X-229695Y-59957D01*
X-230504Y-60497D01*
X-231447Y-61909D01*
X-231779Y-63575D01*
X-231447Y-65241D01*
X-230504Y-66653D01*
X-229695Y-67193D01*
X-229369Y-69925D01*
X-229695Y-72657D01*
X-230504Y-73197D01*
X-231447Y-74609D01*
X-231779Y-76275D01*
X-231447Y-77941D01*
X-230504Y-79353D01*
X-229695Y-79893D01*
X-229369Y-82625D01*
X-229695Y-85357D01*
X-230504Y-85897D01*
X-231313Y-87107D01*
X-231447Y-87309D01*
X-231447Y-87309D01*
X-231652Y-88340D01*
X-220425D01*
X-209198D01*
X-209403Y-87309D01*
X-209403Y-87309D01*
X-210347Y-85897D01*
X-211155Y-85357D01*
X-211471Y-82709D01*
X-209283Y-78367D01*
X-209141D01*
X-190175D01*
X-190175Y-84255D01*
X-190175Y-88105D01*
Y-98025D01*
X-190175D01*
Y-99233D01*
X-191967Y-102244D01*
X-197719Y-102784D01*
X-200051Y-100452D01*
X-200682Y-100030D01*
X-201425Y-99883D01*
X-209487D01*
X-210347Y-98596D01*
X-211155Y-98057D01*
X-211481Y-95325D01*
X-211155Y-92593D01*
X-210548Y-92188D01*
X-210347Y-92053D01*
X-210346Y-92053D01*
X-209403Y-90641D01*
X-209198Y-89610D01*
X-220425D01*
X-231652D01*
X-231447Y-90641D01*
X-230504Y-92053D01*
X-230504Y-92053D01*
X-229695Y-92593D01*
X-229369Y-95325D01*
X-229695Y-98057D01*
X-230504Y-98596D01*
X-231447Y-100009D01*
X-231779Y-101675D01*
X-231447Y-103341D01*
X-230504Y-104754D01*
X-229695Y-105293D01*
X-229369Y-108025D01*
X-229695Y-110757D01*
X-230504Y-111297D01*
X-231447Y-112709D01*
X-231779Y-114375D01*
X-231447Y-116041D01*
X-230504Y-117453D01*
X-229695Y-117993D01*
X-229369Y-120725D01*
X-229695Y-123457D01*
X-230504Y-123996D01*
X-231263Y-125133D01*
X-241775D01*
X-241775Y-125133D01*
X-242518Y-125281D01*
X-243148Y-125702D01*
X-245634Y-128188D01*
X-250328Y-126243D01*
X-250328Y-85633D01*
Y-64672D01*
X-250328Y-63625D01*
X-239520Y-52817D01*
X-231659D01*
X-231263D01*
D02*
G37*
G36*
X-296731Y-130049D02*
X-296704Y-130238D01*
X-296659Y-130384D01*
X-296596Y-130486D01*
X-296516Y-130545D01*
X-296417Y-130561D01*
X-296300Y-130533D01*
X-296165Y-130461D01*
X-296013Y-130347D01*
X-295842Y-130189D01*
Y-131985D01*
X-296013Y-132168D01*
X-296165Y-132359D01*
X-296300Y-132557D01*
X-296417Y-132763D01*
X-296516Y-132976D01*
X-296596Y-133196D01*
X-296659Y-133425D01*
X-296704Y-133660D01*
X-296731Y-133903D01*
X-296740Y-134153D01*
X-298010Y-132620D01*
X-296740Y-129817D01*
X-296731Y-130049D01*
D02*
G37*
G36*
X-313630Y-151578D02*
X-313785Y-151754D01*
X-313923Y-151954D01*
X-314044Y-152179D01*
X-314149Y-152428D01*
X-314237Y-152703D01*
X-314308Y-153002D01*
X-314362Y-153325D01*
X-314400Y-153674D01*
X-314425Y-154445D01*
X-317395Y-151475D01*
X-316997Y-151471D01*
X-316275Y-151412D01*
X-315952Y-151358D01*
X-315653Y-151287D01*
X-315378Y-151199D01*
X-315129Y-151094D01*
X-314904Y-150973D01*
X-314704Y-150835D01*
X-314528Y-150680D01*
X-313630Y-151578D01*
D02*
G37*
G36*
X-301540Y-174058D02*
X-301526Y-174284D01*
X-301485Y-174519D01*
X-301415Y-174764D01*
X-301318Y-175020D01*
X-301193Y-175285D01*
X-301041Y-175561D01*
X-300861Y-175847D01*
X-300417Y-176449D01*
X-300154Y-176765D01*
X-304339Y-176415D01*
X-304049Y-176162D01*
X-303789Y-175911D01*
X-303559Y-175661D01*
X-303361Y-175412D01*
X-303192Y-175165D01*
X-303055Y-174919D01*
X-302948Y-174675D01*
X-302871Y-174432D01*
X-302825Y-174190D01*
X-302810Y-173950D01*
X-301540Y-174058D01*
D02*
G37*
D11*
X-203550Y-89100D02*
X-203425Y-89225D01*
X-222925Y-88975D02*
X-203675D01*
X-203550Y-89100D01*
X-277425Y-88975D02*
X-260825D01*
X-257175Y-85325D02*
Y-25025D01*
X-260825Y-88975D02*
X-257175Y-85325D01*
X-322775Y23925D02*
X-268575D01*
X-268195Y23545D01*
X-257175Y-25025D02*
Y17295D01*
X-268195Y23545D02*
X-263425D01*
X-257175Y17295D01*
D15*
X-103750Y27500D02*
D03*
X-51250D02*
D03*
X-268195Y23545D02*
D03*
X-215695D02*
D03*
D16*
X0Y50000D02*
D03*
Y23500D02*
D03*
Y-101000D02*
D03*
Y-127500D02*
D03*
Y-75750D02*
D03*
Y-49250D02*
D03*
Y-180000D02*
D03*
Y-153500D02*
D03*
Y-26500D02*
D03*
Y0D02*
D03*
D17*
X-279925Y-50875D02*
D03*
Y-63575D02*
D03*
Y-76275D02*
D03*
Y-88975D02*
D03*
Y-101675D02*
D03*
Y-114375D02*
D03*
Y-127075D02*
D03*
X-220425Y-63575D02*
D03*
Y-76275D02*
D03*
Y-88975D02*
D03*
Y-101675D02*
D03*
Y-114375D02*
D03*
Y-127075D02*
D03*
Y-50875D02*
D03*
D18*
X-169155Y-47755D02*
D03*
X-183655D02*
D03*
X-169155Y-120755D02*
D03*
X-183655D02*
D03*
X-169155Y-76755D02*
D03*
X-183655D02*
D03*
X-169155Y-91755D02*
D03*
X-183655D02*
D03*
D19*
X-257175Y-25025D02*
D03*
X-242175D02*
D03*
D20*
X-104500Y-50400D02*
D03*
Y-157100D02*
D03*
D21*
X-40000Y-27500D02*
D03*
Y-73300D02*
D03*
Y-134200D02*
D03*
Y-180000D02*
D03*
D22*
X-169655Y-33255D02*
D03*
X-184155D02*
D03*
X-169655Y-135255D02*
D03*
X-184155D02*
D03*
Y-62255D02*
D03*
X-169655D02*
D03*
X-184155Y-106255D02*
D03*
X-169655D02*
D03*
D36*
X-51250Y27500D02*
X-42500D01*
X-38250Y31750D01*
Y40500D01*
X-28750Y50000D02*
X0D01*
X-38250Y40500D02*
X-28750Y50000D01*
X-24300Y-127250D02*
X250D01*
X-31250Y-134200D02*
X-24300Y-127250D01*
X-40000Y-134200D02*
X-31250D01*
X-40000Y-180000D02*
X0D01*
X2750Y47250D02*
X30750D01*
X32825Y49325D01*
X0Y50000D02*
X2750Y47250D01*
X-2450Y-73300D02*
X0Y-75750D01*
X-40000Y-73300D02*
X-2450D01*
X-39500Y-27000D02*
X-500D01*
X0Y-26500D01*
X-40000Y-27500D02*
X-39500Y-27000D01*
X32125Y23225D02*
X32825Y23925D01*
X27619Y-166675D02*
X32825Y-171881D01*
Y-179275D02*
Y-171881D01*
X27419Y-166675D02*
X27619D01*
X27419D02*
X32825Y-161269D01*
Y-153875D01*
D37*
Y-179275D02*
X58225D01*
X32825Y-128475D02*
X58225D01*
X32825Y-77675D02*
X58225D01*
X32825Y-26875D02*
X58225D01*
X32825Y49325D02*
X58225D01*
X32825Y23925D02*
X58225D01*
X32825Y-153875D02*
X58225D01*
X32825Y-1475D02*
X58225D01*
X32825Y-52275D02*
X58225D01*
X32825Y-103075D02*
X58225D01*
X32825Y-230075D02*
X58225D01*
X32825Y-204675D02*
X58225D01*
X-348175Y-26875D02*
X-322775D01*
X-348175Y-103075D02*
X-322775D01*
X-348175Y-77675D02*
X-322775D01*
X-348175Y-52275D02*
X-322775D01*
X-348175Y-128475D02*
X-322775D01*
X-348175Y-1475D02*
X-322775D01*
D38*
X32350Y-179750D02*
X32825Y-179275D01*
X0Y-180000D02*
X250Y-179750D01*
X32350D01*
X250Y-127250D02*
X31600D01*
X32825Y-128475D01*
X250Y-75500D02*
X30650D01*
X0Y-75750D02*
X250Y-75500D01*
X30650D02*
X32825Y-77675D01*
X250Y-26250D02*
X32200D01*
X0Y-26500D02*
X250Y-26250D01*
X32200D02*
X32825Y-26875D01*
D39*
X-110600Y-50400D02*
X-107000D01*
X-135175Y-74975D02*
X-110600Y-50400D01*
X-119700Y-56750D02*
X-118325Y-58125D01*
X-118325D01*
X-135175Y-74975D02*
X-131025Y-70825D01*
X-118325Y-58125D01*
X-167375Y-74975D02*
X-135175D01*
X-169155Y-76755D02*
X-167375Y-74975D01*
X-104500Y-157100D02*
Y-155796D01*
X-122246Y-138050D02*
X-104500Y-155796D01*
X-128446Y-131850D02*
Y-111554D01*
Y-131850D02*
X-122246Y-138050D01*
X-148245Y-91755D02*
X-128446Y-111554D01*
X-169155Y-91755D02*
X-148245D01*
X-242325Y-24875D02*
X-242175Y-25025D01*
X-242475Y-2775D02*
X-242325Y-2925D01*
Y-24875D02*
Y-2925D01*
D40*
X-302425Y-178725D02*
X-302175Y-178475D01*
Y-110475D01*
X-293425Y-101725D02*
X-277475D01*
X-302175Y-110475D02*
X-293425Y-101725D01*
X-277475D02*
X-277425Y-101675D01*
X-317425Y-154475D02*
X-304885Y-141935D01*
Y-82185D01*
X-298925Y-76225D02*
X-277475D01*
X-304885Y-82185D02*
X-298925Y-76225D01*
X-277475D02*
X-277425Y-76275D01*
X-249730Y-226920D02*
Y-135030D01*
Y-226920D02*
X-246575Y-230075D01*
X-249730Y-135030D02*
X-241775Y-127075D01*
X-194495Y-120755D02*
X-183655D01*
X-291830Y-127075D02*
X-277425D01*
X-297375Y-132620D02*
X-291830Y-127075D01*
X-241775D02*
X-222925D01*
X-240325Y-50875D02*
X-222925D01*
X-222775Y-127225D02*
X-202025D01*
X-222925Y-127075D02*
X-222775Y-127225D01*
Y-101825D02*
X-201425D01*
X-222925Y-101675D02*
X-222775Y-101825D01*
X-302325Y-50875D02*
X-277425D01*
X-292575Y-114375D02*
X-277425D01*
X-297375Y-119175D02*
X-292575Y-114375D01*
X-222775Y-51025D02*
X-200225D01*
X-222925Y-50875D02*
X-222775Y-51025D01*
Y-63725D02*
X-199875D01*
X-222925Y-63575D02*
X-222775Y-63725D01*
Y-114525D02*
X-200725D01*
X-222925Y-114375D02*
X-222775Y-114525D01*
Y-76425D02*
X-183985D01*
X-222925Y-76275D02*
X-222775Y-76425D01*
X-294775Y-63575D02*
X-277425D01*
X-307425Y-76225D02*
X-294775Y-63575D01*
X-183985Y-76425D02*
X-183655Y-76755D01*
X-200725Y-114525D02*
X-194495Y-120755D01*
X-183905Y-47755D02*
X-183655D01*
X-193598Y-57448D02*
X-183905Y-47755D01*
X-193598Y-57448D02*
Y-57448D01*
X-199875Y-63725D02*
X-193598Y-57448D01*
X-169655Y-33255D02*
Y-24845D01*
X-173725Y-20775D02*
X-169655Y-24845D01*
X-188225Y-20775D02*
X-173725D01*
X-196975Y-29525D02*
X-188225Y-20775D01*
X-196975Y-47775D02*
Y-29525D01*
X-200225Y-51025D02*
X-196975Y-47775D01*
X-297375Y-132620D02*
Y-119175D01*
X-307425Y-55975D02*
X-302325Y-50875D01*
X-307425Y-76225D02*
Y-55975D01*
X-196995Y-106255D02*
X-184155D01*
X-201425Y-101825D02*
X-196995Y-106255D01*
X-169655Y-141705D02*
Y-135255D01*
X-173975Y-146025D02*
X-169655Y-141705D01*
X-191225Y-146025D02*
X-173975D01*
X-196975Y-140275D02*
X-191225Y-146025D01*
X-196975Y-140275D02*
Y-132275D01*
X-202025Y-127225D02*
X-196975Y-132275D01*
X-252270Y-62820D02*
X-240325Y-50875D01*
X-252270Y-210370D02*
Y-62820D01*
X-271975Y-230075D02*
X-252270Y-210370D01*
X-297375Y-230075D02*
Y-132620D01*
X-322775Y-230075D02*
Y-151075D01*
X-307425Y-135725D01*
Y-76225D01*
X-169155Y-62755D02*
X-155495D01*
X-169655Y-62255D02*
X-169155Y-62755D01*
X-169655Y-106255D02*
X-155495D01*
X-168155Y-48755D02*
X-155495D01*
X-169155Y-47755D02*
X-168155Y-48755D01*
X-155495Y-120755D02*
X-155475Y-120775D01*
X-169155Y-120755D02*
X-155495D01*
X-184155Y-106255D02*
X-183655Y-105755D01*
Y-91755D01*
X-184155Y-76255D02*
Y-62255D01*
Y-76255D02*
X-183985Y-76425D01*
X-184155Y-121255D02*
X-183655Y-120755D01*
X-184155Y-135255D02*
Y-121255D01*
Y-33255D02*
X-183655Y-33755D01*
Y-47755D02*
Y-33755D01*
D41*
X32825Y44225D02*
D03*
Y29025D02*
D03*
Y-6575D02*
D03*
Y-21775D02*
D03*
Y-57375D02*
D03*
Y-72575D02*
D03*
Y-108175D02*
D03*
Y-123375D02*
D03*
Y-158975D02*
D03*
Y-174175D02*
D03*
Y-209775D02*
D03*
Y-224975D02*
D03*
D42*
X-322775Y23925D02*
D03*
Y-1475D02*
D03*
Y-26875D02*
D03*
Y-52275D02*
D03*
Y-77675D02*
D03*
Y-103075D02*
D03*
Y-128475D02*
D03*
Y-230075D02*
D03*
X-297375D02*
D03*
X-271975D02*
D03*
X-246575D02*
D03*
X-348175Y-26875D02*
D03*
Y-179275D02*
D03*
Y-103075D02*
D03*
Y-77675D02*
D03*
Y-52275D02*
D03*
Y-153875D02*
D03*
Y-128475D02*
D03*
D43*
X58225Y29425D02*
D03*
Y43825D02*
D03*
Y-122975D02*
D03*
Y-173775D02*
D03*
Y-159375D02*
D03*
Y-6975D02*
D03*
Y-21375D02*
D03*
Y-72175D02*
D03*
Y-57775D02*
D03*
Y-108575D02*
D03*
Y-224575D02*
D03*
Y-210175D02*
D03*
D44*
X-348175Y-1475D02*
D03*
D45*
X19775Y-39775D02*
D03*
X-10225Y-219775D02*
D03*
X-25225Y-9775D02*
D03*
X-40225Y-39775D02*
D03*
Y-99775D02*
D03*
Y-159775D02*
D03*
Y-219775D02*
D03*
X-55225Y50225D02*
D03*
Y-9775D02*
D03*
X-70225Y-99775D02*
D03*
Y-219775D02*
D03*
X-85225Y50225D02*
D03*
Y-9775D02*
D03*
X-100225Y-99775D02*
D03*
X-85225Y-189775D02*
D03*
X-100225Y-219775D02*
D03*
X-115225Y50225D02*
D03*
Y-9775D02*
D03*
Y-189775D02*
D03*
X-145225Y50225D02*
D03*
X-160225Y20225D02*
D03*
X-145225Y-9775D02*
D03*
Y-129775D02*
D03*
X-160225Y-159775D02*
D03*
X-145225Y-189775D02*
D03*
X-160225Y-219775D02*
D03*
X-175225Y50225D02*
D03*
X-190225Y20225D02*
D03*
X-175225Y-9775D02*
D03*
X-190225Y-159775D02*
D03*
X-175225Y-189775D02*
D03*
X-190225Y-219775D02*
D03*
X-205225Y50225D02*
D03*
Y-9775D02*
D03*
X-220225Y-39775D02*
D03*
Y-159775D02*
D03*
X-205225Y-189775D02*
D03*
X-220225Y-219775D02*
D03*
X-235225Y50225D02*
D03*
Y-9775D02*
D03*
Y-69775D02*
D03*
Y-189775D02*
D03*
X-265225Y50225D02*
D03*
Y-9775D02*
D03*
X-280225Y-39775D02*
D03*
X-265225Y-69775D02*
D03*
X-295225Y50225D02*
D03*
Y-9775D02*
D03*
X-310225Y-39775D02*
D03*
X-325225Y50225D02*
D03*
X-340225Y20225D02*
D03*
Y-219775D02*
D03*
X-40225Y60225D02*
D03*
X-50225D02*
D03*
X-60225D02*
D03*
X-70225D02*
D03*
X-80225D02*
D03*
X-90225D02*
D03*
X-100225D02*
D03*
X-110225D02*
D03*
X-105225Y50225D02*
D03*
X-120225Y60225D02*
D03*
X-115225Y50225D02*
D03*
X-130225Y60225D02*
D03*
X-125225Y50225D02*
D03*
X-140225Y60225D02*
D03*
X-135225Y50225D02*
D03*
X-140225Y40225D02*
D03*
X-150225Y60225D02*
D03*
X-145225Y50225D02*
D03*
X-150225Y40225D02*
D03*
X-160225Y60225D02*
D03*
X-155225Y50225D02*
D03*
X-160225Y40225D02*
D03*
X-170225Y60225D02*
D03*
X-180225D02*
D03*
X-190225D02*
D03*
X-200225D02*
D03*
X-210225D02*
D03*
X-220225D02*
D03*
X-230225D02*
D03*
X-240225D02*
D03*
X-250225D02*
D03*
X-260225D02*
D03*
X-270225D02*
D03*
X-280225D02*
D03*
X-290225D02*
D03*
X-300225D02*
D03*
X-310225D02*
D03*
X9775Y-239775D02*
D03*
X-225D02*
D03*
X-10225D02*
D03*
X-20225D02*
D03*
X-30225D02*
D03*
X-40225D02*
D03*
X-50225D02*
D03*
X-60225D02*
D03*
X-70225D02*
D03*
X-80225D02*
D03*
X-90225D02*
D03*
X-100225Y-219775D02*
D03*
Y-239775D02*
D03*
X-110225Y-219775D02*
D03*
X-105225Y-229775D02*
D03*
X-110225Y-239775D02*
D03*
X-120225Y-219775D02*
D03*
X-115225Y-229775D02*
D03*
X-120225Y-239775D02*
D03*
X-125225Y-229775D02*
D03*
X-130225Y-239775D02*
D03*
X-140225Y-219775D02*
D03*
Y-239775D02*
D03*
X-150225Y-219775D02*
D03*
X-145225Y-229775D02*
D03*
X-150225Y-239775D02*
D03*
X-160225Y-219775D02*
D03*
X-155225Y-229775D02*
D03*
X-160225Y-239775D02*
D03*
X-165225Y-229775D02*
D03*
X-170225Y-239775D02*
D03*
X-180225D02*
D03*
X-190225D02*
D03*
X-200225D02*
D03*
X-210225D02*
D03*
X-220225D02*
D03*
X-230225D02*
D03*
X-260225D02*
D03*
X-310225D02*
D03*
X-320225Y60225D02*
D03*
Y40225D02*
D03*
X-330225Y60225D02*
D03*
X-325225Y50225D02*
D03*
X-330225Y40225D02*
D03*
Y-159775D02*
D03*
Y-199775D02*
D03*
X-340225Y60225D02*
D03*
X-335225Y50225D02*
D03*
X-340225Y40225D02*
D03*
Y20225D02*
D03*
X-335225Y-169775D02*
D03*
Y-189775D02*
D03*
X-340225Y-199775D02*
D03*
X-335225Y-209775D02*
D03*
X-340225Y-219775D02*
D03*
Y-239775D02*
D03*
X-350225Y60225D02*
D03*
X-345225Y50225D02*
D03*
X-350225Y40225D02*
D03*
X-345225Y30225D02*
D03*
X-350225Y20225D02*
D03*
Y-199775D02*
D03*
X-345225Y-209775D02*
D03*
X-350225Y-219775D02*
D03*
X-345225Y-229775D02*
D03*
X-350225Y-239775D02*
D03*
X-360225Y60225D02*
D03*
X-355225Y50225D02*
D03*
X-360225Y40225D02*
D03*
X-355225Y30225D02*
D03*
X-360225Y20225D02*
D03*
Y-39775D02*
D03*
Y-119775D02*
D03*
Y-139775D02*
D03*
Y-199775D02*
D03*
X-355225Y-209775D02*
D03*
X-360225Y-219775D02*
D03*
X-355225Y-229775D02*
D03*
X-360225Y-239775D02*
D03*
X-240225Y-59775D02*
D03*
X-235225Y-69775D02*
D03*
X-240225Y-79775D02*
D03*
X-235225Y-89775D02*
D03*
X-240225Y-99775D02*
D03*
X-235225Y-109775D02*
D03*
X-240225Y-119775D02*
D03*
X-208000Y27750D02*
D03*
X-222000D02*
D03*
Y19750D02*
D03*
X-208000D02*
D03*
X-97750Y31750D02*
D03*
X-111750D02*
D03*
Y23750D02*
D03*
X-97750D02*
D03*
X6750Y27750D02*
D03*
X-7250D02*
D03*
Y19750D02*
D03*
X6750D02*
D03*
Y4250D02*
D03*
X-7250D02*
D03*
Y-3750D02*
D03*
X6750D02*
D03*
Y-45000D02*
D03*
X-7250D02*
D03*
Y-53000D02*
D03*
X6750D02*
D03*
Y-96750D02*
D03*
X-7250D02*
D03*
Y-104750D02*
D03*
X6750D02*
D03*
X-7000Y-157500D02*
D03*
X7000D02*
D03*
Y-149500D02*
D03*
X-7000D02*
D03*
X69775Y60225D02*
D03*
X74775Y50225D02*
D03*
Y30225D02*
D03*
Y10225D02*
D03*
Y-9775D02*
D03*
Y-29775D02*
D03*
X69775Y-39775D02*
D03*
X74775Y-49775D02*
D03*
Y-69775D02*
D03*
Y-89775D02*
D03*
Y-109775D02*
D03*
Y-129775D02*
D03*
X69775Y-139775D02*
D03*
X74775Y-149775D02*
D03*
Y-169775D02*
D03*
Y-189775D02*
D03*
Y-209775D02*
D03*
Y-229775D02*
D03*
X69775Y-239775D02*
D03*
X-302425Y-178725D02*
D03*
X-317425Y-154475D02*
D03*
X-117200Y-31350D02*
D03*
Y-44050D02*
D03*
X-129900D02*
D03*
Y-56750D02*
D03*
X-117200D02*
D03*
X-104500D02*
D03*
Y-44050D02*
D03*
Y-31350D02*
D03*
X-91800D02*
D03*
Y-44050D02*
D03*
Y-56750D02*
D03*
X-79100Y-44050D02*
D03*
Y-56750D02*
D03*
X-91800Y-69450D02*
D03*
X-104500D02*
D03*
X-117200D02*
D03*
X-129900D02*
D03*
Y-31350D02*
D03*
X-79100D02*
D03*
Y-69450D02*
D03*
X-117200Y-138050D02*
D03*
Y-150750D02*
D03*
X-129900D02*
D03*
Y-163450D02*
D03*
X-117200D02*
D03*
X-104500D02*
D03*
Y-150750D02*
D03*
Y-138050D02*
D03*
X-91800D02*
D03*
Y-150750D02*
D03*
Y-163450D02*
D03*
X-79100Y-150750D02*
D03*
Y-163450D02*
D03*
X-91800Y-176150D02*
D03*
X-104500D02*
D03*
X-117200D02*
D03*
X-129900D02*
D03*
Y-138050D02*
D03*
X-79100D02*
D03*
Y-176150D02*
D03*
X-203550Y-89100D02*
D03*
X-242475Y-2775D02*
D03*
X-155495Y-62755D02*
D03*
X-155495Y-106255D02*
D03*
X-155495Y-48755D02*
D03*
X-155475Y-120775D02*
D03*
M02*
