G04*
G04 #@! TF.GenerationSoftware,Altium Limited,Altium Designer,22.5.1 (42)*
G04*
G04 Layer_Color=8388736*
%FSLAX44Y44*%
%MOMM*%
G71*
G04*
G04 #@! TF.SameCoordinates,379B5DB5-20BB-4147-B996-229858156FAD*
G04*
G04*
G04 #@! TF.FilePolarity,Negative*
G04*
G01*
G75*
%ADD23R,1.2000X1.1500*%
%ADD24R,1.1000X1.0500*%
%ADD25O,2.1500X0.7500*%
%ADD26R,6.5500X5.7000*%
%ADD27R,3.1500X1.4000*%
%ADD28R,1.8500X1.2500*%
%ADD29R,3.7500X2.0000*%
%ADD30R,1.2500X1.8500*%
%ADD31O,2.1500X3.1500*%
%ADD32C,2.1500*%
%ADD33R,2.1500X2.1500*%
%ADD34O,2.1500X2.9500*%
D23*
X180320Y129020D02*
D03*
X194820D02*
D03*
X180320Y158020D02*
D03*
X194820D02*
D03*
X180320Y173020D02*
D03*
X194820D02*
D03*
X180320Y202020D02*
D03*
X194820D02*
D03*
D24*
X194320Y143520D02*
D03*
X179820D02*
D03*
X194320Y187520D02*
D03*
X179820D02*
D03*
Y216520D02*
D03*
X194320D02*
D03*
Y114520D02*
D03*
X179820D02*
D03*
D25*
X144050Y198600D02*
D03*
Y122400D02*
D03*
Y135100D02*
D03*
Y147800D02*
D03*
Y160500D02*
D03*
Y173200D02*
D03*
Y185900D02*
D03*
X84550Y122400D02*
D03*
Y135100D02*
D03*
Y147800D02*
D03*
Y160500D02*
D03*
Y173200D02*
D03*
Y185900D02*
D03*
Y198600D02*
D03*
D26*
X250700Y105900D02*
D03*
Y194920D02*
D03*
D27*
X315200Y128800D02*
D03*
Y83000D02*
D03*
Y217820D02*
D03*
Y172020D02*
D03*
D28*
X377450Y109900D02*
D03*
Y82900D02*
D03*
X344450Y101400D02*
D03*
Y128400D02*
D03*
X377650Y199100D02*
D03*
Y172100D02*
D03*
X343200Y190650D02*
D03*
Y217650D02*
D03*
X378050Y299500D02*
D03*
Y272500D02*
D03*
D29*
X346050Y274250D02*
D03*
X293550D02*
D03*
X91530Y274070D02*
D03*
X144030D02*
D03*
D30*
X129550Y225500D02*
D03*
X102550D02*
D03*
D31*
X403050Y24800D02*
D03*
Y40000D02*
D03*
Y75600D02*
D03*
Y90800D02*
D03*
Y126400D02*
D03*
Y141600D02*
D03*
Y177200D02*
D03*
Y192400D02*
D03*
Y228000D02*
D03*
Y243200D02*
D03*
Y278800D02*
D03*
Y294000D02*
D03*
D32*
X47450Y19700D02*
D03*
X72850D02*
D03*
X98250D02*
D03*
X123650D02*
D03*
X47450Y273700D02*
D03*
Y248300D02*
D03*
Y222900D02*
D03*
Y197500D02*
D03*
Y172100D02*
D03*
Y146700D02*
D03*
Y121300D02*
D03*
X22050D02*
D03*
Y95900D02*
D03*
Y197500D02*
D03*
Y172100D02*
D03*
Y146700D02*
D03*
Y70500D02*
D03*
Y222900D02*
D03*
D33*
Y248300D02*
D03*
D34*
X428450Y39600D02*
D03*
Y25200D02*
D03*
Y141200D02*
D03*
Y192000D02*
D03*
Y177600D02*
D03*
Y228400D02*
D03*
Y242800D02*
D03*
Y90400D02*
D03*
Y76000D02*
D03*
Y126800D02*
D03*
Y293600D02*
D03*
Y279200D02*
D03*
M02*
