G04*
G04 #@! TF.GenerationSoftware,Altium Limited,Altium Designer,22.5.1 (42)*
G04*
G04 Layer_Color=128*
%FSLAX44Y44*%
%MOMM*%
G71*
G04*
G04 #@! TF.SameCoordinates,379B5DB5-20BB-4147-B996-229858156FAD*
G04*
G04*
G04 #@! TF.FilePolarity,Positive*
G04*
G01*
G75*
%ADD39C,0.0508*%
D39*
X397950Y19700D02*
X408150D01*
X403050Y14600D02*
Y24800D01*
X397950Y45100D02*
X408150D01*
X403050Y40000D02*
Y50200D01*
X397950Y70500D02*
X408150D01*
X403050Y65400D02*
Y75600D01*
X397950Y95900D02*
X408150D01*
X403050Y90800D02*
Y101000D01*
X397950Y121300D02*
X408150D01*
X403050Y116200D02*
Y126400D01*
X397950Y146700D02*
X408150D01*
X403050Y141600D02*
Y151800D01*
X397950Y172100D02*
X408150D01*
X403050Y167000D02*
Y177200D01*
X397950Y197500D02*
X408150D01*
X403050Y192400D02*
Y202600D01*
X397950Y222900D02*
X408150D01*
X403050Y217800D02*
Y228000D01*
X397950Y248300D02*
X408150D01*
X403050Y243200D02*
Y253400D01*
X397950Y273700D02*
X408150D01*
X403050Y268600D02*
Y278800D01*
X397950Y299100D02*
X408150D01*
X403050Y294000D02*
Y304200D01*
X42350Y19700D02*
X52550D01*
X47450Y14600D02*
Y24800D01*
X67750Y19700D02*
X77950D01*
X72850Y14600D02*
Y24800D01*
X93150Y19700D02*
X103350D01*
X98250Y14600D02*
Y24800D01*
X118550Y19700D02*
X128750D01*
X123650Y14600D02*
Y24800D01*
X42350Y273700D02*
X52550D01*
X47450Y268600D02*
Y278800D01*
X42350Y248300D02*
X52550D01*
X47450Y243200D02*
Y253400D01*
X42350Y222900D02*
X52550D01*
X47450Y217800D02*
Y228000D01*
X42350Y197500D02*
X52550D01*
X47450Y192400D02*
Y202600D01*
X42350Y172100D02*
X52550D01*
X47450Y167000D02*
Y177200D01*
X42350Y146700D02*
X52550D01*
X47450Y141600D02*
Y151800D01*
X42350Y121300D02*
X52550D01*
X47450Y116200D02*
Y126400D01*
X17050Y248300D02*
X27050D01*
X22050Y243300D02*
Y253300D01*
X17050Y121300D02*
X27050D01*
X22050Y116300D02*
Y126300D01*
X17050Y95900D02*
X27050D01*
X22050Y90900D02*
Y100900D01*
X17050Y197500D02*
X27050D01*
X22050Y192500D02*
Y202500D01*
X17050Y172100D02*
X27050D01*
X22050Y167100D02*
Y177100D01*
X17050Y146700D02*
X27050D01*
X22050Y141700D02*
Y151700D01*
X17050Y70500D02*
X27050D01*
X22050Y65500D02*
Y75500D01*
X17050Y222900D02*
X27050D01*
X22050Y217900D02*
Y227900D01*
X423450Y45100D02*
X433450D01*
X428450Y40100D02*
Y50100D01*
X423450Y19700D02*
X433450D01*
X428450Y14700D02*
Y24700D01*
X423450Y146700D02*
X433450D01*
X428450Y141700D02*
Y151700D01*
X423450Y197500D02*
X433450D01*
X428450Y192500D02*
Y202500D01*
X423450Y172100D02*
X433450D01*
X428450Y167100D02*
Y177100D01*
X423450Y222900D02*
X433450D01*
X428450Y217900D02*
Y227900D01*
X423450Y248300D02*
X433450D01*
X428450Y243300D02*
Y253300D01*
X423450Y95900D02*
X433450D01*
X428450Y90900D02*
Y100900D01*
X423450Y70500D02*
X433450D01*
X428450Y65500D02*
Y75500D01*
X423450Y121300D02*
X433450D01*
X428450Y116300D02*
Y126300D01*
X423450Y299100D02*
X433450D01*
X428450Y294100D02*
Y304100D01*
X423450Y273700D02*
X433450D01*
X428450Y268700D02*
Y278700D01*
M02*
