G04*
G04 #@! TF.GenerationSoftware,Altium Limited,Altium Designer,22.5.1 (42)*
G04*
G04 Layer_Physical_Order=1*
G04 Layer_Color=255*
%FSLAX44Y44*%
%MOMM*%
G71*
G04*
G04 #@! TF.SameCoordinates,A46AD673-58F9-48DA-A448-B45004F78B62*
G04*
G04*
G04 #@! TF.FilePolarity,Positive*
G04*
G01*
G75*
%ADD11C,0.6000*%
%ADD15O,2.0000X0.6000*%
%ADD16R,3.6000X1.8500*%
%ADD17R,1.0000X0.9500*%
%ADD18R,0.9500X1.0000*%
%ADD19R,1.0500X1.0000*%
%ADD20R,0.9500X0.9000*%
%ADD21R,6.4000X5.5500*%
%ADD22R,3.0000X1.2500*%
%ADD37C,1.0000*%
%ADD38C,0.1270*%
%ADD39C,0.5000*%
%ADD40C,2.0000*%
%ADD41C,2.0000*%
%ADD42O,2.0000X3.0000*%
%ADD43O,2.0000X2.8000*%
%ADD44R,2.0000X2.0000*%
%ADD45C,0.6000*%
%ADD46C,1.0000*%
G36*
X431800Y-118300D02*
X-19050D01*
Y193602D01*
X-18152Y194500D01*
X189700Y194443D01*
X190950D01*
Y194500D01*
X431800D01*
Y-118300D01*
D02*
G37*
%LPC*%
G36*
X362520Y172970D02*
X357135D01*
Y167335D01*
X362520D01*
Y172970D01*
D02*
G37*
G36*
X355865D02*
X350480D01*
Y167335D01*
X355865D01*
Y172970D01*
D02*
G37*
G36*
X362520Y166065D02*
X357135D01*
Y160430D01*
X362520D01*
Y166065D01*
D02*
G37*
G36*
X355865D02*
X350480D01*
Y160430D01*
X355865D01*
Y166065D01*
D02*
G37*
G36*
X406400Y189167D02*
X381000D01*
X378058Y188780D01*
X375316Y187644D01*
X372962Y185838D01*
X371156Y183484D01*
X370020Y180742D01*
X369633Y177800D01*
X369639Y177750D01*
X369633Y177700D01*
Y167700D01*
X369975Y165100D01*
X369633Y162500D01*
Y158093D01*
X356500D01*
X356000Y157993D01*
X355500Y158093D01*
X343270D01*
Y163470D01*
X304730D01*
Y142430D01*
X343270D01*
Y145307D01*
X355500D01*
X356000Y145407D01*
X356500Y145307D01*
X372237D01*
X372962Y144362D01*
X375316Y142556D01*
X378058Y141420D01*
X381000Y141033D01*
X406400D01*
X409342Y141420D01*
X412084Y142556D01*
X414438Y144362D01*
X416244Y146716D01*
X417380Y149458D01*
X417767Y152400D01*
X417668Y153150D01*
X417767Y153900D01*
Y161900D01*
X417380Y164842D01*
X417273Y165100D01*
X417380Y165358D01*
X417767Y168300D01*
Y176300D01*
X417668Y177050D01*
X417767Y177800D01*
X417380Y180742D01*
X416244Y183484D01*
X414438Y185838D01*
X412084Y187644D01*
X409342Y188780D01*
X406400Y189167D01*
D02*
G37*
G36*
X290770Y163470D02*
X272135D01*
Y153585D01*
X290770D01*
Y163470D01*
D02*
G37*
G36*
X270865D02*
X252230D01*
Y153585D01*
X270865D01*
Y163470D01*
D02*
G37*
G36*
X151750Y162540D02*
X133115D01*
Y152655D01*
X151750D01*
Y162540D01*
D02*
G37*
G36*
X131845D02*
X113210D01*
Y152655D01*
X131845D01*
Y162540D01*
D02*
G37*
G36*
X290770Y152315D02*
X272135D01*
Y142430D01*
X290770D01*
Y152315D01*
D02*
G37*
G36*
X270865D02*
X252230D01*
Y142430D01*
X270865D01*
Y152315D01*
D02*
G37*
G36*
X151750Y151385D02*
X133115D01*
Y141500D01*
X151750D01*
Y151385D01*
D02*
G37*
G36*
X131845D02*
X113210D01*
Y141500D01*
X131845D01*
Y151385D01*
D02*
G37*
G36*
X26884Y138270D02*
X26035D01*
Y127635D01*
X36670D01*
Y128484D01*
X35902Y131350D01*
X34418Y133920D01*
X32320Y136018D01*
X29750Y137502D01*
X26884Y138270D01*
D02*
G37*
G36*
X11270D02*
X635D01*
Y127635D01*
X11270D01*
Y138270D01*
D02*
G37*
G36*
X-635D02*
X-11270D01*
Y127635D01*
X-635D01*
Y138270D01*
D02*
G37*
G36*
X24765D02*
X23916D01*
X21050Y137502D01*
X18480Y136018D01*
X16382Y133920D01*
X14898Y131350D01*
X14130Y128484D01*
Y127635D01*
X24765D01*
Y138270D01*
D02*
G37*
G36*
X36670Y126365D02*
X26035D01*
Y115730D01*
X26884D01*
X29750Y116498D01*
X32320Y117982D01*
X34418Y120080D01*
X35902Y122650D01*
X36670Y125516D01*
Y126365D01*
D02*
G37*
G36*
X24765D02*
X14130D01*
Y125516D01*
X14898Y122650D01*
X16382Y120080D01*
X18480Y117982D01*
X21050Y116498D01*
X23916Y115730D01*
X24765D01*
Y126365D01*
D02*
G37*
G36*
X11270D02*
X635D01*
Y115730D01*
X11270D01*
Y126365D01*
D02*
G37*
G36*
X-635D02*
X-11270D01*
Y115730D01*
X-635D01*
Y126365D01*
D02*
G37*
G36*
X406400Y138367D02*
X381000D01*
X378058Y137980D01*
X375316Y136844D01*
X372962Y135038D01*
X371156Y132684D01*
X370020Y129942D01*
X369633Y127000D01*
X369639Y126950D01*
X369633Y126900D01*
Y116900D01*
X369975Y114300D01*
X369633Y111700D01*
Y108896D01*
X356019Y107995D01*
X355600Y107993D01*
X333550D01*
X333470Y107977D01*
X333390Y107993D01*
X316720D01*
Y109120D01*
X284180D01*
Y94080D01*
X316720D01*
Y95207D01*
X333390D01*
X333470Y95223D01*
X333550Y95207D01*
X355600D01*
X356041Y95205D01*
X365073Y94895D01*
X369303Y94489D01*
X370843Y94235D01*
X372000Y93955D01*
X372711Y93688D01*
X373170Y93382D01*
X373207Y93374D01*
X375316Y91756D01*
X378058Y90620D01*
X381000Y90233D01*
X406400D01*
X409342Y90620D01*
X412084Y91756D01*
X414438Y93562D01*
X416244Y95916D01*
X417380Y98658D01*
X417767Y101600D01*
X417668Y102350D01*
X417767Y103100D01*
Y111100D01*
X417380Y114042D01*
X417273Y114300D01*
X417380Y114558D01*
X417767Y117500D01*
Y125500D01*
X417668Y126250D01*
X417767Y127000D01*
X417380Y129942D01*
X416244Y132684D01*
X414438Y135038D01*
X412084Y136844D01*
X409342Y137980D01*
X406400Y138367D01*
D02*
G37*
G36*
X112270Y109470D02*
X106635D01*
Y104085D01*
X112270D01*
Y109470D01*
D02*
G37*
G36*
X105365D02*
X99730D01*
Y104085D01*
X105365D01*
Y109470D01*
D02*
G37*
G36*
X112270Y102815D02*
X106635D01*
Y97430D01*
X112270D01*
Y102815D01*
D02*
G37*
G36*
X105365D02*
X99730D01*
Y97430D01*
X105365D01*
Y102815D01*
D02*
G37*
G36*
X25400Y112967D02*
X0D01*
X-739Y112870D01*
X-1484D01*
X-2203Y112677D01*
X-2942Y112580D01*
X-3630Y112295D01*
X-4350Y112102D01*
X-4995Y111729D01*
X-5684Y111444D01*
X-6275Y110991D01*
X-6920Y110618D01*
X-7447Y110091D01*
X-8038Y109638D01*
X-8491Y109047D01*
X-9018Y108520D01*
X-9391Y107875D01*
X-9844Y107284D01*
X-10129Y106595D01*
X-10502Y105950D01*
X-10695Y105230D01*
X-10980Y104542D01*
X-11077Y103803D01*
X-11270Y103084D01*
Y102339D01*
X-11367Y101600D01*
X-11270Y100861D01*
Y100116D01*
X-11077Y99397D01*
X-10980Y98658D01*
X-10695Y97970D01*
X-10502Y97250D01*
X-10129Y96605D01*
X-9844Y95916D01*
X-9391Y95325D01*
X-9018Y94680D01*
X-8491Y94153D01*
X-8038Y93562D01*
X-7447Y93109D01*
X-6920Y92582D01*
X-6275Y92209D01*
X-5684Y91756D01*
X-4995Y91471D01*
X-4350Y91098D01*
X-3630Y90905D01*
X-2942Y90620D01*
X-2203Y90523D01*
X-1484Y90330D01*
X-739D01*
X0Y90233D01*
X25400D01*
X26139Y90330D01*
X26884D01*
X27603Y90523D01*
X28342Y90620D01*
X29030Y90905D01*
X29750Y91098D01*
X30395Y91471D01*
X31084Y91756D01*
X31675Y92209D01*
X32320Y92582D01*
X32847Y93109D01*
X33438Y93562D01*
X33891Y94153D01*
X34418Y94680D01*
X34791Y95325D01*
X35244Y95916D01*
X35529Y96605D01*
X35902Y97250D01*
X36095Y97970D01*
X36380Y98658D01*
X36477Y99397D01*
X36670Y100116D01*
Y100861D01*
X36767Y101600D01*
X36670Y102339D01*
Y103084D01*
X36477Y103803D01*
X36380Y104542D01*
X36095Y105230D01*
X35902Y105950D01*
X35529Y106595D01*
X35244Y107284D01*
X34791Y107875D01*
X34418Y108520D01*
X33891Y109047D01*
X33438Y109638D01*
X32847Y110091D01*
X32320Y110618D01*
X31675Y110991D01*
X31084Y111444D01*
X30395Y111729D01*
X29750Y112102D01*
X29030Y112295D01*
X28342Y112580D01*
X27603Y112677D01*
X26884Y112870D01*
X26139D01*
X25400Y112967D01*
D02*
G37*
G36*
X159950Y109642D02*
X159207Y109494D01*
X158577Y109073D01*
X158576Y109073D01*
X149827Y100323D01*
X149405Y99693D01*
X149258Y98950D01*
Y81504D01*
X147146Y79392D01*
X138688D01*
X137829Y80679D01*
X136416Y81622D01*
X134750Y81954D01*
X120750D01*
X119084Y81622D01*
X117671Y80679D01*
X116728Y79266D01*
X116653Y78892D01*
X107200D01*
X107200Y78892D01*
X106457Y78745D01*
X105827Y78323D01*
X100127Y72623D01*
X99705Y71993D01*
X99558Y71250D01*
Y10305D01*
X74827Y-14427D01*
X74405Y-15057D01*
X74258Y-15800D01*
Y-90453D01*
X71850Y-91098D01*
X69280Y-92582D01*
X67182Y-94680D01*
X65698Y-97250D01*
X64930Y-100116D01*
Y-103084D01*
X65698Y-105950D01*
X67182Y-108520D01*
X69280Y-110618D01*
X71850Y-112102D01*
X74716Y-112870D01*
X77684D01*
X80550Y-112102D01*
X83120Y-110618D01*
X85218Y-108520D01*
X86702Y-105950D01*
X87470Y-103084D01*
Y-100116D01*
X86702Y-97250D01*
X85218Y-94680D01*
X83120Y-92582D01*
X80550Y-91098D01*
X78142Y-90453D01*
Y-16604D01*
X102873Y8127D01*
X103294Y8757D01*
X103442Y9500D01*
Y70445D01*
X108005Y75008D01*
X117347D01*
X117671Y74521D01*
X119084Y73578D01*
X120750Y73246D01*
X134750D01*
X136416Y73578D01*
X137829Y74521D01*
X138487Y75508D01*
X147950D01*
X148693Y75656D01*
X149324Y76077D01*
X152573Y79327D01*
X152573Y79327D01*
X152994Y79957D01*
X153142Y80700D01*
Y98146D01*
X160755Y105758D01*
X173645D01*
X176578Y102825D01*
Y100990D01*
X172500D01*
Y89450D01*
X184540D01*
Y100990D01*
X180462D01*
Y103630D01*
X180462Y103630D01*
X180315Y104373D01*
X179893Y105003D01*
X175823Y109073D01*
X175193Y109494D01*
X174450Y109642D01*
X159950D01*
X159950Y109642D01*
D02*
G37*
G36*
X339490Y92790D02*
X334105D01*
Y87155D01*
X339490D01*
Y92790D01*
D02*
G37*
G36*
X332835D02*
X327450D01*
Y87155D01*
X332835D01*
Y92790D01*
D02*
G37*
G36*
X185540Y86990D02*
X179655D01*
Y81355D01*
X185540D01*
Y86990D01*
D02*
G37*
G36*
X178385D02*
X172500D01*
Y81355D01*
X178385D01*
Y86990D01*
D02*
G37*
G36*
X339490Y85885D02*
X334105D01*
Y80250D01*
X339490D01*
Y85885D01*
D02*
G37*
G36*
X332835D02*
X327450D01*
Y80250D01*
X332835D01*
Y85885D01*
D02*
G37*
G36*
X75250Y81954D02*
X61250D01*
X59584Y81622D01*
X58172Y80679D01*
X57412Y79542D01*
X45850D01*
X45850Y79542D01*
X45107Y79394D01*
X44477Y78973D01*
X39377Y73873D01*
X38956Y73243D01*
X38808Y72500D01*
Y52495D01*
X38746Y52378D01*
X38808Y52179D01*
Y-6445D01*
X24027Y-21227D01*
X23605Y-21857D01*
X23458Y-22600D01*
Y-90453D01*
X21050Y-91098D01*
X18480Y-92582D01*
X16382Y-94680D01*
X14898Y-97250D01*
X14130Y-100116D01*
Y-103084D01*
X14898Y-105950D01*
X16382Y-108520D01*
X18480Y-110618D01*
X21050Y-112102D01*
X23916Y-112870D01*
X26884D01*
X29750Y-112102D01*
X32320Y-110618D01*
X34418Y-108520D01*
X35902Y-105950D01*
X36670Y-103084D01*
Y-100116D01*
X35902Y-97250D01*
X34418Y-94680D01*
X32320Y-92582D01*
X29750Y-91098D01*
X27342Y-90453D01*
Y-30290D01*
X28612Y-29736D01*
X29901Y-30270D01*
X31599D01*
X33169Y-29620D01*
X34370Y-28419D01*
X35020Y-26849D01*
Y-26244D01*
X35124Y-26015D01*
X35147Y-25296D01*
X35175Y-25038D01*
X35215Y-24800D01*
X35264Y-24597D01*
X35317Y-24430D01*
X35373Y-24297D01*
X35426Y-24197D01*
X35475Y-24126D01*
X35576Y-24012D01*
X35624Y-23873D01*
X42884Y-16612D01*
X44058Y-17098D01*
Y-45237D01*
X43995Y-45358D01*
X44000Y-45373D01*
X43993Y-45388D01*
X43983Y-45543D01*
X43968Y-45621D01*
X43938Y-45717D01*
X43888Y-45831D01*
X43812Y-45967D01*
X43708Y-46120D01*
X43571Y-46291D01*
X43401Y-46476D01*
X43197Y-46674D01*
X42934Y-46903D01*
X42810Y-47152D01*
X42130Y-47831D01*
X41480Y-49401D01*
Y-51099D01*
X42130Y-52669D01*
X43331Y-53870D01*
X44901Y-54520D01*
X46599D01*
X47588Y-54111D01*
X48858Y-54840D01*
Y-90453D01*
X46450Y-91098D01*
X43880Y-92582D01*
X41782Y-94680D01*
X40298Y-97250D01*
X39530Y-100116D01*
Y-103084D01*
X40298Y-105950D01*
X41782Y-108520D01*
X43880Y-110618D01*
X46450Y-112102D01*
X49316Y-112870D01*
X52284D01*
X55150Y-112102D01*
X57720Y-110618D01*
X59818Y-108520D01*
X61302Y-105950D01*
X62070Y-103084D01*
Y-100116D01*
X61302Y-97250D01*
X59818Y-94680D01*
X57720Y-92582D01*
X55150Y-91098D01*
X52742Y-90453D01*
Y-5922D01*
X52804Y-5806D01*
X52791Y-5766D01*
X52809Y-5727D01*
X52816Y-5528D01*
X52831Y-5390D01*
X52856Y-5262D01*
X52889Y-5142D01*
X52931Y-5027D01*
X52982Y-4917D01*
X53043Y-4809D01*
X53116Y-4701D01*
X53204Y-4592D01*
X53339Y-4446D01*
X53395Y-4297D01*
X56392Y-1300D01*
X58026Y-1461D01*
X58172Y-1679D01*
X59584Y-2622D01*
X61250Y-2954D01*
X75250D01*
X76916Y-2622D01*
X78328Y-1679D01*
X79272Y-266D01*
X79604Y1400D01*
X79272Y3066D01*
X78328Y4478D01*
X76916Y5422D01*
X75250Y5754D01*
X61250D01*
X59584Y5422D01*
X58172Y4478D01*
X57412Y3342D01*
X56345D01*
X56345Y3342D01*
X55602Y3194D01*
X54972Y2773D01*
X53916Y1717D01*
X52742Y2203D01*
Y8496D01*
X56247Y12000D01*
X57574Y11915D01*
X58172Y11021D01*
X59584Y10078D01*
X61250Y9746D01*
X75250D01*
X76916Y10078D01*
X78328Y11021D01*
X79272Y12434D01*
X79604Y14100D01*
X79272Y15766D01*
X78328Y17178D01*
X76916Y18122D01*
X75250Y18454D01*
X61250D01*
X59584Y18122D01*
X58172Y17178D01*
X57412Y16042D01*
X55600D01*
X54857Y15895D01*
X54227Y15473D01*
X54226Y15473D01*
X49427Y10673D01*
X49212Y10353D01*
X47942Y10712D01*
Y17196D01*
X55554Y24808D01*
X57446D01*
X58172Y23721D01*
X59584Y22778D01*
X61250Y22446D01*
X75250D01*
X76916Y22778D01*
X78328Y23721D01*
X79272Y25134D01*
X79604Y26800D01*
X79272Y28466D01*
X78328Y29878D01*
X76916Y30822D01*
X75250Y31154D01*
X61250D01*
X59584Y30822D01*
X58172Y29878D01*
X57379Y28692D01*
X54750D01*
X54750Y28692D01*
X54007Y28544D01*
X53377Y28123D01*
X53376Y28123D01*
X46406Y21153D01*
X45232Y21639D01*
Y45486D01*
X50054Y50308D01*
X57379D01*
X58172Y49121D01*
X59584Y48178D01*
X61250Y47846D01*
X75250D01*
X76916Y48178D01*
X78328Y49121D01*
X79272Y50534D01*
X79604Y52200D01*
X79272Y53866D01*
X78328Y55279D01*
X76916Y56222D01*
X75250Y56554D01*
X61250D01*
X59584Y56222D01*
X58172Y55279D01*
X57446Y54192D01*
X49250D01*
X48507Y54044D01*
X47877Y53623D01*
X44619Y50366D01*
X43994Y50256D01*
X42942Y50449D01*
X42759Y50668D01*
X42766Y50867D01*
X42781Y51005D01*
X42806Y51133D01*
X42839Y51253D01*
X42881Y51368D01*
X42932Y51478D01*
X42993Y51586D01*
X43066Y51694D01*
X43154Y51803D01*
X43289Y51948D01*
X43345Y52098D01*
X54205Y62958D01*
X57412D01*
X58172Y61821D01*
X59584Y60878D01*
X61250Y60546D01*
X75250D01*
X76916Y60878D01*
X78328Y61821D01*
X79272Y63234D01*
X79604Y64900D01*
X79272Y66566D01*
X78328Y67979D01*
X76916Y68922D01*
X75250Y69254D01*
X61250D01*
X59584Y68922D01*
X58172Y67979D01*
X57412Y66842D01*
X53400D01*
X52657Y66694D01*
X52027Y66273D01*
X43866Y58113D01*
X42692Y58598D01*
Y71695D01*
X46655Y75658D01*
X57412D01*
X58172Y74521D01*
X59584Y73578D01*
X61250Y73246D01*
X75250D01*
X76916Y73578D01*
X78328Y74521D01*
X79272Y75934D01*
X79604Y77600D01*
X79272Y79266D01*
X78328Y80679D01*
X76916Y81622D01*
X75250Y81954D01*
D02*
G37*
G36*
X185540Y80085D02*
X179655D01*
Y74450D01*
X185540D01*
Y80085D01*
D02*
G37*
G36*
X178385D02*
X172500D01*
Y74450D01*
X178385D01*
Y80085D01*
D02*
G37*
G36*
X361695Y77245D02*
X356310D01*
Y71610D01*
X361695D01*
Y77245D01*
D02*
G37*
G36*
X355040D02*
X349655D01*
Y71610D01*
X355040D01*
Y77245D01*
D02*
G37*
G36*
X184540Y71990D02*
X179155D01*
Y66855D01*
X184540D01*
Y71990D01*
D02*
G37*
G36*
X177885D02*
X172500D01*
Y66855D01*
X177885D01*
Y71990D01*
D02*
G37*
G36*
X25400Y87567D02*
X0D01*
X-739Y87470D01*
X-1484D01*
X-2203Y87277D01*
X-2942Y87180D01*
X-3630Y86895D01*
X-4350Y86702D01*
X-4995Y86329D01*
X-5684Y86044D01*
X-6275Y85591D01*
X-6920Y85218D01*
X-7447Y84691D01*
X-8038Y84238D01*
X-8491Y83647D01*
X-9018Y83120D01*
X-9391Y82475D01*
X-9844Y81884D01*
X-10129Y81195D01*
X-10502Y80550D01*
X-10695Y79830D01*
X-10980Y79142D01*
X-11077Y78403D01*
X-11270Y77684D01*
Y76939D01*
X-11367Y76200D01*
X-11270Y75461D01*
Y74716D01*
X-11077Y73997D01*
X-10980Y73258D01*
X-10695Y72570D01*
X-10502Y71850D01*
X-10129Y71205D01*
X-9844Y70516D01*
X-9391Y69925D01*
X-9018Y69280D01*
X-8491Y68753D01*
X-8038Y68162D01*
X-7447Y67709D01*
X-6920Y67182D01*
X-6275Y66809D01*
X-5684Y66356D01*
X-4995Y66071D01*
X-4350Y65698D01*
X-3630Y65505D01*
X-2942Y65220D01*
X-2203Y65123D01*
X-1484Y64930D01*
X-739D01*
X0Y64833D01*
X25400D01*
X26139Y64930D01*
X26884D01*
X27603Y65123D01*
X28342Y65220D01*
X29030Y65505D01*
X29750Y65698D01*
X30395Y66071D01*
X31084Y66356D01*
X31675Y66809D01*
X32320Y67182D01*
X32847Y67709D01*
X33438Y68162D01*
X33891Y68753D01*
X34418Y69280D01*
X34791Y69925D01*
X35244Y70516D01*
X35529Y71205D01*
X35902Y71850D01*
X36095Y72570D01*
X36380Y73258D01*
X36477Y73997D01*
X36670Y74716D01*
Y75461D01*
X36767Y76200D01*
X36670Y76939D01*
Y77684D01*
X36477Y78403D01*
X36380Y79142D01*
X36095Y79830D01*
X35902Y80550D01*
X35529Y81195D01*
X35244Y81884D01*
X34791Y82475D01*
X34418Y83120D01*
X33891Y83647D01*
X33438Y84238D01*
X32847Y84691D01*
X32320Y85218D01*
X31675Y85591D01*
X31084Y86044D01*
X30395Y86329D01*
X29750Y86702D01*
X29030Y86895D01*
X28342Y87180D01*
X27603Y87277D01*
X26884Y87470D01*
X26139D01*
X25400Y87567D01*
D02*
G37*
G36*
X361695Y70340D02*
X356310D01*
Y64705D01*
X361695D01*
Y70340D01*
D02*
G37*
G36*
X355040D02*
X349655D01*
Y64705D01*
X355040D01*
Y70340D01*
D02*
G37*
G36*
X406400Y87567D02*
X381000D01*
X378058Y87180D01*
X375316Y86044D01*
X372962Y84238D01*
X371156Y81884D01*
X370020Y79142D01*
X369633Y76200D01*
X369639Y76150D01*
X369633Y76100D01*
Y66100D01*
X369975Y63500D01*
X369803Y62193D01*
X361695D01*
Y62245D01*
X349655D01*
Y62193D01*
X316720D01*
Y63320D01*
X284180D01*
Y48280D01*
X316720D01*
Y49407D01*
X369816D01*
X370020Y47858D01*
X371156Y45116D01*
X372962Y42762D01*
X375316Y40956D01*
X378058Y39820D01*
X381000Y39433D01*
X406400D01*
X409342Y39820D01*
X412084Y40956D01*
X414438Y42762D01*
X416244Y45116D01*
X417380Y47858D01*
X417767Y50800D01*
X417668Y51550D01*
X417767Y52300D01*
Y60300D01*
X417380Y63242D01*
X417273Y63500D01*
X417380Y63758D01*
X417767Y66700D01*
Y74700D01*
X417668Y75450D01*
X417767Y76200D01*
X417380Y79142D01*
X416244Y81884D01*
X414438Y84238D01*
X412084Y86044D01*
X409342Y87180D01*
X406400Y87567D01*
D02*
G37*
G36*
X184540Y65585D02*
X179155D01*
Y60450D01*
X184540D01*
Y65585D01*
D02*
G37*
G36*
X177885D02*
X172500D01*
Y60450D01*
X177885D01*
Y65585D01*
D02*
G37*
G36*
X218450Y175750D02*
X214216D01*
Y107720D01*
X202680D01*
Y57294D01*
X185540D01*
Y57990D01*
X172500D01*
Y45450D01*
X185540D01*
Y49606D01*
X210700D01*
X210700Y49606D01*
X211071Y49680D01*
X214216D01*
Y40564D01*
X185540D01*
Y42990D01*
X172500D01*
Y30450D01*
X185540D01*
Y32876D01*
X214216D01*
Y13720D01*
X202680D01*
Y-44320D01*
X214216D01*
Y-101750D01*
X218450D01*
Y-44320D01*
X269220D01*
Y13720D01*
X239794D01*
Y27950D01*
X239501Y29421D01*
X238668Y30668D01*
X238668Y30668D01*
X229898Y39438D01*
X228651Y40271D01*
X227180Y40564D01*
X227180Y40564D01*
X218450D01*
Y49680D01*
X269220D01*
Y107720D01*
X218450D01*
Y175750D01*
D02*
G37*
G36*
X170040Y100990D02*
X158000D01*
Y89450D01*
X162578D01*
Y86990D01*
X158000D01*
Y77197D01*
X153204Y72401D01*
X153204Y72401D01*
X147495Y66692D01*
X138688D01*
X137829Y67979D01*
X136416Y68922D01*
X134750Y69254D01*
X120750D01*
X119084Y68922D01*
X117671Y67979D01*
X116728Y66566D01*
X116396Y64900D01*
X116728Y63234D01*
X117671Y61821D01*
X119084Y60878D01*
X120750Y60546D01*
X134750D01*
X136416Y60878D01*
X137829Y61821D01*
X138487Y62808D01*
X148300D01*
X149043Y62956D01*
X149674Y63377D01*
X155951Y69654D01*
X155951Y69654D01*
X155951Y69654D01*
X156827Y70530D01*
X158000Y70044D01*
Y60450D01*
X162078D01*
Y57990D01*
X158000D01*
Y53992D01*
X138688D01*
X137829Y55279D01*
X136416Y56222D01*
X134750Y56554D01*
X120750D01*
X119084Y56222D01*
X117671Y55279D01*
X116728Y53866D01*
X116396Y52200D01*
X116728Y50534D01*
X117671Y49121D01*
X119084Y48178D01*
X120750Y47846D01*
X134750D01*
X136416Y48178D01*
X137829Y49121D01*
X138487Y50108D01*
X158000D01*
Y45450D01*
X171040D01*
Y57990D01*
X165962D01*
Y60450D01*
X170040D01*
Y71990D01*
X159946D01*
X159460Y73163D01*
X160747Y74450D01*
X171040D01*
Y86990D01*
X166462D01*
Y89450D01*
X170040D01*
Y100990D01*
D02*
G37*
G36*
X134750Y43854D02*
X128385D01*
Y40135D01*
X138977D01*
X138772Y41166D01*
X137829Y42579D01*
X136416Y43522D01*
X134750Y43854D01*
D02*
G37*
G36*
X127115D02*
X120750D01*
X119084Y43522D01*
X117671Y42579D01*
X116728Y41166D01*
X116523Y40135D01*
X127115D01*
Y43854D01*
D02*
G37*
G36*
X25400Y62167D02*
X0D01*
X-739Y62070D01*
X-1484D01*
X-2203Y61877D01*
X-2942Y61780D01*
X-3630Y61495D01*
X-4350Y61302D01*
X-4995Y60929D01*
X-5684Y60644D01*
X-6275Y60191D01*
X-6920Y59818D01*
X-7447Y59291D01*
X-8038Y58838D01*
X-8491Y58247D01*
X-9018Y57720D01*
X-9391Y57075D01*
X-9844Y56484D01*
X-10129Y55795D01*
X-10502Y55150D01*
X-10695Y54430D01*
X-10980Y53742D01*
X-11077Y53003D01*
X-11270Y52284D01*
Y51539D01*
X-11367Y50800D01*
X-11270Y50061D01*
Y49316D01*
X-11077Y48597D01*
X-10980Y47858D01*
X-10695Y47170D01*
X-10502Y46450D01*
X-10129Y45805D01*
X-9844Y45116D01*
X-9391Y44525D01*
X-9018Y43880D01*
X-8491Y43353D01*
X-8038Y42762D01*
X-7447Y42309D01*
X-6920Y41782D01*
X-6275Y41409D01*
X-5684Y40956D01*
X-4995Y40671D01*
X-4350Y40298D01*
X-3630Y40105D01*
X-2942Y39820D01*
X-2203Y39723D01*
X-1484Y39530D01*
X-739D01*
X0Y39433D01*
X25400D01*
X26139Y39530D01*
X26884D01*
X27603Y39723D01*
X28342Y39820D01*
X29030Y40105D01*
X29750Y40298D01*
X30395Y40671D01*
X31084Y40956D01*
X31675Y41409D01*
X32320Y41782D01*
X32847Y42309D01*
X33438Y42762D01*
X33891Y43353D01*
X34418Y43880D01*
X34791Y44525D01*
X35244Y45116D01*
X35529Y45805D01*
X35902Y46450D01*
X36095Y47170D01*
X36380Y47858D01*
X36477Y48597D01*
X36670Y49316D01*
Y50061D01*
X36767Y50800D01*
X36670Y51539D01*
Y52284D01*
X36477Y53003D01*
X36380Y53742D01*
X36095Y54430D01*
X35902Y55150D01*
X35529Y55795D01*
X35244Y56484D01*
X34791Y57075D01*
X34418Y57720D01*
X33891Y58247D01*
X33438Y58838D01*
X32847Y59291D01*
X32320Y59818D01*
X31675Y60191D01*
X31084Y60644D01*
X30395Y60929D01*
X29750Y61302D01*
X29030Y61495D01*
X28342Y61780D01*
X27603Y61877D01*
X26884Y62070D01*
X26139D01*
X25400Y62167D01*
D02*
G37*
G36*
X138977Y38865D02*
X128385D01*
Y35146D01*
X134750D01*
X136416Y35478D01*
X137829Y36421D01*
X138772Y37834D01*
X138977Y38865D01*
D02*
G37*
G36*
X127115D02*
X116523D01*
X116728Y37834D01*
X117671Y36421D01*
X119084Y35478D01*
X120750Y35146D01*
X127115D01*
Y38865D01*
D02*
G37*
G36*
X26884Y163670D02*
X23916D01*
X21050Y162902D01*
X18480Y161418D01*
X16382Y159320D01*
X14898Y156750D01*
X14130Y153884D01*
Y150916D01*
X14898Y148050D01*
X16382Y145480D01*
X18480Y143382D01*
X21050Y141898D01*
X23916Y141130D01*
X26884D01*
X29750Y141898D01*
X32320Y143382D01*
X34418Y145480D01*
X35900Y148046D01*
X60710D01*
Y141500D01*
X86646D01*
Y109470D01*
X84730D01*
Y97430D01*
X86646D01*
Y44953D01*
X85547Y43854D01*
X61250D01*
X59584Y43522D01*
X58172Y42579D01*
X57228Y41166D01*
X56896Y39500D01*
X57228Y37834D01*
X58172Y36421D01*
X59584Y35478D01*
X61250Y35146D01*
X87350D01*
X89016Y35478D01*
X90428Y36421D01*
X94079Y40072D01*
X95022Y41484D01*
X95354Y43150D01*
Y97430D01*
X97270D01*
Y109470D01*
X95354D01*
Y141500D01*
X99250D01*
Y162540D01*
X60710D01*
Y156754D01*
X35900D01*
X34418Y159320D01*
X32320Y161418D01*
X29750Y162902D01*
X26884Y163670D01*
D02*
G37*
G36*
X171040Y42990D02*
X158000D01*
Y30450D01*
X162578D01*
Y27990D01*
X158000D01*
Y24162D01*
X151985D01*
X148123Y28023D01*
X147493Y28444D01*
X146750Y28592D01*
X138688D01*
X137829Y29878D01*
X136416Y30822D01*
X134750Y31154D01*
X120750D01*
X119084Y30822D01*
X117671Y29878D01*
X116728Y28466D01*
X116396Y26800D01*
X116728Y25134D01*
X117671Y23721D01*
X119084Y22778D01*
X120750Y22446D01*
X134750D01*
X136416Y22778D01*
X137829Y23721D01*
X138487Y24708D01*
X145946D01*
X149806Y20847D01*
X150437Y20426D01*
X151180Y20278D01*
X151180Y20278D01*
X158000D01*
Y16450D01*
X170040D01*
Y27990D01*
X166462D01*
Y30450D01*
X171040D01*
Y42990D01*
D02*
G37*
G36*
X184540Y27990D02*
X179155D01*
Y22855D01*
X184540D01*
Y27990D01*
D02*
G37*
G36*
X177885D02*
X172500D01*
Y22855D01*
X177885D01*
Y27990D01*
D02*
G37*
G36*
X184540Y21585D02*
X179155D01*
Y16450D01*
X184540D01*
Y21585D01*
D02*
G37*
G36*
X177885D02*
X172500D01*
Y16450D01*
X177885D01*
Y21585D01*
D02*
G37*
G36*
X25400Y36767D02*
X0D01*
X-739Y36670D01*
X-1484D01*
X-2203Y36477D01*
X-2942Y36380D01*
X-3630Y36095D01*
X-4350Y35902D01*
X-4995Y35529D01*
X-5684Y35244D01*
X-6275Y34791D01*
X-6920Y34418D01*
X-7447Y33891D01*
X-8038Y33438D01*
X-8491Y32847D01*
X-9018Y32320D01*
X-9391Y31675D01*
X-9844Y31084D01*
X-10129Y30395D01*
X-10502Y29750D01*
X-10695Y29030D01*
X-10980Y28342D01*
X-11077Y27603D01*
X-11270Y26884D01*
Y26139D01*
X-11367Y25400D01*
X-11270Y24661D01*
Y23916D01*
X-11077Y23197D01*
X-10980Y22458D01*
X-10695Y21770D01*
X-10502Y21050D01*
X-10129Y20405D01*
X-9844Y19716D01*
X-9391Y19125D01*
X-9018Y18480D01*
X-8491Y17953D01*
X-8038Y17362D01*
X-7447Y16909D01*
X-6920Y16382D01*
X-6275Y16009D01*
X-5684Y15556D01*
X-4995Y15271D01*
X-4350Y14898D01*
X-3630Y14705D01*
X-2942Y14420D01*
X-2203Y14323D01*
X-1484Y14130D01*
X-739D01*
X0Y14033D01*
X25400D01*
X26139Y14130D01*
X26884D01*
X27603Y14323D01*
X28342Y14420D01*
X29030Y14705D01*
X29750Y14898D01*
X30395Y15271D01*
X31084Y15556D01*
X31675Y16009D01*
X32320Y16382D01*
X32847Y16909D01*
X33438Y17362D01*
X33891Y17953D01*
X34418Y18480D01*
X34791Y19125D01*
X35244Y19716D01*
X35529Y20405D01*
X35902Y21050D01*
X36095Y21770D01*
X36380Y22458D01*
X36477Y23197D01*
X36670Y23916D01*
Y24661D01*
X36767Y25400D01*
X36670Y26139D01*
Y26884D01*
X36477Y27603D01*
X36380Y28342D01*
X36095Y29030D01*
X35902Y29750D01*
X35529Y30395D01*
X35244Y31084D01*
X34791Y31675D01*
X34418Y32320D01*
X33891Y32847D01*
X33438Y33438D01*
X32847Y33891D01*
X32320Y34418D01*
X31675Y34791D01*
X31084Y35244D01*
X30395Y35529D01*
X29750Y35902D01*
X29030Y36095D01*
X28342Y36380D01*
X27603Y36477D01*
X26884Y36670D01*
X26139D01*
X25400Y36767D01*
D02*
G37*
G36*
X406400D02*
X381000D01*
X378058Y36380D01*
X375316Y35244D01*
X372962Y33438D01*
X371156Y31084D01*
X370020Y28342D01*
X369633Y25400D01*
X369639Y25350D01*
X369633Y25300D01*
Y15300D01*
X369679Y14948D01*
X368842Y13993D01*
X316720D01*
Y15120D01*
X284180D01*
Y80D01*
X316720D01*
Y1207D01*
X369425D01*
X369633Y-0D01*
X370020Y-2942D01*
X371156Y-5684D01*
X372962Y-8038D01*
X375316Y-9844D01*
X378058Y-10980D01*
X381000Y-11367D01*
X406400D01*
X409342Y-10980D01*
X412084Y-9844D01*
X414438Y-8038D01*
X416244Y-5684D01*
X417380Y-2942D01*
X417767Y0D01*
X417668Y750D01*
X417767Y1500D01*
Y9500D01*
X417380Y12442D01*
X417273Y12700D01*
X417380Y12958D01*
X417767Y15900D01*
Y23900D01*
X417668Y24650D01*
X417767Y25400D01*
X417380Y28342D01*
X416244Y31084D01*
X414438Y33438D01*
X412084Y35244D01*
X409342Y36380D01*
X406400Y36767D01*
D02*
G37*
G36*
X185540Y13990D02*
X179655D01*
Y8355D01*
X185540D01*
Y13990D01*
D02*
G37*
G36*
X178385D02*
X172500D01*
Y8355D01*
X178385D01*
Y13990D01*
D02*
G37*
G36*
X185540Y7085D02*
X179655D01*
Y1450D01*
X185540D01*
Y7085D01*
D02*
G37*
G36*
X178385D02*
X172500D01*
Y1450D01*
X178385D01*
Y7085D01*
D02*
G37*
G36*
X340240Y-1130D02*
X334855D01*
Y-6765D01*
X340240D01*
Y-1130D01*
D02*
G37*
G36*
X333585D02*
X328200D01*
Y-6765D01*
X333585D01*
Y-1130D01*
D02*
G37*
G36*
X25400Y11367D02*
X0D01*
X-739Y11270D01*
X-1484D01*
X-2203Y11077D01*
X-2942Y10980D01*
X-3630Y10695D01*
X-4350Y10502D01*
X-4995Y10129D01*
X-5684Y9844D01*
X-6275Y9391D01*
X-6920Y9018D01*
X-7447Y8491D01*
X-8038Y8038D01*
X-8491Y7447D01*
X-9018Y6920D01*
X-9391Y6275D01*
X-9844Y5684D01*
X-10129Y4995D01*
X-10502Y4350D01*
X-10695Y3630D01*
X-10980Y2942D01*
X-11077Y2203D01*
X-11270Y1484D01*
Y739D01*
X-11367Y0D01*
X-11270Y-739D01*
Y-1484D01*
X-11077Y-2203D01*
X-10980Y-2942D01*
X-10695Y-3630D01*
X-10502Y-4350D01*
X-10129Y-4995D01*
X-9844Y-5684D01*
X-9391Y-6275D01*
X-9018Y-6920D01*
X-8491Y-7447D01*
X-8038Y-8038D01*
X-7447Y-8491D01*
X-6920Y-9018D01*
X-6275Y-9391D01*
X-5684Y-9844D01*
X-4995Y-10129D01*
X-4350Y-10502D01*
X-3630Y-10695D01*
X-2942Y-10980D01*
X-2203Y-11077D01*
X-1484Y-11270D01*
X-739D01*
X0Y-11367D01*
X25400D01*
X26139Y-11270D01*
X26884D01*
X27603Y-11077D01*
X28342Y-10980D01*
X29030Y-10695D01*
X29750Y-10502D01*
X30395Y-10129D01*
X31084Y-9844D01*
X31675Y-9391D01*
X32320Y-9018D01*
X32847Y-8491D01*
X33438Y-8038D01*
X33891Y-7447D01*
X34418Y-6920D01*
X34791Y-6275D01*
X35244Y-5684D01*
X35529Y-4995D01*
X35902Y-4350D01*
X36095Y-3630D01*
X36380Y-2942D01*
X36477Y-2203D01*
X36670Y-1484D01*
Y-739D01*
X36767Y0D01*
X36670Y739D01*
Y1484D01*
X36477Y2203D01*
X36380Y2942D01*
X36095Y3630D01*
X35902Y4350D01*
X35529Y4995D01*
X35244Y5684D01*
X34791Y6275D01*
X34418Y6920D01*
X33891Y7447D01*
X33438Y8038D01*
X32847Y8491D01*
X32320Y9018D01*
X31675Y9391D01*
X31084Y9844D01*
X30395Y10129D01*
X29750Y10502D01*
X29030Y10695D01*
X28342Y10980D01*
X27603Y11077D01*
X26884Y11270D01*
X26139D01*
X25400Y11367D01*
D02*
G37*
G36*
X134750Y18454D02*
X120750D01*
X119084Y18122D01*
X117671Y17178D01*
X116728Y15766D01*
X116396Y14100D01*
X116728Y12434D01*
X117671Y11021D01*
X119084Y10078D01*
X120750Y9746D01*
X134750D01*
X136416Y10078D01*
X137829Y11021D01*
X138487Y12008D01*
X146645D01*
X152306Y6347D01*
X152937Y5926D01*
X153680Y5778D01*
X158000D01*
Y1450D01*
X162078D01*
Y-1010D01*
X158000D01*
Y-12550D01*
X170040D01*
Y-1010D01*
X165962D01*
Y1450D01*
X171040D01*
Y13990D01*
X158000D01*
Y9662D01*
X154485D01*
X148823Y15323D01*
X148193Y15745D01*
X147450Y15892D01*
X138688D01*
X137829Y17178D01*
X136416Y18122D01*
X134750Y18454D01*
D02*
G37*
G36*
X340240Y-8035D02*
X334855D01*
Y-13670D01*
X340240D01*
Y-8035D01*
D02*
G37*
G36*
X333585D02*
X328200D01*
Y-13670D01*
X333585D01*
Y-8035D01*
D02*
G37*
G36*
X134750Y5754D02*
X120750D01*
X119084Y5422D01*
X117671Y4478D01*
X116912Y3342D01*
X106400D01*
X105657Y3194D01*
X105027Y2773D01*
X100227Y-2027D01*
X99805Y-2657D01*
X99658Y-3400D01*
Y-90453D01*
X97250Y-91098D01*
X94680Y-92582D01*
X92582Y-94680D01*
X91098Y-97250D01*
X90330Y-100116D01*
Y-103084D01*
X91098Y-105950D01*
X92582Y-108520D01*
X94680Y-110618D01*
X97250Y-112102D01*
X100116Y-112870D01*
X103084D01*
X105950Y-112102D01*
X108520Y-110618D01*
X110618Y-108520D01*
X112102Y-105950D01*
X112870Y-103084D01*
Y-100116D01*
X112102Y-97250D01*
X110618Y-94680D01*
X108520Y-92582D01*
X105950Y-91098D01*
X103542Y-90453D01*
Y-4205D01*
X107205Y-542D01*
X116912D01*
X117671Y-1679D01*
X119084Y-2622D01*
X120750Y-2954D01*
X134750D01*
X136416Y-2622D01*
X137829Y-1679D01*
X138487Y-692D01*
X145345D01*
X149258Y-4604D01*
Y-11800D01*
X149405Y-12543D01*
X149827Y-13173D01*
X155577Y-18923D01*
X156207Y-19344D01*
X156950Y-19492D01*
X174200D01*
X174943Y-19344D01*
X175573Y-18923D01*
X179893Y-14603D01*
X179893Y-14603D01*
X180315Y-13973D01*
X180462Y-13230D01*
Y-12550D01*
X184540D01*
Y-1010D01*
X172500D01*
Y-12550D01*
X174794D01*
X175280Y-13723D01*
X173396Y-15608D01*
X157754D01*
X153142Y-10995D01*
Y-3800D01*
X152994Y-3057D01*
X152573Y-2427D01*
X147523Y2623D01*
X146893Y3045D01*
X146150Y3192D01*
X138688D01*
X137829Y4478D01*
X136416Y5422D01*
X134750Y5754D01*
D02*
G37*
G36*
X361320Y-17030D02*
X355935D01*
Y-22665D01*
X361320D01*
Y-17030D01*
D02*
G37*
G36*
X354665D02*
X349280D01*
Y-22665D01*
X354665D01*
Y-17030D01*
D02*
G37*
G36*
X361320Y-23935D02*
X355935D01*
Y-29570D01*
X361320D01*
Y-23935D01*
D02*
G37*
G36*
X354665D02*
X349280D01*
Y-29570D01*
X354665D01*
Y-23935D01*
D02*
G37*
G36*
X406400Y-14033D02*
X381000D01*
X378058Y-14420D01*
X375316Y-15556D01*
X372962Y-17362D01*
X371156Y-19716D01*
X370020Y-22458D01*
X369633Y-25400D01*
X369639Y-25450D01*
X369633Y-25500D01*
Y-31807D01*
X316720D01*
Y-30680D01*
X284180D01*
Y-45720D01*
X316720D01*
Y-44693D01*
X369633D01*
Y-50700D01*
X369639Y-50750D01*
X369633Y-50800D01*
X370020Y-53742D01*
X371156Y-56484D01*
X372962Y-58838D01*
X375316Y-60644D01*
X378058Y-61780D01*
X381000Y-62167D01*
X406400D01*
X409342Y-61780D01*
X412084Y-60644D01*
X414438Y-58838D01*
X416244Y-56484D01*
X417380Y-53742D01*
X417767Y-50800D01*
X417668Y-50050D01*
X417767Y-49300D01*
Y-41300D01*
X417380Y-38358D01*
X417273Y-38100D01*
X417380Y-37842D01*
X417767Y-34900D01*
Y-26900D01*
X417668Y-26150D01*
X417767Y-25400D01*
X417380Y-22458D01*
X416244Y-19716D01*
X414438Y-17362D01*
X412084Y-15556D01*
X409342Y-14420D01*
X406400Y-14033D01*
D02*
G37*
G36*
X1484Y-14130D02*
X-1484D01*
X-4350Y-14898D01*
X-6920Y-16382D01*
X-9018Y-18480D01*
X-10502Y-21050D01*
X-11270Y-23916D01*
Y-26884D01*
X-10502Y-29750D01*
X-9018Y-32320D01*
X-6920Y-34418D01*
X-4350Y-35902D01*
X-1484Y-36670D01*
X1484D01*
X4350Y-35902D01*
X6920Y-34418D01*
X9018Y-32320D01*
X10502Y-29750D01*
X11270Y-26884D01*
Y-23916D01*
X10502Y-21050D01*
X9018Y-18480D01*
X6920Y-16382D01*
X4350Y-14898D01*
X1484Y-14130D01*
D02*
G37*
G36*
Y-39530D02*
X-1484D01*
X-4350Y-40298D01*
X-6920Y-41782D01*
X-9018Y-43880D01*
X-10502Y-46450D01*
X-11270Y-49316D01*
Y-52284D01*
X-10502Y-55150D01*
X-9018Y-57720D01*
X-6920Y-59818D01*
X-4350Y-61302D01*
X-1484Y-62070D01*
X1484D01*
X4350Y-61302D01*
X6920Y-59818D01*
X9018Y-57720D01*
X10502Y-55150D01*
X11270Y-52284D01*
Y-49316D01*
X10502Y-46450D01*
X9018Y-43880D01*
X6920Y-41782D01*
X4350Y-40298D01*
X1484Y-39530D01*
D02*
G37*
G36*
X381635Y-65016D02*
Y-80665D01*
X392367D01*
Y-76300D01*
X391980Y-73358D01*
X390844Y-70616D01*
X389038Y-68262D01*
X386684Y-66456D01*
X383942Y-65320D01*
X381635Y-65016D01*
D02*
G37*
G36*
X380365D02*
X378058Y-65320D01*
X375316Y-66456D01*
X372962Y-68262D01*
X371156Y-70616D01*
X370020Y-73358D01*
X369633Y-76300D01*
Y-80665D01*
X380365D01*
Y-65016D01*
D02*
G37*
G36*
X407035Y-66416D02*
Y-81065D01*
X417767D01*
Y-77700D01*
X417380Y-74758D01*
X416244Y-72016D01*
X414438Y-69662D01*
X412084Y-67856D01*
X409342Y-66720D01*
X407035Y-66416D01*
D02*
G37*
G36*
X405765D02*
X403458Y-66720D01*
X400716Y-67856D01*
X398362Y-69662D01*
X396556Y-72016D01*
X395420Y-74758D01*
X395033Y-77700D01*
Y-81065D01*
X405765D01*
Y-66416D01*
D02*
G37*
G36*
X417767Y-82335D02*
X395033D01*
Y-85700D01*
X395420Y-88642D01*
X395527Y-88900D01*
X395420Y-89158D01*
X395033Y-92100D01*
Y-95465D01*
X417767D01*
Y-92100D01*
X417380Y-89158D01*
X417273Y-88900D01*
X417380Y-88642D01*
X417767Y-85700D01*
Y-82335D01*
D02*
G37*
G36*
X392367Y-81935D02*
X381000D01*
X369633D01*
Y-86300D01*
X369975Y-88900D01*
X369633Y-91500D01*
Y-95865D01*
X381000D01*
X392367D01*
Y-91500D01*
X392025Y-88900D01*
X392367Y-86300D01*
Y-81935D01*
D02*
G37*
G36*
X417767Y-96735D02*
X407035D01*
Y-111384D01*
X409342Y-111080D01*
X412084Y-109944D01*
X414438Y-108138D01*
X416244Y-105784D01*
X417380Y-103042D01*
X417767Y-100100D01*
Y-96735D01*
D02*
G37*
G36*
X405765D02*
X395033D01*
Y-100100D01*
X395420Y-103042D01*
X396556Y-105784D01*
X398362Y-108138D01*
X400716Y-109944D01*
X403458Y-111080D01*
X405765Y-111384D01*
Y-96735D01*
D02*
G37*
G36*
X392367Y-97135D02*
X381635D01*
Y-112784D01*
X383942Y-112480D01*
X386684Y-111344D01*
X389038Y-109538D01*
X390844Y-107184D01*
X391980Y-104442D01*
X392367Y-101500D01*
Y-97135D01*
D02*
G37*
G36*
X380365D02*
X369633D01*
Y-101500D01*
X370020Y-104442D01*
X371156Y-107184D01*
X372962Y-109538D01*
X375316Y-111344D01*
X378058Y-112480D01*
X380365Y-112784D01*
Y-97135D01*
D02*
G37*
%LPD*%
G36*
X373933Y94524D02*
X373343Y94919D01*
X372405Y95272D01*
X371117Y95583D01*
X369481Y95853D01*
X365162Y96268D01*
X356068Y96579D01*
X352340Y96600D01*
Y106600D01*
X356068Y106621D01*
X371117Y107617D01*
X372405Y107928D01*
X373343Y108281D01*
X373933Y108675D01*
Y94524D01*
D02*
G37*
G36*
X41394Y54821D02*
X41421Y54632D01*
X41466Y54486D01*
X41529Y54384D01*
X41610Y54325D01*
X41708Y54310D01*
X41825Y54337D01*
X41960Y54409D01*
X42112Y54523D01*
X42283Y54681D01*
Y52885D01*
X42112Y52702D01*
X41960Y52511D01*
X41825Y52313D01*
X41708Y52107D01*
X41610Y51894D01*
X41529Y51673D01*
X41466Y51445D01*
X41421Y51210D01*
X41394Y50967D01*
X41385Y50717D01*
X40115Y52250D01*
X41385Y55053D01*
X41394Y54821D01*
D02*
G37*
G36*
X51444Y-1574D02*
X51471Y-1763D01*
X51516Y-1909D01*
X51579Y-2011D01*
X51659Y-2070D01*
X51758Y-2086D01*
X51875Y-2058D01*
X52010Y-1986D01*
X52162Y-1872D01*
X52333Y-1714D01*
Y-3510D01*
X52162Y-3693D01*
X52010Y-3884D01*
X51875Y-4082D01*
X51758Y-4288D01*
X51659Y-4501D01*
X51579Y-4721D01*
X51516Y-4949D01*
X51471Y-5185D01*
X51444Y-5428D01*
X51435Y-5678D01*
X50165Y-4145D01*
X51435Y-1342D01*
X51444Y-1574D01*
D02*
G37*
G36*
X34545Y-23103D02*
X34390Y-23279D01*
X34252Y-23479D01*
X34131Y-23704D01*
X34026Y-23953D01*
X33938Y-24228D01*
X33867Y-24527D01*
X33813Y-24850D01*
X33775Y-25199D01*
X33750Y-25970D01*
X30780Y-23000D01*
X31178Y-22996D01*
X31900Y-22937D01*
X32223Y-22883D01*
X32522Y-22812D01*
X32797Y-22724D01*
X33046Y-22619D01*
X33271Y-22498D01*
X33472Y-22360D01*
X33647Y-22205D01*
X34545Y-23103D01*
D02*
G37*
G36*
X46635Y-45584D02*
X46649Y-45809D01*
X46691Y-46044D01*
X46760Y-46289D01*
X46857Y-46545D01*
X46982Y-46810D01*
X47134Y-47086D01*
X47314Y-47372D01*
X47758Y-47974D01*
X48021Y-48290D01*
X43836Y-47940D01*
X44126Y-47687D01*
X44386Y-47436D01*
X44616Y-47186D01*
X44815Y-46937D01*
X44983Y-46690D01*
X45120Y-46444D01*
X45227Y-46200D01*
X45304Y-45957D01*
X45350Y-45715D01*
X45365Y-45475D01*
X46635Y-45584D01*
D02*
G37*
G36*
X232106Y26358D02*
Y13720D01*
X218450D01*
Y32876D01*
X225588D01*
X232106Y26358D01*
D02*
G37*
D11*
X70750Y39500D02*
X87350D01*
X91000Y43150D01*
Y103450D01*
X144625Y39375D02*
X144750Y39250D01*
X144500Y39500D02*
X144625Y39375D01*
X125250Y39500D02*
X144500D01*
X25400Y152400D02*
X79600D01*
X79980Y152020D01*
X91000Y103450D02*
Y145770D01*
X79980Y152020D02*
X84750D01*
X91000Y145770D01*
D15*
X68250Y77600D02*
D03*
Y64900D02*
D03*
Y52200D02*
D03*
Y39500D02*
D03*
Y26800D02*
D03*
Y14100D02*
D03*
Y1400D02*
D03*
X127750Y64900D02*
D03*
Y52200D02*
D03*
Y39500D02*
D03*
Y26800D02*
D03*
Y14100D02*
D03*
Y1400D02*
D03*
Y77600D02*
D03*
D16*
X79980Y152020D02*
D03*
X132480D02*
D03*
X324000Y152950D02*
D03*
X271500D02*
D03*
D17*
X106000Y103450D02*
D03*
X91000D02*
D03*
D18*
X356500Y166700D02*
D03*
Y151700D02*
D03*
X333470Y86520D02*
D03*
Y101520D02*
D03*
X355675Y70975D02*
D03*
Y55975D02*
D03*
X334220Y-7400D02*
D03*
Y7600D02*
D03*
X355300Y-23300D02*
D03*
Y-38300D02*
D03*
D19*
X179020Y36720D02*
D03*
X164520D02*
D03*
X179020Y51720D02*
D03*
X164520D02*
D03*
X179020Y7720D02*
D03*
X164520D02*
D03*
X179020Y80720D02*
D03*
X164520D02*
D03*
D20*
X164020Y22220D02*
D03*
X178520D02*
D03*
X164020Y66220D02*
D03*
X178520D02*
D03*
Y-6780D02*
D03*
X164020D02*
D03*
X178520Y95220D02*
D03*
X164020D02*
D03*
D21*
X235950Y-15300D02*
D03*
Y78700D02*
D03*
D22*
X300450Y7600D02*
D03*
Y-38200D02*
D03*
Y101600D02*
D03*
Y55800D02*
D03*
D37*
X313150Y-17860D02*
X323610Y-7400D01*
X300450Y55800D02*
X376381D01*
X301200Y-38200D02*
X375594D01*
X355300Y-38300D02*
X381200D01*
X333470Y86520D02*
X348470D01*
X318470D02*
X333470D01*
X323610Y-7400D02*
X334220D01*
X339400D01*
X355300Y-23300D01*
X310610Y78660D02*
X318470Y86520D01*
X348470D02*
X355675Y79315D01*
Y70975D02*
Y79315D01*
X333550Y101600D02*
X381000D01*
X300450Y101600D02*
X333390D01*
X376381Y55800D02*
X381000Y51181D01*
Y50800D02*
Y51181D01*
Y0D02*
Y2981D01*
X334220Y7600D02*
X376381D01*
X300450D02*
X334220D01*
X376381D02*
X381000Y2981D01*
X301300Y-38300D02*
X355300D01*
X375594Y-38200D02*
X381000Y-32794D01*
X301200Y-38200D02*
X301300Y-38300D01*
X300450Y-38200D02*
X301200D01*
X381000Y-32794D02*
Y-25400D01*
X346700Y185450D02*
X356500Y175650D01*
Y166700D02*
Y175650D01*
X300450Y55800D02*
X300575Y55925D01*
X324000Y152950D02*
X325250Y151700D01*
X355500D01*
X356500D02*
X380300D01*
X381000Y152400D01*
X271500Y152950D02*
X274200Y155650D01*
X282950D01*
X234950Y152950D02*
X271500D01*
X234930Y152970D02*
X234950Y152950D01*
X376381Y-38900D02*
X381000Y-43519D01*
Y-50800D02*
Y-43519D01*
D38*
X30750Y-26000D02*
X43290Y-13460D01*
Y46290D01*
X46000Y-50000D02*
Y18000D01*
X45750Y-50250D02*
X46000Y-50000D01*
X101500Y71250D02*
X107200Y76950D01*
X76200Y-15800D02*
X101500Y9500D01*
Y71250D01*
X76200Y-101600D02*
Y-15800D01*
X50800Y-101600D02*
Y-4145D01*
Y9300D01*
Y-4145D02*
X56345Y1400D01*
X50800Y9300D02*
X55600Y14100D01*
X46000Y18000D02*
X54750Y26750D01*
X43290Y46290D02*
X49250Y52250D01*
X25400Y-101600D02*
Y-22600D01*
X40750Y-7250D01*
Y52250D01*
X55600Y14100D02*
X70750D01*
X56345Y1400D02*
X70750D01*
X70700Y26750D02*
X70750Y26800D01*
X54750Y26750D02*
X70700D01*
X49250Y52250D02*
X70700D01*
X70750Y52200D01*
X40750Y52250D02*
Y72500D01*
X53400Y64900D02*
X70750D01*
X40750Y52250D02*
X53400Y64900D01*
X40750Y72500D02*
X45850Y77600D01*
X70750D01*
X106400Y1400D02*
X125250D01*
X101600Y-3400D02*
X106400Y1400D01*
X101600Y-101600D02*
Y-3400D01*
X125400Y26650D02*
X146750D01*
X125250Y26800D02*
X125400Y26650D01*
X151180Y22220D02*
X164020D01*
X146750Y26650D02*
X151180Y22220D01*
X125400Y13950D02*
X147450D01*
X125250Y14100D02*
X125400Y13950D01*
X153680Y7720D02*
X164520D01*
X147450Y13950D02*
X153680Y7720D01*
X125400Y77450D02*
X147950D01*
X125250Y77600D02*
X125400Y77450D01*
X178520Y95220D02*
Y103630D01*
X174450Y107700D02*
X178520Y103630D01*
X159950Y107700D02*
X174450D01*
X151200Y98950D02*
X159950Y107700D01*
X151200Y80700D02*
Y98950D01*
X147950Y77450D02*
X151200Y80700D01*
X107200Y76950D02*
X124600D01*
X125250Y77600D01*
X125400Y64750D02*
X148300D01*
X125250Y64900D02*
X125400Y64750D01*
X164270Y80720D02*
X164520D01*
X154578Y71027D02*
X164270Y80720D01*
X154578Y71027D02*
Y71027D01*
X148300Y64750D02*
X154578Y71027D01*
X125400Y1250D02*
X146150D01*
X125250Y1400D02*
X125400Y1250D01*
X178520Y-13230D02*
Y-6780D01*
X174200Y-17550D02*
X178520Y-13230D01*
X156950Y-17550D02*
X174200D01*
X151200Y-11800D02*
X156950Y-17550D01*
X151200Y-11800D02*
Y-3800D01*
X146150Y1250D02*
X151200Y-3800D01*
X125400Y52050D02*
X164190D01*
X125250Y52200D02*
X125400Y52050D01*
X164190D02*
X164520Y51720D01*
X179020Y65720D02*
X192680D01*
X178520Y66220D02*
X179020Y65720D01*
X178520Y22220D02*
X192680D01*
X180020Y79720D02*
X192680D01*
X179020Y80720D02*
X180020Y79720D01*
X192680Y7720D02*
X192700Y7700D01*
X179020Y7720D02*
X192680D01*
X164020Y22220D02*
X164520Y22720D01*
Y36720D01*
X164020Y52220D02*
Y66220D01*
Y52220D02*
X164190Y52050D01*
X164020Y7220D02*
X164520Y7720D01*
X164020Y-6780D02*
Y7220D01*
Y95220D02*
X164520Y94720D01*
Y80720D02*
Y94720D01*
D39*
X141230Y152020D02*
X170636D01*
X132480D02*
X141230D01*
X105850Y103600D02*
X106000Y103450D01*
X105700Y125700D02*
X105850Y125550D01*
Y103600D02*
Y125550D01*
X180750Y53450D02*
X210700D01*
X179020Y51720D02*
X180750Y53450D01*
X210700D02*
X235950Y78700D01*
X227180Y36720D02*
X235950Y27950D01*
X179020Y36720D02*
X227180D01*
X235950Y-15300D02*
Y27950D01*
D40*
X381000Y177800D02*
X406400D01*
X381000Y152400D02*
X406400D01*
X381000Y-76200D02*
X406400D01*
X381000Y-101600D02*
X406400D01*
X381000Y127000D02*
X406400D01*
X381000Y101600D02*
X406400D01*
X381000Y76200D02*
X406400D01*
X381000Y50800D02*
X406400D01*
X381000Y25400D02*
X406400D01*
X381000Y0D02*
X406400D01*
X381000Y-25400D02*
X406400D01*
X381000Y-50800D02*
X406400D01*
X0Y127000D02*
X25400D01*
X0Y0D02*
X25400D01*
X0Y101600D02*
X25400D01*
X0Y76200D02*
X25400D01*
X0Y50800D02*
X25400D01*
X0Y25400D02*
X25400D01*
D41*
Y152400D02*
D03*
Y127000D02*
D03*
Y101600D02*
D03*
Y76200D02*
D03*
Y50800D02*
D03*
Y25400D02*
D03*
Y0D02*
D03*
Y-101600D02*
D03*
X50800D02*
D03*
X76200D02*
D03*
X101600D02*
D03*
X0Y101600D02*
D03*
Y-50800D02*
D03*
Y25400D02*
D03*
Y50800D02*
D03*
Y76200D02*
D03*
Y-25400D02*
D03*
Y0D02*
D03*
D42*
X381000Y172700D02*
D03*
Y157500D02*
D03*
Y121900D02*
D03*
Y106700D02*
D03*
Y71100D02*
D03*
Y55900D02*
D03*
Y20300D02*
D03*
Y5100D02*
D03*
Y-30500D02*
D03*
Y-45700D02*
D03*
Y-81300D02*
D03*
Y-96500D02*
D03*
D43*
X406400Y157900D02*
D03*
Y172300D02*
D03*
Y5500D02*
D03*
Y-45300D02*
D03*
Y-30900D02*
D03*
Y121500D02*
D03*
Y107100D02*
D03*
Y56300D02*
D03*
Y70700D02*
D03*
Y19900D02*
D03*
Y-96100D02*
D03*
Y-81700D02*
D03*
D44*
X0Y127000D02*
D03*
D45*
X422450Y170800D02*
D03*
Y145400D02*
D03*
Y120000D02*
D03*
Y94600D02*
D03*
Y69200D02*
D03*
Y43800D02*
D03*
Y18400D02*
D03*
Y-7000D02*
D03*
Y-32400D02*
D03*
Y-57800D02*
D03*
Y-83200D02*
D03*
Y-108600D02*
D03*
X365300Y183500D02*
D03*
Y132700D02*
D03*
X358950Y120000D02*
D03*
X365300Y81900D02*
D03*
X358950Y43800D02*
D03*
X365300Y31100D02*
D03*
X358950Y18400D02*
D03*
Y-7000D02*
D03*
X365300Y-19700D02*
D03*
X358950Y-57800D02*
D03*
X365300Y-70500D02*
D03*
X358950Y-83200D02*
D03*
X365300Y-95900D02*
D03*
X358950Y-108600D02*
D03*
X346250Y170800D02*
D03*
X352600Y132700D02*
D03*
X346250Y120000D02*
D03*
X352600Y81900D02*
D03*
X346250Y69200D02*
D03*
Y43800D02*
D03*
X352600Y31100D02*
D03*
X346250Y18400D02*
D03*
Y-7000D02*
D03*
Y-57800D02*
D03*
X352600Y-70500D02*
D03*
X346250Y-83200D02*
D03*
X352600Y-95900D02*
D03*
X346250Y-108600D02*
D03*
X333550Y170800D02*
D03*
X339900Y132700D02*
D03*
X333550Y120000D02*
D03*
Y69200D02*
D03*
Y43800D02*
D03*
X339900Y31100D02*
D03*
X333550Y18400D02*
D03*
X339900Y-19700D02*
D03*
X333550Y-57800D02*
D03*
X339900Y-70500D02*
D03*
X333550Y-83200D02*
D03*
X339900Y-95900D02*
D03*
X333550Y-108600D02*
D03*
X327200Y183500D02*
D03*
X320850Y170800D02*
D03*
X327200Y132700D02*
D03*
X320850Y120000D02*
D03*
Y69200D02*
D03*
Y43800D02*
D03*
X327200Y31100D02*
D03*
X320850Y18400D02*
D03*
Y-7000D02*
D03*
X327200Y-19700D02*
D03*
X320850Y-57800D02*
D03*
X327200Y-70500D02*
D03*
X320850Y-83200D02*
D03*
X327200Y-95900D02*
D03*
X320850Y-108600D02*
D03*
X314500Y183500D02*
D03*
X308150Y170800D02*
D03*
X314500Y132700D02*
D03*
X308150Y120000D02*
D03*
Y69200D02*
D03*
Y43800D02*
D03*
X314500Y31100D02*
D03*
X308150Y18400D02*
D03*
Y-7000D02*
D03*
Y-57800D02*
D03*
X314500Y-70500D02*
D03*
X308150Y-83200D02*
D03*
X314500Y-95900D02*
D03*
X308150Y-108600D02*
D03*
X301800Y183500D02*
D03*
X295450Y170800D02*
D03*
Y145400D02*
D03*
X301800Y132700D02*
D03*
X295450Y120000D02*
D03*
X301800Y81900D02*
D03*
X295450Y69200D02*
D03*
Y43800D02*
D03*
X301800Y31100D02*
D03*
X295450Y18400D02*
D03*
Y-7000D02*
D03*
X301800Y-19700D02*
D03*
X295450Y-57800D02*
D03*
X301800Y-70500D02*
D03*
X295450Y-83200D02*
D03*
X301800Y-95900D02*
D03*
X295450Y-108600D02*
D03*
X289100Y183500D02*
D03*
X282750Y170800D02*
D03*
X289100Y132700D02*
D03*
X282750Y120000D02*
D03*
X289100Y81900D02*
D03*
X282750Y69200D02*
D03*
Y43800D02*
D03*
X289100Y31100D02*
D03*
X282750Y18400D02*
D03*
Y-7000D02*
D03*
X289100Y-19700D02*
D03*
X282750Y-57800D02*
D03*
X289100Y-70500D02*
D03*
X282750Y-83200D02*
D03*
X289100Y-95900D02*
D03*
X282750Y-108600D02*
D03*
X276400Y183500D02*
D03*
X270050Y170800D02*
D03*
X276400Y132700D02*
D03*
X270050Y120000D02*
D03*
X276400Y107300D02*
D03*
Y81900D02*
D03*
Y56500D02*
D03*
X270050Y43800D02*
D03*
X276400Y31100D02*
D03*
X270050Y18400D02*
D03*
X276400Y5700D02*
D03*
Y-19700D02*
D03*
Y-45100D02*
D03*
X270050Y-57800D02*
D03*
X276400Y-70500D02*
D03*
X270050Y-83200D02*
D03*
X276400Y-95900D02*
D03*
X270050Y-108600D02*
D03*
X263700Y183500D02*
D03*
X257350Y170800D02*
D03*
X263700Y132700D02*
D03*
X257350Y120000D02*
D03*
Y43800D02*
D03*
X263700Y31100D02*
D03*
X257350Y18400D02*
D03*
Y-57800D02*
D03*
X263700Y-70500D02*
D03*
X257350Y-83200D02*
D03*
X263700Y-95900D02*
D03*
X257350Y-108600D02*
D03*
X251000Y183500D02*
D03*
X244650Y170800D02*
D03*
Y145400D02*
D03*
X251000Y132700D02*
D03*
X244650Y120000D02*
D03*
Y43800D02*
D03*
X251000Y31100D02*
D03*
X244650Y18400D02*
D03*
Y-57800D02*
D03*
X251000Y-70500D02*
D03*
X244650Y-83200D02*
D03*
X251000Y-95900D02*
D03*
X244650Y-108600D02*
D03*
X238300Y183500D02*
D03*
X231950Y170800D02*
D03*
X238300Y132700D02*
D03*
X231950Y120000D02*
D03*
Y43800D02*
D03*
Y-57800D02*
D03*
X238300Y-70500D02*
D03*
X231950Y-83200D02*
D03*
X238300Y-95900D02*
D03*
X231950Y-108600D02*
D03*
X225600Y183500D02*
D03*
Y158100D02*
D03*
Y132700D02*
D03*
Y-70500D02*
D03*
Y-95900D02*
D03*
X219250Y-108600D02*
D03*
X212900Y183500D02*
D03*
X206550Y170800D02*
D03*
Y145400D02*
D03*
Y120000D02*
D03*
Y43800D02*
D03*
Y18400D02*
D03*
Y-57800D02*
D03*
Y-83200D02*
D03*
Y-108600D02*
D03*
X200200Y183500D02*
D03*
X193850Y170800D02*
D03*
X200200Y158100D02*
D03*
X193850Y145400D02*
D03*
X200200Y132700D02*
D03*
X193850Y120000D02*
D03*
Y94600D02*
D03*
Y43800D02*
D03*
Y-7000D02*
D03*
Y-32400D02*
D03*
Y-57800D02*
D03*
X200200Y-70500D02*
D03*
X193850Y-83200D02*
D03*
X200200Y-95900D02*
D03*
X193850Y-108600D02*
D03*
X187500Y183500D02*
D03*
X181150Y170800D02*
D03*
X187500Y158100D02*
D03*
X181150Y145400D02*
D03*
X187500Y132700D02*
D03*
X181150Y120000D02*
D03*
X187500Y107300D02*
D03*
Y-19700D02*
D03*
X181150Y-32400D02*
D03*
X187500Y-45100D02*
D03*
X181150Y-57800D02*
D03*
X187500Y-70500D02*
D03*
X181150Y-83200D02*
D03*
X187500Y-95900D02*
D03*
X181150Y-108600D02*
D03*
X174800Y183500D02*
D03*
X168450Y170800D02*
D03*
X174800Y158100D02*
D03*
Y132700D02*
D03*
X168450Y120000D02*
D03*
Y-32400D02*
D03*
X174800Y-45100D02*
D03*
X168450Y-57800D02*
D03*
X174800Y-70500D02*
D03*
X168450Y-83200D02*
D03*
X174800Y-95900D02*
D03*
X168450Y-108600D02*
D03*
X162100Y183500D02*
D03*
X155750Y170800D02*
D03*
X162100Y158100D02*
D03*
X155750Y145400D02*
D03*
X162100Y132700D02*
D03*
X155750Y120000D02*
D03*
Y-32400D02*
D03*
X162100Y-45100D02*
D03*
X155750Y-57800D02*
D03*
X162100Y-70500D02*
D03*
X155750Y-83200D02*
D03*
X162100Y-95900D02*
D03*
X155750Y-108600D02*
D03*
X149400Y183500D02*
D03*
X143050Y170800D02*
D03*
X149400Y132700D02*
D03*
X143050Y120000D02*
D03*
X149400Y107300D02*
D03*
X143050Y94600D02*
D03*
X149400Y31100D02*
D03*
X143050Y-7000D02*
D03*
X149400Y-19700D02*
D03*
X143050Y-32400D02*
D03*
X149400Y-45100D02*
D03*
X143050Y-57800D02*
D03*
X149400Y-70500D02*
D03*
X143050Y-83200D02*
D03*
X149400Y-95900D02*
D03*
X143050Y-108600D02*
D03*
X136700Y183500D02*
D03*
X130350Y170800D02*
D03*
X136700Y132700D02*
D03*
X130350Y120000D02*
D03*
X136700Y107300D02*
D03*
X130350Y94600D02*
D03*
Y-7000D02*
D03*
X136700Y-19700D02*
D03*
X130350Y-32400D02*
D03*
X136700Y-45100D02*
D03*
X130350Y-57800D02*
D03*
X136700Y-70500D02*
D03*
X130350Y-83200D02*
D03*
X136700Y-95900D02*
D03*
X130350Y-108600D02*
D03*
X124000Y183500D02*
D03*
X117650Y170800D02*
D03*
X124000Y132700D02*
D03*
X117650Y120000D02*
D03*
X124000Y107300D02*
D03*
X117650Y94600D02*
D03*
Y-7000D02*
D03*
X124000Y-19700D02*
D03*
X117650Y-32400D02*
D03*
X124000Y-45100D02*
D03*
X117650Y-57800D02*
D03*
X124000Y-70500D02*
D03*
X117650Y-83200D02*
D03*
X124000Y-95900D02*
D03*
X117650Y-108600D02*
D03*
X111300Y183500D02*
D03*
X104950Y170800D02*
D03*
Y145400D02*
D03*
X111300Y132700D02*
D03*
Y56500D02*
D03*
Y31100D02*
D03*
Y-19700D02*
D03*
Y-45100D02*
D03*
Y-70500D02*
D03*
X98600Y183500D02*
D03*
X92250Y170800D02*
D03*
X98600Y132700D02*
D03*
Y81900D02*
D03*
X92250Y18400D02*
D03*
Y-7000D02*
D03*
Y-32400D02*
D03*
Y-57800D02*
D03*
Y-83200D02*
D03*
X85900Y183500D02*
D03*
X79550Y170800D02*
D03*
Y120000D02*
D03*
Y94600D02*
D03*
X85900Y31100D02*
D03*
Y5700D02*
D03*
Y-19700D02*
D03*
Y-45100D02*
D03*
Y-70500D02*
D03*
X73200Y183500D02*
D03*
X66850Y170800D02*
D03*
X73200Y132700D02*
D03*
X66850Y120000D02*
D03*
X73200Y107300D02*
D03*
X66850Y94600D02*
D03*
Y-7000D02*
D03*
Y-32400D02*
D03*
Y-57800D02*
D03*
Y-83200D02*
D03*
X60500Y183500D02*
D03*
X54150Y170800D02*
D03*
X60500Y132700D02*
D03*
X54150Y120000D02*
D03*
X60500Y107300D02*
D03*
X54150Y94600D02*
D03*
Y43800D02*
D03*
X60500Y-19700D02*
D03*
Y-45100D02*
D03*
Y-70500D02*
D03*
X47800Y183500D02*
D03*
X41450Y170800D02*
D03*
X47800Y132700D02*
D03*
X41450Y120000D02*
D03*
X47800Y107300D02*
D03*
X41450Y94600D02*
D03*
Y-57800D02*
D03*
Y-83200D02*
D03*
X35100Y183500D02*
D03*
X28750Y170800D02*
D03*
X35100Y-45100D02*
D03*
Y-70500D02*
D03*
X22400Y183500D02*
D03*
X16050Y170800D02*
D03*
Y-32400D02*
D03*
Y-57800D02*
D03*
Y-83200D02*
D03*
X9700Y183500D02*
D03*
X3350Y170800D02*
D03*
X9700Y158100D02*
D03*
X3350Y145400D02*
D03*
X9700Y-70500D02*
D03*
X3350Y-83200D02*
D03*
X9700Y-95900D02*
D03*
X3350Y-108600D02*
D03*
X-3000Y183500D02*
D03*
X-9350Y170800D02*
D03*
X-3000Y158100D02*
D03*
X-9350Y145400D02*
D03*
X-3000Y-70500D02*
D03*
X-9350Y-83200D02*
D03*
X-3000Y-95900D02*
D03*
X-9350Y-108600D02*
D03*
X30750Y-26000D02*
D03*
X45750Y-50250D02*
D03*
X170636Y152020D02*
D03*
X144625Y39375D02*
D03*
X105700Y125700D02*
D03*
X192680Y65720D02*
D03*
X192680Y22220D02*
D03*
X192680Y79720D02*
D03*
X192700Y7700D02*
D03*
D46*
X313150Y-17860D02*
D03*
X234930Y152970D02*
D03*
X310610Y78660D02*
D03*
X346700Y185450D02*
D03*
M02*
