G04*
G04 #@! TF.GenerationSoftware,Altium Limited,Altium Designer,22.5.1 (42)*
G04*
G04 Layer_Physical_Order=2*
G04 Layer_Color=16711680*
%FSLAX44Y44*%
%MOMM*%
G71*
G04*
G04 #@! TF.SameCoordinates,A46AD673-58F9-48DA-A448-B45004F78B62*
G04*
G04*
G04 #@! TF.FilePolarity,Positive*
G04*
G01*
G75*
%ADD38C,0.1270*%
%ADD41C,2.0000*%
%ADD42O,2.0000X3.0000*%
%ADD43O,2.0000X2.8000*%
%ADD44R,2.0000X2.0000*%
%ADD45C,0.6000*%
%ADD46C,1.0000*%
G36*
X189700Y194443D02*
X214216Y194443D01*
Y194177D01*
X431766D01*
Y-118623D01*
X218416D01*
Y-118300D01*
X-19050D01*
Y193602D01*
X-18152Y194500D01*
X189700Y194443D01*
D02*
G37*
%LPC*%
G36*
X406400Y187667D02*
X403458Y187280D01*
X400716Y186144D01*
X398362Y184338D01*
X396556Y181984D01*
X395420Y179242D01*
X395033Y176300D01*
Y168300D01*
X395420Y165358D01*
X395527Y165100D01*
X395420Y164842D01*
X395033Y161900D01*
Y153900D01*
X395420Y150958D01*
X396556Y148216D01*
X398362Y145862D01*
X400716Y144056D01*
X403458Y142920D01*
X406400Y142533D01*
X409342Y142920D01*
X412084Y144056D01*
X414438Y145862D01*
X416244Y148216D01*
X417380Y150958D01*
X417767Y153900D01*
Y161900D01*
X417380Y164842D01*
X417273Y165100D01*
X417380Y165358D01*
X417767Y168300D01*
Y176300D01*
X417380Y179242D01*
X416244Y181984D01*
X414438Y184338D01*
X412084Y186144D01*
X409342Y187280D01*
X406400Y187667D01*
D02*
G37*
G36*
X381000Y189067D02*
X378058Y188680D01*
X375316Y187544D01*
X372962Y185738D01*
X371156Y183384D01*
X370020Y180642D01*
X369633Y177700D01*
Y167700D01*
X369975Y165100D01*
X369633Y162500D01*
Y152500D01*
X370020Y149558D01*
X371156Y146816D01*
X372962Y144462D01*
X375316Y142656D01*
X378058Y141520D01*
X381000Y141133D01*
X383942Y141520D01*
X386684Y142656D01*
X389038Y144462D01*
X390844Y146816D01*
X391980Y149558D01*
X392367Y152500D01*
Y162500D01*
X392025Y165100D01*
X392367Y167700D01*
Y177700D01*
X391980Y180642D01*
X390844Y183384D01*
X389038Y185738D01*
X386684Y187544D01*
X383942Y188680D01*
X381000Y189067D01*
D02*
G37*
G36*
X26884Y163670D02*
X23916D01*
X21050Y162902D01*
X18480Y161418D01*
X16382Y159320D01*
X14898Y156750D01*
X14130Y153884D01*
Y150916D01*
X14898Y148050D01*
X16382Y145480D01*
X18480Y143382D01*
X21050Y141898D01*
X23916Y141130D01*
X26884D01*
X29750Y141898D01*
X32320Y143382D01*
X34418Y145480D01*
X35902Y148050D01*
X36670Y150916D01*
Y153884D01*
X35902Y156750D01*
X34418Y159320D01*
X32320Y161418D01*
X29750Y162902D01*
X26884Y163670D01*
D02*
G37*
G36*
Y138270D02*
X26035D01*
Y127635D01*
X36670D01*
Y128484D01*
X35902Y131350D01*
X34418Y133920D01*
X32320Y136018D01*
X29750Y137502D01*
X26884Y138270D01*
D02*
G37*
G36*
X11270D02*
X635D01*
Y127635D01*
X11270D01*
Y138270D01*
D02*
G37*
G36*
X-635D02*
X-11270D01*
Y127635D01*
X-635D01*
Y138270D01*
D02*
G37*
G36*
X24765D02*
X23916D01*
X21050Y137502D01*
X18480Y136018D01*
X16382Y133920D01*
X14898Y131350D01*
X14130Y128484D01*
Y127635D01*
X24765D01*
Y138270D01*
D02*
G37*
G36*
X36670Y126365D02*
X26035D01*
Y115730D01*
X26884D01*
X29750Y116498D01*
X32320Y117982D01*
X34418Y120080D01*
X35902Y122650D01*
X36670Y125516D01*
Y126365D01*
D02*
G37*
G36*
X24765D02*
X14130D01*
Y125516D01*
X14898Y122650D01*
X16382Y120080D01*
X18480Y117982D01*
X21050Y116498D01*
X23916Y115730D01*
X24765D01*
Y126365D01*
D02*
G37*
G36*
X11270D02*
X635D01*
Y115730D01*
X11270D01*
Y126365D01*
D02*
G37*
G36*
X-635D02*
X-11270D01*
Y115730D01*
X-635D01*
Y126365D01*
D02*
G37*
G36*
X406400Y136867D02*
X403458Y136480D01*
X400716Y135344D01*
X398362Y133538D01*
X396556Y131184D01*
X395420Y128442D01*
X395033Y125500D01*
Y117500D01*
X395420Y114558D01*
X395527Y114300D01*
X395420Y114042D01*
X395033Y111100D01*
Y103100D01*
X395420Y100158D01*
X396556Y97416D01*
X398362Y95062D01*
X400716Y93256D01*
X403458Y92120D01*
X406400Y91733D01*
X409342Y92120D01*
X412084Y93256D01*
X414438Y95062D01*
X416244Y97416D01*
X417380Y100158D01*
X417767Y103100D01*
Y111100D01*
X417380Y114042D01*
X417273Y114300D01*
X417380Y114558D01*
X417767Y117500D01*
Y125500D01*
X417380Y128442D01*
X416244Y131184D01*
X414438Y133538D01*
X412084Y135344D01*
X409342Y136480D01*
X406400Y136867D01*
D02*
G37*
G36*
X381000Y138267D02*
X378058Y137880D01*
X375316Y136744D01*
X372962Y134938D01*
X371156Y132584D01*
X370020Y129842D01*
X369633Y126900D01*
Y116900D01*
X369975Y114300D01*
X369633Y111700D01*
Y101700D01*
X370020Y98758D01*
X371156Y96016D01*
X372962Y93662D01*
X375316Y91856D01*
X378058Y90720D01*
X381000Y90333D01*
X383942Y90720D01*
X386684Y91856D01*
X389038Y93662D01*
X390844Y96016D01*
X391980Y98758D01*
X392367Y101700D01*
Y111700D01*
X392025Y114300D01*
X392367Y116900D01*
Y126900D01*
X391980Y129842D01*
X390844Y132584D01*
X389038Y134938D01*
X386684Y136744D01*
X383942Y137880D01*
X381000Y138267D01*
D02*
G37*
G36*
X26884Y112870D02*
X23916D01*
X21050Y112102D01*
X18480Y110618D01*
X16382Y108520D01*
X14898Y105950D01*
X14130Y103084D01*
Y100116D01*
X14898Y97250D01*
X16382Y94680D01*
X18480Y92582D01*
X21050Y91098D01*
X23916Y90330D01*
X26884D01*
X29750Y91098D01*
X32320Y92582D01*
X34418Y94680D01*
X35902Y97250D01*
X36670Y100116D01*
Y103084D01*
X35902Y105950D01*
X34418Y108520D01*
X32320Y110618D01*
X29750Y112102D01*
X26884Y112870D01*
D02*
G37*
G36*
X1484D02*
X-1484D01*
X-4350Y112102D01*
X-6920Y110618D01*
X-9018Y108520D01*
X-10502Y105950D01*
X-11270Y103084D01*
Y100116D01*
X-10502Y97250D01*
X-9018Y94680D01*
X-6920Y92582D01*
X-4350Y91098D01*
X-1484Y90330D01*
X1484D01*
X4350Y91098D01*
X6920Y92582D01*
X9018Y94680D01*
X10502Y97250D01*
X11270Y100116D01*
Y103084D01*
X10502Y105950D01*
X9018Y108520D01*
X6920Y110618D01*
X4350Y112102D01*
X1484Y112870D01*
D02*
G37*
G36*
X26884Y87470D02*
X23916D01*
X21050Y86702D01*
X18480Y85218D01*
X16382Y83120D01*
X14898Y80550D01*
X14130Y77684D01*
Y74716D01*
X14898Y71850D01*
X16382Y69280D01*
X18480Y67182D01*
X21050Y65698D01*
X23916Y64930D01*
X26884D01*
X29750Y65698D01*
X32320Y67182D01*
X34418Y69280D01*
X35902Y71850D01*
X36670Y74716D01*
Y77684D01*
X35902Y80550D01*
X34418Y83120D01*
X32320Y85218D01*
X29750Y86702D01*
X26884Y87470D01*
D02*
G37*
G36*
X1484D02*
X-1484D01*
X-4350Y86702D01*
X-6920Y85218D01*
X-9018Y83120D01*
X-10502Y80550D01*
X-11270Y77684D01*
Y74716D01*
X-10502Y71850D01*
X-9018Y69280D01*
X-6920Y67182D01*
X-4350Y65698D01*
X-1484Y64930D01*
X1484D01*
X4350Y65698D01*
X6920Y67182D01*
X9018Y69280D01*
X10502Y71850D01*
X11270Y74716D01*
Y77684D01*
X10502Y80550D01*
X9018Y83120D01*
X6920Y85218D01*
X4350Y86702D01*
X1484Y87470D01*
D02*
G37*
G36*
X406400Y86067D02*
X403458Y85680D01*
X400716Y84544D01*
X398362Y82738D01*
X396556Y80384D01*
X395420Y77642D01*
X395033Y74700D01*
Y66700D01*
X395420Y63758D01*
X395527Y63500D01*
X395420Y63242D01*
X395033Y60300D01*
Y52300D01*
X395420Y49358D01*
X396556Y46616D01*
X398362Y44262D01*
X400716Y42456D01*
X403458Y41320D01*
X406400Y40933D01*
X409342Y41320D01*
X412084Y42456D01*
X414438Y44262D01*
X416244Y46616D01*
X417380Y49358D01*
X417767Y52300D01*
Y60300D01*
X417380Y63242D01*
X417273Y63500D01*
X417380Y63758D01*
X417767Y66700D01*
Y74700D01*
X417380Y77642D01*
X416244Y80384D01*
X414438Y82738D01*
X412084Y84544D01*
X409342Y85680D01*
X406400Y86067D01*
D02*
G37*
G36*
X381000Y87467D02*
X378058Y87080D01*
X375316Y85944D01*
X372962Y84138D01*
X371156Y81784D01*
X370020Y79042D01*
X369633Y76100D01*
Y66100D01*
X369975Y63500D01*
X369633Y60900D01*
Y50900D01*
X370020Y47958D01*
X371156Y45216D01*
X372962Y42862D01*
X375316Y41056D01*
X378058Y39920D01*
X381000Y39533D01*
X383942Y39920D01*
X386684Y41056D01*
X389038Y42862D01*
X390844Y45216D01*
X391980Y47958D01*
X392367Y50900D01*
Y60900D01*
X392025Y63500D01*
X392367Y66100D01*
Y76100D01*
X391980Y79042D01*
X390844Y81784D01*
X389038Y84138D01*
X386684Y85944D01*
X383942Y87080D01*
X381000Y87467D01*
D02*
G37*
G36*
X26884Y62070D02*
X23916D01*
X21050Y61302D01*
X18480Y59818D01*
X16382Y57720D01*
X14898Y55150D01*
X14130Y52284D01*
Y49316D01*
X14898Y46450D01*
X16382Y43880D01*
X18480Y41782D01*
X21050Y40298D01*
X23916Y39530D01*
X26884D01*
X29750Y40298D01*
X32320Y41782D01*
X34418Y43880D01*
X35902Y46450D01*
X36670Y49316D01*
Y52284D01*
X35902Y55150D01*
X34418Y57720D01*
X32320Y59818D01*
X29750Y61302D01*
X26884Y62070D01*
D02*
G37*
G36*
X1484D02*
X-1484D01*
X-4350Y61302D01*
X-6920Y59818D01*
X-9018Y57720D01*
X-10502Y55150D01*
X-11270Y52284D01*
Y49316D01*
X-10502Y46450D01*
X-9018Y43880D01*
X-6920Y41782D01*
X-4350Y40298D01*
X-1484Y39530D01*
X1484D01*
X4350Y40298D01*
X6920Y41782D01*
X9018Y43880D01*
X10502Y46450D01*
X11270Y49316D01*
Y52284D01*
X10502Y55150D01*
X9018Y57720D01*
X6920Y59818D01*
X4350Y61302D01*
X1484Y62070D01*
D02*
G37*
G36*
X26884Y36670D02*
X23916D01*
X21050Y35902D01*
X18480Y34418D01*
X16382Y32320D01*
X14898Y29750D01*
X14130Y26884D01*
Y23916D01*
X14898Y21050D01*
X16382Y18480D01*
X18480Y16382D01*
X21050Y14898D01*
X23916Y14130D01*
X26884D01*
X29750Y14898D01*
X32320Y16382D01*
X34418Y18480D01*
X35902Y21050D01*
X36670Y23916D01*
Y26884D01*
X35902Y29750D01*
X34418Y32320D01*
X32320Y34418D01*
X29750Y35902D01*
X26884Y36670D01*
D02*
G37*
G36*
X1484D02*
X-1484D01*
X-4350Y35902D01*
X-6920Y34418D01*
X-9018Y32320D01*
X-10502Y29750D01*
X-11270Y26884D01*
Y23916D01*
X-10502Y21050D01*
X-9018Y18480D01*
X-6920Y16382D01*
X-4350Y14898D01*
X-1484Y14130D01*
X1484D01*
X4350Y14898D01*
X6920Y16382D01*
X9018Y18480D01*
X10502Y21050D01*
X11270Y23916D01*
Y26884D01*
X10502Y29750D01*
X9018Y32320D01*
X6920Y34418D01*
X4350Y35902D01*
X1484Y36670D01*
D02*
G37*
G36*
X406400Y35267D02*
X403458Y34880D01*
X400716Y33744D01*
X398362Y31938D01*
X396556Y29584D01*
X395420Y26842D01*
X395033Y23900D01*
Y15900D01*
X395420Y12958D01*
X395527Y12700D01*
X395420Y12442D01*
X395033Y9500D01*
Y1500D01*
X395420Y-1442D01*
X396556Y-4184D01*
X398362Y-6538D01*
X400716Y-8344D01*
X403458Y-9480D01*
X406400Y-9867D01*
X409342Y-9480D01*
X412084Y-8344D01*
X414438Y-6538D01*
X416244Y-4184D01*
X417380Y-1442D01*
X417767Y1500D01*
Y9500D01*
X417380Y12442D01*
X417273Y12700D01*
X417380Y12958D01*
X417767Y15900D01*
Y23900D01*
X417380Y26842D01*
X416244Y29584D01*
X414438Y31938D01*
X412084Y33744D01*
X409342Y34880D01*
X406400Y35267D01*
D02*
G37*
G36*
X381000Y36667D02*
X378058Y36280D01*
X375316Y35144D01*
X372962Y33338D01*
X371156Y30984D01*
X370020Y28242D01*
X369633Y25300D01*
Y15300D01*
X369975Y12700D01*
X369633Y10100D01*
Y100D01*
X370020Y-2842D01*
X371156Y-5584D01*
X372962Y-7938D01*
X375316Y-9744D01*
X378058Y-10880D01*
X381000Y-11267D01*
X383942Y-10880D01*
X386684Y-9744D01*
X389038Y-7938D01*
X390844Y-5584D01*
X391980Y-2842D01*
X392367Y100D01*
Y10100D01*
X392025Y12700D01*
X392367Y15300D01*
Y25300D01*
X391980Y28242D01*
X390844Y30984D01*
X389038Y33338D01*
X386684Y35144D01*
X383942Y36280D01*
X381000Y36667D01*
D02*
G37*
G36*
X26884Y11270D02*
X23916D01*
X21050Y10502D01*
X18480Y9018D01*
X16382Y6920D01*
X14898Y4350D01*
X14130Y1484D01*
Y-1484D01*
X14898Y-4350D01*
X16382Y-6920D01*
X18480Y-9018D01*
X21050Y-10502D01*
X23916Y-11270D01*
X26884D01*
X29750Y-10502D01*
X32320Y-9018D01*
X34418Y-6920D01*
X35902Y-4350D01*
X36670Y-1484D01*
Y1484D01*
X35902Y4350D01*
X34418Y6920D01*
X32320Y9018D01*
X29750Y10502D01*
X26884Y11270D01*
D02*
G37*
G36*
X1484D02*
X-1484D01*
X-4350Y10502D01*
X-6920Y9018D01*
X-9018Y6920D01*
X-10502Y4350D01*
X-11270Y1484D01*
Y-1484D01*
X-10502Y-4350D01*
X-9018Y-6920D01*
X-6920Y-9018D01*
X-4350Y-10502D01*
X-1484Y-11270D01*
X1484D01*
X4350Y-10502D01*
X6920Y-9018D01*
X9018Y-6920D01*
X10502Y-4350D01*
X11270Y-1484D01*
Y1484D01*
X10502Y4350D01*
X9018Y6920D01*
X6920Y9018D01*
X4350Y10502D01*
X1484Y11270D01*
D02*
G37*
G36*
Y-14130D02*
X-1484D01*
X-4350Y-14898D01*
X-6920Y-16382D01*
X-9018Y-18480D01*
X-10502Y-21050D01*
X-11270Y-23916D01*
Y-26884D01*
X-10502Y-29750D01*
X-9018Y-32320D01*
X-6920Y-34418D01*
X-4350Y-35902D01*
X-1484Y-36670D01*
X1484D01*
X4350Y-35902D01*
X6920Y-34418D01*
X9018Y-32320D01*
X10502Y-29750D01*
X11067Y-27642D01*
X25717D01*
X25828Y-27702D01*
X25856Y-27694D01*
X25881Y-27707D01*
X26037Y-27717D01*
X26114Y-27731D01*
X26207Y-27761D01*
X26318Y-27810D01*
X26449Y-27885D01*
X26598Y-27988D01*
X26763Y-28123D01*
X26943Y-28293D01*
X27134Y-28496D01*
X27357Y-28761D01*
X27596Y-28885D01*
X28331Y-29620D01*
X29901Y-30270D01*
X31599D01*
X33169Y-29620D01*
X34370Y-28419D01*
X35020Y-26849D01*
Y-25151D01*
X34370Y-23581D01*
X33169Y-22380D01*
X31599Y-21730D01*
X29901D01*
X28331Y-22380D01*
X28135Y-22576D01*
X27966Y-22626D01*
X27673Y-22861D01*
X27133Y-23248D01*
X26917Y-23381D01*
X26710Y-23493D01*
X26529Y-23576D01*
X26376Y-23633D01*
X26252Y-23668D01*
X26161Y-23684D01*
X26015Y-23693D01*
X25883Y-23758D01*
X11228D01*
X10502Y-21050D01*
X9018Y-18480D01*
X6920Y-16382D01*
X4350Y-14898D01*
X1484Y-14130D01*
D02*
G37*
G36*
Y-39530D02*
X-1484D01*
X-4350Y-40298D01*
X-6920Y-41782D01*
X-9018Y-43880D01*
X-10502Y-46450D01*
X-11270Y-49316D01*
Y-52284D01*
X-10502Y-55150D01*
X-9018Y-57720D01*
X-6920Y-59818D01*
X-4350Y-61302D01*
X-1484Y-62070D01*
X1484D01*
X4350Y-61302D01*
X6920Y-59818D01*
X9018Y-57720D01*
X10502Y-55150D01*
X11221Y-52467D01*
X40874D01*
X41007Y-52532D01*
X41154Y-52541D01*
X41244Y-52557D01*
X41366Y-52591D01*
X41519Y-52649D01*
X41698Y-52732D01*
X41901Y-52843D01*
X42114Y-52976D01*
X42650Y-53365D01*
X42938Y-53601D01*
X43116Y-53655D01*
X43331Y-53870D01*
X44901Y-54520D01*
X46599D01*
X48169Y-53870D01*
X49370Y-52669D01*
X50020Y-51099D01*
Y-49401D01*
X49370Y-47831D01*
X48169Y-46630D01*
X46599Y-45980D01*
X44901D01*
X43331Y-46630D01*
X42624Y-47337D01*
X42380Y-47461D01*
X42154Y-47725D01*
X41959Y-47929D01*
X41777Y-48099D01*
X41609Y-48235D01*
X41458Y-48339D01*
X41325Y-48414D01*
X41212Y-48464D01*
X41118Y-48493D01*
X41040Y-48508D01*
X40884Y-48518D01*
X40864Y-48528D01*
X40843Y-48521D01*
X40727Y-48583D01*
X11073D01*
X10502Y-46450D01*
X9018Y-43880D01*
X6920Y-41782D01*
X4350Y-40298D01*
X1484Y-39530D01*
D02*
G37*
G36*
X406400Y-15533D02*
X403458Y-15920D01*
X400716Y-17056D01*
X398362Y-18862D01*
X396556Y-21216D01*
X395420Y-23958D01*
X395033Y-26900D01*
Y-34900D01*
X395420Y-37842D01*
X395527Y-38100D01*
X395420Y-38358D01*
X395033Y-41300D01*
Y-49300D01*
X395420Y-52242D01*
X396556Y-54984D01*
X398362Y-57338D01*
X400716Y-59144D01*
X403458Y-60280D01*
X406400Y-60667D01*
X409342Y-60280D01*
X412084Y-59144D01*
X414438Y-57338D01*
X416244Y-54984D01*
X417380Y-52242D01*
X417767Y-49300D01*
Y-41300D01*
X417380Y-38358D01*
X417273Y-38100D01*
X417380Y-37842D01*
X417767Y-34900D01*
Y-26900D01*
X417380Y-23958D01*
X416244Y-21216D01*
X414438Y-18862D01*
X412084Y-17056D01*
X409342Y-15920D01*
X406400Y-15533D01*
D02*
G37*
G36*
X381000Y-14133D02*
X378058Y-14520D01*
X375316Y-15656D01*
X372962Y-17462D01*
X371156Y-19816D01*
X370020Y-22558D01*
X369633Y-25500D01*
Y-35500D01*
X369975Y-38100D01*
X369633Y-40700D01*
Y-50700D01*
X370020Y-53642D01*
X371156Y-56384D01*
X372962Y-58738D01*
X375316Y-60544D01*
X378058Y-61680D01*
X381000Y-62067D01*
X383942Y-61680D01*
X386684Y-60544D01*
X389038Y-58738D01*
X390844Y-56384D01*
X391980Y-53642D01*
X392367Y-50700D01*
Y-40700D01*
X392025Y-38100D01*
X392367Y-35500D01*
Y-25500D01*
X391980Y-22558D01*
X390844Y-19816D01*
X389038Y-17462D01*
X386684Y-15656D01*
X383942Y-14520D01*
X381000Y-14133D01*
D02*
G37*
G36*
X381635Y-65016D02*
Y-80665D01*
X392367D01*
Y-76300D01*
X391980Y-73358D01*
X390844Y-70616D01*
X389038Y-68262D01*
X386684Y-66456D01*
X383942Y-65320D01*
X381635Y-65016D01*
D02*
G37*
G36*
X380365D02*
X378058Y-65320D01*
X375316Y-66456D01*
X372962Y-68262D01*
X371156Y-70616D01*
X370020Y-73358D01*
X369633Y-76300D01*
Y-80665D01*
X380365D01*
Y-65016D01*
D02*
G37*
G36*
X407035Y-66416D02*
Y-81065D01*
X417767D01*
Y-77700D01*
X417380Y-74758D01*
X416244Y-72016D01*
X414438Y-69662D01*
X412084Y-67856D01*
X409342Y-66720D01*
X407035Y-66416D01*
D02*
G37*
G36*
X405765D02*
X403458Y-66720D01*
X400716Y-67856D01*
X398362Y-69662D01*
X396556Y-72016D01*
X395420Y-74758D01*
X395033Y-77700D01*
Y-81065D01*
X405765D01*
Y-66416D01*
D02*
G37*
G36*
X417767Y-82335D02*
X395033D01*
Y-85700D01*
X395420Y-88642D01*
X395527Y-88900D01*
X395420Y-89158D01*
X395033Y-92100D01*
Y-95465D01*
X417767D01*
Y-92100D01*
X417380Y-89158D01*
X417273Y-88900D01*
X417380Y-88642D01*
X417767Y-85700D01*
Y-82335D01*
D02*
G37*
G36*
X392367Y-81935D02*
X381000D01*
X369633D01*
Y-86300D01*
X369975Y-88900D01*
X369633Y-91500D01*
Y-95865D01*
X381000D01*
X392367D01*
Y-91500D01*
X392025Y-88900D01*
X392367Y-86300D01*
Y-81935D01*
D02*
G37*
G36*
X218416Y175750D02*
X214216D01*
Y-101750D01*
X218416D01*
Y175750D01*
D02*
G37*
G36*
X417767Y-96735D02*
X407035D01*
Y-111384D01*
X409342Y-111080D01*
X412084Y-109944D01*
X414438Y-108138D01*
X416244Y-105784D01*
X417380Y-103042D01*
X417767Y-100100D01*
Y-96735D01*
D02*
G37*
G36*
X405765D02*
X395033D01*
Y-100100D01*
X395420Y-103042D01*
X396556Y-105784D01*
X398362Y-108138D01*
X400716Y-109944D01*
X403458Y-111080D01*
X405765Y-111384D01*
Y-96735D01*
D02*
G37*
G36*
X392367Y-97135D02*
X381635D01*
Y-112784D01*
X383942Y-112480D01*
X386684Y-111344D01*
X389038Y-109538D01*
X390844Y-107184D01*
X391980Y-104442D01*
X392367Y-101500D01*
Y-97135D01*
D02*
G37*
G36*
X380365D02*
X369633D01*
Y-101500D01*
X370020Y-104442D01*
X371156Y-107184D01*
X372962Y-109538D01*
X375316Y-111344D01*
X378058Y-112480D01*
X380365Y-112784D01*
Y-97135D01*
D02*
G37*
G36*
X103084Y-90330D02*
X100116D01*
X97250Y-91098D01*
X94680Y-92582D01*
X92582Y-94680D01*
X91098Y-97250D01*
X90330Y-100116D01*
Y-103084D01*
X91098Y-105950D01*
X92582Y-108520D01*
X94680Y-110618D01*
X97250Y-112102D01*
X100116Y-112870D01*
X103084D01*
X105950Y-112102D01*
X108520Y-110618D01*
X110618Y-108520D01*
X112102Y-105950D01*
X112870Y-103084D01*
Y-100116D01*
X112102Y-97250D01*
X110618Y-94680D01*
X108520Y-92582D01*
X105950Y-91098D01*
X103084Y-90330D01*
D02*
G37*
G36*
X77684D02*
X74716D01*
X71850Y-91098D01*
X69280Y-92582D01*
X67182Y-94680D01*
X65698Y-97250D01*
X64930Y-100116D01*
Y-103084D01*
X65698Y-105950D01*
X67182Y-108520D01*
X69280Y-110618D01*
X71850Y-112102D01*
X74716Y-112870D01*
X77684D01*
X80550Y-112102D01*
X83120Y-110618D01*
X85218Y-108520D01*
X86702Y-105950D01*
X87470Y-103084D01*
Y-100116D01*
X86702Y-97250D01*
X85218Y-94680D01*
X83120Y-92582D01*
X80550Y-91098D01*
X77684Y-90330D01*
D02*
G37*
G36*
X52284D02*
X49316D01*
X46450Y-91098D01*
X43880Y-92582D01*
X41782Y-94680D01*
X40298Y-97250D01*
X39530Y-100116D01*
Y-103084D01*
X40298Y-105950D01*
X41782Y-108520D01*
X43880Y-110618D01*
X46450Y-112102D01*
X49316Y-112870D01*
X52284D01*
X55150Y-112102D01*
X57720Y-110618D01*
X59818Y-108520D01*
X61302Y-105950D01*
X62070Y-103084D01*
Y-100116D01*
X61302Y-97250D01*
X59818Y-94680D01*
X57720Y-92582D01*
X55150Y-91098D01*
X52284Y-90330D01*
D02*
G37*
G36*
X26884D02*
X23916D01*
X21050Y-91098D01*
X18480Y-92582D01*
X16382Y-94680D01*
X14898Y-97250D01*
X14130Y-100116D01*
Y-103084D01*
X14898Y-105950D01*
X16382Y-108520D01*
X18480Y-110618D01*
X21050Y-112102D01*
X23916Y-112870D01*
X26884D01*
X29750Y-112102D01*
X32320Y-110618D01*
X34418Y-108520D01*
X35902Y-105950D01*
X36670Y-103084D01*
Y-100116D01*
X35902Y-97250D01*
X34418Y-94680D01*
X32320Y-92582D01*
X29750Y-91098D01*
X26884Y-90330D01*
D02*
G37*
%LPD*%
G36*
X28408Y-27875D02*
X28162Y-27583D01*
X27916Y-27321D01*
X27671Y-27090D01*
X27426Y-26890D01*
X27182Y-26720D01*
X26938Y-26581D01*
X26695Y-26474D01*
X26452Y-26397D01*
X26210Y-26350D01*
X25969Y-26335D01*
X26099Y-25065D01*
X26323Y-25051D01*
X26557Y-25010D01*
X26802Y-24942D01*
X27058Y-24846D01*
X27326Y-24723D01*
X27604Y-24572D01*
X27894Y-24394D01*
X28506Y-23956D01*
X28828Y-23696D01*
X28408Y-27875D01*
D02*
G37*
G36*
X43809Y-52537D02*
X43490Y-52276D01*
X42883Y-51835D01*
X42595Y-51656D01*
X42318Y-51504D01*
X42051Y-51380D01*
X41796Y-51284D01*
X41550Y-51215D01*
X41315Y-51174D01*
X41091Y-51160D01*
X40972Y-49890D01*
X41213Y-49875D01*
X41455Y-49829D01*
X41697Y-49752D01*
X41941Y-49644D01*
X42186Y-49506D01*
X42432Y-49338D01*
X42678Y-49138D01*
X42926Y-48908D01*
X43175Y-48647D01*
X43424Y-48355D01*
X43809Y-52537D01*
D02*
G37*
D38*
X300Y-25700D02*
X30450D01*
X30750Y-26000D01*
X0Y-25400D02*
X300Y-25700D01*
X275Y-50525D02*
X45475D01*
X0Y-50800D02*
X275Y-50525D01*
X45475D02*
X45750Y-50250D01*
X101525Y-101525D02*
X101600Y-101600D01*
D41*
X25400Y152400D02*
D03*
Y127000D02*
D03*
Y101600D02*
D03*
Y76200D02*
D03*
Y50800D02*
D03*
Y25400D02*
D03*
Y0D02*
D03*
Y-101600D02*
D03*
X50800D02*
D03*
X76200D02*
D03*
X101600D02*
D03*
X0Y101600D02*
D03*
Y-50800D02*
D03*
Y25400D02*
D03*
Y50800D02*
D03*
Y76200D02*
D03*
Y-25400D02*
D03*
Y0D02*
D03*
D42*
X381000Y172700D02*
D03*
Y157500D02*
D03*
Y121900D02*
D03*
Y106700D02*
D03*
Y71100D02*
D03*
Y55900D02*
D03*
Y20300D02*
D03*
Y5100D02*
D03*
Y-30500D02*
D03*
Y-45700D02*
D03*
Y-81300D02*
D03*
Y-96500D02*
D03*
D43*
X406400Y157900D02*
D03*
Y172300D02*
D03*
Y5500D02*
D03*
Y-45300D02*
D03*
Y-30900D02*
D03*
Y121500D02*
D03*
Y107100D02*
D03*
Y56300D02*
D03*
Y70700D02*
D03*
Y19900D02*
D03*
Y-96100D02*
D03*
Y-81700D02*
D03*
D44*
X0Y127000D02*
D03*
D45*
X422450Y170800D02*
D03*
Y145400D02*
D03*
Y120000D02*
D03*
Y94600D02*
D03*
Y69200D02*
D03*
Y43800D02*
D03*
Y18400D02*
D03*
Y-7000D02*
D03*
Y-32400D02*
D03*
Y-57800D02*
D03*
Y-83200D02*
D03*
Y-108600D02*
D03*
X365300Y183500D02*
D03*
Y132700D02*
D03*
X358950Y120000D02*
D03*
X365300Y81900D02*
D03*
X358950Y43800D02*
D03*
X365300Y31100D02*
D03*
X358950Y18400D02*
D03*
Y-7000D02*
D03*
X365300Y-19700D02*
D03*
X358950Y-57800D02*
D03*
X365300Y-70500D02*
D03*
X358950Y-83200D02*
D03*
X365300Y-95900D02*
D03*
X358950Y-108600D02*
D03*
X346250Y170800D02*
D03*
X352600Y132700D02*
D03*
X346250Y120000D02*
D03*
X352600Y81900D02*
D03*
X346250Y69200D02*
D03*
Y43800D02*
D03*
X352600Y31100D02*
D03*
X346250Y18400D02*
D03*
Y-7000D02*
D03*
Y-57800D02*
D03*
X352600Y-70500D02*
D03*
X346250Y-83200D02*
D03*
X352600Y-95900D02*
D03*
X346250Y-108600D02*
D03*
X333550Y170800D02*
D03*
X339900Y132700D02*
D03*
X333550Y120000D02*
D03*
Y69200D02*
D03*
Y43800D02*
D03*
X339900Y31100D02*
D03*
X333550Y18400D02*
D03*
X339900Y-19700D02*
D03*
X333550Y-57800D02*
D03*
X339900Y-70500D02*
D03*
X333550Y-83200D02*
D03*
X339900Y-95900D02*
D03*
X333550Y-108600D02*
D03*
X327200Y183500D02*
D03*
X320850Y170800D02*
D03*
X327200Y132700D02*
D03*
X320850Y120000D02*
D03*
Y69200D02*
D03*
Y43800D02*
D03*
X327200Y31100D02*
D03*
X320850Y18400D02*
D03*
Y-7000D02*
D03*
X327200Y-19700D02*
D03*
X320850Y-57800D02*
D03*
X327200Y-70500D02*
D03*
X320850Y-83200D02*
D03*
X327200Y-95900D02*
D03*
X320850Y-108600D02*
D03*
X314500Y183500D02*
D03*
X308150Y170800D02*
D03*
X314500Y132700D02*
D03*
X308150Y120000D02*
D03*
Y69200D02*
D03*
Y43800D02*
D03*
X314500Y31100D02*
D03*
X308150Y18400D02*
D03*
Y-7000D02*
D03*
Y-57800D02*
D03*
X314500Y-70500D02*
D03*
X308150Y-83200D02*
D03*
X314500Y-95900D02*
D03*
X308150Y-108600D02*
D03*
X301800Y183500D02*
D03*
X295450Y170800D02*
D03*
Y145400D02*
D03*
X301800Y132700D02*
D03*
X295450Y120000D02*
D03*
X301800Y81900D02*
D03*
X295450Y69200D02*
D03*
Y43800D02*
D03*
X301800Y31100D02*
D03*
X295450Y18400D02*
D03*
Y-7000D02*
D03*
X301800Y-19700D02*
D03*
X295450Y-57800D02*
D03*
X301800Y-70500D02*
D03*
X295450Y-83200D02*
D03*
X301800Y-95900D02*
D03*
X295450Y-108600D02*
D03*
X289100Y183500D02*
D03*
X282750Y170800D02*
D03*
X289100Y132700D02*
D03*
X282750Y120000D02*
D03*
X289100Y81900D02*
D03*
X282750Y69200D02*
D03*
Y43800D02*
D03*
X289100Y31100D02*
D03*
X282750Y18400D02*
D03*
Y-7000D02*
D03*
X289100Y-19700D02*
D03*
X282750Y-57800D02*
D03*
X289100Y-70500D02*
D03*
X282750Y-83200D02*
D03*
X289100Y-95900D02*
D03*
X282750Y-108600D02*
D03*
X276400Y183500D02*
D03*
X270050Y170800D02*
D03*
X276400Y132700D02*
D03*
X270050Y120000D02*
D03*
X276400Y107300D02*
D03*
Y81900D02*
D03*
Y56500D02*
D03*
X270050Y43800D02*
D03*
X276400Y31100D02*
D03*
X270050Y18400D02*
D03*
X276400Y5700D02*
D03*
Y-19700D02*
D03*
Y-45100D02*
D03*
X270050Y-57800D02*
D03*
X276400Y-70500D02*
D03*
X270050Y-83200D02*
D03*
X276400Y-95900D02*
D03*
X270050Y-108600D02*
D03*
X263700Y183500D02*
D03*
X257350Y170800D02*
D03*
X263700Y132700D02*
D03*
X257350Y120000D02*
D03*
Y43800D02*
D03*
X263700Y31100D02*
D03*
X257350Y18400D02*
D03*
Y-57800D02*
D03*
X263700Y-70500D02*
D03*
X257350Y-83200D02*
D03*
X263700Y-95900D02*
D03*
X257350Y-108600D02*
D03*
X251000Y183500D02*
D03*
X244650Y170800D02*
D03*
Y145400D02*
D03*
X251000Y132700D02*
D03*
X244650Y120000D02*
D03*
Y43800D02*
D03*
X251000Y31100D02*
D03*
X244650Y18400D02*
D03*
Y-57800D02*
D03*
X251000Y-70500D02*
D03*
X244650Y-83200D02*
D03*
X251000Y-95900D02*
D03*
X244650Y-108600D02*
D03*
X238300Y183500D02*
D03*
X231950Y170800D02*
D03*
X238300Y132700D02*
D03*
X231950Y120000D02*
D03*
Y43800D02*
D03*
Y-57800D02*
D03*
X238300Y-70500D02*
D03*
X231950Y-83200D02*
D03*
X238300Y-95900D02*
D03*
X231950Y-108600D02*
D03*
X225600Y183500D02*
D03*
Y158100D02*
D03*
Y132700D02*
D03*
Y-70500D02*
D03*
Y-95900D02*
D03*
X219250Y-108600D02*
D03*
X212900Y183500D02*
D03*
X206550Y170800D02*
D03*
Y145400D02*
D03*
Y120000D02*
D03*
Y43800D02*
D03*
Y18400D02*
D03*
Y-57800D02*
D03*
Y-83200D02*
D03*
Y-108600D02*
D03*
X200200Y183500D02*
D03*
X193850Y170800D02*
D03*
X200200Y158100D02*
D03*
X193850Y145400D02*
D03*
X200200Y132700D02*
D03*
X193850Y120000D02*
D03*
Y94600D02*
D03*
Y43800D02*
D03*
Y-7000D02*
D03*
Y-32400D02*
D03*
Y-57800D02*
D03*
X200200Y-70500D02*
D03*
X193850Y-83200D02*
D03*
X200200Y-95900D02*
D03*
X193850Y-108600D02*
D03*
X187500Y183500D02*
D03*
X181150Y170800D02*
D03*
X187500Y158100D02*
D03*
X181150Y145400D02*
D03*
X187500Y132700D02*
D03*
X181150Y120000D02*
D03*
X187500Y107300D02*
D03*
Y-19700D02*
D03*
X181150Y-32400D02*
D03*
X187500Y-45100D02*
D03*
X181150Y-57800D02*
D03*
X187500Y-70500D02*
D03*
X181150Y-83200D02*
D03*
X187500Y-95900D02*
D03*
X181150Y-108600D02*
D03*
X174800Y183500D02*
D03*
X168450Y170800D02*
D03*
X174800Y158100D02*
D03*
Y132700D02*
D03*
X168450Y120000D02*
D03*
Y-32400D02*
D03*
X174800Y-45100D02*
D03*
X168450Y-57800D02*
D03*
X174800Y-70500D02*
D03*
X168450Y-83200D02*
D03*
X174800Y-95900D02*
D03*
X168450Y-108600D02*
D03*
X162100Y183500D02*
D03*
X155750Y170800D02*
D03*
X162100Y158100D02*
D03*
X155750Y145400D02*
D03*
X162100Y132700D02*
D03*
X155750Y120000D02*
D03*
Y-32400D02*
D03*
X162100Y-45100D02*
D03*
X155750Y-57800D02*
D03*
X162100Y-70500D02*
D03*
X155750Y-83200D02*
D03*
X162100Y-95900D02*
D03*
X155750Y-108600D02*
D03*
X149400Y183500D02*
D03*
X143050Y170800D02*
D03*
X149400Y132700D02*
D03*
X143050Y120000D02*
D03*
X149400Y107300D02*
D03*
X143050Y94600D02*
D03*
X149400Y31100D02*
D03*
X143050Y-7000D02*
D03*
X149400Y-19700D02*
D03*
X143050Y-32400D02*
D03*
X149400Y-45100D02*
D03*
X143050Y-57800D02*
D03*
X149400Y-70500D02*
D03*
X143050Y-83200D02*
D03*
X149400Y-95900D02*
D03*
X143050Y-108600D02*
D03*
X136700Y183500D02*
D03*
X130350Y170800D02*
D03*
X136700Y132700D02*
D03*
X130350Y120000D02*
D03*
X136700Y107300D02*
D03*
X130350Y94600D02*
D03*
Y-7000D02*
D03*
X136700Y-19700D02*
D03*
X130350Y-32400D02*
D03*
X136700Y-45100D02*
D03*
X130350Y-57800D02*
D03*
X136700Y-70500D02*
D03*
X130350Y-83200D02*
D03*
X136700Y-95900D02*
D03*
X130350Y-108600D02*
D03*
X124000Y183500D02*
D03*
X117650Y170800D02*
D03*
X124000Y132700D02*
D03*
X117650Y120000D02*
D03*
X124000Y107300D02*
D03*
X117650Y94600D02*
D03*
Y-7000D02*
D03*
X124000Y-19700D02*
D03*
X117650Y-32400D02*
D03*
X124000Y-45100D02*
D03*
X117650Y-57800D02*
D03*
X124000Y-70500D02*
D03*
X117650Y-83200D02*
D03*
X124000Y-95900D02*
D03*
X117650Y-108600D02*
D03*
X111300Y183500D02*
D03*
X104950Y170800D02*
D03*
Y145400D02*
D03*
X111300Y132700D02*
D03*
Y56500D02*
D03*
Y31100D02*
D03*
Y-19700D02*
D03*
Y-45100D02*
D03*
Y-70500D02*
D03*
X98600Y183500D02*
D03*
X92250Y170800D02*
D03*
X98600Y132700D02*
D03*
Y81900D02*
D03*
X92250Y18400D02*
D03*
Y-7000D02*
D03*
Y-32400D02*
D03*
Y-57800D02*
D03*
Y-83200D02*
D03*
X85900Y183500D02*
D03*
X79550Y170800D02*
D03*
Y120000D02*
D03*
Y94600D02*
D03*
X85900Y31100D02*
D03*
Y5700D02*
D03*
Y-19700D02*
D03*
Y-45100D02*
D03*
Y-70500D02*
D03*
X73200Y183500D02*
D03*
X66850Y170800D02*
D03*
X73200Y132700D02*
D03*
X66850Y120000D02*
D03*
X73200Y107300D02*
D03*
X66850Y94600D02*
D03*
Y-7000D02*
D03*
Y-32400D02*
D03*
Y-57800D02*
D03*
Y-83200D02*
D03*
X60500Y183500D02*
D03*
X54150Y170800D02*
D03*
X60500Y132700D02*
D03*
X54150Y120000D02*
D03*
X60500Y107300D02*
D03*
X54150Y94600D02*
D03*
Y43800D02*
D03*
X60500Y-19700D02*
D03*
Y-45100D02*
D03*
Y-70500D02*
D03*
X47800Y183500D02*
D03*
X41450Y170800D02*
D03*
X47800Y132700D02*
D03*
X41450Y120000D02*
D03*
X47800Y107300D02*
D03*
X41450Y94600D02*
D03*
Y-57800D02*
D03*
Y-83200D02*
D03*
X35100Y183500D02*
D03*
X28750Y170800D02*
D03*
X35100Y-45100D02*
D03*
Y-70500D02*
D03*
X22400Y183500D02*
D03*
X16050Y170800D02*
D03*
Y-32400D02*
D03*
Y-57800D02*
D03*
Y-83200D02*
D03*
X9700Y183500D02*
D03*
X3350Y170800D02*
D03*
X9700Y158100D02*
D03*
X3350Y145400D02*
D03*
X9700Y-70500D02*
D03*
X3350Y-83200D02*
D03*
X9700Y-95900D02*
D03*
X3350Y-108600D02*
D03*
X-3000Y183500D02*
D03*
X-9350Y170800D02*
D03*
X-3000Y158100D02*
D03*
X-9350Y145400D02*
D03*
X-3000Y-70500D02*
D03*
X-9350Y-83200D02*
D03*
X-3000Y-95900D02*
D03*
X-9350Y-108600D02*
D03*
X30750Y-26000D02*
D03*
X45750Y-50250D02*
D03*
X170636Y152020D02*
D03*
X144625Y39375D02*
D03*
X105700Y125700D02*
D03*
X192680Y65720D02*
D03*
X192680Y22220D02*
D03*
X192680Y79720D02*
D03*
X192700Y7700D02*
D03*
D46*
X313150Y-17860D02*
D03*
X234930Y152970D02*
D03*
X310610Y78660D02*
D03*
X346700Y185450D02*
D03*
M02*
