G04*
G04 #@! TF.GenerationSoftware,Altium Limited,Altium Designer,22.5.1 (42)*
G04*
G04 Layer_Color=2752767*
%FSLAX44Y44*%
%MOMM*%
G71*
G04*
G04 #@! TF.SameCoordinates,379B5DB5-20BB-4147-B996-229858156FAD*
G04*
G04*
G04 #@! TF.FilePolarity,Positive*
G04*
G01*
G75*
%ADD39C,0.0508*%
%ADD40C,0.0677*%
D39*
X401018Y17668D02*
Y21732D01*
X405082D01*
Y17668D01*
X401018D01*
Y43068D02*
Y47132D01*
X405082D01*
Y43068D01*
X401018D01*
Y68468D02*
Y72532D01*
X405082D01*
Y68468D01*
X401018D01*
Y93868D02*
Y97932D01*
X405082D01*
Y93868D01*
X401018D01*
Y119268D02*
Y123332D01*
X405082D01*
Y119268D01*
X401018D01*
Y144668D02*
Y148732D01*
X405082D01*
Y144668D01*
X401018D01*
Y170068D02*
Y174132D01*
X405082D01*
Y170068D01*
X401018D01*
Y195468D02*
Y199532D01*
X405082D01*
Y195468D01*
X401018D01*
Y220868D02*
Y224932D01*
X405082D01*
Y220868D01*
X401018D01*
Y246268D02*
Y250332D01*
X405082D01*
Y246268D01*
X401018D01*
Y271668D02*
Y275732D01*
X405082D01*
Y271668D01*
X401018D01*
Y297068D02*
Y301132D01*
X405082D01*
Y297068D01*
X401018D01*
X45418Y17668D02*
Y21732D01*
X49482D01*
Y17668D01*
X45418D01*
X70818D02*
Y21732D01*
X74882D01*
Y17668D01*
X70818D01*
X96218D02*
Y21732D01*
X100282D01*
Y17668D01*
X96218D01*
X121618D02*
Y21732D01*
X125682D01*
Y17668D01*
X121618D01*
X45418Y271668D02*
Y275732D01*
X49482D01*
Y271668D01*
X45418D01*
Y246268D02*
Y250332D01*
X49482D01*
Y246268D01*
X45418D01*
Y220868D02*
Y224932D01*
X49482D01*
Y220868D01*
X45418D01*
Y195468D02*
Y199532D01*
X49482D01*
Y195468D01*
X45418D01*
Y170068D02*
Y174132D01*
X49482D01*
Y170068D01*
X45418D01*
Y144668D02*
Y148732D01*
X49482D01*
Y144668D01*
X45418D01*
Y119268D02*
Y123332D01*
X49482D01*
Y119268D01*
X45418D01*
D40*
X24082Y248300D02*
G03*
X24082Y248300I-2032J0D01*
G01*
Y121300D02*
G03*
X24082Y121300I-2032J0D01*
G01*
Y95900D02*
G03*
X24082Y95900I-2032J0D01*
G01*
Y197500D02*
G03*
X24082Y197500I-2032J0D01*
G01*
Y172100D02*
G03*
X24082Y172100I-2032J0D01*
G01*
Y146700D02*
G03*
X24082Y146700I-2032J0D01*
G01*
Y70500D02*
G03*
X24082Y70500I-2032J0D01*
G01*
Y222900D02*
G03*
X24082Y222900I-2032J0D01*
G01*
X430482Y45100D02*
G03*
X430482Y45100I-2032J0D01*
G01*
Y19700D02*
G03*
X430482Y19700I-2032J0D01*
G01*
Y146700D02*
G03*
X430482Y146700I-2032J0D01*
G01*
Y197500D02*
G03*
X430482Y197500I-2032J0D01*
G01*
Y172100D02*
G03*
X430482Y172100I-2032J0D01*
G01*
Y222900D02*
G03*
X430482Y222900I-2032J0D01*
G01*
Y248300D02*
G03*
X430482Y248300I-2032J0D01*
G01*
Y95900D02*
G03*
X430482Y95900I-2032J0D01*
G01*
Y70500D02*
G03*
X430482Y70500I-2032J0D01*
G01*
Y121300D02*
G03*
X430482Y121300I-2032J0D01*
G01*
Y299100D02*
G03*
X430482Y299100I-2032J0D01*
G01*
Y273700D02*
G03*
X430482Y273700I-2032J0D01*
G01*
M02*
