G04*
G04 #@! TF.GenerationSoftware,Altium Limited,Altium Designer,22.6.1 (34)*
G04*
G04 Layer_Color=32896*
%FSLAX44Y44*%
%MOMM*%
G71*
G04*
G04 #@! TF.SameCoordinates,1BA94AFE-F389-4845-A448-9423F8A8FC82*
G04*
G04*
G04 #@! TF.FilePolarity,Positive*
G04*
G01*
G75*
%ADD14C,0.1000*%
G36*
X-333165Y-242575D02*
X-336975D01*
Y-238765D01*
X-333165Y-242575D01*
D02*
G37*
G36*
X-335275Y34315D02*
Y38125D01*
X-331465D01*
X-335275Y34315D01*
D02*
G37*
G36*
X20325Y59715D02*
Y63525D01*
X24135D01*
X20325Y59715D01*
D02*
G37*
D14*
X26675Y63525D02*
X45325D01*
Y-244275D02*
Y63525D01*
X20325Y-244275D02*
Y57175D01*
X26675Y63525D01*
X20325Y59715D02*
X24135Y63525D01*
X20325D02*
X24135D01*
X20325Y59715D02*
Y63525D01*
Y-244275D02*
X45325D01*
X-335275Y34315D02*
Y38125D01*
X-331465D01*
X-335275Y34315D02*
X-331465Y38125D01*
X-335275Y31775D02*
X-328925Y38125D01*
X-335275Y-142675D02*
Y31775D01*
X-310275Y-142675D02*
Y38125D01*
X-328925D02*
X-310275D01*
X-335275Y-142675D02*
X-310275D01*
X-336975Y-242575D02*
X-333165D01*
X-336975D02*
Y-238765D01*
X-333165Y-242575D01*
X-336975Y-236225D02*
X-330625Y-242575D01*
X-232375D01*
X-336975Y-217575D02*
X-232375D01*
X-336975Y-236225D02*
Y-217575D01*
X-232375Y-242575D02*
Y-217575D01*
X-328843Y39276D02*
Y44274D01*
X-331342D01*
X-332175Y43441D01*
Y41775D01*
X-331342Y40942D01*
X-328843D01*
X-333841Y39276D02*
X-335507D01*
X-334674D01*
Y44274D01*
X-333841Y43441D01*
X18390Y58626D02*
Y63624D01*
X15891D01*
X15058Y62791D01*
Y61125D01*
X15891Y60292D01*
X18390D01*
X10060Y58626D02*
X13392D01*
X10060Y61958D01*
Y62791D01*
X10893Y63624D01*
X12559D01*
X13392Y62791D01*
X-329010Y-216224D02*
Y-211226D01*
X-331509D01*
X-332342Y-212059D01*
Y-213725D01*
X-331509Y-214558D01*
X-329010D01*
X-334008Y-212059D02*
X-334841Y-211226D01*
X-336507D01*
X-337340Y-212059D01*
Y-212892D01*
X-336507Y-213725D01*
X-335674D01*
X-336507D01*
X-337340Y-214558D01*
Y-215391D01*
X-336507Y-216224D01*
X-334841D01*
X-334008Y-215391D01*
M02*
