G04*
G04 #@! TF.GenerationSoftware,Altium Limited,Altium Designer,22.5.1 (42)*
G04*
G04 Layer_Color=8388736*
%FSLAX44Y44*%
%MOMM*%
G71*
G04*
G04 #@! TF.SameCoordinates,A46AD673-58F9-48DA-A448-B45004F78B62*
G04*
G04*
G04 #@! TF.FilePolarity,Negative*
G04*
G01*
G75*
%ADD23O,2.1500X0.7500*%
%ADD24R,3.7500X2.0000*%
%ADD25R,1.1500X1.1000*%
%ADD26R,1.1000X1.1500*%
%ADD27R,1.2000X1.1500*%
%ADD28R,1.1000X1.0500*%
%ADD29R,6.5500X5.7000*%
%ADD30R,3.1500X1.4000*%
%ADD31C,2.1500*%
%ADD32O,2.1500X3.1500*%
%ADD33O,2.1500X2.9500*%
%ADD34R,2.1500X2.1500*%
%ADD35C,0.7500*%
%ADD36C,1.1500*%
D23*
X68250Y77600D02*
D03*
Y64900D02*
D03*
Y52200D02*
D03*
Y39500D02*
D03*
Y26800D02*
D03*
Y14100D02*
D03*
Y1400D02*
D03*
X127750Y64900D02*
D03*
Y52200D02*
D03*
Y39500D02*
D03*
Y26800D02*
D03*
Y14100D02*
D03*
Y1400D02*
D03*
Y77600D02*
D03*
D24*
X79980Y152020D02*
D03*
X132480D02*
D03*
X324000Y152950D02*
D03*
X271500D02*
D03*
D25*
X106000Y103450D02*
D03*
X91000D02*
D03*
D26*
X356500Y166700D02*
D03*
Y151700D02*
D03*
X333470Y86520D02*
D03*
Y101520D02*
D03*
X355675Y70975D02*
D03*
Y55975D02*
D03*
X334220Y-7400D02*
D03*
Y7600D02*
D03*
X355300Y-23300D02*
D03*
Y-38300D02*
D03*
D27*
X179020Y36720D02*
D03*
X164520D02*
D03*
X179020Y51720D02*
D03*
X164520D02*
D03*
X179020Y7720D02*
D03*
X164520D02*
D03*
X179020Y80720D02*
D03*
X164520D02*
D03*
D28*
X164020Y22220D02*
D03*
X178520D02*
D03*
X164020Y66220D02*
D03*
X178520D02*
D03*
Y-6780D02*
D03*
X164020D02*
D03*
X178520Y95220D02*
D03*
X164020D02*
D03*
D29*
X235950Y-15300D02*
D03*
Y78700D02*
D03*
D30*
X300450Y7600D02*
D03*
Y-38200D02*
D03*
Y101600D02*
D03*
Y55800D02*
D03*
D31*
X25400Y152400D02*
D03*
Y127000D02*
D03*
Y101600D02*
D03*
Y76200D02*
D03*
Y50800D02*
D03*
Y25400D02*
D03*
Y0D02*
D03*
Y-101600D02*
D03*
X50800D02*
D03*
X76200D02*
D03*
X101600D02*
D03*
X0Y101600D02*
D03*
Y-50800D02*
D03*
Y25400D02*
D03*
Y50800D02*
D03*
Y76200D02*
D03*
Y-25400D02*
D03*
Y0D02*
D03*
D32*
X381000Y172700D02*
D03*
Y157500D02*
D03*
Y121900D02*
D03*
Y106700D02*
D03*
Y71100D02*
D03*
Y55900D02*
D03*
Y20300D02*
D03*
Y5100D02*
D03*
Y-30500D02*
D03*
Y-45700D02*
D03*
Y-81300D02*
D03*
Y-96500D02*
D03*
D33*
X406400Y157900D02*
D03*
Y172300D02*
D03*
Y5500D02*
D03*
Y-45300D02*
D03*
Y-30900D02*
D03*
Y121500D02*
D03*
Y107100D02*
D03*
Y56300D02*
D03*
Y70700D02*
D03*
Y19900D02*
D03*
Y-96100D02*
D03*
Y-81700D02*
D03*
D34*
X0Y127000D02*
D03*
D35*
X170636Y152020D02*
D03*
D36*
X234930Y152970D02*
D03*
M02*
