G04*
G04 #@! TF.GenerationSoftware,Altium Limited,Altium Designer,22.5.1 (42)*
G04*
G04 Layer_Color=65535*
%FSLAX44Y44*%
%MOMM*%
G71*
G04*
G04 #@! TF.SameCoordinates,A46AD673-58F9-48DA-A448-B45004F78B62*
G04*
G04*
G04 #@! TF.FilePolarity,Positive*
G04*
G01*
G75*
%ADD10C,0.2500*%
%ADD11C,0.6000*%
%ADD12C,0.2000*%
%ADD13C,0.0500*%
%ADD14C,0.1000*%
G36*
X-8890Y194500D02*
X-19050Y184340D01*
Y194500D01*
X-8890D01*
D02*
G37*
G36*
X13250Y139390D02*
Y143200D01*
X9440D01*
X13250Y139390D01*
D02*
G37*
G36*
X419650Y190190D02*
Y194000D01*
X415840D01*
X419650Y190190D01*
D02*
G37*
D10*
X72000Y86100D02*
G03*
X72000Y86100I-1250J0D01*
G01*
X301700Y-49950D02*
G03*
X301700Y-49950I-1250J0D01*
G01*
Y44050D02*
G03*
X301700Y44050I-1250J0D01*
G01*
D11*
X95000Y73500D02*
G03*
X95000Y73500I-3000J0D01*
G01*
D12*
X82000Y-4500D02*
Y83500D01*
X114000Y-4500D02*
Y83500D01*
X82000D02*
X114000D01*
X82000Y-4500D02*
X114000D01*
X72230Y164270D02*
Y173645D01*
X84605Y186020D01*
X72230Y130395D02*
X84605Y118020D01*
X72230Y130395D02*
Y139770D01*
X84605Y186020D02*
X140230D01*
Y164270D02*
Y186020D01*
Y118020D02*
Y139770D01*
X84605Y118020D02*
X140230D01*
X331750Y131325D02*
Y140700D01*
X319375Y118950D02*
X331750Y131325D01*
X319375Y186950D02*
X331750Y174575D01*
Y165200D02*
Y174575D01*
X263750Y118950D02*
X319375D01*
X263750D02*
Y140700D01*
Y165200D02*
Y186950D01*
X319375D01*
X271950Y18200D02*
X280950D01*
Y-48800D02*
Y18200D01*
X271950Y-48800D02*
X280950D01*
X271950Y112200D02*
X280950D01*
Y45200D02*
Y112200D01*
X271950Y45200D02*
X280950D01*
D13*
X113500Y95950D02*
Y110950D01*
X83500Y95950D02*
Y110950D01*
Y95950D02*
X113500D01*
X83500Y110950D02*
X113500D01*
X349000Y174200D02*
X364000D01*
X349000Y144200D02*
X364000D01*
Y174200D01*
X349000Y144200D02*
Y174200D01*
X325970Y79020D02*
X340970D01*
X325970Y109020D02*
X340970D01*
X325970Y79020D02*
Y109020D01*
X340970Y79020D02*
Y109020D01*
X348175Y78475D02*
X363175D01*
X348175Y48475D02*
X363175D01*
Y78475D01*
X348175Y48475D02*
Y78475D01*
X326720Y-14900D02*
X341720D01*
X326720Y15100D02*
X341720D01*
X326720Y-14900D02*
Y15100D01*
X341720Y-14900D02*
Y15100D01*
X347800Y-15800D02*
X362800D01*
X347800Y-45800D02*
X362800D01*
Y-15800D01*
X347800Y-45800D02*
Y-15800D01*
X156770Y29220D02*
X186770D01*
X156770D02*
Y44220D01*
X186770D01*
Y29220D02*
Y44220D01*
X156770D02*
X186770D01*
X156770D02*
Y59220D01*
X186770D01*
Y44220D02*
Y59220D01*
X156770Y220D02*
X186770D01*
X156770D02*
Y15220D01*
X186770D01*
Y220D02*
Y15220D01*
X156770Y73220D02*
X186770D01*
X156770D02*
Y88220D01*
X186770D01*
Y73220D02*
Y88220D01*
X185770Y15220D02*
Y29220D01*
X156770D02*
X185770D01*
X156770Y15220D02*
Y29220D01*
Y15220D02*
X185770D01*
Y59220D02*
Y73220D01*
X156770D02*
X185770D01*
X156770Y59220D02*
Y73220D01*
Y59220D02*
X185770D01*
X156770Y-13780D02*
Y220D01*
Y-13780D02*
X185770D01*
Y220D01*
X156770D02*
X185770D01*
X156770Y88220D02*
Y102220D01*
Y88220D02*
X185770D01*
Y102220D01*
X156770D02*
X185770D01*
X201450Y-51550D02*
X317450D01*
X201450D02*
Y20950D01*
X317450D01*
Y-51550D02*
Y20950D01*
X201450Y42450D02*
X317450D01*
X201450D02*
Y114950D01*
X317450D01*
Y42450D02*
Y114950D01*
D14*
X13250Y139390D02*
Y143200D01*
X9440D02*
X13250D01*
X9440D02*
X13250Y139390D01*
X6900Y143200D02*
X13250Y136850D01*
Y-67000D02*
Y136850D01*
X-13250Y143200D02*
X6900Y143200D01*
X-13250Y-67000D02*
Y143200D01*
Y-67000D02*
X13250D01*
X-6350Y194500D02*
X431800D01*
X-19050Y-118300D02*
Y181800D01*
Y-118300D02*
X431800D01*
Y194500D01*
X-19050Y181800D02*
X-6350Y194500D01*
X-19050Y184340D02*
X-8890Y194500D01*
X-19050Y184340D02*
Y194500D01*
X-8890D01*
X393150Y-117800D02*
Y194000D01*
X419650Y190190D02*
Y194000D01*
X415840D02*
X419650D01*
X415840D02*
X419650Y190190D01*
X413300Y194000D02*
X419650Y187650D01*
Y-117800D02*
Y187650D01*
X393150Y194000D02*
X413300Y194000D01*
X393150Y-117800D02*
X419650D01*
X77418Y90499D02*
Y86334D01*
X78251Y85501D01*
X79917D01*
X80750Y86334D01*
Y90499D01*
X82416Y85501D02*
X84082D01*
X83249D01*
Y90499D01*
X82416Y89666D01*
X76250Y187866D02*
X75417Y188699D01*
X73751D01*
X72918Y187866D01*
Y184534D01*
X73751Y183701D01*
X75417D01*
X76250Y184534D01*
X77916Y183701D02*
X79582D01*
X78749D01*
Y188699D01*
X77916Y187866D01*
X123417Y105366D02*
X122584Y106199D01*
X120918D01*
X120085Y105366D01*
Y102034D01*
X120918Y101201D01*
X122584D01*
X123417Y102034D01*
X128415Y101201D02*
X125083D01*
X128415Y104533D01*
Y105366D01*
X127582Y106199D01*
X125916D01*
X125083Y105366D01*
X256917Y186366D02*
X256084Y187199D01*
X254418D01*
X253585Y186366D01*
Y183034D01*
X254418Y182201D01*
X256084D01*
X256917Y183034D01*
X258583Y186366D02*
X259416Y187199D01*
X261082D01*
X261915Y186366D01*
Y185533D01*
X261082Y184700D01*
X260249D01*
X261082D01*
X261915Y183867D01*
Y183034D01*
X261082Y182201D01*
X259416D01*
X258583Y183034D01*
X355667Y136866D02*
X354834Y137699D01*
X353168D01*
X352335Y136866D01*
Y133534D01*
X353168Y132701D01*
X354834D01*
X355667Y133534D01*
X359832Y132701D02*
Y137699D01*
X357333Y135200D01*
X360665D01*
X332357Y119616D02*
X331524Y120449D01*
X329858D01*
X329025Y119616D01*
Y116284D01*
X329858Y115451D01*
X331524D01*
X332357Y116284D01*
X337355Y120449D02*
X334023D01*
Y117950D01*
X335689Y118783D01*
X336522D01*
X337355Y117950D01*
Y116284D01*
X336522Y115451D01*
X334856D01*
X334023Y116284D01*
X354742Y89041D02*
X353909Y89874D01*
X352243D01*
X351410Y89041D01*
Y85709D01*
X352243Y84876D01*
X353909D01*
X354742Y85709D01*
X359740Y89874D02*
X358074Y89041D01*
X356408Y87375D01*
Y85709D01*
X357241Y84876D01*
X358907D01*
X359740Y85709D01*
Y86542D01*
X358907Y87375D01*
X356408D01*
X334147Y25246D02*
X333314Y26079D01*
X331648D01*
X330815Y25246D01*
Y21914D01*
X331648Y21081D01*
X333314D01*
X334147Y21914D01*
X335813Y26079D02*
X339145D01*
Y25246D01*
X335813Y21914D01*
Y21081D01*
X354367Y-4624D02*
X353534Y-3791D01*
X351868D01*
X351035Y-4624D01*
Y-7956D01*
X351868Y-8789D01*
X353534D01*
X354367Y-7956D01*
X356033Y-4624D02*
X356866Y-3791D01*
X358532D01*
X359365Y-4624D01*
Y-5457D01*
X358532Y-6290D01*
X359365Y-7123D01*
Y-7956D01*
X358532Y-8789D01*
X356866D01*
X356033Y-7956D01*
Y-7123D01*
X356866Y-6290D01*
X356033Y-5457D01*
Y-4624D01*
X356866Y-6290D02*
X358532D01*
X148850Y34236D02*
Y39234D01*
X151349D01*
X152182Y38401D01*
Y36735D01*
X151349Y35902D01*
X148850D01*
X150516D02*
X152182Y34236D01*
X153848D02*
X155514D01*
X154681D01*
Y39234D01*
X153848Y38401D01*
X147072Y49222D02*
Y54220D01*
X149571D01*
X150404Y53387D01*
Y51721D01*
X149571Y50888D01*
X147072D01*
X148738D02*
X150404Y49222D01*
X155402D02*
X152070D01*
X155402Y52554D01*
Y53387D01*
X154569Y54220D01*
X152903D01*
X152070Y53387D01*
X147072Y5280D02*
Y10278D01*
X149571D01*
X150404Y9445D01*
Y7779D01*
X149571Y6946D01*
X147072D01*
X148738D02*
X150404Y5280D01*
X152070Y9445D02*
X152903Y10278D01*
X154569D01*
X155402Y9445D01*
Y8612D01*
X154569Y7779D01*
X153736D01*
X154569D01*
X155402Y6946D01*
Y6113D01*
X154569Y5280D01*
X152903D01*
X152070Y6113D01*
X147072Y78178D02*
Y83176D01*
X149571D01*
X150404Y82343D01*
Y80677D01*
X149571Y79844D01*
X147072D01*
X148738D02*
X150404Y78178D01*
X154569D02*
Y83176D01*
X152070Y80677D01*
X155402D01*
X147072Y19758D02*
Y24756D01*
X149571D01*
X150404Y23923D01*
Y22257D01*
X149571Y21424D01*
X147072D01*
X148738D02*
X150404Y19758D01*
X155402Y24756D02*
X152070D01*
Y22257D01*
X153736Y23090D01*
X154569D01*
X155402Y22257D01*
Y20591D01*
X154569Y19758D01*
X152903D01*
X152070Y20591D01*
X147072Y63700D02*
Y68698D01*
X149571D01*
X150404Y67865D01*
Y66199D01*
X149571Y65366D01*
X147072D01*
X148738D02*
X150404Y63700D01*
X155402Y68698D02*
X153736Y67865D01*
X152070Y66199D01*
Y64533D01*
X152903Y63700D01*
X154569D01*
X155402Y64533D01*
Y65366D01*
X154569Y66199D01*
X152070D01*
X147072Y-9198D02*
Y-4200D01*
X149571D01*
X150404Y-5033D01*
Y-6699D01*
X149571Y-7532D01*
X147072D01*
X148738D02*
X150404Y-9198D01*
X152070Y-4200D02*
X155402D01*
Y-5033D01*
X152070Y-8365D01*
Y-9198D01*
X147072Y92656D02*
Y97654D01*
X149571D01*
X150404Y96821D01*
Y95155D01*
X149571Y94322D01*
X147072D01*
X148738D02*
X150404Y92656D01*
X152070Y96821D02*
X152903Y97654D01*
X154569D01*
X155402Y96821D01*
Y95988D01*
X154569Y95155D01*
X155402Y94322D01*
Y93489D01*
X154569Y92656D01*
X152903D01*
X152070Y93489D01*
Y94322D01*
X152903Y95155D01*
X152070Y95988D01*
Y96821D01*
X152903Y95155D02*
X154569D01*
X-5831Y187951D02*
Y192949D01*
X-4165Y191283D01*
X-2499Y192949D01*
Y187951D01*
X-833Y192949D02*
Y187951D01*
X1666D01*
X2499Y188784D01*
Y192116D01*
X1666Y192949D01*
X-833D01*
X4165Y187951D02*
X5831D01*
X4998D01*
Y192949D01*
X4165Y192116D01*
X202319Y114029D02*
Y109031D01*
X204818D01*
X205651Y109864D01*
Y113196D01*
X204818Y114029D01*
X202319D01*
X207317D02*
Y109864D01*
X208150Y109031D01*
X209816D01*
X210649Y109864D01*
Y114029D01*
X212315Y109031D02*
X213981D01*
X213148D01*
Y114029D01*
X212315Y113196D01*
X202526Y19889D02*
Y14891D01*
X205025D01*
X205858Y15724D01*
Y19056D01*
X205025Y19889D01*
X202526D01*
X207524D02*
Y15724D01*
X208357Y14891D01*
X210023D01*
X210856Y15724D01*
Y19889D01*
X215854Y14891D02*
X212522D01*
X215854Y18223D01*
Y19056D01*
X215021Y19889D01*
X213355D01*
X212522Y19056D01*
M02*
