G04*
G04 #@! TF.GenerationSoftware,Altium Limited,Altium Designer,22.5.1 (42)*
G04*
G04 Layer_Color=65535*
%FSLAX44Y44*%
%MOMM*%
G71*
G04*
G04 #@! TF.SameCoordinates,379B5DB5-20BB-4147-B996-229858156FAD*
G04*
G04*
G04 #@! TF.FilePolarity,Positive*
G04*
G01*
G75*
%ADD10C,0.6000*%
%ADD11C,0.2500*%
%ADD12C,0.0500*%
%ADD13C,0.2000*%
%ADD14C,0.1000*%
G36*
X13160Y315800D02*
X3000Y305640D01*
Y315800D01*
X13160D01*
D02*
G37*
G36*
X35300Y260690D02*
Y264500D01*
X31490D01*
X35300Y260690D01*
D02*
G37*
G36*
X441700Y311490D02*
Y315300D01*
X437890D01*
X441700Y311490D01*
D02*
G37*
D10*
X111300Y194500D02*
G03*
X111300Y194500I-3000J0D01*
G01*
D11*
X88300Y207100D02*
G03*
X88300Y207100I-1250J0D01*
G01*
X316450Y71250D02*
G03*
X316450Y71250I-1250J0D01*
G01*
Y160270D02*
G03*
X316450Y160270I-1250J0D01*
G01*
D12*
X202570Y121520D02*
Y136520D01*
X172570D02*
X202570D01*
X172570Y121520D02*
Y136520D01*
Y121520D02*
X202570D01*
X172570Y136520D02*
X201570D01*
X172570D02*
Y150520D01*
X201570D01*
Y136520D02*
Y150520D01*
X202570D02*
Y165520D01*
X172570D02*
X202570D01*
X172570Y150520D02*
Y165520D01*
Y150520D02*
X202570D01*
Y165520D02*
Y180520D01*
X172570D02*
X202570D01*
X172570Y165520D02*
Y180520D01*
Y165520D02*
X202570D01*
X172570Y180520D02*
X201570D01*
X172570D02*
Y194520D01*
X201570D01*
Y180520D02*
Y194520D01*
X202570Y194520D02*
Y209520D01*
X172570D02*
X202570D01*
X172570Y194520D02*
Y209520D01*
Y194520D02*
X202570D01*
X172570Y223520D02*
X201570D01*
Y209520D02*
Y223520D01*
X172570Y209520D02*
X201570D01*
X172570D02*
Y223520D01*
Y107520D02*
Y121520D01*
Y107520D02*
X201570D01*
Y121520D01*
X172570D02*
X201570D01*
X216200Y69650D02*
X332200D01*
X216200D02*
Y142150D01*
X332200D01*
Y69650D02*
Y142150D01*
X216200Y158670D02*
X332200D01*
X216200D02*
Y231170D01*
X332200D01*
Y158670D02*
Y231170D01*
D13*
X98300Y116500D02*
X130300D01*
X98300Y204500D02*
X130300D01*
Y116500D02*
Y204500D01*
X98300Y116500D02*
Y204500D01*
X286700Y139400D02*
X295700D01*
Y72400D02*
Y139400D01*
X286700Y72400D02*
X295700D01*
X286700Y228420D02*
X295700D01*
Y161420D02*
Y228420D01*
X286700Y161420D02*
X295700D01*
X384950Y92400D02*
Y100400D01*
X369950Y100400D02*
X369950Y92400D01*
X336950Y110900D02*
X336950Y118900D01*
X351950Y110900D02*
X351950Y118900D01*
X385150Y181600D02*
X385150Y189600D01*
X370150Y181600D02*
Y189600D01*
X335700Y200150D02*
Y208150D01*
X350700D02*
X350700Y200150D01*
X385550Y282000D02*
Y290000D01*
X370550Y290000D02*
X370550Y282000D01*
X353800Y252625D02*
X353800Y262000D01*
X341425Y240250D02*
X353800Y252625D01*
X341425Y308250D02*
X353800Y295875D01*
Y286500D02*
Y295875D01*
X285800Y240250D02*
X341425Y240250D01*
X285800Y240250D02*
Y262000D01*
Y286500D02*
Y308250D01*
X341425Y308250D01*
X112050Y218000D02*
X120050D01*
X112050Y233000D02*
X120050Y233000D01*
X83780Y286320D02*
Y295695D01*
X96155Y308070D01*
X83780Y252445D02*
X96155Y240070D01*
X83780Y252445D02*
Y261820D01*
X96155Y308070D02*
X151780Y308070D01*
Y286320D02*
Y308070D01*
Y240070D02*
Y261820D01*
X96155Y240070D02*
X151780Y240070D01*
D14*
X415200Y3500D02*
X441700D01*
X415200Y315300D02*
X435350Y315300D01*
X441700Y3500D02*
Y308950D01*
X435350Y315300D02*
X441700Y308950D01*
X437890Y315300D02*
X441700Y311490D01*
X437890Y315300D02*
X441700D01*
Y311490D02*
Y315300D01*
X415200Y3500D02*
Y315300D01*
X3000Y315800D02*
X13160D01*
X3000Y305640D02*
Y315800D01*
Y305640D02*
X13160Y315800D01*
X3000Y303100D02*
X15700Y315800D01*
X453850Y3000D02*
Y315800D01*
X3000Y3000D02*
X453850D01*
X3000D02*
Y303100D01*
X15700Y315800D02*
X453850D01*
X8800Y54300D02*
X35300D01*
X8800D02*
Y264500D01*
X8800D02*
X28950Y264500D01*
X35300Y54300D02*
Y258150D01*
X28950Y264500D02*
X35300Y258150D01*
X31490Y264500D02*
X35300Y260690D01*
X31490Y264500D02*
X35300D01*
Y260690D02*
Y264500D01*
X203635Y126001D02*
Y130999D01*
X206134D01*
X206967Y130166D01*
Y128500D01*
X206134Y127667D01*
X203635D01*
X205301D02*
X206967Y126001D01*
X208633Y130166D02*
X209466Y130999D01*
X211132D01*
X211965Y130166D01*
Y129333D01*
X211132Y128500D01*
X210299D01*
X211132D01*
X211965Y127667D01*
Y126834D01*
X211132Y126001D01*
X209466D01*
X208633Y126834D01*
X202635Y141001D02*
Y145999D01*
X205134D01*
X205967Y145166D01*
Y143500D01*
X205134Y142667D01*
X202635D01*
X204301D02*
X205967Y141001D01*
X210965Y145999D02*
X207633D01*
Y143500D01*
X209299Y144333D01*
X210132D01*
X210965Y143500D01*
Y141834D01*
X210132Y141001D01*
X208466D01*
X207633Y141834D01*
X203718Y155251D02*
Y160249D01*
X206217D01*
X207050Y159416D01*
Y157750D01*
X206217Y156917D01*
X203718D01*
X205384D02*
X207050Y155251D01*
X208716D02*
X210382D01*
X209549D01*
Y160249D01*
X208716Y159416D01*
X203635Y170251D02*
Y175249D01*
X206134D01*
X206967Y174416D01*
Y172750D01*
X206134Y171917D01*
X203635D01*
X205301D02*
X206967Y170251D01*
X211965D02*
X208633D01*
X211965Y173583D01*
Y174416D01*
X211132Y175249D01*
X209466D01*
X208633Y174416D01*
X202635Y185251D02*
Y190249D01*
X205134D01*
X205967Y189416D01*
Y187750D01*
X205134Y186917D01*
X202635D01*
X204301D02*
X205967Y185251D01*
X210965Y190249D02*
X209299Y189416D01*
X207633Y187750D01*
Y186084D01*
X208466Y185251D01*
X210132D01*
X210965Y186084D01*
Y186917D01*
X210132Y187750D01*
X207633D01*
X203635Y199501D02*
Y204499D01*
X206134D01*
X206967Y203666D01*
Y202000D01*
X206134Y201167D01*
X203635D01*
X205301D02*
X206967Y199501D01*
X211132D02*
Y204499D01*
X208633Y202000D01*
X211965D01*
X202635Y214001D02*
Y218999D01*
X205134D01*
X205967Y218166D01*
Y216500D01*
X205134Y215667D01*
X202635D01*
X204301D02*
X205967Y214001D01*
X207633Y218166D02*
X208466Y218999D01*
X210132D01*
X210965Y218166D01*
Y217333D01*
X210132Y216500D01*
X210965Y215667D01*
Y214834D01*
X210132Y214001D01*
X208466D01*
X207633Y214834D01*
Y215667D01*
X208466Y216500D01*
X207633Y217333D01*
Y218166D01*
X208466Y216500D02*
X210132D01*
X93718Y211499D02*
Y207334D01*
X94551Y206501D01*
X96217D01*
X97050Y207334D01*
Y211499D01*
X98716Y206501D02*
X100382D01*
X99549D01*
Y211499D01*
X98716Y210666D01*
X202635Y111751D02*
Y116749D01*
X205134D01*
X205967Y115916D01*
Y114250D01*
X205134Y113417D01*
X202635D01*
X204301D02*
X205967Y111751D01*
X207633Y116749D02*
X210965D01*
Y115916D01*
X207633Y112584D01*
Y111751D01*
X217276Y141089D02*
Y136091D01*
X219775D01*
X220608Y136924D01*
Y140256D01*
X219775Y141089D01*
X217276D01*
X222274D02*
Y136924D01*
X223107Y136091D01*
X224773D01*
X225606Y136924D01*
Y141089D01*
X230604Y136091D02*
X227272D01*
X230604Y139423D01*
Y140256D01*
X229771Y141089D01*
X228105D01*
X227272Y140256D01*
X217069Y230249D02*
Y225251D01*
X219568D01*
X220401Y226084D01*
Y229416D01*
X219568Y230249D01*
X217069D01*
X222067D02*
Y226084D01*
X222900Y225251D01*
X224566D01*
X225399Y226084D01*
Y230249D01*
X227065Y225251D02*
X228731D01*
X227898D01*
Y230249D01*
X227065Y229416D01*
X376517Y122576D02*
X375684Y123409D01*
X374018D01*
X373185Y122576D01*
Y119244D01*
X374018Y118411D01*
X375684D01*
X376517Y119244D01*
X378183Y122576D02*
X379016Y123409D01*
X380682D01*
X381515Y122576D01*
Y121743D01*
X380682Y120910D01*
X381515Y120077D01*
Y119244D01*
X380682Y118411D01*
X379016D01*
X378183Y119244D01*
Y120077D01*
X379016Y120910D01*
X378183Y121743D01*
Y122576D01*
X379016Y120910D02*
X380682D01*
X344377Y140046D02*
X343544Y140879D01*
X341878D01*
X341045Y140046D01*
Y136714D01*
X341878Y135881D01*
X343544D01*
X344377Y136714D01*
X346043Y140879D02*
X349375D01*
Y140046D01*
X346043Y136714D01*
Y135881D01*
X376717Y211166D02*
X375884Y211999D01*
X374218D01*
X373385Y211166D01*
Y207834D01*
X374218Y207001D01*
X375884D01*
X376717Y207834D01*
X381715Y211999D02*
X380049Y211166D01*
X378383Y209500D01*
Y207834D01*
X379216Y207001D01*
X380882D01*
X381715Y207834D01*
Y208667D01*
X380882Y209500D01*
X378383D01*
X342087Y229746D02*
X341254Y230579D01*
X339588D01*
X338755Y229746D01*
Y226414D01*
X339588Y225581D01*
X341254D01*
X342087Y226414D01*
X347085Y230579D02*
X343753D01*
Y228080D01*
X345419Y228913D01*
X346252D01*
X347085Y228080D01*
Y226414D01*
X346252Y225581D01*
X344586D01*
X343753Y226414D01*
X377217Y263666D02*
X376384Y264499D01*
X374718D01*
X373885Y263666D01*
Y260334D01*
X374718Y259501D01*
X376384D01*
X377217Y260334D01*
X381382Y259501D02*
Y264499D01*
X378883Y262000D01*
X382215D01*
X278967Y307666D02*
X278134Y308499D01*
X276468D01*
X275635Y307666D01*
Y304334D01*
X276468Y303501D01*
X278134D01*
X278967Y304334D01*
X280633Y307666D02*
X281466Y308499D01*
X283132D01*
X283965Y307666D01*
Y306833D01*
X283132Y306000D01*
X282299D01*
X283132D01*
X283965Y305167D01*
Y304334D01*
X283132Y303501D01*
X281466D01*
X280633Y304334D01*
X140967Y227416D02*
X140134Y228249D01*
X138468D01*
X137635Y227416D01*
Y224084D01*
X138468Y223251D01*
X140134D01*
X140967Y224084D01*
X145965Y223251D02*
X142633D01*
X145965Y226583D01*
Y227416D01*
X145132Y228249D01*
X143466D01*
X142633Y227416D01*
X87800Y309916D02*
X86967Y310749D01*
X85301D01*
X84468Y309916D01*
Y306584D01*
X85301Y305751D01*
X86967D01*
X87800Y306584D01*
X89466Y305751D02*
X91132D01*
X90299D01*
Y310749D01*
X89466Y309916D01*
X16219Y309251D02*
Y314249D01*
X17885Y312583D01*
X19551Y314249D01*
Y309251D01*
X21217Y314249D02*
Y309251D01*
X23716D01*
X24549Y310084D01*
Y313416D01*
X23716Y314249D01*
X21217D01*
X26215Y309251D02*
X27881D01*
X27048D01*
Y314249D01*
X26215Y313416D01*
M02*
