G04*
G04 #@! TF.GenerationSoftware,Altium Limited,Altium Designer,22.5.1 (42)*
G04*
G04 Layer_Color=2752767*
%FSLAX44Y44*%
%MOMM*%
G71*
G04*
G04 #@! TF.SameCoordinates,51E17F9E-36CB-467A-9023-B1406ADC4060*
G04*
G04*
G04 #@! TF.FilePolarity,Positive*
G04*
G01*
G75*
%ADD47C,0.0677*%
%ADD48C,0.0508*%
D47*
X27432Y152400D02*
G03*
X27432Y152400I-2032J0D01*
G01*
Y127000D02*
G03*
X27432Y127000I-2032J0D01*
G01*
Y101600D02*
G03*
X27432Y101600I-2032J0D01*
G01*
Y76200D02*
G03*
X27432Y76200I-2032J0D01*
G01*
Y50800D02*
G03*
X27432Y50800I-2032J0D01*
G01*
Y25400D02*
G03*
X27432Y25400I-2032J0D01*
G01*
Y0D02*
G03*
X27432Y0I-2032J0D01*
G01*
Y-101600D02*
G03*
X27432Y-101600I-2032J0D01*
G01*
X52832D02*
G03*
X52832Y-101600I-2032J0D01*
G01*
X78232D02*
G03*
X78232Y-101600I-2032J0D01*
G01*
X103632D02*
G03*
X103632Y-101600I-2032J0D01*
G01*
X383032Y177800D02*
G03*
X383032Y177800I-2032J0D01*
G01*
Y152400D02*
G03*
X383032Y152400I-2032J0D01*
G01*
Y127000D02*
G03*
X383032Y127000I-2032J0D01*
G01*
Y101600D02*
G03*
X383032Y101600I-2032J0D01*
G01*
Y76200D02*
G03*
X383032Y76200I-2032J0D01*
G01*
Y50800D02*
G03*
X383032Y50800I-2032J0D01*
G01*
Y25400D02*
G03*
X383032Y25400I-2032J0D01*
G01*
Y0D02*
G03*
X383032Y0I-2032J0D01*
G01*
Y-25400D02*
G03*
X383032Y-25400I-2032J0D01*
G01*
Y-50800D02*
G03*
X383032Y-50800I-2032J0D01*
G01*
Y-76200D02*
G03*
X383032Y-76200I-2032J0D01*
G01*
Y-101600D02*
G03*
X383032Y-101600I-2032J0D01*
G01*
D48*
X404368Y150368D02*
Y154432D01*
X408432D01*
Y150368D01*
X404368D01*
Y175768D02*
Y179832D01*
X408432D01*
Y175768D01*
X404368D01*
Y-2032D02*
Y2032D01*
X408432D01*
Y-2032D01*
X404368D01*
Y-52832D02*
Y-48768D01*
X408432D01*
Y-52832D01*
X404368D01*
Y-27432D02*
Y-23368D01*
X408432D01*
Y-27432D01*
X404368D01*
Y124968D02*
Y129032D01*
X408432D01*
Y124968D01*
X404368D01*
Y99568D02*
Y103632D01*
X408432D01*
Y99568D01*
X404368D01*
Y48768D02*
Y52832D01*
X408432D01*
Y48768D01*
X404368D01*
Y74168D02*
Y78232D01*
X408432D01*
Y74168D01*
X404368D01*
Y23368D02*
Y27432D01*
X408432D01*
Y23368D01*
X404368D01*
Y-103632D02*
Y-99568D01*
X408432D01*
Y-103632D01*
X404368D01*
Y-78232D02*
Y-74168D01*
X408432D01*
Y-78232D01*
X404368D01*
X-2032Y99568D02*
Y103632D01*
X2032D01*
Y99568D01*
X-2032D01*
Y-52832D02*
Y-48768D01*
X2032D01*
Y-52832D01*
X-2032D01*
Y23368D02*
Y27432D01*
X2032D01*
Y23368D01*
X-2032D01*
Y48768D02*
Y52832D01*
X2032D01*
Y48768D01*
X-2032D01*
Y74168D02*
Y78232D01*
X2032D01*
Y74168D01*
X-2032D01*
Y-27432D02*
Y-23368D01*
X2032D01*
Y-27432D01*
X-2032D01*
Y-2032D02*
Y2032D01*
X2032D01*
Y-2032D01*
X-2032D01*
Y124968D02*
Y129032D01*
X2032D01*
Y124968D01*
X-2032D01*
X313150Y-19892D02*
X314166Y-18876D01*
X315182D01*
X314166Y-17860D01*
X315182Y-16844D01*
X314166D01*
X313150Y-15828D01*
X312134Y-16844D01*
X311118D01*
X312134Y-17860D01*
X311118Y-18876D01*
X312134D01*
X313150Y-19892D01*
X310610Y76628D02*
X311626Y77644D01*
X312642D01*
X311626Y78660D01*
X312642Y79676D01*
X311626D01*
X310610Y80692D01*
X309594Y79676D01*
X308578D01*
X309594Y78660D01*
X308578Y77644D01*
X309594D01*
X310610Y76628D01*
X346700Y183418D02*
X347716Y184434D01*
X348732D01*
X347716Y185450D01*
X348732Y186466D01*
X347716D01*
X346700Y187482D01*
X345684Y186466D01*
X344668D01*
X345684Y185450D01*
X344668Y184434D01*
X345684D01*
X346700Y183418D01*
X105700Y123668D02*
X103668Y127732D01*
X107732D01*
X105700Y123668D01*
X106450Y37168D02*
X104418Y41232D01*
X108482D01*
X106450Y37168D01*
X192680Y63688D02*
X190648Y67752D01*
X194712D01*
X192680Y63688D01*
X192680Y20188D02*
X190648Y24252D01*
X194712D01*
X192680Y20188D01*
X192680Y77688D02*
X190648Y81752D01*
X194712D01*
X192680Y77688D01*
X192700Y5668D02*
X190668Y9732D01*
X194732D01*
X192700Y5668D01*
X170636Y149988D02*
X168604Y154052D01*
X172668D01*
X170636Y149988D01*
X234930Y150938D02*
X235946Y151954D01*
X236962D01*
X235946Y152970D01*
X236962Y153986D01*
X235946D01*
X234930Y155002D01*
X233914Y153986D01*
X232898D01*
X233914Y152970D01*
X232898Y151954D01*
X233914D01*
X234930Y150938D01*
X40850Y50268D02*
X38818Y54332D01*
X42882D01*
X40850Y50268D01*
X45755Y24618D02*
X43723Y28682D01*
X47787D01*
X45755Y24618D01*
X51200Y62918D02*
X49168Y66982D01*
X53232D01*
X51200Y62918D01*
X50950Y-832D02*
X48918Y3232D01*
X52982D01*
X50950Y-832D01*
X106700Y74418D02*
X104668Y78482D01*
X108732D01*
X106700Y74418D01*
X101450Y-582D02*
X99418Y3482D01*
X103482D01*
X101450Y-582D01*
M02*
