G04*
G04 #@! TF.GenerationSoftware,Altium Limited,Altium Designer,22.5.1 (42)*
G04*
G04 Layer_Physical_Order=1*
G04 Layer_Color=255*
%FSLAX44Y44*%
%MOMM*%
G71*
G04*
G04 #@! TF.SameCoordinates,51E17F9E-36CB-467A-9023-B1406ADC4060*
G04*
G04*
G04 #@! TF.FilePolarity,Positive*
G04*
G01*
G75*
%ADD11C,0.6000*%
%ADD15R,3.6000X1.8500*%
%ADD16R,1.0000X0.9500*%
%ADD17R,0.9500X1.0000*%
%ADD18R,1.0500X1.0000*%
%ADD19R,0.9500X0.9000*%
%ADD20R,6.4000X5.5500*%
%ADD21R,3.0000X1.2500*%
%ADD22O,2.0000X0.6000*%
%ADD37C,2.0000*%
%ADD38C,1.0000*%
%ADD39C,0.5000*%
%ADD40C,0.1270*%
%ADD41C,2.0000*%
%ADD42O,2.0000X3.0000*%
%ADD43O,2.0000X2.8000*%
%ADD44R,2.0000X2.0000*%
%ADD45C,1.0000*%
%ADD46C,0.6000*%
D11*
X106450Y39200D02*
X106600Y39350D01*
X130450D01*
X91000Y43150D02*
Y103450D01*
X87200Y39350D02*
X91000Y43150D01*
X75950Y39350D02*
X87200D01*
X25400Y152400D02*
X79600D01*
X79980Y152020D01*
X91000Y103450D02*
Y145770D01*
X79980Y152020D02*
X84750D01*
X91000Y145770D01*
D15*
X79980Y152020D02*
D03*
X132480D02*
D03*
X324000Y152950D02*
D03*
X271500D02*
D03*
D16*
X106000Y103450D02*
D03*
X91000D02*
D03*
D17*
X356500Y166700D02*
D03*
Y151700D02*
D03*
X333470Y86520D02*
D03*
Y101520D02*
D03*
X355675Y70975D02*
D03*
Y55975D02*
D03*
X334220Y-7400D02*
D03*
Y7600D02*
D03*
X355300Y-23300D02*
D03*
Y-38300D02*
D03*
D18*
X179020Y36720D02*
D03*
X164520D02*
D03*
X179020Y51720D02*
D03*
X164520D02*
D03*
X179020Y7720D02*
D03*
X164520D02*
D03*
X179020Y80720D02*
D03*
X164520D02*
D03*
D19*
X164020Y22220D02*
D03*
X178520D02*
D03*
X164020Y66220D02*
D03*
X178520D02*
D03*
Y-6780D02*
D03*
X164020D02*
D03*
X178520Y95220D02*
D03*
X164020D02*
D03*
D20*
X235950Y-15300D02*
D03*
Y78700D02*
D03*
D21*
X300450Y7600D02*
D03*
Y-38200D02*
D03*
Y101600D02*
D03*
Y55800D02*
D03*
D22*
X73450Y77450D02*
D03*
Y64750D02*
D03*
Y52050D02*
D03*
Y39350D02*
D03*
Y26650D02*
D03*
Y13950D02*
D03*
Y1250D02*
D03*
X132950Y64750D02*
D03*
Y52050D02*
D03*
Y39350D02*
D03*
Y26650D02*
D03*
Y13950D02*
D03*
Y1250D02*
D03*
Y77450D02*
D03*
D37*
X0Y127000D02*
X25400D01*
X381000Y101600D02*
X406400D01*
X381000Y50800D02*
X406400D01*
X381000Y0D02*
X406400D01*
X381000Y-25400D02*
X406400D01*
X381000Y-50800D02*
X406400D01*
X381000Y177800D02*
X406400D01*
X381000Y152400D02*
X406400D01*
X381000Y-76200D02*
X406400D01*
X381000Y-101600D02*
X406400D01*
X0Y0D02*
X25400D01*
X381000Y127000D02*
X406400D01*
X381000Y76200D02*
X406400D01*
X0Y101600D02*
X25400D01*
X0Y76200D02*
X25400D01*
X381000Y25400D02*
X406400D01*
X0Y50800D02*
X25400D01*
X0Y25400D02*
X25400D01*
D38*
X313150Y-17860D02*
X323610Y-7400D01*
X334220D01*
X339400D01*
X355300Y-23300D01*
X310610Y78660D02*
X318470Y86520D01*
X348470D01*
X355675Y79315D01*
Y70975D02*
Y79315D01*
X333550Y101600D02*
X381000D01*
X300450Y101600D02*
X333390D01*
X300450Y55800D02*
X376381D01*
X381000Y51181D01*
Y50800D02*
Y51181D01*
Y0D02*
Y2981D01*
X334220Y7600D02*
X376381D01*
X300450D02*
X334220D01*
X376381D02*
X381000Y2981D01*
X355300Y-38300D02*
X381200D01*
X301300D02*
X355300D01*
X301200Y-38200D02*
X375594D01*
X381000Y-32794D01*
X301200Y-38200D02*
X301300Y-38300D01*
X300450Y-38200D02*
X301200D01*
X381000Y-32794D02*
Y-25400D01*
X346700Y185450D02*
X356500Y175650D01*
Y166700D02*
Y175650D01*
X300450Y55800D02*
X300575Y55925D01*
X324000Y152950D02*
X325250Y151700D01*
X355500D01*
X356500D02*
X380300D01*
X381000Y152400D01*
X271500Y152950D02*
X274200Y155650D01*
X282950D01*
X234950Y152950D02*
X271500D01*
X234930Y152970D02*
X234950Y152950D01*
X376381Y-38900D02*
X381000Y-43519D01*
Y-50800D02*
Y-43519D01*
D39*
X105850Y103600D02*
X106000Y103450D01*
X105700Y125700D02*
X105850Y125550D01*
Y103600D02*
Y125550D01*
X180750Y53450D02*
X210700D01*
X179020Y51720D02*
X180750Y53450D01*
X210700D02*
X235950Y78700D01*
X227180Y36720D02*
X235950Y27950D01*
X179020Y36720D02*
X227180D01*
X132480Y152020D02*
X170636D01*
X235950Y-15300D02*
Y27950D01*
D40*
X179020Y65720D02*
X192680D01*
X178520Y66220D02*
X179020Y65720D01*
X178520Y22220D02*
X192680D01*
X180020Y79720D02*
X192680D01*
X179020Y80720D02*
X180020Y79720D01*
X192680Y7720D02*
X192700Y7700D01*
X179020Y7720D02*
X192680D01*
X75700Y52300D02*
X75950Y52050D01*
X40850Y52300D02*
X75700D01*
X45755Y26650D02*
X75950D01*
X164020Y22220D02*
X164520Y22720D01*
Y36720D01*
X130450Y26650D02*
X146750D01*
X151180Y22220D02*
X164020D01*
X146750Y26650D02*
X151180Y22220D01*
X130450Y52050D02*
X164190D01*
X164020Y52220D02*
Y66220D01*
Y52220D02*
X164190Y52050D01*
X164520Y51720D01*
X153680Y7720D02*
X164020D01*
Y7220D02*
X164520Y7720D01*
X164020D02*
X164520D01*
X147450Y13950D02*
X153680Y7720D01*
X164020Y-6780D02*
Y7220D01*
X130450Y13950D02*
X147450D01*
X164270Y80720D02*
X164520D01*
X154578Y71027D02*
X164270Y80720D01*
X148300Y64750D02*
X154578Y71027D01*
Y71027D01*
X130450Y64750D02*
X148300D01*
X164020Y95220D02*
X164520Y94720D01*
Y80720D02*
Y94720D01*
X75850Y64850D02*
X75950Y64750D01*
X51300Y64850D02*
X75850D01*
X51200Y64950D02*
X51300Y64850D01*
X75800Y77300D02*
X75950Y77450D01*
X51200Y71950D02*
X56550Y77300D01*
X51200Y64950D02*
Y71950D01*
X56550Y77300D02*
X75800D01*
X75900Y1200D02*
X75950Y1250D01*
X50950Y1200D02*
X75900D01*
X50950D02*
X62877Y13127D01*
X75127D02*
X75950Y13950D01*
X62877Y13127D02*
X75127D01*
X178520Y95220D02*
Y103630D01*
X174450Y107700D02*
X178520Y103630D01*
X147950Y77450D02*
X151200Y80700D01*
Y98950D01*
X159950Y107700D01*
X174450D01*
X130450Y77450D02*
X147950D01*
X106700Y76450D02*
X107200Y76950D01*
X129950D02*
X130450Y77450D01*
X107200Y76950D02*
X129950D01*
X130450Y1250D02*
X146150D01*
X151200Y-3800D01*
Y-11800D02*
Y-3800D01*
Y-11800D02*
X156950Y-17550D01*
X174200D01*
X178520Y-13230D01*
Y-6780D01*
X101450Y1450D02*
X101550Y1350D01*
X130350D02*
X130450Y1250D01*
X101550Y1350D02*
X130350D01*
D41*
X25400Y152400D02*
D03*
Y127000D02*
D03*
Y101600D02*
D03*
Y76200D02*
D03*
Y50800D02*
D03*
Y25400D02*
D03*
Y0D02*
D03*
Y-101600D02*
D03*
X50800D02*
D03*
X76200D02*
D03*
X101600D02*
D03*
X0Y101600D02*
D03*
Y-50800D02*
D03*
Y25400D02*
D03*
Y50800D02*
D03*
Y76200D02*
D03*
Y-25400D02*
D03*
Y0D02*
D03*
D42*
X381000Y172700D02*
D03*
Y157500D02*
D03*
Y121900D02*
D03*
Y106700D02*
D03*
Y71100D02*
D03*
Y55900D02*
D03*
Y20300D02*
D03*
Y5100D02*
D03*
Y-30500D02*
D03*
Y-45700D02*
D03*
Y-81300D02*
D03*
Y-96500D02*
D03*
D43*
X406400Y157900D02*
D03*
Y172300D02*
D03*
Y5500D02*
D03*
Y-45300D02*
D03*
Y-30900D02*
D03*
Y121500D02*
D03*
Y107100D02*
D03*
Y56300D02*
D03*
Y70700D02*
D03*
Y19900D02*
D03*
Y-96100D02*
D03*
Y-81700D02*
D03*
D44*
X0Y127000D02*
D03*
D45*
X313150Y-17860D02*
D03*
X310610Y78660D02*
D03*
X346700Y185450D02*
D03*
X234930Y152970D02*
D03*
D46*
X105700Y125700D02*
D03*
X106450Y39200D02*
D03*
X192680Y65720D02*
D03*
X192680Y22220D02*
D03*
X192680Y79720D02*
D03*
X192700Y7700D02*
D03*
X170636Y152020D02*
D03*
X40850Y52300D02*
D03*
X45755Y26650D02*
D03*
X51200Y64950D02*
D03*
X50950Y1200D02*
D03*
X106700Y76450D02*
D03*
X101450Y1450D02*
D03*
M02*
