G04*
G04 #@! TF.GenerationSoftware,Altium Limited,Altium Designer,22.5.1 (42)*
G04*
G04 Layer_Color=8421504*
%FSLAX44Y44*%
%MOMM*%
G71*
G04*
G04 #@! TF.SameCoordinates,51E17F9E-36CB-467A-9023-B1406ADC4060*
G04*
G04*
G04 #@! TF.FilePolarity,Positive*
G04*
G01*
G75*
%ADD15R,3.6000X1.8500*%
%ADD16R,1.0000X0.9500*%
%ADD17R,0.9500X1.0000*%
%ADD18R,1.0500X1.0000*%
%ADD19R,0.9500X0.9000*%
%ADD20R,6.4000X5.5500*%
%ADD21R,3.0000X1.2500*%
%ADD22O,2.0000X0.6000*%
D15*
X79980Y152020D02*
D03*
X132480D02*
D03*
X324000Y152950D02*
D03*
X271500D02*
D03*
D16*
X106000Y103450D02*
D03*
X91000D02*
D03*
D17*
X356500Y166700D02*
D03*
Y151700D02*
D03*
X333470Y86520D02*
D03*
Y101520D02*
D03*
X355675Y70975D02*
D03*
Y55975D02*
D03*
X334220Y-7400D02*
D03*
Y7600D02*
D03*
X355300Y-23300D02*
D03*
Y-38300D02*
D03*
D18*
X179020Y36720D02*
D03*
X164520D02*
D03*
X179020Y51720D02*
D03*
X164520D02*
D03*
X179020Y7720D02*
D03*
X164520D02*
D03*
X179020Y80720D02*
D03*
X164520D02*
D03*
D19*
X164020Y22220D02*
D03*
X178520D02*
D03*
X164020Y66220D02*
D03*
X178520D02*
D03*
Y-6780D02*
D03*
X164020D02*
D03*
X178520Y95220D02*
D03*
X164020D02*
D03*
D20*
X235950Y-15300D02*
D03*
Y78700D02*
D03*
D21*
X300450Y7600D02*
D03*
Y-38200D02*
D03*
Y101600D02*
D03*
Y55800D02*
D03*
D22*
X73450Y77450D02*
D03*
Y64750D02*
D03*
Y52050D02*
D03*
Y39350D02*
D03*
Y26650D02*
D03*
Y13950D02*
D03*
Y1250D02*
D03*
X132950Y64750D02*
D03*
Y52050D02*
D03*
Y39350D02*
D03*
Y26650D02*
D03*
Y13950D02*
D03*
Y1250D02*
D03*
Y77450D02*
D03*
M02*
