G04*
G04 #@! TF.GenerationSoftware,Altium Limited,Altium Designer,22.6.1 (34)*
G04*
G04 Layer_Physical_Order=2*
G04 Layer_Color=16711680*
%FSLAX44Y44*%
%MOMM*%
G71*
G04*
G04 #@! TF.SameCoordinates,1BA94AFE-F389-4845-A448-9423F8A8FC82*
G04*
G04*
G04 #@! TF.FilePolarity,Positive*
G04*
G01*
G75*
%ADD20R,6.4000X5.5500*%
%ADD40C,0.1270*%
%ADD41O,2.0000X3.0000*%
%ADD42C,2.0000*%
%ADD43O,2.0000X2.8000*%
%ADD44R,2.0000X2.0000*%
%ADD45C,0.6000*%
G36*
X-158475Y65968D02*
X-133959Y65968D01*
Y65702D01*
X83591D01*
Y-247098D01*
X-129759D01*
Y-246775D01*
X-367225D01*
Y62432D01*
X-363632Y66024D01*
X-158475Y65968D01*
D02*
G37*
%LPC*%
G36*
X32825Y60592D02*
X29883Y60205D01*
X27141Y59069D01*
X24787Y57263D01*
X22981Y54909D01*
X21845Y52167D01*
X21458Y49225D01*
Y39225D01*
X21800Y36625D01*
X21458Y34025D01*
Y24025D01*
X21845Y21083D01*
X22981Y18341D01*
X24787Y15987D01*
X27141Y14181D01*
X27640Y13974D01*
Y8476D01*
X27141Y8269D01*
X24787Y6463D01*
X22981Y4109D01*
X21845Y1367D01*
X21458Y-1575D01*
Y-11575D01*
X21800Y-14175D01*
X21458Y-16775D01*
Y-26775D01*
X21845Y-29717D01*
X22981Y-32459D01*
X24787Y-34813D01*
X27141Y-36619D01*
X27640Y-36826D01*
Y-42324D01*
X27141Y-42531D01*
X24787Y-44337D01*
X22981Y-46691D01*
X21845Y-49433D01*
X21458Y-52375D01*
Y-62375D01*
X21800Y-64975D01*
X21458Y-67575D01*
Y-77575D01*
X21845Y-80517D01*
X22981Y-83259D01*
X24787Y-85613D01*
X27141Y-87419D01*
X27640Y-87626D01*
Y-93124D01*
X27141Y-93331D01*
X24787Y-95137D01*
X22981Y-97491D01*
X21845Y-100233D01*
X21458Y-103175D01*
Y-113175D01*
X21800Y-115775D01*
X21458Y-118375D01*
Y-128375D01*
X21845Y-131317D01*
X22981Y-134059D01*
X24787Y-136413D01*
X27141Y-138219D01*
X27640Y-138426D01*
Y-143924D01*
X27141Y-144131D01*
X24787Y-145937D01*
X22981Y-148291D01*
X21845Y-151033D01*
X21458Y-153975D01*
Y-163975D01*
X21800Y-166575D01*
X21458Y-169175D01*
Y-179175D01*
X21845Y-182117D01*
X22981Y-184859D01*
X24787Y-187213D01*
X27141Y-189019D01*
X27640Y-189226D01*
Y-194724D01*
X27141Y-194931D01*
X24787Y-196737D01*
X22981Y-199091D01*
X21845Y-201833D01*
X21458Y-204775D01*
Y-209140D01*
X32825D01*
Y-210410D01*
X21458D01*
Y-214775D01*
X21800Y-217375D01*
X21458Y-219975D01*
Y-224340D01*
X32825D01*
Y-224975D01*
X33460D01*
Y-241259D01*
X35767Y-240955D01*
X38509Y-239819D01*
X40863Y-238013D01*
X42669Y-235659D01*
X43066Y-234702D01*
X47650Y-234320D01*
X48498Y-234412D01*
X50187Y-236613D01*
X52541Y-238419D01*
X55283Y-239555D01*
X57590Y-239859D01*
Y-224575D01*
X58225D01*
Y-223940D01*
X69592D01*
Y-220575D01*
X69205Y-217633D01*
X69098Y-217375D01*
X69205Y-217117D01*
X69592Y-214175D01*
Y-210810D01*
X58225D01*
Y-210175D01*
X57590D01*
Y-194891D01*
X55283Y-195195D01*
X52541Y-196331D01*
X50187Y-198137D01*
X48498Y-200338D01*
X47650Y-200430D01*
X43066Y-200048D01*
X42669Y-199091D01*
X40863Y-196737D01*
X38509Y-194931D01*
X38010Y-194724D01*
Y-189226D01*
X38509Y-189019D01*
X40863Y-187213D01*
X42669Y-184859D01*
X43066Y-183902D01*
X47650Y-183520D01*
X48498Y-183612D01*
X50187Y-185813D01*
X52541Y-187619D01*
X55283Y-188755D01*
X58225Y-189142D01*
X61167Y-188755D01*
X63909Y-187619D01*
X66263Y-185813D01*
X68069Y-183459D01*
X69205Y-180717D01*
X69592Y-177775D01*
Y-169775D01*
X69205Y-166833D01*
X69098Y-166575D01*
X69205Y-166317D01*
X69592Y-163375D01*
Y-155375D01*
X69205Y-152433D01*
X68069Y-149691D01*
X66263Y-147337D01*
X63909Y-145531D01*
X61167Y-144395D01*
X58225Y-144008D01*
X55283Y-144395D01*
X52541Y-145531D01*
X50187Y-147337D01*
X48498Y-149538D01*
X47650Y-149630D01*
X43066Y-149248D01*
X42669Y-148291D01*
X40863Y-145937D01*
X38509Y-144131D01*
X38010Y-143924D01*
Y-138426D01*
X38509Y-138219D01*
X40863Y-136413D01*
X42669Y-134059D01*
X43066Y-133102D01*
X47650Y-132720D01*
X48498Y-132812D01*
X50187Y-135013D01*
X52541Y-136819D01*
X55283Y-137955D01*
X58225Y-138342D01*
X61167Y-137955D01*
X63909Y-136819D01*
X66263Y-135013D01*
X68069Y-132659D01*
X69205Y-129917D01*
X69592Y-126975D01*
Y-118975D01*
X69205Y-116033D01*
X69098Y-115775D01*
X69205Y-115517D01*
X69592Y-112575D01*
Y-104575D01*
X69205Y-101633D01*
X68069Y-98891D01*
X66263Y-96537D01*
X63909Y-94731D01*
X61167Y-93595D01*
X58225Y-93208D01*
X55283Y-93595D01*
X52541Y-94731D01*
X50187Y-96537D01*
X48498Y-98738D01*
X47650Y-98830D01*
X43066Y-98448D01*
X42669Y-97491D01*
X40863Y-95137D01*
X38509Y-93331D01*
X38010Y-93124D01*
Y-87626D01*
X38509Y-87419D01*
X40863Y-85613D01*
X42669Y-83259D01*
X43066Y-82302D01*
X47650Y-81920D01*
X48498Y-82012D01*
X50187Y-84213D01*
X52541Y-86019D01*
X55283Y-87155D01*
X58225Y-87542D01*
X61167Y-87155D01*
X63909Y-86019D01*
X66263Y-84213D01*
X68069Y-81859D01*
X69205Y-79117D01*
X69592Y-76175D01*
Y-68175D01*
X69205Y-65233D01*
X69098Y-64975D01*
X69205Y-64717D01*
X69592Y-61775D01*
Y-53775D01*
X69205Y-50833D01*
X68069Y-48091D01*
X66263Y-45737D01*
X63909Y-43931D01*
X61167Y-42795D01*
X58225Y-42408D01*
X55283Y-42795D01*
X52541Y-43931D01*
X50187Y-45737D01*
X48498Y-47938D01*
X47650Y-48030D01*
X43066Y-47648D01*
X42669Y-46691D01*
X40863Y-44337D01*
X38509Y-42531D01*
X38010Y-42324D01*
Y-36826D01*
X38509Y-36619D01*
X40863Y-34813D01*
X42669Y-32459D01*
X43066Y-31502D01*
X47650Y-31120D01*
X48498Y-31212D01*
X50187Y-33413D01*
X52541Y-35219D01*
X55283Y-36355D01*
X58225Y-36742D01*
X61167Y-36355D01*
X63909Y-35219D01*
X66263Y-33413D01*
X68069Y-31059D01*
X69205Y-28317D01*
X69592Y-25375D01*
Y-17375D01*
X69205Y-14433D01*
X69098Y-14175D01*
X69205Y-13917D01*
X69592Y-10975D01*
Y-2975D01*
X69205Y-33D01*
X68069Y2709D01*
X66263Y5063D01*
X63909Y6869D01*
X61167Y8005D01*
X58225Y8392D01*
X55283Y8005D01*
X52541Y6869D01*
X50187Y5063D01*
X48498Y2862D01*
X47650Y2770D01*
X43066Y3152D01*
X42669Y4109D01*
X40863Y6463D01*
X38509Y8269D01*
X38010Y8476D01*
Y13974D01*
X38509Y14181D01*
X40863Y15987D01*
X42669Y18341D01*
X43066Y19298D01*
X47650Y19680D01*
X48498Y19588D01*
X50187Y17387D01*
X52541Y15581D01*
X55283Y14445D01*
X58225Y14058D01*
X61167Y14445D01*
X63909Y15581D01*
X66263Y17387D01*
X68069Y19741D01*
X69205Y22483D01*
X69592Y25425D01*
Y33425D01*
X69205Y36367D01*
X69098Y36625D01*
X69205Y36883D01*
X69592Y39825D01*
Y47825D01*
X69205Y50767D01*
X68069Y53509D01*
X66263Y55863D01*
X63909Y57669D01*
X61167Y58805D01*
X58225Y59192D01*
X55283Y58805D01*
X52541Y57669D01*
X50187Y55863D01*
X48498Y53662D01*
X47650Y53570D01*
X43066Y53952D01*
X42669Y54909D01*
X40863Y57263D01*
X38509Y59069D01*
X35767Y60205D01*
X32825Y60592D01*
D02*
G37*
G36*
X-321291Y35195D02*
X-324259D01*
X-327125Y34427D01*
X-329695Y32943D01*
X-331793Y30845D01*
X-333277Y28275D01*
X-334045Y25409D01*
Y22441D01*
X-333277Y19575D01*
X-331793Y17005D01*
X-329695Y14907D01*
X-328146Y14013D01*
X-327602Y11353D01*
Y11097D01*
X-328138Y8477D01*
X-328340Y8325D01*
X-329695Y7543D01*
X-330624Y6615D01*
X-332144Y5476D01*
X-336905Y6751D01*
Y9795D01*
X-347540D01*
Y-1475D01*
X-348175D01*
Y-2110D01*
X-359445D01*
Y-12745D01*
X-356401D01*
X-355040Y-17825D01*
X-355095Y-17857D01*
X-357193Y-19955D01*
X-358677Y-22525D01*
X-359445Y-25391D01*
Y-28359D01*
X-358677Y-31225D01*
X-357193Y-33795D01*
X-355095Y-35893D01*
X-353546Y-36787D01*
X-353002Y-39447D01*
Y-39703D01*
X-353546Y-42363D01*
X-355095Y-43257D01*
X-357193Y-45355D01*
X-358677Y-47925D01*
X-359445Y-50791D01*
Y-53759D01*
X-358677Y-56625D01*
X-357193Y-59195D01*
X-355095Y-61293D01*
X-353546Y-62187D01*
X-353002Y-64847D01*
Y-65103D01*
X-353546Y-67763D01*
X-355095Y-68657D01*
X-357193Y-70755D01*
X-358677Y-73325D01*
X-359445Y-76191D01*
Y-79159D01*
X-358677Y-82025D01*
X-357193Y-84595D01*
X-355095Y-86693D01*
X-353546Y-87587D01*
X-353002Y-90247D01*
Y-90503D01*
X-353546Y-93163D01*
X-355095Y-94057D01*
X-357193Y-96155D01*
X-358677Y-98725D01*
X-359445Y-101591D01*
Y-104559D01*
X-358677Y-107425D01*
X-357193Y-109995D01*
X-355095Y-112093D01*
X-353546Y-112987D01*
X-353002Y-115647D01*
Y-115903D01*
X-353546Y-118563D01*
X-355095Y-119457D01*
X-357193Y-121555D01*
X-358677Y-124125D01*
X-359445Y-126991D01*
Y-129959D01*
X-358677Y-132825D01*
X-357193Y-135395D01*
X-355095Y-137493D01*
X-353546Y-138387D01*
X-353002Y-141047D01*
Y-141303D01*
X-353546Y-143963D01*
X-355095Y-144857D01*
X-357193Y-146955D01*
X-358677Y-149525D01*
X-359445Y-152391D01*
Y-155359D01*
X-358677Y-158225D01*
X-357193Y-160795D01*
X-355095Y-162893D01*
X-353546Y-163787D01*
X-353002Y-166447D01*
Y-166703D01*
X-353546Y-169363D01*
X-355095Y-170257D01*
X-357193Y-172355D01*
X-358677Y-174925D01*
X-359445Y-177791D01*
Y-180759D01*
X-358677Y-183625D01*
X-357193Y-186195D01*
X-355095Y-188293D01*
X-352525Y-189777D01*
X-349659Y-190545D01*
X-346691D01*
X-343825Y-189777D01*
X-341255Y-188293D01*
X-339157Y-186195D01*
X-337673Y-183625D01*
X-337257Y-182073D01*
X-336954Y-180942D01*
X-307301D01*
X-307168Y-181007D01*
X-307021Y-181016D01*
X-306931Y-181032D01*
X-306809Y-181066D01*
X-306656Y-181124D01*
X-306478Y-181207D01*
X-306274Y-181318D01*
X-306061Y-181451D01*
X-305525Y-181840D01*
X-305237Y-182076D01*
X-305059Y-182130D01*
X-304844Y-182345D01*
X-303274Y-182995D01*
X-301576D01*
X-300006Y-182345D01*
X-298805Y-181144D01*
X-298155Y-179574D01*
Y-177876D01*
X-298805Y-176306D01*
X-300006Y-175105D01*
X-301576Y-174455D01*
X-303274D01*
X-304844Y-175105D01*
X-305551Y-175812D01*
X-305795Y-175936D01*
X-306021Y-176200D01*
X-306212Y-176401D01*
X-307332Y-176996D01*
X-307448Y-177058D01*
X-337102D01*
X-337375Y-176037D01*
X-337673Y-174925D01*
X-339157Y-172355D01*
X-341255Y-170257D01*
X-342804Y-169363D01*
X-343349Y-166703D01*
Y-166447D01*
X-342804Y-163787D01*
X-341255Y-162893D01*
X-339157Y-160795D01*
X-337673Y-158225D01*
X-337108Y-156117D01*
X-322458D01*
X-322347Y-156178D01*
X-321232Y-156768D01*
X-321041Y-156972D01*
X-320818Y-157236D01*
X-320579Y-157360D01*
X-319844Y-158095D01*
X-318274Y-158745D01*
X-316576D01*
X-315006Y-158095D01*
X-313805Y-156894D01*
X-313155Y-155324D01*
Y-153626D01*
X-313805Y-152056D01*
X-315006Y-150855D01*
X-316576Y-150205D01*
X-318274D01*
X-319844Y-150855D01*
X-320040Y-151051D01*
X-320209Y-151101D01*
X-320502Y-151336D01*
X-321042Y-151723D01*
X-321258Y-151856D01*
X-321465Y-151968D01*
X-321646Y-152051D01*
X-321799Y-152108D01*
X-321923Y-152143D01*
X-322014Y-152159D01*
X-322160Y-152168D01*
X-322293Y-152233D01*
X-336947D01*
X-337252Y-151097D01*
X-337673Y-149525D01*
X-339157Y-146955D01*
X-341255Y-144857D01*
X-342804Y-143963D01*
X-343349Y-141303D01*
Y-141047D01*
X-342804Y-138387D01*
X-341255Y-137493D01*
X-339157Y-135395D01*
X-338263Y-133846D01*
X-335603Y-133301D01*
X-335347D01*
X-332687Y-133846D01*
X-331793Y-135395D01*
X-329695Y-137493D01*
X-327125Y-138977D01*
X-324259Y-139745D01*
X-321291D01*
X-318425Y-138977D01*
X-315855Y-137493D01*
X-313757Y-135395D01*
X-312273Y-132825D01*
X-311505Y-129959D01*
Y-126991D01*
X-312273Y-124125D01*
X-313757Y-121555D01*
X-315855Y-119457D01*
X-317404Y-118563D01*
X-317948Y-115903D01*
Y-115647D01*
X-317404Y-112987D01*
X-315855Y-112093D01*
X-313757Y-109995D01*
X-312273Y-107425D01*
X-311505Y-104559D01*
Y-101591D01*
X-312273Y-98725D01*
X-313757Y-96155D01*
X-315855Y-94057D01*
X-317404Y-93163D01*
X-317948Y-90503D01*
Y-90247D01*
X-317404Y-87587D01*
X-315855Y-86693D01*
X-313757Y-84595D01*
X-312273Y-82025D01*
X-311505Y-79159D01*
Y-76191D01*
X-312273Y-73325D01*
X-313757Y-70755D01*
X-315855Y-68657D01*
X-317404Y-67763D01*
X-317948Y-65103D01*
Y-64847D01*
X-317404Y-62187D01*
X-315855Y-61293D01*
X-313757Y-59195D01*
X-312273Y-56625D01*
X-311505Y-53759D01*
Y-50791D01*
X-312273Y-47925D01*
X-313757Y-45355D01*
X-315855Y-43257D01*
X-317404Y-42363D01*
X-317948Y-39703D01*
Y-39447D01*
X-317404Y-36787D01*
X-315855Y-35893D01*
X-313757Y-33795D01*
X-312273Y-31225D01*
X-311505Y-28359D01*
Y-25391D01*
X-312273Y-22525D01*
X-313757Y-19955D01*
X-315855Y-17857D01*
X-317404Y-16963D01*
X-317948Y-14303D01*
Y-14047D01*
X-317404Y-11387D01*
X-315855Y-10493D01*
X-313757Y-8395D01*
X-312273Y-5825D01*
X-311505Y-2959D01*
Y-2110D01*
X-322775D01*
Y-840D01*
X-311505D01*
Y9D01*
X-312273Y2875D01*
X-313757Y5445D01*
X-315855Y7543D01*
X-317404Y8437D01*
X-317948Y11097D01*
Y11353D01*
X-317404Y14013D01*
X-315855Y14907D01*
X-313757Y17005D01*
X-312273Y19575D01*
X-311505Y22441D01*
Y25409D01*
X-312273Y28275D01*
X-313757Y30845D01*
X-315855Y32943D01*
X-318425Y34427D01*
X-321291Y35195D01*
D02*
G37*
G36*
X-348810Y9795D02*
X-359445D01*
Y-840D01*
X-348810D01*
Y9795D01*
D02*
G37*
G36*
X58860Y-194891D02*
Y-209540D01*
X69592D01*
Y-206175D01*
X69205Y-203233D01*
X68069Y-200491D01*
X66263Y-198137D01*
X63909Y-196331D01*
X61167Y-195195D01*
X58860Y-194891D01*
D02*
G37*
G36*
X-245091Y-218805D02*
X-248059D01*
X-250925Y-219573D01*
X-253495Y-221057D01*
X-255593Y-223155D01*
X-256487Y-224704D01*
X-259147Y-225249D01*
X-259403D01*
X-262063Y-224704D01*
X-262957Y-223155D01*
X-265055Y-221057D01*
X-267625Y-219573D01*
X-270491Y-218805D01*
X-273459D01*
X-276325Y-219573D01*
X-278895Y-221057D01*
X-280993Y-223155D01*
X-281887Y-224704D01*
X-284547Y-225249D01*
X-284803D01*
X-287463Y-224704D01*
X-288357Y-223155D01*
X-290455Y-221057D01*
X-293025Y-219573D01*
X-295891Y-218805D01*
X-298859D01*
X-301725Y-219573D01*
X-304295Y-221057D01*
X-306393Y-223155D01*
X-307287Y-224704D01*
X-309947Y-225249D01*
X-310203D01*
X-312863Y-224704D01*
X-313757Y-223155D01*
X-315855Y-221057D01*
X-318425Y-219573D01*
X-321291Y-218805D01*
X-324259D01*
X-327125Y-219573D01*
X-329695Y-221057D01*
X-331793Y-223155D01*
X-333277Y-225725D01*
X-334045Y-228591D01*
Y-231559D01*
X-333277Y-234425D01*
X-331793Y-236995D01*
X-329695Y-239093D01*
X-327125Y-240577D01*
X-324259Y-241345D01*
X-321291D01*
X-318425Y-240577D01*
X-315855Y-239093D01*
X-313757Y-236995D01*
X-312863Y-235446D01*
X-310203Y-234902D01*
X-309947D01*
X-307287Y-235446D01*
X-306393Y-236995D01*
X-304295Y-239093D01*
X-301725Y-240577D01*
X-298859Y-241345D01*
X-295891D01*
X-293025Y-240577D01*
X-290455Y-239093D01*
X-288357Y-236995D01*
X-287463Y-235446D01*
X-284803Y-234902D01*
X-284547D01*
X-281887Y-235446D01*
X-280993Y-236995D01*
X-278895Y-239093D01*
X-276325Y-240577D01*
X-273459Y-241345D01*
X-270491D01*
X-267625Y-240577D01*
X-265055Y-239093D01*
X-262957Y-236995D01*
X-262063Y-235446D01*
X-259403Y-234902D01*
X-259147D01*
X-256487Y-235446D01*
X-255593Y-236995D01*
X-253495Y-239093D01*
X-250925Y-240577D01*
X-248059Y-241345D01*
X-245091D01*
X-242225Y-240577D01*
X-239655Y-239093D01*
X-237557Y-236995D01*
X-236073Y-234425D01*
X-235305Y-231559D01*
Y-228591D01*
X-236073Y-225725D01*
X-237557Y-223155D01*
X-239655Y-221057D01*
X-242225Y-219573D01*
X-245091Y-218805D01*
D02*
G37*
G36*
X-129759Y47275D02*
X-133959D01*
Y-21380D01*
X-137770D01*
Y-79420D01*
X-133959D01*
Y-128080D01*
X-137770D01*
Y-186120D01*
X-133959D01*
Y-230225D01*
X-129759D01*
Y-186120D01*
X-71230D01*
Y-128080D01*
X-129759D01*
Y-79420D01*
X-71230D01*
Y-21380D01*
X-129759D01*
Y47275D01*
D02*
G37*
G36*
X69592Y-225210D02*
X58860D01*
Y-239859D01*
X61167Y-239555D01*
X63909Y-238419D01*
X66263Y-236613D01*
X68069Y-234259D01*
X69205Y-231517D01*
X69592Y-228575D01*
Y-225210D01*
D02*
G37*
G36*
X32190Y-225610D02*
X21458D01*
Y-229975D01*
X21845Y-232917D01*
X22981Y-235659D01*
X24787Y-238013D01*
X27141Y-239819D01*
X29883Y-240955D01*
X32190Y-241259D01*
Y-225610D01*
D02*
G37*
%LPD*%
G36*
X-319767Y-156350D02*
X-320013Y-156058D01*
X-320259Y-155796D01*
X-320504Y-155565D01*
X-320749Y-155365D01*
X-320993Y-155195D01*
X-321237Y-155056D01*
X-321480Y-154949D01*
X-321723Y-154872D01*
X-321965Y-154825D01*
X-322206Y-154810D01*
X-322076Y-153540D01*
X-321852Y-153526D01*
X-321618Y-153485D01*
X-321373Y-153417D01*
X-321117Y-153321D01*
X-320849Y-153198D01*
X-320571Y-153047D01*
X-320281Y-152869D01*
X-319669Y-152431D01*
X-319347Y-152171D01*
X-319767Y-156350D01*
D02*
G37*
G36*
X-304366Y-181012D02*
X-304685Y-180751D01*
X-305292Y-180310D01*
X-305580Y-180131D01*
X-305857Y-179979D01*
X-306124Y-179855D01*
X-306380Y-179759D01*
X-306625Y-179690D01*
X-306859Y-179649D01*
X-307084Y-179635D01*
X-307203Y-178365D01*
X-306962Y-178350D01*
X-306721Y-178304D01*
X-306478Y-178227D01*
X-306234Y-178119D01*
X-305989Y-177981D01*
X-305743Y-177812D01*
X-305497Y-177613D01*
X-305249Y-177383D01*
X-305000Y-177122D01*
X-304751Y-176830D01*
X-304366Y-181012D01*
D02*
G37*
D20*
X-104500Y-50400D02*
D03*
Y-157100D02*
D03*
D40*
X-348175Y-179275D02*
X-347900Y-179000D01*
X-302700D01*
X-302425Y-178725D01*
X-348175Y-153875D02*
X-347875Y-154175D01*
X-317725D02*
X-317425Y-154475D01*
X-347875Y-154175D02*
X-317725D01*
X-246650Y-230000D02*
X-246575Y-230075D01*
D41*
X32825Y44225D02*
D03*
Y29025D02*
D03*
Y-6575D02*
D03*
Y-21775D02*
D03*
Y-57375D02*
D03*
Y-72575D02*
D03*
Y-108175D02*
D03*
Y-123375D02*
D03*
Y-158975D02*
D03*
Y-174175D02*
D03*
Y-209775D02*
D03*
Y-224975D02*
D03*
D42*
X-322775Y23925D02*
D03*
Y-1475D02*
D03*
Y-26875D02*
D03*
Y-52275D02*
D03*
Y-77675D02*
D03*
Y-103075D02*
D03*
Y-128475D02*
D03*
Y-230075D02*
D03*
X-297375D02*
D03*
X-271975D02*
D03*
X-246575D02*
D03*
X-348175Y-26875D02*
D03*
Y-179275D02*
D03*
Y-103075D02*
D03*
Y-77675D02*
D03*
Y-52275D02*
D03*
Y-153875D02*
D03*
Y-128475D02*
D03*
D43*
X58225Y29425D02*
D03*
Y43825D02*
D03*
Y-122975D02*
D03*
Y-173775D02*
D03*
Y-159375D02*
D03*
Y-6975D02*
D03*
Y-21375D02*
D03*
Y-72175D02*
D03*
Y-57775D02*
D03*
Y-108575D02*
D03*
Y-224575D02*
D03*
Y-210175D02*
D03*
D44*
X-348175Y-1475D02*
D03*
D45*
X19775Y-39775D02*
D03*
X-10225Y-219775D02*
D03*
X-25225Y-9775D02*
D03*
X-40225Y-39775D02*
D03*
Y-99775D02*
D03*
Y-159775D02*
D03*
Y-219775D02*
D03*
X-55225Y50225D02*
D03*
Y-9775D02*
D03*
X-70225Y-99775D02*
D03*
Y-219775D02*
D03*
X-85225Y50225D02*
D03*
Y-9775D02*
D03*
X-100225Y-99775D02*
D03*
X-85225Y-189775D02*
D03*
X-100225Y-219775D02*
D03*
X-115225Y50225D02*
D03*
Y-9775D02*
D03*
Y-189775D02*
D03*
X-145225Y50225D02*
D03*
X-160225Y20225D02*
D03*
X-145225Y-9775D02*
D03*
Y-129775D02*
D03*
X-160225Y-159775D02*
D03*
X-145225Y-189775D02*
D03*
X-160225Y-219775D02*
D03*
X-175225Y50225D02*
D03*
X-190225Y20225D02*
D03*
X-175225Y-9775D02*
D03*
X-190225Y-159775D02*
D03*
X-175225Y-189775D02*
D03*
X-190225Y-219775D02*
D03*
X-205225Y50225D02*
D03*
Y-9775D02*
D03*
X-220225Y-39775D02*
D03*
Y-159775D02*
D03*
X-205225Y-189775D02*
D03*
X-220225Y-219775D02*
D03*
X-235225Y50225D02*
D03*
Y-9775D02*
D03*
Y-69775D02*
D03*
Y-189775D02*
D03*
X-265225Y50225D02*
D03*
Y-9775D02*
D03*
X-280225Y-39775D02*
D03*
X-265225Y-69775D02*
D03*
X-295225Y50225D02*
D03*
Y-9775D02*
D03*
X-310225Y-39775D02*
D03*
X-325225Y50225D02*
D03*
X-340225Y20225D02*
D03*
Y-219775D02*
D03*
X-40225Y60225D02*
D03*
X-50225D02*
D03*
X-60225D02*
D03*
X-70225D02*
D03*
X-80225D02*
D03*
X-90225D02*
D03*
X-100225D02*
D03*
X-110225D02*
D03*
X-105225Y50225D02*
D03*
X-120225Y60225D02*
D03*
X-115225Y50225D02*
D03*
X-130225Y60225D02*
D03*
X-125225Y50225D02*
D03*
X-140225Y60225D02*
D03*
X-135225Y50225D02*
D03*
X-140225Y40225D02*
D03*
X-150225Y60225D02*
D03*
X-145225Y50225D02*
D03*
X-150225Y40225D02*
D03*
X-160225Y60225D02*
D03*
X-155225Y50225D02*
D03*
X-160225Y40225D02*
D03*
X-170225Y60225D02*
D03*
X-180225D02*
D03*
X-190225D02*
D03*
X-200225D02*
D03*
X-210225D02*
D03*
X-220225D02*
D03*
X-230225D02*
D03*
X-240225D02*
D03*
X-250225D02*
D03*
X-260225D02*
D03*
X-270225D02*
D03*
X-280225D02*
D03*
X-290225D02*
D03*
X-300225D02*
D03*
X-310225D02*
D03*
X9775Y-239775D02*
D03*
X-225D02*
D03*
X-10225D02*
D03*
X-20225D02*
D03*
X-30225D02*
D03*
X-40225D02*
D03*
X-50225D02*
D03*
X-60225D02*
D03*
X-70225D02*
D03*
X-80225D02*
D03*
X-90225D02*
D03*
X-100225Y-219775D02*
D03*
Y-239775D02*
D03*
X-110225Y-219775D02*
D03*
X-105225Y-229775D02*
D03*
X-110225Y-239775D02*
D03*
X-120225Y-219775D02*
D03*
X-115225Y-229775D02*
D03*
X-120225Y-239775D02*
D03*
X-125225Y-229775D02*
D03*
X-130225Y-239775D02*
D03*
X-140225Y-219775D02*
D03*
Y-239775D02*
D03*
X-150225Y-219775D02*
D03*
X-145225Y-229775D02*
D03*
X-150225Y-239775D02*
D03*
X-160225Y-219775D02*
D03*
X-155225Y-229775D02*
D03*
X-160225Y-239775D02*
D03*
X-165225Y-229775D02*
D03*
X-170225Y-239775D02*
D03*
X-180225D02*
D03*
X-190225D02*
D03*
X-200225D02*
D03*
X-210225D02*
D03*
X-220225D02*
D03*
X-230225D02*
D03*
X-260225D02*
D03*
X-310225D02*
D03*
X-320225Y60225D02*
D03*
Y40225D02*
D03*
X-330225Y60225D02*
D03*
X-325225Y50225D02*
D03*
X-330225Y40225D02*
D03*
Y-159775D02*
D03*
Y-199775D02*
D03*
X-340225Y60225D02*
D03*
X-335225Y50225D02*
D03*
X-340225Y40225D02*
D03*
Y20225D02*
D03*
X-335225Y-169775D02*
D03*
Y-189775D02*
D03*
X-340225Y-199775D02*
D03*
X-335225Y-209775D02*
D03*
X-340225Y-219775D02*
D03*
Y-239775D02*
D03*
X-350225Y60225D02*
D03*
X-345225Y50225D02*
D03*
X-350225Y40225D02*
D03*
X-345225Y30225D02*
D03*
X-350225Y20225D02*
D03*
Y-199775D02*
D03*
X-345225Y-209775D02*
D03*
X-350225Y-219775D02*
D03*
X-345225Y-229775D02*
D03*
X-350225Y-239775D02*
D03*
X-360225Y60225D02*
D03*
X-355225Y50225D02*
D03*
X-360225Y40225D02*
D03*
X-355225Y30225D02*
D03*
X-360225Y20225D02*
D03*
Y-39775D02*
D03*
Y-119775D02*
D03*
Y-139775D02*
D03*
Y-199775D02*
D03*
X-355225Y-209775D02*
D03*
X-360225Y-219775D02*
D03*
X-355225Y-229775D02*
D03*
X-360225Y-239775D02*
D03*
X-240225Y-59775D02*
D03*
X-235225Y-69775D02*
D03*
X-240225Y-79775D02*
D03*
X-235225Y-89775D02*
D03*
X-240225Y-99775D02*
D03*
X-235225Y-109775D02*
D03*
X-240225Y-119775D02*
D03*
X-208000Y27750D02*
D03*
X-222000D02*
D03*
Y19750D02*
D03*
X-208000D02*
D03*
X-97750Y31750D02*
D03*
X-111750D02*
D03*
Y23750D02*
D03*
X-97750D02*
D03*
X6750Y27750D02*
D03*
X-7250D02*
D03*
Y19750D02*
D03*
X6750D02*
D03*
Y4250D02*
D03*
X-7250D02*
D03*
Y-3750D02*
D03*
X6750D02*
D03*
Y-45000D02*
D03*
X-7250D02*
D03*
Y-53000D02*
D03*
X6750D02*
D03*
Y-96750D02*
D03*
X-7250D02*
D03*
Y-104750D02*
D03*
X6750D02*
D03*
X-7000Y-157500D02*
D03*
X7000D02*
D03*
Y-149500D02*
D03*
X-7000D02*
D03*
X69775Y60225D02*
D03*
X74775Y50225D02*
D03*
Y30225D02*
D03*
Y10225D02*
D03*
Y-9775D02*
D03*
Y-29775D02*
D03*
X69775Y-39775D02*
D03*
X74775Y-49775D02*
D03*
Y-69775D02*
D03*
Y-89775D02*
D03*
Y-109775D02*
D03*
Y-129775D02*
D03*
X69775Y-139775D02*
D03*
X74775Y-149775D02*
D03*
Y-169775D02*
D03*
Y-189775D02*
D03*
Y-209775D02*
D03*
Y-229775D02*
D03*
X69775Y-239775D02*
D03*
X-302425Y-178725D02*
D03*
X-317425Y-154475D02*
D03*
X-117200Y-31350D02*
D03*
Y-44050D02*
D03*
X-129900D02*
D03*
Y-56750D02*
D03*
X-117200D02*
D03*
X-104500D02*
D03*
Y-44050D02*
D03*
Y-31350D02*
D03*
X-91800D02*
D03*
Y-44050D02*
D03*
Y-56750D02*
D03*
X-79100Y-44050D02*
D03*
Y-56750D02*
D03*
X-91800Y-69450D02*
D03*
X-104500D02*
D03*
X-117200D02*
D03*
X-129900D02*
D03*
Y-31350D02*
D03*
X-79100D02*
D03*
Y-69450D02*
D03*
X-117200Y-138050D02*
D03*
Y-150750D02*
D03*
X-129900D02*
D03*
Y-163450D02*
D03*
X-117200D02*
D03*
X-104500D02*
D03*
Y-150750D02*
D03*
Y-138050D02*
D03*
X-91800D02*
D03*
Y-150750D02*
D03*
Y-163450D02*
D03*
X-79100Y-150750D02*
D03*
Y-163450D02*
D03*
X-91800Y-176150D02*
D03*
X-104500D02*
D03*
X-117200D02*
D03*
X-129900D02*
D03*
Y-138050D02*
D03*
X-79100D02*
D03*
Y-176150D02*
D03*
X-203550Y-89100D02*
D03*
X-242475Y-2775D02*
D03*
X-155495Y-62755D02*
D03*
X-155495Y-106255D02*
D03*
X-155495Y-48755D02*
D03*
X-155475Y-120775D02*
D03*
M02*
