G04*
G04 #@! TF.GenerationSoftware,Altium Limited,Altium Designer,22.5.1 (42)*
G04*
G04 Layer_Color=128*
%FSLAX44Y44*%
%MOMM*%
G71*
G04*
G04 #@! TF.SameCoordinates,51E17F9E-36CB-467A-9023-B1406ADC4060*
G04*
G04*
G04 #@! TF.FilePolarity,Positive*
G04*
G01*
G75*
%ADD48C,0.0508*%
D48*
X20300Y152400D02*
X30500D01*
X25400Y147300D02*
Y157500D01*
X20300Y127000D02*
X30500D01*
X25400Y121900D02*
Y132100D01*
X20300Y101600D02*
X30500D01*
X25400Y96500D02*
Y106700D01*
X20300Y76200D02*
X30500D01*
X25400Y71100D02*
Y81300D01*
X20300Y50800D02*
X30500D01*
X25400Y45700D02*
Y55900D01*
X20300Y25400D02*
X30500D01*
X25400Y20300D02*
Y30500D01*
X20300Y0D02*
X30500D01*
X25400Y-5100D02*
Y5100D01*
X20300Y-101600D02*
X30500D01*
X25400Y-106700D02*
Y-96500D01*
X45700Y-101600D02*
X55900D01*
X50800Y-106700D02*
Y-96500D01*
X71100Y-101600D02*
X81300D01*
X76200Y-106700D02*
Y-96500D01*
X96500Y-101600D02*
X106700D01*
X101600Y-106700D02*
Y-96500D01*
X375900Y177800D02*
X386100D01*
X381000Y172700D02*
Y182900D01*
X375900Y152400D02*
X386100D01*
X381000Y147300D02*
Y157500D01*
X375900Y127000D02*
X386100D01*
X381000Y121900D02*
Y132100D01*
X375900Y101600D02*
X386100D01*
X381000Y96500D02*
Y106700D01*
X375900Y76200D02*
X386100D01*
X381000Y71100D02*
Y81300D01*
X375900Y50800D02*
X386100D01*
X381000Y45700D02*
Y55900D01*
X375900Y25400D02*
X386100D01*
X381000Y20300D02*
Y30500D01*
X375900Y0D02*
X386100D01*
X381000Y-5100D02*
Y5100D01*
X375900Y-25400D02*
X386100D01*
X381000Y-30500D02*
Y-20300D01*
X375900Y-50800D02*
X386100D01*
X381000Y-55900D02*
Y-45700D01*
X375900Y-76200D02*
X386100D01*
X381000Y-81300D02*
Y-71100D01*
X375900Y-101600D02*
X386100D01*
X381000Y-106700D02*
Y-96500D01*
X401400Y152400D02*
X411400D01*
X406400Y147400D02*
Y157400D01*
X401400Y177800D02*
X411400D01*
X406400Y172800D02*
Y182800D01*
X401400Y0D02*
X411400D01*
X406400Y-5000D02*
Y5000D01*
X401400Y-50800D02*
X411400D01*
X406400Y-55800D02*
Y-45800D01*
X401400Y-25400D02*
X411400D01*
X406400Y-30400D02*
Y-20400D01*
X401400Y127000D02*
X411400D01*
X406400Y122000D02*
Y132000D01*
X401400Y101600D02*
X411400D01*
X406400Y96600D02*
Y106600D01*
X401400Y50800D02*
X411400D01*
X406400Y45800D02*
Y55800D01*
X401400Y76200D02*
X411400D01*
X406400Y71200D02*
Y81200D01*
X401400Y25400D02*
X411400D01*
X406400Y20400D02*
Y30400D01*
X401400Y-101600D02*
X411400D01*
X406400Y-106600D02*
Y-96600D01*
X401400Y-76200D02*
X411400D01*
X406400Y-81200D02*
Y-71200D01*
X-5000Y101600D02*
X5000D01*
X0Y96600D02*
Y106600D01*
X-5000Y-50800D02*
X5000D01*
X0Y-55800D02*
Y-45800D01*
X-5000Y25400D02*
X5000D01*
X0Y20400D02*
Y30400D01*
X-5000Y50800D02*
X5000D01*
X0Y45800D02*
Y55800D01*
X-5000Y76200D02*
X5000D01*
X0Y71200D02*
Y81200D01*
X-5000Y-25400D02*
X5000D01*
X0Y-30400D02*
Y-20400D01*
X-5000Y0D02*
X5000D01*
X0Y-5000D02*
Y5000D01*
X-5000Y127000D02*
X5000D01*
X0Y122000D02*
Y132000D01*
X310650Y-17860D02*
X315650D01*
X313150Y-20360D02*
Y-15360D01*
X308110Y78660D02*
X313110D01*
X310610Y76160D02*
Y81160D01*
X344200Y185450D02*
X349200D01*
X346700Y182950D02*
Y187950D01*
X104200Y125700D02*
X107200D01*
X105700Y124200D02*
Y127200D01*
X104950Y39200D02*
X107950D01*
X106450Y37700D02*
Y40700D01*
X191180Y65720D02*
X194180D01*
X192680Y64220D02*
Y67220D01*
X191180Y22220D02*
X194180D01*
X192680Y20720D02*
Y23720D01*
X191180Y79720D02*
X194180D01*
X192680Y78220D02*
Y81220D01*
X191200Y7700D02*
X194200D01*
X192700Y6200D02*
Y9200D01*
X169136Y152020D02*
X172136D01*
X170636Y150520D02*
Y153520D01*
X232430Y152970D02*
X237430D01*
X234930Y150470D02*
Y155470D01*
X39350Y52300D02*
X42350D01*
X40850Y50800D02*
Y53800D01*
X44255Y26650D02*
X47255D01*
X45755Y25150D02*
Y28150D01*
X49700Y64950D02*
X52700D01*
X51200Y63450D02*
Y66450D01*
X49450Y1200D02*
X52450D01*
X50950Y-300D02*
Y2700D01*
X105200Y76450D02*
X108200D01*
X106700Y74950D02*
Y77950D01*
X99950Y1450D02*
X102950D01*
X101450Y-50D02*
Y2950D01*
M02*
