G04*
G04 #@! TF.GenerationSoftware,Altium Limited,Altium Designer,22.6.1 (34)*
G04*
G04 Layer_Color=8421504*
%FSLAX44Y44*%
%MOMM*%
G71*
G04*
G04 #@! TF.SameCoordinates,1BA94AFE-F389-4845-A448-9423F8A8FC82*
G04*
G04*
G04 #@! TF.FilePolarity,Positive*
G04*
G01*
G75*
%ADD15R,3.6000X1.8500*%
%ADD16R,2.8000X1.5500*%
%ADD17O,2.0000X0.6000*%
%ADD18R,1.0500X1.0000*%
%ADD19R,1.0000X0.9500*%
%ADD20R,6.4000X5.5500*%
%ADD21R,3.0000X1.2500*%
%ADD22R,0.9500X0.9000*%
D15*
X-103750Y27500D02*
D03*
X-51250D02*
D03*
X-268195Y23545D02*
D03*
X-215695D02*
D03*
D16*
X0Y50000D02*
D03*
Y23500D02*
D03*
Y-101000D02*
D03*
Y-127500D02*
D03*
Y-75750D02*
D03*
Y-49250D02*
D03*
Y-180000D02*
D03*
Y-153500D02*
D03*
Y-26500D02*
D03*
Y0D02*
D03*
D17*
X-279925Y-50875D02*
D03*
Y-63575D02*
D03*
Y-76275D02*
D03*
Y-88975D02*
D03*
Y-101675D02*
D03*
Y-114375D02*
D03*
Y-127075D02*
D03*
X-220425Y-63575D02*
D03*
Y-76275D02*
D03*
Y-88975D02*
D03*
Y-101675D02*
D03*
Y-114375D02*
D03*
Y-127075D02*
D03*
Y-50875D02*
D03*
D18*
X-169155Y-47755D02*
D03*
X-183655D02*
D03*
X-169155Y-120755D02*
D03*
X-183655D02*
D03*
X-169155Y-76755D02*
D03*
X-183655D02*
D03*
X-169155Y-91755D02*
D03*
X-183655D02*
D03*
D19*
X-257175Y-25025D02*
D03*
X-242175D02*
D03*
D20*
X-104500Y-50400D02*
D03*
Y-157100D02*
D03*
D21*
X-40000Y-27500D02*
D03*
Y-73300D02*
D03*
Y-134200D02*
D03*
Y-180000D02*
D03*
D22*
X-169655Y-33255D02*
D03*
X-184155D02*
D03*
X-169655Y-135255D02*
D03*
X-184155D02*
D03*
Y-62255D02*
D03*
X-169655D02*
D03*
X-184155Y-106255D02*
D03*
X-169655D02*
D03*
M02*
