G04*
G04 #@! TF.GenerationSoftware,Altium Limited,Altium Designer,22.6.1 (34)*
G04*
G04 Layer_Color=65535*
%FSLAX44Y44*%
%MOMM*%
G71*
G04*
G04 #@! TF.SameCoordinates,1BA94AFE-F389-4845-A448-9423F8A8FC82*
G04*
G04*
G04 #@! TF.FilePolarity,Positive*
G04*
G01*
G75*
%ADD10C,0.2500*%
%ADD11C,0.6000*%
%ADD12C,0.2000*%
%ADD13C,0.0500*%
%ADD14C,0.1000*%
G36*
X-357065Y66025D02*
X-367225Y55865D01*
Y66025D01*
X-357065D01*
D02*
G37*
G36*
X-334925Y10915D02*
Y14725D01*
X-338735D01*
X-334925Y10915D01*
D02*
G37*
G36*
X71475Y61715D02*
Y65525D01*
X67665D01*
X71475Y61715D01*
D02*
G37*
D10*
X-276175Y-42375D02*
G03*
X-276175Y-42375I-1250J0D01*
G01*
X-38750Y-85050D02*
G03*
X-38750Y-85050I-1250J0D01*
G01*
Y-191750D02*
G03*
X-38750Y-191750I-1250J0D01*
G01*
D11*
X-253175Y-54975D02*
G03*
X-253175Y-54975I-3000J0D01*
G01*
D12*
X-111500Y61500D02*
X-55875Y61500D01*
X-111500Y39750D02*
Y61500D01*
Y-6500D02*
Y15250D01*
Y-6500D02*
X-55875D01*
X-43500Y39750D02*
Y49125D01*
X-55875Y61500D02*
X-43500Y49125D01*
X-55875Y-6500D02*
X-43500Y5875D01*
X-43500Y15250D01*
X-266175Y-132975D02*
Y-44975D01*
X-234175Y-132975D02*
Y-44975D01*
X-266175D02*
X-234175D01*
X-266175Y-132975D02*
X-234175D01*
X-275945Y35795D02*
Y45170D01*
X-263570Y57545D01*
X-275945Y1920D02*
X-263570Y-10455D01*
X-275945Y1920D02*
Y11295D01*
X-263570Y57545D02*
X-207945D01*
Y35795D02*
Y57545D01*
Y-10455D02*
Y11295D01*
X-263570Y-10455D02*
X-207945D01*
X-68500Y-16900D02*
X-59500D01*
Y-83900D02*
Y-16900D01*
X-68500Y-83900D02*
X-59500D01*
X-68500Y-123600D02*
X-59500D01*
Y-190600D02*
Y-123600D01*
X-68500Y-190600D02*
X-59500D01*
D13*
X-16500Y60250D02*
X16500D01*
X-16500Y13250D02*
X16500D01*
Y60250D01*
X-16500Y13250D02*
Y60250D01*
X16500Y-137750D02*
Y-90750D01*
X-16500Y-137750D02*
Y-90750D01*
X16500D01*
X-16500Y-137750D02*
X16500D01*
X-16500Y-86000D02*
X16500D01*
X-16500Y-39000D02*
X16500D01*
X-16500Y-86000D02*
Y-39000D01*
X16500Y-86000D02*
Y-39000D01*
X-16500Y-190250D02*
X16500D01*
X-16500Y-143250D02*
X16500D01*
X-16500Y-190250D02*
Y-143250D01*
X16500Y-190250D02*
Y-143250D01*
X-16500Y-36750D02*
X16500D01*
X-16500Y10250D02*
X16500D01*
X-16500Y-36750D02*
Y10250D01*
X16500Y-36750D02*
Y10250D01*
X-191405Y-55255D02*
X-161405D01*
X-191405D02*
Y-40255D01*
X-161405D01*
Y-55255D02*
Y-40255D01*
X-191405Y-128255D02*
X-161405D01*
X-191405D02*
Y-113255D01*
X-161405D01*
Y-128255D02*
Y-113255D01*
X-191405Y-84255D02*
X-161405D01*
X-191405D02*
Y-69255D01*
X-161405D01*
Y-84255D02*
Y-69255D01*
X-191405Y-99255D02*
X-161405D01*
X-191405D02*
Y-84255D01*
X-161405D01*
Y-99255D02*
Y-84255D01*
X-264675Y-17525D02*
X-234675D01*
X-264675Y-32525D02*
X-234675D01*
X-264675D02*
Y-17525D01*
X-234675Y-32525D02*
Y-17525D01*
X-139000Y-86650D02*
X-23000D01*
X-139000D02*
Y-14150D01*
X-23000D01*
Y-86650D02*
Y-14150D01*
X-139000Y-193350D02*
X-23000D01*
X-139000D02*
Y-120850D01*
X-23000D01*
Y-193350D02*
Y-120850D01*
X-191405Y-40255D02*
Y-26255D01*
Y-40255D02*
X-162405D01*
Y-26255D01*
X-191405D02*
X-162405D01*
X-191405Y-142255D02*
Y-128255D01*
Y-142255D02*
X-162405D01*
Y-128255D01*
X-191405D02*
X-162405D01*
Y-69255D02*
Y-55255D01*
X-191405D02*
X-162405D01*
X-191405Y-69255D02*
Y-55255D01*
Y-69255D02*
X-162405D01*
Y-113255D02*
Y-99255D01*
X-191405D02*
X-162405D01*
X-191405Y-113255D02*
Y-99255D01*
Y-113255D02*
X-162405D01*
D14*
X-334925Y10915D02*
Y14725D01*
X-338735D02*
X-334925D01*
X-338735D02*
X-334925Y10915D01*
X-341275Y14725D02*
X-334925Y8375D01*
Y-195475D02*
Y8375D01*
X-361425Y14725D02*
X-341275Y14725D01*
X-361425Y-195475D02*
Y14725D01*
Y-195475D02*
X-334925D01*
X-354525Y66025D02*
X83625D01*
X-367225Y-246775D02*
Y53325D01*
Y-246775D02*
X83625D01*
Y66025D01*
X-367225Y53325D02*
X-354525Y66025D01*
X-367225Y55865D02*
X-357065Y66025D01*
X-367225Y55865D02*
Y66025D01*
X-357065D01*
X44975Y-246275D02*
Y65525D01*
X71475Y61715D02*
Y65525D01*
X67665D02*
X71475D01*
X67665D02*
X71475Y61715D01*
X65125Y65525D02*
X71475Y59175D01*
Y-246275D02*
Y59175D01*
X44975Y65525D02*
X65125Y65525D01*
X44975Y-246275D02*
X71475D01*
X-23333Y-93334D02*
X-24166Y-92501D01*
X-25832D01*
X-26665Y-93334D01*
Y-96666D01*
X-25832Y-97499D01*
X-24166D01*
X-23333Y-96666D01*
X-21667Y-92501D02*
X-18335D01*
Y-93334D01*
X-21667Y-96666D01*
Y-97499D01*
X-138323Y-109649D02*
Y-114647D01*
X-135824D01*
X-134991Y-113814D01*
Y-110482D01*
X-135824Y-109649D01*
X-138323D01*
X-133325D02*
Y-113814D01*
X-132492Y-114647D01*
X-130825D01*
X-129992Y-113814D01*
Y-109649D01*
X-124994Y-114647D02*
X-128326D01*
X-124994Y-111315D01*
Y-110482D01*
X-125827Y-109649D01*
X-127493D01*
X-128326Y-110482D01*
X-138363Y-2715D02*
Y-7713D01*
X-135864D01*
X-135031Y-6880D01*
Y-3548D01*
X-135864Y-2715D01*
X-138363D01*
X-133365D02*
Y-6880D01*
X-132532Y-7713D01*
X-130865D01*
X-130032Y-6880D01*
Y-2715D01*
X-128366Y-7713D02*
X-126700D01*
X-127533D01*
Y-2715D01*
X-128366Y-3548D01*
X-270757Y-37976D02*
Y-42141D01*
X-269924Y-42974D01*
X-268258D01*
X-267425Y-42141D01*
Y-37976D01*
X-265759Y-42974D02*
X-264093D01*
X-264926D01*
Y-37976D01*
X-265759Y-38809D01*
X-271925Y59391D02*
X-272758Y60224D01*
X-274424D01*
X-275257Y59391D01*
Y56059D01*
X-274424Y55226D01*
X-272758D01*
X-271925Y56059D01*
X-270259Y55226D02*
X-268593D01*
X-269426D01*
Y60224D01*
X-270259Y59391D01*
X-224758Y-23109D02*
X-225591Y-22276D01*
X-227257D01*
X-228090Y-23109D01*
Y-26441D01*
X-227257Y-27274D01*
X-225591D01*
X-224758Y-26441D01*
X-219760Y-27274D02*
X-223092D01*
X-219760Y-23942D01*
Y-23109D01*
X-220593Y-22276D01*
X-222259D01*
X-223092Y-23109D01*
X-118333Y60916D02*
X-119166Y61749D01*
X-120832D01*
X-121665Y60916D01*
Y57584D01*
X-120832Y56751D01*
X-119166D01*
X-118333Y57584D01*
X-116667Y60916D02*
X-115834Y61749D01*
X-114168D01*
X-113335Y60916D01*
Y60083D01*
X-114168Y59250D01*
X-115001D01*
X-114168D01*
X-113335Y58417D01*
Y57584D01*
X-114168Y56751D01*
X-115834D01*
X-116667Y57584D01*
X-23333Y59166D02*
X-24166Y59999D01*
X-25832D01*
X-26665Y59166D01*
Y55834D01*
X-25832Y55001D01*
X-24166D01*
X-23333Y55834D01*
X-19168Y55001D02*
Y59999D01*
X-21667Y57500D01*
X-18335D01*
X-23333Y9166D02*
X-24166Y9999D01*
X-25832D01*
X-26665Y9166D01*
Y5834D01*
X-25832Y5001D01*
X-24166D01*
X-23333Y5834D01*
X-18335Y9999D02*
X-21667D01*
Y7500D01*
X-20001Y8333D01*
X-19168D01*
X-18335Y7500D01*
Y5834D01*
X-19168Y5001D01*
X-20834D01*
X-21667Y5834D01*
X-23333Y-38334D02*
X-24166Y-37501D01*
X-25832D01*
X-26665Y-38334D01*
Y-41666D01*
X-25832Y-42499D01*
X-24166D01*
X-23333Y-41666D01*
X-18335Y-37501D02*
X-20001Y-38334D01*
X-21667Y-40000D01*
Y-41666D01*
X-20834Y-42499D01*
X-19168D01*
X-18335Y-41666D01*
Y-40833D01*
X-19168Y-40000D01*
X-21667D01*
X-23333Y-145834D02*
X-24166Y-145001D01*
X-25832D01*
X-26665Y-145834D01*
Y-149166D01*
X-25832Y-149999D01*
X-24166D01*
X-23333Y-149166D01*
X-21667Y-145834D02*
X-20834Y-145001D01*
X-19168D01*
X-18335Y-145834D01*
Y-146667D01*
X-19168Y-147500D01*
X-18335Y-148333D01*
Y-149166D01*
X-19168Y-149999D01*
X-20834D01*
X-21667Y-149166D01*
Y-148333D01*
X-20834Y-147500D01*
X-21667Y-146667D01*
Y-145834D01*
X-20834Y-147500D02*
X-19168D01*
X-199325Y-94239D02*
Y-89241D01*
X-196826D01*
X-195993Y-90074D01*
Y-91740D01*
X-196826Y-92573D01*
X-199325D01*
X-197659D02*
X-195993Y-94239D01*
X-194327D02*
X-192661D01*
X-193494D01*
Y-89241D01*
X-194327Y-90074D01*
X-201103Y-79253D02*
Y-74255D01*
X-198604D01*
X-197771Y-75088D01*
Y-76754D01*
X-198604Y-77587D01*
X-201103D01*
X-199437D02*
X-197771Y-79253D01*
X-192773D02*
X-196105D01*
X-192773Y-75921D01*
Y-75088D01*
X-193606Y-74255D01*
X-195272D01*
X-196105Y-75088D01*
X-201103Y-123195D02*
Y-118197D01*
X-198604D01*
X-197771Y-119030D01*
Y-120696D01*
X-198604Y-121529D01*
X-201103D01*
X-199437D02*
X-197771Y-123195D01*
X-196105Y-119030D02*
X-195272Y-118197D01*
X-193606D01*
X-192773Y-119030D01*
Y-119863D01*
X-193606Y-120696D01*
X-194439D01*
X-193606D01*
X-192773Y-121529D01*
Y-122362D01*
X-193606Y-123195D01*
X-195272D01*
X-196105Y-122362D01*
X-201103Y-50297D02*
Y-45299D01*
X-198604D01*
X-197771Y-46132D01*
Y-47798D01*
X-198604Y-48631D01*
X-201103D01*
X-199437D02*
X-197771Y-50297D01*
X-193606D02*
Y-45299D01*
X-196105Y-47798D01*
X-192773D01*
X-201103Y-108717D02*
Y-103719D01*
X-198604D01*
X-197771Y-104552D01*
Y-106218D01*
X-198604Y-107051D01*
X-201103D01*
X-199437D02*
X-197771Y-108717D01*
X-192773Y-103719D02*
X-196105D01*
Y-106218D01*
X-194439Y-105385D01*
X-193606D01*
X-192773Y-106218D01*
Y-107884D01*
X-193606Y-108717D01*
X-195272D01*
X-196105Y-107884D01*
X-201103Y-64775D02*
Y-59777D01*
X-198604D01*
X-197771Y-60610D01*
Y-62276D01*
X-198604Y-63109D01*
X-201103D01*
X-199437D02*
X-197771Y-64775D01*
X-192773Y-59777D02*
X-194439Y-60610D01*
X-196105Y-62276D01*
Y-63942D01*
X-195272Y-64775D01*
X-193606D01*
X-192773Y-63942D01*
Y-63109D01*
X-193606Y-62276D01*
X-196105D01*
X-201103Y-137673D02*
Y-132675D01*
X-198604D01*
X-197771Y-133508D01*
Y-135174D01*
X-198604Y-136007D01*
X-201103D01*
X-199437D02*
X-197771Y-137673D01*
X-196105Y-132675D02*
X-192773D01*
Y-133508D01*
X-196105Y-136840D01*
Y-137673D01*
X-201103Y-35819D02*
Y-30821D01*
X-198604D01*
X-197771Y-31654D01*
Y-33320D01*
X-198604Y-34153D01*
X-201103D01*
X-199437D02*
X-197771Y-35819D01*
X-196105Y-31654D02*
X-195272Y-30821D01*
X-193606D01*
X-192773Y-31654D01*
Y-32487D01*
X-193606Y-33320D01*
X-192773Y-34153D01*
Y-34986D01*
X-193606Y-35819D01*
X-195272D01*
X-196105Y-34986D01*
Y-34153D01*
X-195272Y-33320D01*
X-196105Y-32487D01*
Y-31654D01*
X-195272Y-33320D02*
X-193606D01*
X-354006Y59476D02*
Y64474D01*
X-352340Y62808D01*
X-350674Y64474D01*
Y59476D01*
X-349008Y64474D02*
Y59476D01*
X-346509D01*
X-345676Y60309D01*
Y63641D01*
X-346509Y64474D01*
X-349008D01*
X-344010Y59476D02*
X-342344D01*
X-343177D01*
Y64474D01*
X-344010Y63641D01*
M02*
