M48
;Layer_Color=9474304
;FILE_FORMAT=4:4
METRIC,LZ
;TYPE=PLATED
T1F00S00C1.0000
T2F00S00C1.0160
T3F00S00C1.0200
%
T01
X-00621538Y-00186514
X-00596138
X-00570738
X-00545338
X-00519938
X-00494538
X-00469138
X-00443738
Y00219886
X-00469138
X-00494538
X-00519938
X-00545338
X-00570738
X-00596138
X-00621538
X-00646938
X-00672338
X-00418338
X-00392938
T02
X-00123698Y00094156
Y00119556
Y00144956
Y00170356
Y00195756
Y00221156
T03
X00099822Y00102086
Y00127486
Y00152886
Y00178286
Y00203686
X00060452
Y00178286
Y00152886
X00140462Y00203376
X-00175768Y00203686
Y00178286
Y00152886
Y00127486
Y00102086
Y00076686
X-00216408
Y00102086
Y00127486
Y00152886
Y00178286
Y00203686
X-00255778Y00205916
Y00180516
Y00155116
Y00129716
Y00104316
Y00078916
Y00053516
Y00028116
Y00002716
Y-00022684
Y-00048084
X-00216408Y00051286
Y00229086
X-00175768
X-00255778Y00231316
X00060452Y00229086
X00099822
X00140462Y00228776
M30
