G04*
G04 #@! TF.GenerationSoftware,Altium Limited,Altium Designer,22.5.1 (42)*
G04*
G04 Layer_Color=65535*
%FSLAX44Y44*%
%MOMM*%
G71*
G04*
G04 #@! TF.SameCoordinates,428DBBA7-CA38-4E35-A069-69FE0EE86696*
G04*
G04*
G04 #@! TF.FilePolarity,Positive*
G04*
G01*
G75*
%ADD10C,0.2500*%
%ADD11C,0.6000*%
%ADD12C,0.1000*%
%ADD13C,0.2000*%
%ADD14C,0.0500*%
G36*
X-689038Y-195404D02*
X-678878Y-205564D01*
X-689038D01*
Y-195404D01*
D02*
G37*
G36*
X-684728Y233136D02*
X-688538D01*
Y229326D01*
X-684728Y233136D01*
D02*
G37*
G36*
X-633928Y-173264D02*
X-637738D01*
Y-177074D01*
X-633928Y-173264D01*
D02*
G37*
G36*
X-268278Y-58474D02*
Y-62284D01*
X-264468D01*
X-268278Y-58474D01*
D02*
G37*
G36*
X-229658Y38896D02*
Y35086D01*
X-225848D01*
X-229658Y38896D01*
D02*
G37*
G36*
X-189018Y64296D02*
Y60486D01*
X-185208D01*
X-189018Y64296D01*
D02*
G37*
G36*
X-149098Y69772D02*
Y85012D01*
X-133858Y69772D01*
X-149098D01*
D02*
G37*
G36*
X47202Y140496D02*
Y136686D01*
X51012D01*
X47202Y140496D01*
D02*
G37*
G36*
X86572Y89696D02*
Y85886D01*
X90382D01*
X86572Y89696D01*
D02*
G37*
G36*
X127212Y190986D02*
Y187176D01*
X131022D01*
X127212Y190986D01*
D02*
G37*
D10*
X-36448Y145866D02*
G03*
X-36448Y145866I-1250J0D01*
G01*
X-347818Y242356D02*
G03*
X-347818Y242356I-1250J0D01*
G01*
D11*
X-324818Y229756D02*
G03*
X-324818Y229756I-3000J0D01*
G01*
D12*
X127212Y244976D02*
X153712D01*
Y187176D02*
Y244976D01*
X133562Y187176D02*
X153712D01*
X127212Y193526D02*
Y244976D01*
Y193526D02*
X133562Y187176D01*
X127212Y190986D02*
X131022Y187176D01*
X127212D02*
X131022D01*
X127212D02*
Y190986D01*
X86572Y245286D02*
X113072D01*
X86572Y85886D02*
Y89696D01*
Y85886D02*
X90382D01*
X86572Y89696D02*
X90382Y85886D01*
X86572Y92236D02*
X92922Y85886D01*
X86572Y92236D02*
Y245286D01*
X92922Y85886D02*
X113072D01*
X113072D02*
Y245286D01*
X47202D02*
X73702D01*
X47202Y136686D02*
Y140496D01*
Y136686D02*
X51012D01*
X47202Y140496D02*
X51012Y136686D01*
X47202Y143036D02*
X53552Y136686D01*
X47202Y143036D02*
Y245286D01*
X53552Y136686D02*
X73702D01*
X73702D02*
Y245286D01*
X-149098Y245540D02*
X-53594D01*
Y69772D02*
Y245540D01*
X-129098Y69772D02*
X-53594D01*
X-149098Y89772D02*
Y245540D01*
Y89772D02*
X-129098Y69772D01*
X-149098D02*
X-133858D01*
X-149098Y85012D02*
X-133858Y69772D01*
X-149098D02*
Y85012D01*
X-189018Y245286D02*
X-162518D01*
Y60486D02*
Y245286D01*
X-182668Y60486D02*
X-162518D01*
X-189018Y66836D02*
Y245286D01*
Y66836D02*
X-182668Y60486D01*
X-189018Y64296D02*
X-185208Y60486D01*
X-189018D02*
X-185208D01*
X-189018D02*
Y64296D01*
X-229658Y35086D02*
Y38896D01*
Y35086D02*
X-225848D01*
X-229658Y38896D02*
X-225848Y35086D01*
X-229658Y41436D02*
X-223308Y35086D01*
X-229658Y41436D02*
Y245286D01*
X-223308Y35086D02*
X-203158D01*
X-203158D02*
Y245286D01*
X-229658D02*
X-203158D01*
X-261928Y-62284D02*
X-243278D01*
Y245516D01*
X-268278Y-55934D02*
Y245516D01*
Y-55934D02*
X-261928Y-62284D01*
X-268278Y-58474D02*
X-264468Y-62284D01*
X-268278D02*
X-264468D01*
X-268278D02*
Y-58474D01*
Y245516D02*
X-243278D01*
X-637738Y-173264D02*
X-633928D01*
X-637738Y-177074D02*
Y-173264D01*
Y-177074D02*
X-633928Y-173264D01*
X-637738Y-179614D02*
X-631388Y-173264D01*
X-427538D01*
X-637738Y-199764D02*
X-637738Y-179614D01*
X-637738Y-199764D02*
X-427538D01*
Y-173264D01*
X-689038Y-192864D02*
Y245286D01*
X-676338Y-205564D02*
X-376238D01*
Y245286D01*
X-689038D02*
X-376238D01*
X-689038Y-192864D02*
X-676338Y-205564D01*
X-689038Y-195404D02*
X-678878Y-205564D01*
X-689038D02*
X-678878D01*
X-689038D02*
Y-195404D01*
X-688538Y206636D02*
X-376738D01*
X-688538Y233136D02*
X-684728D01*
X-688538Y229326D02*
Y233136D01*
Y229326D02*
X-684728Y233136D01*
X-688538Y226786D02*
X-682188Y233136D01*
X-376738D01*
X-688538Y206636D02*
X-688538Y226786D01*
X-376738Y206636D02*
Y233136D01*
X127762Y251636D02*
Y256634D01*
X130261D01*
X131094Y255801D01*
Y254135D01*
X130261Y253302D01*
X127762D01*
X132760Y255801D02*
X133593Y256634D01*
X135259D01*
X136092Y255801D01*
Y254968D01*
X134426Y253302D01*
Y252469D02*
Y251636D01*
X87122Y251890D02*
Y256888D01*
X89621D01*
X90454Y256055D01*
Y254389D01*
X89621Y253556D01*
X87122D01*
X92120Y256055D02*
X92953Y256888D01*
X94619D01*
X95452Y256055D01*
Y255222D01*
X93786Y253556D01*
Y252723D02*
Y251890D01*
X47752D02*
Y256888D01*
X50251D01*
X51084Y256055D01*
Y254389D01*
X50251Y253556D01*
X47752D01*
X52750Y256055D02*
X53583Y256888D01*
X55249D01*
X56082Y256055D01*
Y255222D01*
X54416Y253556D01*
Y252723D02*
Y251890D01*
X-39116Y256126D02*
Y251128D01*
X-36617D01*
X-35784Y251961D01*
Y255293D01*
X-36617Y256126D01*
X-39116D01*
X-34118D02*
Y251961D01*
X-33285Y251128D01*
X-31619D01*
X-30786Y251961D01*
Y256126D01*
X-29120Y255293D02*
X-28287Y256126D01*
X-26620D01*
X-25787Y255293D01*
Y254460D01*
X-27453Y252794D01*
Y251961D02*
Y251128D01*
X-148590Y252144D02*
Y257142D01*
X-146091D01*
X-145258Y256309D01*
Y254643D01*
X-146091Y253810D01*
X-148590D01*
X-143592Y256309D02*
X-142759Y257142D01*
X-141093D01*
X-140260Y256309D01*
Y255476D01*
X-141926Y253810D01*
Y252977D02*
Y252144D01*
X-188468Y251890D02*
Y256888D01*
X-185969D01*
X-185136Y256055D01*
Y254389D01*
X-185969Y253556D01*
X-188468D01*
X-183470Y256055D02*
X-182637Y256888D01*
X-180971D01*
X-180138Y256055D01*
Y255222D01*
X-181804Y253556D01*
Y252723D02*
Y251890D01*
X-229108D02*
Y256888D01*
X-226609D01*
X-225776Y256055D01*
Y254389D01*
X-226609Y253556D01*
X-229108D01*
X-224110Y256055D02*
X-223277Y256888D01*
X-221611D01*
X-220778Y256055D01*
Y255222D01*
X-222444Y253556D01*
Y252723D02*
Y251890D01*
X-267716Y252144D02*
Y257142D01*
X-265217D01*
X-264384Y256309D01*
Y254643D01*
X-265217Y253810D01*
X-267716D01*
X-262718Y256309D02*
X-261885Y257142D01*
X-260219D01*
X-259386Y256309D01*
Y255476D01*
X-261052Y253810D01*
Y252977D02*
Y252144D01*
X-361696Y255872D02*
Y251707D01*
X-360863Y250874D01*
X-359197D01*
X-358364Y251707D01*
Y255872D01*
X-356698Y255039D02*
X-355865Y255872D01*
X-354199D01*
X-353366Y255039D01*
Y254206D01*
X-355032Y252540D01*
Y251707D02*
Y250874D01*
X-688594Y251890D02*
Y256888D01*
X-686928Y255222D01*
X-685262Y256888D01*
Y251890D01*
X-683596Y256888D02*
Y251890D01*
X-681097D01*
X-680264Y252723D01*
Y256055D01*
X-681097Y256888D01*
X-683596D01*
X-678598Y256055D02*
X-677765Y256888D01*
X-676098D01*
X-675265Y256055D01*
Y255222D01*
X-676932Y253556D01*
Y252723D02*
Y251890D01*
D13*
X30452Y165366D02*
Y174366D01*
X-36548Y165366D02*
X30452D01*
X-36548D02*
Y174366D01*
X-337818Y151756D02*
Y239756D01*
X-305818Y151756D02*
Y239756D01*
X-337818D02*
X-305818D01*
X-337818Y151756D02*
X-305818D01*
D14*
X-39298Y128866D02*
Y244866D01*
X33202D01*
Y128866D02*
Y244866D01*
X-39298Y128866D02*
X33202D01*
M02*
