G04*
G04 #@! TF.GenerationSoftware,Altium Limited,Altium Designer,22.5.1 (42)*
G04*
G04 Layer_Color=8388736*
%FSLAX44Y44*%
%MOMM*%
G71*
G04*
G04 #@! TF.SameCoordinates,428DBBA7-CA38-4E35-A069-69FE0EE86696*
G04*
G04*
G04 #@! TF.FilePolarity,Negative*
G04*
G01*
G75*
%ADD18R,5.7532X6.6032*%
%ADD19R,1.4532X3.2032*%
%ADD20O,2.2032X0.8032*%
%ADD21C,2.2032*%
%ADD22R,2.2352X2.2352*%
%ADD23C,2.2352*%
%ADD24O,2.2032X3.2032*%
%ADD25O,3.0032X2.2032*%
%ADD26R,2.2032X2.2032*%
D18*
X-3048Y210366D02*
D03*
D19*
X19852Y145866D02*
D03*
X-25948D02*
D03*
D20*
X-351568Y233856D02*
D03*
Y221156D02*
D03*
Y208456D02*
D03*
Y195756D02*
D03*
Y183056D02*
D03*
Y170356D02*
D03*
Y157656D02*
D03*
X-292068Y221156D02*
D03*
Y208456D02*
D03*
Y195756D02*
D03*
Y183056D02*
D03*
Y170356D02*
D03*
Y157656D02*
D03*
Y233856D02*
D03*
D21*
X140462Y203376D02*
D03*
Y228776D02*
D03*
X99822Y229086D02*
D03*
Y203686D02*
D03*
Y178286D02*
D03*
Y152886D02*
D03*
Y127486D02*
D03*
Y102086D02*
D03*
X60452Y229086D02*
D03*
Y203686D02*
D03*
Y178286D02*
D03*
Y152886D02*
D03*
X-175768Y76686D02*
D03*
Y102086D02*
D03*
Y127486D02*
D03*
Y152886D02*
D03*
Y178286D02*
D03*
Y203686D02*
D03*
Y229086D02*
D03*
X-216408D02*
D03*
Y203686D02*
D03*
Y178286D02*
D03*
Y152886D02*
D03*
Y127486D02*
D03*
Y102086D02*
D03*
Y76686D02*
D03*
Y51286D02*
D03*
X-596138Y-186514D02*
D03*
X-443738D02*
D03*
X-519938D02*
D03*
X-545338D02*
D03*
X-570738D02*
D03*
X-469138D02*
D03*
X-494538D02*
D03*
D22*
X-123698Y94156D02*
D03*
D23*
Y119556D02*
D03*
Y195756D02*
D03*
Y170356D02*
D03*
Y144956D02*
D03*
Y221156D02*
D03*
D24*
X-255778Y-42984D02*
D03*
Y-27784D02*
D03*
Y7816D02*
D03*
Y23016D02*
D03*
Y58616D02*
D03*
Y73816D02*
D03*
Y109416D02*
D03*
Y124616D02*
D03*
Y160216D02*
D03*
Y175416D02*
D03*
Y211016D02*
D03*
Y226216D02*
D03*
D25*
X-652438Y219886D02*
D03*
X-666838D02*
D03*
X-500038D02*
D03*
X-449238D02*
D03*
X-463638D02*
D03*
X-616038D02*
D03*
X-601638D02*
D03*
X-550838D02*
D03*
X-565238D02*
D03*
X-514438D02*
D03*
X-398438D02*
D03*
X-412838D02*
D03*
D26*
X-621538Y-186514D02*
D03*
M02*
