G04*
G04 #@! TF.GenerationSoftware,Altium Limited,Altium Designer,22.5.1 (42)*
G04*
G04 Layer_Color=16711935*
%FSLAX44Y44*%
%MOMM*%
G71*
G04*
G04 #@! TF.SameCoordinates,428DBBA7-CA38-4E35-A069-69FE0EE86696*
G04*
G04*
G04 #@! TF.FilePolarity,Positive*
G04*
G01*
G75*
%ADD33C,0.0127*%
D33*
X-592968Y484019D02*
G03*
X-628323Y469374I0J-50000D01*
G01*
X166333D02*
G03*
X130977Y484019I-35355J-35355D01*
G01*
X692884Y-77888D02*
G03*
X678240Y-42533I-50000J0D01*
G01*
Y-837189D02*
G03*
X692884Y-801834I-35355J35355D01*
G01*
X130977Y-1363741D02*
G03*
X166333Y-1349096I0J50000D01*
G01*
X-628323D02*
G03*
X-592968Y-1363741I35355J35355D01*
G01*
X-1154875Y-801834D02*
G03*
X-1140230Y-837189I50000J0D01*
G01*
Y-42533D02*
G03*
X-1154875Y-77888I35355J-35355D01*
G01*
X-563042Y404019D02*
G03*
X-563042Y404019I-17500J0D01*
G01*
X136051D02*
G03*
X136051Y404019I-17500J0D01*
G01*
X630384Y-90315D02*
G03*
X630384Y-90315I-17500J0D01*
G01*
Y-789407D02*
G03*
X630384Y-789407I-17500J0D01*
G01*
X136051Y-1283741D02*
G03*
X136051Y-1283741I-17500J0D01*
G01*
X-563042D02*
G03*
X-563042Y-1283741I-17500J0D01*
G01*
X-1057375Y-789407D02*
G03*
X-1057375Y-789407I-17500J0D01*
G01*
Y-90315D02*
G03*
X-1057375Y-90315I-17500J0D01*
G01*
X-57429Y-283795D02*
G03*
X-57429Y-283795I-17500J0D01*
G01*
Y-595927D02*
G03*
X-57429Y-595927I-17500J0D01*
G01*
X-369561D02*
G03*
X-369561Y-595927I-17500J0D01*
G01*
Y-283795D02*
G03*
X-369561Y-283795I-17500J0D01*
G01*
X-592968Y484019D02*
X130977D01*
X166333Y469374D02*
X678240Y-42533D01*
X692884Y-801834D02*
Y-77888D01*
X166333Y-1349096D02*
X678240Y-837189D01*
X-592968Y-1363741D02*
X130977D01*
X-1140230Y-837189D02*
X-628323Y-1349096D01*
X-1154875Y-801834D02*
Y-77888D01*
X-1140230Y-42533D02*
X-628323Y469374D01*
X-180995Y-319150D02*
X-110285Y-389861D01*
X-280995Y-319150D02*
X-180995D01*
X-351706Y-389861D02*
X-280995Y-319150D01*
X-351706Y-489861D02*
Y-389861D01*
Y-489861D02*
X-280995Y-560572D01*
X-180995D01*
X-110285Y-489861D01*
Y-389861D01*
M02*
