G04*
G04 #@! TF.GenerationSoftware,Altium Limited,Altium Designer,22.5.1 (42)*
G04*
G04 Layer_Color=2752767*
%FSLAX44Y44*%
%MOMM*%
G71*
G04*
G04 #@! TF.SameCoordinates,428DBBA7-CA38-4E35-A069-69FE0EE86696*
G04*
G04*
G04 #@! TF.FilePolarity,Positive*
G04*
G01*
G75*
%ADD34C,0.0508*%
%ADD35C,0.0677*%
D34*
X138430Y201344D02*
Y205408D01*
X142494D01*
Y201344D01*
X138430D01*
Y226744D02*
Y230808D01*
X142494D01*
Y226744D01*
X138430D01*
X97790Y227054D02*
Y231118D01*
X101854D01*
Y227054D01*
X97790D01*
Y201654D02*
Y205718D01*
X101854D01*
Y201654D01*
X97790D01*
Y176254D02*
Y180318D01*
X101854D01*
Y176254D01*
X97790D01*
Y150854D02*
Y154918D01*
X101854D01*
Y150854D01*
X97790D01*
Y125454D02*
Y129518D01*
X101854D01*
Y125454D01*
X97790D01*
Y100054D02*
Y104118D01*
X101854D01*
Y100054D01*
X97790D01*
X58420Y227054D02*
Y231118D01*
X62484D01*
Y227054D01*
X58420D01*
Y201654D02*
Y205718D01*
X62484D01*
Y201654D01*
X58420D01*
Y176254D02*
Y180318D01*
X62484D01*
Y176254D01*
X58420D01*
Y150854D02*
Y154918D01*
X62484D01*
Y150854D01*
X58420D01*
X-177800Y74654D02*
Y78718D01*
X-173736D01*
Y74654D01*
X-177800D01*
Y100054D02*
Y104118D01*
X-173736D01*
Y100054D01*
X-177800D01*
Y125454D02*
Y129518D01*
X-173736D01*
Y125454D01*
X-177800D01*
Y150854D02*
Y154918D01*
X-173736D01*
Y150854D01*
X-177800D01*
Y176254D02*
Y180318D01*
X-173736D01*
Y176254D01*
X-177800D01*
Y201654D02*
Y205718D01*
X-173736D01*
Y201654D01*
X-177800D01*
Y227054D02*
Y231118D01*
X-173736D01*
Y227054D01*
X-177800D01*
X-218440D02*
Y231118D01*
X-214376D01*
Y227054D01*
X-218440D01*
Y201654D02*
Y205718D01*
X-214376D01*
Y201654D01*
X-218440D01*
Y176254D02*
Y180318D01*
X-214376D01*
Y176254D01*
X-218440D01*
Y150854D02*
Y154918D01*
X-214376D01*
Y150854D01*
X-218440D01*
Y125454D02*
Y129518D01*
X-214376D01*
Y125454D01*
X-218440D01*
Y100054D02*
Y104118D01*
X-214376D01*
Y100054D01*
X-218440D01*
Y74654D02*
Y78718D01*
X-214376D01*
Y74654D01*
X-218440D01*
Y49254D02*
Y53318D01*
X-214376D01*
Y49254D01*
X-218440D01*
X-257810Y-50116D02*
Y-46052D01*
X-253746D01*
Y-50116D01*
X-257810D01*
Y-24716D02*
Y-20652D01*
X-253746D01*
Y-24716D01*
X-257810D01*
Y684D02*
Y4748D01*
X-253746D01*
Y684D01*
X-257810D01*
Y26084D02*
Y30148D01*
X-253746D01*
Y26084D01*
X-257810D01*
Y51484D02*
Y55548D01*
X-253746D01*
Y51484D01*
X-257810D01*
Y76884D02*
Y80948D01*
X-253746D01*
Y76884D01*
X-257810D01*
Y102284D02*
Y106348D01*
X-253746D01*
Y102284D01*
X-257810D01*
Y127684D02*
Y131748D01*
X-253746D01*
Y127684D01*
X-257810D01*
Y153084D02*
Y157148D01*
X-253746D01*
Y153084D01*
X-257810D01*
Y178484D02*
Y182548D01*
X-253746D01*
Y178484D01*
X-257810D01*
Y203884D02*
Y207948D01*
X-253746D01*
Y203884D01*
X-257810D01*
Y229284D02*
Y233348D01*
X-253746D01*
Y229284D01*
X-257810D01*
X-646938Y217854D02*
X-648970Y221918D01*
X-644906D01*
X-646938Y217854D01*
X-672338D02*
X-674370Y221918D01*
X-670306D01*
X-672338Y217854D01*
X-494538D02*
X-496570Y221918D01*
X-492506D01*
X-494538Y217854D01*
X-443738D02*
X-445770Y221918D01*
X-441706D01*
X-443738Y217854D01*
X-469138D02*
X-471170Y221918D01*
X-467106D01*
X-469138Y217854D01*
X-621538D02*
X-623570Y221918D01*
X-619506D01*
X-621538Y217854D01*
X-596138D02*
X-598170Y221918D01*
X-594106D01*
X-596138Y217854D01*
X-545338D02*
X-547370Y221918D01*
X-543306D01*
X-545338Y217854D01*
X-570738D02*
X-572770Y221918D01*
X-568706D01*
X-570738Y217854D01*
X-519938D02*
X-521970Y221918D01*
X-517906D01*
X-519938Y217854D01*
X-392938D02*
X-394970Y221918D01*
X-390906D01*
X-392938Y217854D01*
X-418338D02*
X-420370Y221918D01*
X-416306D01*
X-418338Y217854D01*
X-596138Y-188546D02*
X-598170Y-184482D01*
X-594106D01*
X-596138Y-188546D01*
X-443738D02*
X-445770Y-184482D01*
X-441706D01*
X-443738Y-188546D01*
X-519938D02*
X-521970Y-184482D01*
X-517906D01*
X-519938Y-188546D01*
X-545338D02*
X-547370Y-184482D01*
X-543306D01*
X-545338Y-188546D01*
X-570738D02*
X-572770Y-184482D01*
X-568706D01*
X-570738Y-188546D01*
X-469138D02*
X-471170Y-184482D01*
X-467106D01*
X-469138Y-188546D01*
X-494538D02*
X-496570Y-184482D01*
X-492506D01*
X-494538Y-188546D01*
X-621538D02*
X-623570Y-184482D01*
X-619506D01*
X-621538Y-188546D01*
D35*
X-121666Y94156D02*
G03*
X-121666Y94156I-2032J0D01*
G01*
Y119556D02*
G03*
X-121666Y119556I-2032J0D01*
G01*
Y195756D02*
G03*
X-121666Y195756I-2032J0D01*
G01*
Y170356D02*
G03*
X-121666Y170356I-2032J0D01*
G01*
Y144956D02*
G03*
X-121666Y144956I-2032J0D01*
G01*
Y221156D02*
G03*
X-121666Y221156I-2032J0D01*
G01*
M02*
