M48
;Layer_Color=9474304
;FILE_FORMAT=4:4
METRIC,LZ
;TYPE=PLATED
T1F00S00C0.3000
T2F00S00C0.5000
T3F00S00C1.0000
T4F00S00C1.0200
%
T01
X0005095Y000012
X00045755Y0002665
X0004085Y000523
X000512Y0006495
X001067Y0007645
X0010645Y000392
X0010145Y0000145
X001927Y000077
X0019268Y0002222
X0019268Y0006572
Y0007972
X00170636Y0015202
X001057Y001257
T02
X0031315Y-0001786
X0031061Y0007866
X003467Y0018545
X0023493Y0015297
T03
X0Y-000508
Y-000254
Y0
Y000254
Y000508
Y000762
Y001016
Y00127
X004064
Y001524
Y001778
Y001016
Y000762
Y000508
Y000254
Y0
Y-000254
Y-000508
Y-000762
Y-001016
T04
X000254Y-001016
X000508
X000762
X001016
X000254Y0
Y000254
Y000508
Y000762
Y001016
Y00127
Y001524
X00381
Y001778
Y00127
Y001016
Y000762
Y000508
Y000254
Y0
Y-000254
Y-000508
Y-000762
Y-001016
M30
