M48
;Layer_Color=9474304
;FILE_FORMAT=4:4
METRIC,LZ
;TYPE=PLATED
T1F00S00C0.3000
T2F00S00C1.0000
T3F00S00C1.0200
%
T01
X-00360225Y-00239775
X-00350225
X-00340225
X-00345225Y-00229775
X-00355225
X-00360225Y-00219775
X-00350225
X-00340225Y-00219775
X-00340225Y-00219775
X-00335225Y-00209775
X-00345225
X-00355225
X-00360225Y-00199775
X-00350225
X-00340225
X-00330225
X-00335225Y-00189775
Y-00169775
X-00330225Y-00159775
X-00317425Y-00154475
X-00302425Y-00178725
X-00310225Y-00239775
X-00260225
X-00230225
X-00220225
X-00210225
X-00200225
X-00190225
X-00180225
X-00170225
X-00160225
X-00150225
X-00140225
X-00130225
X-00120225
X-00110225
X-00100225
X-00090225
X-00080225
X-00070225
X-00060225
X-00050225
X-00040225
X-00030225
X-00020225
X-00010225
X-00000225
X00009775
X-00010225Y-00219775
X-00040225
X-00070225
X-00100225Y-00219775
X-00100225Y-00219775
X-00110225Y-00219775
X-00120225
X-00115225Y-00229775
X-00105225
X-00125225
X-00145225
X-00155225
X-00165225
X-00160225Y-00219775
X-00160225Y-00219775
X-00150225
X-00140225
X-00145225Y-00189775
X-001299Y-0017615
Y-0016345
Y-0015075
X-001172
Y-0013805
X-001045
Y-0015075
Y-0016345
X-001172
Y-0017615
X-001045
X-000918
Y-0016345
Y-0015075
Y-0013805
X-000791
Y-0015075
Y-0016345
Y-0017615
X-00085225Y-00189775
X-00115225
X-00175225
X-00205225
X-00235225
X-00220225Y-00159775
X-00190225
X-00160225
X-00155475Y-00120775
X-00155495Y-00106255
X-00145225Y-00129775
X-001299Y-0013805
X-00100225Y-00099775
X-00070225
X-00040225
X-0000725Y-0009675
Y-0010475
X0000675
Y-0009675
Y-00053
Y-00045
X-0000725
Y-00053
X00019775Y-00039775
X0000675Y-0000375
Y0000425
X-0000725
Y-0000375
Y0001975
Y0002775
X0000675
Y0001975
X-00025225Y-00009775
X-00055225
X-00085225
X-000791Y-0003135
X-000918
X-001045
X-001172
Y-0004405
X-001299
Y-0005675
X-001172
X-001045
Y-0004405
X-000918
Y-0005675
X-000791
Y-0004405
Y-0006945
X-000918
X-001045
X-001172
X-001299
X-00155495Y-00062755
Y-00048755
X-001299Y-0003135
X-00115225Y-00009775
X-00145225
X-00175225
X-00205225
X-00235225
X-00242475Y-00002775
X-00265225Y-00009775
X-00295225
X-00280225Y-00039775
X-00310225
X-00360225Y-00039775
Y00020225
X-00350225
X-00340225
X-00340225Y00020225
X-00345225Y00030225
X-00355225
X-00360225Y00040225
X-00350225
X-00340225
X-00330225
X-00320225
X-00325225Y00050225
X-00325225Y00050225
X-00335225
X-00345225
X-00355225
X-00360225Y00060225
X-00350225
X-00340225
X-00330225
X-00320225
X-00310225
X-00300225
X-00290225
X-00280225
X-00270225
X-00260225
X-00250225
X-00240225
X-00230225
X-00220225
X-00210225
X-00200225
X-00190225
X-00180225
X-00170225
X-00160225
X-00150225
X-00140225
X-00130225
X-00120225
X-00110225
X-00100225
X-00090225
X-00080225
X-00070225
X-00060225
X-00050225
X-00040225
X-00055225Y00050225
X-00085225
X-00105225Y00050225
X-00115225
X-00115225Y00050225
X-00125225Y00050225
X-00135225
X-00145225
X-00145225Y00050225
X-00155225Y00050225
X-00160225Y00040225
X-00150225
X-00140225
X-0011175Y0003175
Y0002375
X-0009775
Y0003175
X-00160225Y00020225
X-00190225
X-00208Y0001975
Y0002775
X-00222
Y0001975
X-00235225Y00050225
X-00205225
X-00175225
X-00265225
X-00295225
X-00265225Y-00069775
X-00235225
X-00235225Y-00069775
X-00240225Y-00059775
Y-00079775
X-00235225Y-00089775
X-00240225Y-00099775
X-00235225Y-00109775
X-00240225Y-00119775
X-0020355Y-000891
X-00220225Y-00039775
X-00040225
Y-00159775
X-00007Y-001575
Y-001495
X00007
Y-001575
X-00190225Y-00219775
X-00220225
X-00360225Y-00139775
Y-00119775
X00074775Y-00109775
Y-00089775
Y-00069775
Y-00049775
X00069775Y-00039775
X00074775Y-00029775
Y-00009775
Y00010225
Y00030225
Y00050225
X00069775Y00060225
X00074775Y-00129775
X00069775Y-00139775
X00074775Y-00149775
Y-00169775
Y-00189775
Y-00209775
Y-00229775
X00069775Y-00239775
T02
X-00348175Y-00179275
Y-00153875
Y-00128475
Y-00103075
Y-00077675
Y-00052275
Y-00026875
Y-00001475
X00058225
Y00023925
Y00049325
Y-00026875
Y-00052275
Y-00077675
Y-00103075
Y-00128475
Y-00153875
Y-00179275
Y-00204675
Y-00230075
T03
X-00322775Y-00230075
X-00297375
X-00271975
X-00246575
X-00322775Y-00128475
Y-00103075
Y-00077675
Y-00052275
Y-00026875
Y-00001475
Y00023925
X00032825
Y00049325
Y-00001475
Y-00026875
Y-00052275
Y-00077675
Y-00103075
Y-00128475
Y-00153875
Y-00179275
Y-00204675
Y-00230075
M30
