M48
;Layer_Color=9474304
;FILE_FORMAT=4:4
METRIC,LZ
;TYPE=PLATED
T1F00S00C0.3000
T2F00S00C0.5000
T3F00S00C1.0000
T4F00S00C1.0200
%
T01
X-0000935Y-001086
X0000335
X000097Y-000959
X-00003
X0000335Y-000832
X0001605
X000097Y-000705
X-00003
X-0000935Y-000832
X0004145
X000351Y-000705
X0004145Y-000578
X0004575Y-0005025
X000351Y-000451
X0003075Y-00026
X0001605Y-000324
Y-000578
X0006685
X000605Y-000451
X0006685Y-000324
X000605Y-000197
X0006685Y-00007
X0009225
X000859Y000057
X0009225Y000184
X000859Y000311
X001113
Y000565
X000986Y000819
X0011765Y000946
X0013035
X0014305
X001494Y001073
X001367
X00124
X0013035Y0012
X0014305
X0015575
X0016845
X0018115
X0019385
X0020655
X002002Y001327
X001875
X001748
X001621
X001494
X001367
X00124
X001113
X001057Y001257
X000986Y001327
X0010495Y001454
Y001708
X0011765
X0013035
X0014305
X0015575
X0016845
X0018115
X0019385
X0020655
X002129Y001835
X002256
X002383
X00251
X002637
X002764
X002891
X003018
X003145
X003272
X0033355Y001708
X0034625
X0032085
X0030815
X0029545
X0028275
X0027005
X0025735
X0024465
X0023195
X002256Y001581
Y001327
X002383
X00251
X002637
X002764
X002891
X003018
X003145
X003272
X003399
X003526
X003653
X0035895Y0012
X0034625
X0033355
X0032085
X0030815
X0029545
X0028275
X0027005
X0025735
X0024465
X0023195
X0024465Y001454
X0020655
X0019385
X0018115
X00170636Y0015202
X001748Y001581
X001875
X002002
Y001835
X001875
X001748
X001621
X001494
X001367
X00124
X001113
X000986
X000859
X000732
X000605
X000478
X000351
X000224
X000097
X-00003
X0000335Y001708
X0001605
X0002875
X0004145
X0005415
X0006685
X0007955
X0009225
X000732Y001327
X000605
X000478
X0005415Y0012
X0006685
X0007955
X000732Y001073
X000605
X000478
X0005415Y000946
X0006685
X0007955
X0004145
Y0012
X0000335Y001454
X-0000935
X-00003Y001581
X000097
X-0000935Y001708
X0011765Y0012
X0015575Y001454
X001621Y001581
X001875Y001073
X0019385Y000946
X0019268Y0007972
Y0006572
X0019385Y000438
X0020655
X0023195
X0024465
X0025735
X0027005
X0028275
X0029545
X0030815
X0032085
X0033355
X0034625
X0035895
X003653Y000311
X003526
X003399
X003272
X003145
X003018
X002891
X002764
X002637
X00251
X0025735Y000184
X0027005
X0028275
X0029545
X0030815
X0032085
X0033355
X0034625
X0035895
Y-00007
X0034625
X003399Y-000197
X003272
X0032085Y-00007
X0030815
X0029545
X0028275
X002891Y-000197
X003018
X002764
Y000057
X0024465Y000184
X0020655
X0019268Y0002222
X001927Y000077
X0019385Y-00007
X001875Y-000197
X0019385Y-000324
X0018115
X0016845
X0015575
X0014305
X0013035
X0011765
X00124Y-000197
X001367
X001494
X0014305Y-00007
X0013035
X0011765
X001113Y-000197
Y-000451
X00124
X001367
X001494
X001621
X001748
X001875
X0019385Y-000578
X0020655
X002002Y-000705
X001875
X001748
X001621
X001494
X001367
X00124
X001113
X0011765Y-000578
X0013035
X0014305
X0015575
X0016845
X0018115
Y-000832
X0019385
X0020655
X002002Y-000959
X001875
X001748
X001621
X001494
X001367
X00124
X0013035Y-000832
X0014305
X0015575
X0016845
Y-001086
X0018115
X0019385
X0020655
X0021925
X0023195
X0024465
X0025735
X0027005
X0028275
X0029545
X0030815
X0032085
X0033355
X0034625
X0035895
X003653Y-000959
X003526
X003399
X003272
X003145
X003018
X002891
X002764
X002637
X00251
X002383
X002256
X0023195Y-000832
X0024465
X0025735
X0027005
X0028275
X0029545
X0030815
X0032085
X0033355
X0034625
X0035895
X003653Y-000705
X003526
X003399
X003272
X003145
X003018
X002891
X002764
X002637
X00251
X002383
X002256
X0023195Y-000578
X0024465
X0025735
X0027005
X0028275
X0029545
X0030815
X0032085
X0033355
X0034625
X0035895
X003653Y-000197
Y000819
X003526
X0034625Y000692
X0033355
X0032085
X0030815
X0029545
X0028275
X002891Y000819
X003018
X002764
Y001073
Y000565
Y-000451
X0015575Y-001086
X0014305
X0013035
X0011765
Y-000832
X0009225
X000859Y-000705
X0009225Y-000578
X000859Y-000451
X0009225Y-000324
X000859Y-000197
X000605Y-000705
X0006685Y-000832
X0005415Y000438
X00144625Y00039375
X001494Y000311
X0029545Y001454
X003653Y001835
X0042245Y001708
Y001454
Y0012
Y000946
Y000692
Y000438
Y000184
Y-00007
Y-000324
Y-000578
Y-000832
Y-001086
T02
X0031315Y-0001786
X0031061Y0007866
X003467Y0018545
X0023493Y0015297
T03
X0Y-000508
Y-000254
Y0
Y000254
Y000508
Y000762
Y001016
Y00127
X004064
Y001524
Y001778
Y001016
Y000762
Y000508
Y000254
Y0
Y-000254
Y-000508
Y-000762
Y-001016
T04
X000254Y-001016
X000508
X000762
X001016
X000254Y0
Y000254
Y000508
Y000762
Y001016
Y00127
Y001524
X00381
Y001778
Y00127
Y001016
Y000762
Y000508
Y000254
Y0
Y-000254
Y-000508
Y-000762
Y-001016
M30
