M48
;Layer_Color=9474304
;FILE_FORMAT=4:4
METRIC,LZ
;TYPE=PLATED
T1F00S00C1.0000
T2F00S00C1.0200
%
T01
X0002205Y000705
Y000959
Y001213
Y001467
Y001721
Y001975
Y002229
Y002483
X0042845
Y002229
Y001975
Y001721
Y001467
Y001213
Y000959
Y000705
Y000451
Y000197
Y002737
Y002991
T02
X0004745Y000197
X0007285
X0009825
X0012365
X0004745Y001213
Y001467
Y001721
Y001975
Y002229
Y002483
Y002737
X0040305
Y002483
Y002229
Y001975
Y001721
Y001467
Y001213
Y000959
Y000705
Y000451
Y000197
Y002991
M30
